G04 #@! TF.FileFunction,Copper,L2,Bot,Signal*
%FSLAX46Y46*%
G04 Gerber Fmt 4.6, Leading zero omitted, Abs format (unit mm)*
G04 Created by KiCad (PCBNEW 4.0.7) date 02/28/18 12:29:38*
%MOMM*%
%LPD*%
G01*
G04 APERTURE LIST*
%ADD10C,0.100000*%
%ADD11C,2.400000*%
%ADD12O,2.400000X2.400000*%
%ADD13R,1.600000X1.600000*%
%ADD14O,1.600000X1.600000*%
%ADD15C,1.524000*%
%ADD16R,1.900000X1.900000*%
%ADD17C,1.900000*%
%ADD18C,2.750000*%
%ADD19R,1.800000X1.800000*%
%ADD20O,1.800000X1.800000*%
%ADD21C,1.600000*%
%ADD22R,1.700000X1.700000*%
%ADD23O,1.700000X1.700000*%
%ADD24C,1.800000*%
%ADD25C,0.800000*%
%ADD26C,1.000000*%
%ADD27C,0.250000*%
%ADD28C,0.500000*%
G04 APERTURE END LIST*
D10*
D11*
X130810000Y-76200000D03*
D12*
X130810000Y-63500000D03*
D11*
X135890000Y-63500000D03*
D12*
X135890000Y-76200000D03*
D11*
X153670000Y-81280000D03*
D12*
X153670000Y-68580000D03*
D11*
X158750000Y-81280000D03*
D12*
X158750000Y-68580000D03*
D11*
X151130000Y-58420000D03*
D12*
X138430000Y-58420000D03*
D11*
X138430000Y-53340000D03*
D12*
X151130000Y-53340000D03*
D11*
X152400000Y-104140000D03*
D12*
X152400000Y-91440000D03*
D11*
X94615000Y-90170000D03*
D12*
X94615000Y-77470000D03*
D11*
X92075000Y-70485000D03*
D12*
X104775000Y-70485000D03*
D11*
X87630000Y-82550000D03*
D12*
X87630000Y-69850000D03*
D11*
X82550000Y-82550000D03*
D12*
X82550000Y-69850000D03*
D11*
X77470000Y-82550000D03*
D12*
X77470000Y-69850000D03*
D11*
X72390000Y-82550000D03*
D12*
X72390000Y-69850000D03*
D13*
X139700000Y-63500000D03*
D14*
X147320000Y-78740000D03*
X139700000Y-66040000D03*
X147320000Y-76200000D03*
X139700000Y-68580000D03*
X147320000Y-73660000D03*
X139700000Y-71120000D03*
X147320000Y-71120000D03*
X139700000Y-73660000D03*
X147320000Y-68580000D03*
X139700000Y-76200000D03*
X147320000Y-66040000D03*
X139700000Y-78740000D03*
X147320000Y-63500000D03*
D13*
X114300000Y-88900000D03*
D14*
X121920000Y-104140000D03*
X114300000Y-91440000D03*
X121920000Y-101600000D03*
X114300000Y-93980000D03*
X121920000Y-99060000D03*
X114300000Y-96520000D03*
X121920000Y-96520000D03*
X114300000Y-99060000D03*
X121920000Y-93980000D03*
X114300000Y-101600000D03*
X121920000Y-91440000D03*
X114300000Y-104140000D03*
X121920000Y-88900000D03*
D15*
X86360000Y-102870000D03*
X86360000Y-95250000D03*
X88900000Y-95250000D03*
X78740000Y-95250000D03*
X71120000Y-95250000D03*
X88900000Y-102870000D03*
X78740000Y-102870000D03*
X71120000Y-102870000D03*
D13*
X127000000Y-86360000D03*
D14*
X134620000Y-104140000D03*
X127000000Y-88900000D03*
X134620000Y-101600000D03*
X127000000Y-91440000D03*
X134620000Y-99060000D03*
X127000000Y-93980000D03*
X134620000Y-96520000D03*
X127000000Y-96520000D03*
X134620000Y-93980000D03*
X127000000Y-99060000D03*
X134620000Y-91440000D03*
X127000000Y-101600000D03*
X134620000Y-88900000D03*
X127000000Y-104140000D03*
X134620000Y-86360000D03*
D13*
X101600000Y-74930000D03*
D14*
X109220000Y-82550000D03*
X101600000Y-77470000D03*
X109220000Y-80010000D03*
X101600000Y-80010000D03*
X109220000Y-77470000D03*
X101600000Y-82550000D03*
X109220000Y-74930000D03*
D13*
X139700000Y-88900000D03*
D14*
X147320000Y-104140000D03*
X139700000Y-91440000D03*
X147320000Y-101600000D03*
X139700000Y-93980000D03*
X147320000Y-99060000D03*
X139700000Y-96520000D03*
X147320000Y-96520000D03*
X139700000Y-99060000D03*
X147320000Y-93980000D03*
X139700000Y-101600000D03*
X147320000Y-91440000D03*
X139700000Y-104140000D03*
X147320000Y-88900000D03*
D16*
X158750000Y-63500000D03*
D17*
X158750000Y-61000000D03*
X158750000Y-58500000D03*
D16*
X96520000Y-35560000D03*
D17*
X94020000Y-35560000D03*
D16*
X119380000Y-35560000D03*
D17*
X116880000Y-35560000D03*
D16*
X149860000Y-35560000D03*
D17*
X147360000Y-35560000D03*
D16*
X158750000Y-50800000D03*
D17*
X158750000Y-48300000D03*
X158750000Y-45800000D03*
X158750000Y-43300000D03*
X156250000Y-50800000D03*
X156250000Y-48300000D03*
X156250000Y-45800000D03*
X156250000Y-43300000D03*
D16*
X129540000Y-35560000D03*
D17*
X127040000Y-35560000D03*
D18*
X56960000Y-86580000D03*
X56960000Y-90580000D03*
X56960000Y-78580000D03*
X56960000Y-74580000D03*
X56960000Y-82580000D03*
X60960000Y-84580000D03*
X60960000Y-88580000D03*
X56960000Y-46580000D03*
X56960000Y-50580000D03*
X56960000Y-62580000D03*
X56960000Y-58580000D03*
X56960000Y-54580000D03*
X56960000Y-66580000D03*
X56960000Y-70580000D03*
X60960000Y-52580000D03*
X60960000Y-56580000D03*
X60960000Y-48580000D03*
X60960000Y-68580000D03*
X60960000Y-64580000D03*
X60960000Y-60580000D03*
X60960000Y-72580000D03*
X60960000Y-76580000D03*
X60960000Y-80580000D03*
X64960000Y-86580000D03*
X64960000Y-82580000D03*
X64960000Y-90580000D03*
X64960000Y-78580000D03*
X64960000Y-66580000D03*
X64960000Y-70580000D03*
X64960000Y-74580000D03*
X64960000Y-54580000D03*
X64960000Y-46580000D03*
X64960000Y-50580000D03*
X64960000Y-62580000D03*
X64960000Y-58580000D03*
X85280000Y-45530000D03*
X85280000Y-49530000D03*
X85280000Y-53530000D03*
X77280000Y-53530000D03*
X77280000Y-45530000D03*
X77280000Y-49530000D03*
X81280000Y-51530000D03*
X81280000Y-47530000D03*
D13*
X101600000Y-86360000D03*
D14*
X109220000Y-104140000D03*
X101600000Y-88900000D03*
X109220000Y-101600000D03*
X101600000Y-91440000D03*
X109220000Y-99060000D03*
X101600000Y-93980000D03*
X109220000Y-96520000D03*
X101600000Y-96520000D03*
X109220000Y-93980000D03*
X101600000Y-99060000D03*
X109220000Y-91440000D03*
X101600000Y-101600000D03*
X109220000Y-88900000D03*
X101600000Y-104140000D03*
X109220000Y-86360000D03*
D19*
X133350000Y-44450000D03*
D20*
X130810000Y-44450000D03*
X128270000Y-44450000D03*
D21*
X113030000Y-77470000D03*
X115530000Y-77470000D03*
D13*
X119380000Y-83820000D03*
D21*
X116880000Y-83820000D03*
D13*
X132080000Y-81280000D03*
D21*
X129580000Y-81280000D03*
D13*
X152400000Y-87630000D03*
D21*
X152400000Y-85130000D03*
D13*
X97790000Y-64770000D03*
D21*
X95290000Y-64770000D03*
D13*
X97790000Y-96520000D03*
D21*
X95290000Y-96520000D03*
D13*
X96520000Y-104140000D03*
D21*
X96520000Y-101640000D03*
D13*
X142240000Y-83820000D03*
D21*
X144740000Y-83820000D03*
D13*
X139700000Y-44450000D03*
D21*
X139700000Y-46950000D03*
D13*
X121920000Y-41910000D03*
D21*
X121920000Y-44410000D03*
D22*
X160020000Y-92710000D03*
D23*
X160020000Y-90170000D03*
X160020000Y-87630000D03*
D22*
X105410000Y-57150000D03*
D23*
X102870000Y-57150000D03*
X100330000Y-57150000D03*
X97790000Y-57150000D03*
X95250000Y-57150000D03*
X92710000Y-57150000D03*
X90170000Y-57150000D03*
X87630000Y-57150000D03*
D16*
X81280000Y-35560000D03*
D17*
X78780000Y-35560000D03*
X76280000Y-35560000D03*
X81280000Y-38060000D03*
X78780000Y-38060000D03*
X76280000Y-38060000D03*
D16*
X109220000Y-35560000D03*
D17*
X106720000Y-35560000D03*
X104220000Y-35560000D03*
X109220000Y-38060000D03*
X106720000Y-38060000D03*
X104220000Y-38060000D03*
D19*
X87630000Y-88900000D03*
D24*
X87630000Y-86360000D03*
D19*
X82550000Y-88900000D03*
D24*
X82550000Y-86360000D03*
D19*
X77470000Y-88900000D03*
D24*
X77470000Y-86360000D03*
D16*
X139700000Y-35560000D03*
D17*
X137200000Y-35560000D03*
X139700000Y-38060000D03*
X137200000Y-38060000D03*
D22*
X97790000Y-40640000D03*
D23*
X97790000Y-43180000D03*
X95250000Y-40640000D03*
X95250000Y-43180000D03*
X92710000Y-40640000D03*
X92710000Y-43180000D03*
X90170000Y-40640000D03*
X90170000Y-43180000D03*
D25*
X137080400Y-42882500D03*
X115828700Y-72739300D03*
X116877800Y-53442800D03*
X119981900Y-54590000D03*
X122459000Y-60975500D03*
X126025500Y-68185800D03*
D26*
X85392800Y-40141100D03*
D25*
X115847400Y-73765200D03*
X110510600Y-84488600D03*
X122798700Y-57016400D03*
X120058600Y-30225700D03*
X120448500Y-64520000D03*
X105132000Y-105107200D03*
X122704200Y-66520000D03*
X112315600Y-83675400D03*
X120419000Y-67366600D03*
X112496200Y-70151700D03*
X120982100Y-69343800D03*
X133392300Y-37988000D03*
X122708300Y-67743600D03*
X134269500Y-37411500D03*
X108478500Y-69005300D03*
X104995900Y-73760900D03*
X118977100Y-68297300D03*
X113475500Y-70588200D03*
X119152300Y-69313400D03*
X112124300Y-72224200D03*
X125476400Y-73073200D03*
X104759200Y-95394700D03*
X125372100Y-67350800D03*
X111612100Y-55524300D03*
X120554100Y-61901200D03*
X112926300Y-55953600D03*
X122612500Y-59330200D03*
X114477500Y-53209400D03*
X121097800Y-57462000D03*
X113303400Y-54367300D03*
X120130300Y-57933600D03*
X107266000Y-64006100D03*
X106322900Y-46289000D03*
X119125700Y-57924100D03*
X113529700Y-64048700D03*
X111289000Y-64995500D03*
X113510300Y-65348500D03*
X110274200Y-65047300D03*
X115090600Y-65140200D03*
X115353100Y-66223400D03*
X116896700Y-64671900D03*
X100921600Y-45531000D03*
X115926400Y-63091000D03*
D27*
X109220000Y-104140000D02*
X109220000Y-103014700D01*
X109220000Y-86360000D02*
X109220000Y-87485300D01*
X95333200Y-90888200D02*
X94615000Y-90170000D01*
X96190100Y-90888200D02*
X95333200Y-90888200D01*
X96190100Y-93794800D02*
X97790000Y-95394700D01*
X96190100Y-90888200D02*
X96190100Y-93794800D01*
X100474700Y-86603600D02*
X96190100Y-90888200D01*
X100474700Y-86360000D02*
X100474700Y-86603600D01*
X101600000Y-86360000D02*
X100474700Y-86360000D01*
X97790000Y-96520000D02*
X97790000Y-95394700D01*
X101600000Y-86360000D02*
X101600000Y-82550000D01*
X109220000Y-86360000D02*
X109220000Y-85234700D01*
X108094700Y-84109400D02*
X109220000Y-85234700D01*
X108094700Y-76899200D02*
X108094700Y-84109400D01*
X108938600Y-76055300D02*
X108094700Y-76899200D01*
X109220000Y-76055300D02*
X108938600Y-76055300D01*
X109220000Y-74930000D02*
X109220000Y-76055300D01*
X152400000Y-94887600D02*
X152400000Y-104140000D01*
X147537700Y-90025300D02*
X152400000Y-94887600D01*
X147320000Y-90025300D02*
X147537700Y-90025300D01*
X147320000Y-88900000D02*
X147320000Y-90025300D01*
X134620000Y-101600000D02*
X134620000Y-100474700D01*
X134338600Y-100474700D02*
X134620000Y-100474700D01*
X133494700Y-99630800D02*
X134338600Y-100474700D01*
X133494700Y-88329200D02*
X133494700Y-99630800D01*
X134338600Y-87485300D02*
X133494700Y-88329200D01*
X134620000Y-87485300D02*
X134338600Y-87485300D01*
X134620000Y-86360000D02*
X134620000Y-87485300D01*
X147038700Y-87774700D02*
X147320000Y-87774700D01*
X143365300Y-84101300D02*
X147038700Y-87774700D01*
X143365300Y-83820000D02*
X143365300Y-84101300D01*
X142240000Y-83820000D02*
X143365300Y-83820000D01*
X147320000Y-88900000D02*
X147320000Y-87774700D01*
X142240000Y-79652600D02*
X142240000Y-83820000D01*
X140057400Y-77470000D02*
X142240000Y-79652600D01*
X139342700Y-77470000D02*
X140057400Y-77470000D01*
X138560400Y-76687700D02*
X139342700Y-77470000D01*
X138560400Y-73103600D02*
X138560400Y-76687700D01*
X139418700Y-72245300D02*
X138560400Y-73103600D01*
X139700000Y-72245300D02*
X139418700Y-72245300D01*
X139700000Y-71120000D02*
X139700000Y-72245300D01*
X132080000Y-81280000D02*
X132080000Y-82317600D01*
X134620000Y-86360000D02*
X134620000Y-85234700D01*
X134098000Y-85234700D02*
X134620000Y-85234700D01*
X132151600Y-83288300D02*
X134098000Y-85234700D01*
X132151600Y-82389200D02*
X132151600Y-83288300D01*
X132080000Y-82317600D02*
X132151600Y-82389200D01*
X121920000Y-88900000D02*
X123045300Y-88900000D01*
X126560200Y-83820000D02*
X119380000Y-83820000D01*
X129090100Y-86349800D02*
X126560200Y-83820000D01*
X132151600Y-83288300D02*
X129090100Y-86349800D01*
X124170600Y-87774700D02*
X123045300Y-88900000D01*
X127665200Y-87774700D02*
X124170600Y-87774700D01*
X129090100Y-86349800D02*
X127665200Y-87774700D01*
X139700000Y-71120000D02*
X139700000Y-69994700D01*
X108938700Y-87485300D02*
X109220000Y-87485300D01*
X107523000Y-88901000D02*
X108938700Y-87485300D01*
X107523000Y-101599000D02*
X107523000Y-88901000D01*
X108938700Y-103014700D02*
X107523000Y-101599000D01*
X109220000Y-103014700D02*
X108938700Y-103014700D01*
X145919100Y-45806800D02*
X137080400Y-45806800D01*
X153126900Y-53014600D02*
X145919100Y-45806800D01*
X159049300Y-53014600D02*
X153126900Y-53014600D01*
X160155200Y-51908700D02*
X159049300Y-53014600D01*
X160155200Y-49618800D02*
X160155200Y-51908700D01*
X158836400Y-48300000D02*
X160155200Y-49618800D01*
X158750000Y-48300000D02*
X158836400Y-48300000D01*
X137080400Y-42882500D02*
X137080400Y-45806800D01*
X139981400Y-69994700D02*
X139700000Y-69994700D01*
X140825300Y-69150800D02*
X139981400Y-69994700D01*
X140825300Y-62477000D02*
X140825300Y-69150800D01*
X140614800Y-62266500D02*
X140825300Y-62477000D01*
X140082600Y-62266500D02*
X140614800Y-62266500D01*
X136904600Y-59088500D02*
X140082600Y-62266500D01*
X136904600Y-45982600D02*
X136904600Y-59088500D01*
X137080400Y-45806800D02*
X136904600Y-45982600D01*
X59259400Y-62280600D02*
X60960000Y-60580000D01*
X59259400Y-70879400D02*
X59259400Y-62280600D01*
X60960000Y-72580000D02*
X59259400Y-70879400D01*
X109220000Y-93980000D02*
X109220000Y-96520000D01*
X101600000Y-96520000D02*
X101600000Y-93980000D01*
X77470000Y-88900000D02*
X76244700Y-88900000D01*
X71462800Y-93681900D02*
X71120000Y-93681900D01*
X76244700Y-88900000D02*
X71462800Y-93681900D01*
X71120000Y-93681900D02*
X71120000Y-95250000D01*
X64960000Y-87521900D02*
X64960000Y-86580000D01*
X71120000Y-93681900D02*
X64960000Y-87521900D01*
X155013900Y-43300000D02*
X156250000Y-43300000D01*
X147360000Y-35646100D02*
X155013900Y-43300000D01*
X147360000Y-35560000D02*
X147360000Y-35646100D01*
X87630000Y-88900000D02*
X88678300Y-88900000D01*
X88678300Y-87851700D02*
X101600000Y-74930000D01*
X88678300Y-88900000D02*
X88678300Y-87851700D01*
X101600000Y-74930000D02*
X101600000Y-73804700D01*
X95290000Y-95511700D02*
X95290000Y-96520000D01*
X88678300Y-88900000D02*
X95290000Y-95511700D01*
X95290000Y-100410000D02*
X96520000Y-101640000D01*
X95290000Y-96520000D02*
X95290000Y-100410000D01*
X151130000Y-53340000D02*
X149604700Y-53340000D01*
X147320000Y-71120000D02*
X147320000Y-69994700D01*
X147038700Y-69994700D02*
X147320000Y-69994700D01*
X146166600Y-69122600D02*
X147038700Y-69994700D01*
X146166600Y-53340000D02*
X146166600Y-69122600D01*
X139776600Y-46950000D02*
X146166600Y-53340000D01*
X139700000Y-46950000D02*
X139776600Y-46950000D01*
X146166600Y-53340000D02*
X149604700Y-53340000D01*
X95290000Y-67494700D02*
X101600000Y-73804700D01*
X95290000Y-64770000D02*
X95290000Y-67494700D01*
X86523900Y-62773900D02*
X77280000Y-53530000D01*
X93293900Y-62773900D02*
X86523900Y-62773900D01*
X95290000Y-64770000D02*
X93293900Y-62773900D01*
X129580000Y-77430000D02*
X130810000Y-76200000D01*
X129580000Y-81280000D02*
X129580000Y-77430000D01*
X115915300Y-72739300D02*
X115828700Y-72739300D01*
X116572800Y-73396800D02*
X115915300Y-72739300D01*
X116572800Y-76427200D02*
X116572800Y-73396800D01*
X115530000Y-77470000D02*
X116572800Y-76427200D01*
X130810000Y-44450000D02*
X130810000Y-43224700D01*
X122084700Y-44410000D02*
X121920000Y-44410000D01*
X127040000Y-39454700D02*
X122084700Y-44410000D01*
X127040000Y-35560000D02*
X127040000Y-39454700D01*
X127040000Y-39454700D02*
X130810000Y-43224700D01*
X147038600Y-74785300D02*
X147320000Y-74785300D01*
X146194700Y-75629200D02*
X147038600Y-74785300D01*
X146194700Y-80524100D02*
X146194700Y-75629200D01*
X152175300Y-86504700D02*
X146194700Y-80524100D01*
X152400000Y-86504700D02*
X152175300Y-86504700D01*
X152400000Y-87630000D02*
X152400000Y-86504700D01*
X147320000Y-73660000D02*
X147320000Y-74785300D01*
X109220000Y-82550000D02*
X109220000Y-81424700D01*
X113030000Y-77853900D02*
X113030000Y-77470000D01*
X109459200Y-81424700D02*
X113030000Y-77853900D01*
X109220000Y-81424700D02*
X109459200Y-81424700D01*
X104775000Y-70485000D02*
X103249700Y-70485000D01*
X97790000Y-64770000D02*
X97790000Y-65895300D01*
X101600000Y-77470000D02*
X101600000Y-76344700D01*
X102379700Y-70485000D02*
X103249700Y-70485000D01*
X97790000Y-65895300D02*
X102379700Y-70485000D01*
X102303300Y-76344700D02*
X101600000Y-76344700D01*
X103249700Y-75398300D02*
X102303300Y-76344700D01*
X103249700Y-70485000D02*
X103249700Y-75398300D01*
D28*
X96520000Y-104140000D02*
X97870300Y-104140000D01*
X139700000Y-44450000D02*
X139700000Y-43099700D01*
X157238900Y-52311100D02*
X158750000Y-50800000D01*
X153714500Y-52311100D02*
X157238900Y-52311100D01*
X142972500Y-41569100D02*
X153714500Y-52311100D01*
X141230600Y-41569100D02*
X142972500Y-41569100D01*
X141230600Y-37090600D02*
X141230600Y-41569100D01*
X139700000Y-35560000D02*
X141230600Y-37090600D01*
X141230600Y-41569100D02*
X139700000Y-43099700D01*
X101600000Y-104140000D02*
X97870300Y-104140000D01*
X63034600Y-86505400D02*
X60960000Y-88580000D01*
X63034600Y-65734000D02*
X63034600Y-86505400D01*
X64188600Y-64580000D02*
X63034600Y-65734000D01*
X65741800Y-64580000D02*
X64188600Y-64580000D01*
X66885300Y-63436500D02*
X65741800Y-64580000D01*
X66885300Y-52505300D02*
X66885300Y-63436500D01*
X64960000Y-50580000D02*
X66885300Y-52505300D01*
X64960000Y-46580000D02*
X64960000Y-50580000D01*
X133350000Y-51429300D02*
X133350000Y-44450000D01*
X121889400Y-62889900D02*
X133350000Y-51429300D01*
X120030600Y-62889900D02*
X121889400Y-62889900D01*
X115746800Y-67173700D02*
X120030600Y-62889900D01*
X112838900Y-67173700D02*
X115746800Y-67173700D01*
X105946600Y-74066000D02*
X112838900Y-67173700D01*
X105946600Y-99793400D02*
X105946600Y-74066000D01*
X101600000Y-104140000D02*
X105946600Y-99793400D01*
D27*
X118872500Y-53480600D02*
X119981900Y-54590000D01*
X116915500Y-53480600D02*
X118872500Y-53480600D01*
X116915500Y-53480500D02*
X116915500Y-53480600D01*
X116877800Y-53442800D02*
X116915500Y-53480500D01*
X160020000Y-92710000D02*
X160020000Y-91534700D01*
X147320000Y-76200000D02*
X148445300Y-76200000D01*
X148812200Y-75833100D02*
X151130000Y-75833100D01*
X148445300Y-76200000D02*
X148812200Y-75833100D01*
X160387400Y-91534700D02*
X160020000Y-91534700D01*
X161195300Y-90726800D02*
X160387400Y-91534700D01*
X161195300Y-85898400D02*
X161195300Y-90726800D01*
X151130000Y-75833100D02*
X161195300Y-85898400D01*
X80875300Y-45530000D02*
X77280000Y-45530000D01*
X84406600Y-41998700D02*
X80875300Y-45530000D01*
X93192600Y-41998700D02*
X84406600Y-41998700D01*
X93885400Y-42691500D02*
X93192600Y-41998700D01*
X93885400Y-44450100D02*
X93885400Y-42691500D01*
X105410000Y-55974700D02*
X93885400Y-44450100D01*
X151130000Y-58420000D02*
X151130000Y-75833100D01*
X160299100Y-45800000D02*
X158750000Y-45800000D01*
X161083400Y-46584300D02*
X160299100Y-45800000D01*
X161083400Y-51683600D02*
X161083400Y-46584300D01*
X154347000Y-58420000D02*
X161083400Y-51683600D01*
X151130000Y-58420000D02*
X154347000Y-58420000D01*
X105410000Y-57150000D02*
X105410000Y-55974700D01*
X74930000Y-47880000D02*
X77280000Y-45530000D01*
X74930000Y-80010000D02*
X74930000Y-47880000D01*
X72390000Y-82550000D02*
X74930000Y-80010000D01*
X123365300Y-60069200D02*
X122459000Y-60975500D01*
X123365300Y-58656400D02*
X123365300Y-60069200D01*
X119981900Y-55273000D02*
X123365300Y-58656400D01*
X119981900Y-54590000D02*
X119981900Y-55273000D01*
X56960000Y-51053900D02*
X56960000Y-50580000D01*
X60380900Y-54474800D02*
X56960000Y-51053900D01*
X61329900Y-54474800D02*
X60380900Y-54474800D01*
X64960000Y-58104900D02*
X61329900Y-54474800D01*
X64960000Y-58580000D02*
X64960000Y-58104900D01*
X108798000Y-100474700D02*
X109220000Y-100474700D01*
X107973400Y-99650100D02*
X108798000Y-100474700D01*
X107973400Y-90849900D02*
X107973400Y-99650100D01*
X108798000Y-90025300D02*
X107973400Y-90849900D01*
X109220000Y-90025300D02*
X108798000Y-90025300D01*
X109220000Y-88900000D02*
X109220000Y-90025300D01*
X109220000Y-101600000D02*
X109220000Y-100474700D01*
X109220000Y-88263100D02*
X109220000Y-88900000D01*
X126025500Y-71457600D02*
X109220000Y-88263100D01*
X126025500Y-68185800D02*
X126025500Y-71457600D01*
X96916300Y-102870000D02*
X88900000Y-102870000D01*
X100474700Y-99311600D02*
X96916300Y-102870000D01*
X100474700Y-93409200D02*
X100474700Y-99311600D01*
X101318600Y-92565300D02*
X100474700Y-93409200D01*
X101600000Y-92565300D02*
X101318600Y-92565300D01*
X101600000Y-91440000D02*
X101600000Y-92565300D01*
D28*
X110578400Y-92798400D02*
X109220000Y-91440000D01*
X110578400Y-97701600D02*
X110578400Y-92798400D01*
X109220000Y-99060000D02*
X110578400Y-97701600D01*
X80052400Y-101557600D02*
X78740000Y-102870000D01*
X80052400Y-82625600D02*
X80052400Y-101557600D01*
X78183200Y-80756400D02*
X80052400Y-82625600D01*
X76716900Y-80756400D02*
X78183200Y-80756400D01*
X73172900Y-84300400D02*
X76716900Y-80756400D01*
X71665000Y-84300400D02*
X73172900Y-84300400D01*
X70608400Y-83243800D02*
X71665000Y-84300400D01*
X70608400Y-80526900D02*
X70608400Y-83243800D01*
X74254600Y-76880700D02*
X70608400Y-80526900D01*
X74254600Y-45816900D02*
X74254600Y-76880700D01*
X76989900Y-43081600D02*
X74254600Y-45816900D01*
X81802500Y-43081600D02*
X76989900Y-43081600D01*
X84743000Y-40141100D02*
X81802500Y-43081600D01*
X85392800Y-40141100D02*
X84743000Y-40141100D01*
X93697400Y-35882600D02*
X94020000Y-35560000D01*
X83102900Y-35882600D02*
X93697400Y-35882600D01*
X82780300Y-35560000D02*
X83102900Y-35882600D01*
X81280000Y-35560000D02*
X82780300Y-35560000D01*
X67734800Y-63805200D02*
X64960000Y-66580000D01*
X67734800Y-46605200D02*
X67734800Y-63805200D01*
X76280000Y-38060000D02*
X67734800Y-46605200D01*
X68535200Y-67004800D02*
X64960000Y-70580000D01*
X68535200Y-49272500D02*
X68535200Y-67004800D01*
X76326700Y-41481000D02*
X68535200Y-49272500D01*
X79981000Y-41481000D02*
X76326700Y-41481000D01*
X84396700Y-37065300D02*
X79981000Y-41481000D01*
X97719200Y-37065300D02*
X84396700Y-37065300D01*
X102589900Y-32194600D02*
X97719200Y-37065300D01*
X110956400Y-32194600D02*
X102589900Y-32194600D01*
X115840700Y-37078900D02*
X110956400Y-32194600D01*
X117861100Y-37078900D02*
X115840700Y-37078900D01*
X119380000Y-35560000D02*
X117861100Y-37078900D01*
X116880000Y-33709400D02*
X116880000Y-35560000D01*
X117570100Y-33019300D02*
X116880000Y-33709400D01*
X119541100Y-33019300D02*
X117570100Y-33019300D01*
X120880400Y-34358600D02*
X119541100Y-33019300D01*
X120880400Y-36737900D02*
X120880400Y-34358600D01*
X118032900Y-39585400D02*
X120880400Y-36737900D01*
X103584000Y-39585400D02*
X118032900Y-39585400D01*
X102719600Y-38721000D02*
X103584000Y-39585400D01*
X102719600Y-37060400D02*
X102719600Y-38721000D01*
X104220000Y-35560000D02*
X102719600Y-37060400D01*
X62237100Y-46580000D02*
X56960000Y-46580000D01*
X77464200Y-31352900D02*
X62237100Y-46580000D01*
X119006600Y-31352900D02*
X77464200Y-31352900D01*
X121680700Y-34027000D02*
X119006600Y-31352900D01*
X121680700Y-37069500D02*
X121680700Y-34027000D01*
X118364500Y-40385700D02*
X121680700Y-37069500D01*
X103252400Y-40385700D02*
X118364500Y-40385700D01*
X101919300Y-39052600D02*
X103252400Y-40385700D01*
X101919300Y-35681500D02*
X101919300Y-39052600D01*
X103552000Y-34048800D02*
X101919300Y-35681500D01*
X105208800Y-34048800D02*
X103552000Y-34048800D01*
X106720000Y-35560000D02*
X105208800Y-34048800D01*
X72968200Y-66571800D02*
X64960000Y-74580000D01*
X72968200Y-45971400D02*
X72968200Y-66571800D01*
X76658300Y-42281300D02*
X72968200Y-45971400D01*
X80905200Y-42281300D02*
X76658300Y-42281300D01*
X85320800Y-37865700D02*
X80905200Y-42281300D01*
X98551000Y-37865700D02*
X85320800Y-37865700D01*
X103421700Y-32995000D02*
X98551000Y-37865700D01*
X109336300Y-32995000D02*
X103421700Y-32995000D01*
X110720400Y-34379100D02*
X109336300Y-32995000D01*
X110720400Y-36747300D02*
X110720400Y-34379100D01*
X109407700Y-38060000D02*
X110720400Y-36747300D01*
X109220000Y-38060000D02*
X109407700Y-38060000D01*
D27*
X137200000Y-35560000D02*
X137200000Y-33996000D01*
X150241000Y-33401000D02*
X150241000Y-33407100D01*
X149733000Y-32893000D02*
X150241000Y-33401000D01*
X138303000Y-32893000D02*
X149733000Y-32893000D01*
X137200000Y-33996000D02*
X138303000Y-32893000D01*
X158750000Y-41916100D02*
X158750000Y-43300000D01*
X150241000Y-33407100D02*
X158750000Y-41916100D01*
X129540000Y-35560000D02*
X129540000Y-36835300D01*
X134675300Y-41970600D02*
X129540000Y-36835300D01*
X134675300Y-51059200D02*
X134675300Y-41970600D01*
X122088000Y-63646500D02*
X134675300Y-51059200D01*
X120253800Y-63646500D02*
X122088000Y-63646500D01*
X115949400Y-67950900D02*
X120253800Y-63646500D01*
X113033300Y-67950900D02*
X115949400Y-67950900D01*
X106622300Y-74361900D02*
X113033300Y-67950900D01*
X106622300Y-100900500D02*
X106622300Y-74361900D01*
X102157400Y-105365400D02*
X106622300Y-100900500D01*
X88855400Y-105365400D02*
X102157400Y-105365400D01*
X86360000Y-102870000D02*
X88855400Y-105365400D01*
X110510600Y-84454700D02*
X110510600Y-84488600D01*
X114280000Y-80685300D02*
X110510600Y-84454700D01*
X114280000Y-75332600D02*
X114280000Y-80685300D01*
X115847400Y-73765200D02*
X114280000Y-75332600D01*
X120793800Y-55011500D02*
X122798700Y-57016400D01*
X120793800Y-38911500D02*
X120793800Y-55011500D01*
X122356000Y-37349300D02*
X120793800Y-38911500D01*
X122356000Y-32523100D02*
X122356000Y-37349300D01*
X120058600Y-30225700D02*
X122356000Y-32523100D01*
X107072700Y-103166500D02*
X105132000Y-105107200D01*
X107072700Y-74549500D02*
X107072700Y-103166500D01*
X113221000Y-68401200D02*
X107072700Y-74549500D01*
X116136000Y-68401200D02*
X113221000Y-68401200D01*
X120017200Y-64520000D02*
X116136000Y-68401200D01*
X120448500Y-64520000D02*
X120017200Y-64520000D01*
X121979800Y-74011200D02*
X112315600Y-83675400D01*
X121979800Y-67244400D02*
X121979800Y-74011200D01*
X122704200Y-66520000D02*
X121979800Y-67244400D01*
X118072200Y-67366600D02*
X120419000Y-67366600D01*
X116587300Y-68851500D02*
X118072200Y-67366600D01*
X113796400Y-68851500D02*
X116587300Y-68851500D01*
X112496200Y-70151700D02*
X113796400Y-68851500D01*
X121144300Y-69181600D02*
X120982100Y-69343800D01*
X121144300Y-67054200D02*
X121144300Y-69181600D01*
X135125700Y-53072800D02*
X121144300Y-67054200D01*
X135125700Y-39721400D02*
X135125700Y-53072800D01*
X133392300Y-37988000D02*
X135125700Y-39721400D01*
X135576000Y-54875900D02*
X122708300Y-67743600D01*
X135576000Y-38718000D02*
X135576000Y-54875900D01*
X134269500Y-37411500D02*
X135576000Y-38718000D01*
D28*
X59034600Y-72654600D02*
X56960000Y-70580000D01*
X59034600Y-89426000D02*
X59034600Y-72654600D01*
X60188600Y-90580000D02*
X59034600Y-89426000D01*
X64960000Y-90580000D02*
X60188600Y-90580000D01*
X61706700Y-93456700D02*
X71120000Y-102870000D01*
X57084000Y-93456700D02*
X61706700Y-93456700D01*
X55029500Y-91402200D02*
X57084000Y-93456700D01*
X55029500Y-49771300D02*
X55029500Y-91402200D01*
X56220800Y-48580000D02*
X55029500Y-49771300D01*
X60960000Y-48580000D02*
X56220800Y-48580000D01*
D27*
X108478500Y-70278300D02*
X108478500Y-69005300D01*
X104995900Y-73760900D02*
X108478500Y-70278300D01*
X161688000Y-61438000D02*
X158750000Y-58500000D01*
X161688000Y-97078500D02*
X161688000Y-61438000D01*
X152462100Y-106304400D02*
X161688000Y-97078500D01*
X79855100Y-106304400D02*
X152462100Y-106304400D01*
X77059400Y-103508700D02*
X79855100Y-106304400D01*
X77059400Y-94512300D02*
X77059400Y-103508700D01*
X78695400Y-92876300D02*
X77059400Y-94512300D01*
X78695400Y-87802400D02*
X78695400Y-92876300D01*
X78478400Y-87585400D02*
X78695400Y-87802400D01*
X69965400Y-87585400D02*
X78478400Y-87585400D01*
X64960000Y-82580000D02*
X69965400Y-87585400D01*
X138430000Y-53340000D02*
X138430000Y-56894700D01*
X138430000Y-58420000D02*
X138430000Y-56894700D01*
X138430000Y-58420000D02*
X138430000Y-59945300D01*
X139700000Y-73660000D02*
X140825300Y-73660000D01*
X160020000Y-90170000D02*
X158844700Y-90170000D01*
X138930500Y-59945300D02*
X138430000Y-59945300D01*
X141306700Y-62321500D02*
X138930500Y-59945300D01*
X141306700Y-73178600D02*
X141306700Y-62321500D01*
X140825300Y-73660000D02*
X141306700Y-73178600D01*
X143139300Y-75974000D02*
X140825300Y-73660000D01*
X143139300Y-80449500D02*
X143139300Y-75974000D01*
X151684500Y-88994700D02*
X143139300Y-80449500D01*
X157669400Y-88994700D02*
X151684500Y-88994700D01*
X158844700Y-90170000D02*
X157669400Y-88994700D01*
X92075000Y-73404700D02*
X92075000Y-70485000D01*
X94615000Y-75944700D02*
X92075000Y-73404700D01*
X94615000Y-77470000D02*
X94615000Y-75944700D01*
X116686200Y-70588200D02*
X113475500Y-70588200D01*
X118977100Y-68297300D02*
X116686200Y-70588200D01*
X112618700Y-71729800D02*
X112124300Y-72224200D01*
X116735900Y-71729800D02*
X112618700Y-71729800D01*
X119152300Y-69313400D02*
X116735900Y-71729800D01*
X139700000Y-88900000D02*
X139700000Y-87774700D01*
X139700000Y-63500000D02*
X139700000Y-64625300D01*
X138110000Y-86184700D02*
X139700000Y-87774700D01*
X138110000Y-66034900D02*
X138110000Y-86184700D01*
X139519600Y-64625300D02*
X138110000Y-66034900D01*
X139700000Y-64625300D02*
X139519600Y-64625300D01*
X140825300Y-80990600D02*
X139700000Y-79865300D01*
X140825300Y-89892700D02*
X140825300Y-80990600D01*
X140403300Y-90314700D02*
X140825300Y-89892700D01*
X139700000Y-90314700D02*
X140403300Y-90314700D01*
X139700000Y-91440000D02*
X139700000Y-90314700D01*
X139700000Y-78740000D02*
X139700000Y-79865300D01*
X124170600Y-102725300D02*
X123045300Y-101600000D01*
X127495800Y-102725300D02*
X124170600Y-102725300D01*
X128125400Y-102095700D02*
X127495800Y-102725300D01*
X128125400Y-95949400D02*
X128125400Y-102095700D01*
X127281300Y-95105300D02*
X128125400Y-95949400D01*
X127000000Y-95105300D02*
X127281300Y-95105300D01*
X127000000Y-93980000D02*
X127000000Y-95105300D01*
X121920000Y-101600000D02*
X123045300Y-101600000D01*
X115425300Y-93698700D02*
X115425300Y-93980000D01*
X122764000Y-86360000D02*
X115425300Y-93698700D01*
X127000000Y-86360000D02*
X122764000Y-86360000D01*
X114300000Y-93980000D02*
X115425300Y-93980000D01*
X115425300Y-96238700D02*
X115425300Y-96520000D01*
X121638700Y-90025300D02*
X115425300Y-96238700D01*
X124749400Y-90025300D02*
X121638700Y-90025300D01*
X125874700Y-88900000D02*
X124749400Y-90025300D01*
X127000000Y-88900000D02*
X125874700Y-88900000D01*
X114300000Y-96520000D02*
X115425300Y-96520000D01*
X115425300Y-98778700D02*
X115425300Y-99060000D01*
X121638700Y-92565300D02*
X115425300Y-98778700D01*
X124749400Y-92565300D02*
X121638700Y-92565300D01*
X125874700Y-91440000D02*
X124749400Y-92565300D01*
X127000000Y-91440000D02*
X125874700Y-91440000D01*
X114300000Y-99060000D02*
X115425300Y-99060000D01*
X122201400Y-95105300D02*
X121920000Y-95105300D01*
X123045300Y-95949200D02*
X122201400Y-95105300D01*
X123045300Y-96801400D02*
X123045300Y-95949200D01*
X126718600Y-100474700D02*
X123045300Y-96801400D01*
X127000000Y-100474700D02*
X126718600Y-100474700D01*
X127000000Y-101600000D02*
X127000000Y-100474700D01*
X121920000Y-93980000D02*
X121920000Y-95105300D01*
X125237800Y-91440000D02*
X121920000Y-91440000D01*
X126371000Y-90306800D02*
X125237800Y-91440000D01*
X127467600Y-90306800D02*
X126371000Y-90306800D01*
X128921100Y-91760300D02*
X127467600Y-90306800D01*
X128921100Y-97565500D02*
X128921100Y-91760300D01*
X134137000Y-102781400D02*
X128921100Y-97565500D01*
X137393300Y-102781400D02*
X134137000Y-102781400D01*
X138574700Y-101600000D02*
X137393300Y-102781400D01*
X139700000Y-101600000D02*
X138574700Y-101600000D01*
X138285300Y-93980000D02*
X139700000Y-93980000D01*
X135745300Y-91440000D02*
X138285300Y-93980000D01*
X134620000Y-91440000D02*
X135745300Y-91440000D01*
X111711700Y-86837900D02*
X125476400Y-73073200D01*
X111711700Y-103362400D02*
X111711700Y-86837900D01*
X109220000Y-105854100D02*
X111711700Y-103362400D01*
X80041700Y-105854100D02*
X109220000Y-105854100D01*
X77509700Y-103322100D02*
X80041700Y-105854100D01*
X77509700Y-96480300D02*
X77509700Y-103322100D01*
X78740000Y-95250000D02*
X77509700Y-96480300D01*
X134620000Y-96520000D02*
X134620000Y-99060000D01*
X101600000Y-80010000D02*
X101600000Y-81135300D01*
X104318400Y-94953900D02*
X104759200Y-95394700D01*
X104318300Y-94953900D02*
X104318400Y-94953900D01*
X104318300Y-83572300D02*
X104318300Y-94953900D01*
X101881300Y-81135300D02*
X104318300Y-83572300D01*
X101600000Y-81135300D02*
X101881300Y-81135300D01*
X125372100Y-66023300D02*
X125372100Y-67350800D01*
X136320000Y-55075400D02*
X125372100Y-66023300D01*
X136320000Y-41440000D02*
X136320000Y-55075400D01*
X139700000Y-38060000D02*
X136320000Y-41440000D01*
X76792200Y-47530000D02*
X81280000Y-47530000D01*
X75513300Y-48808900D02*
X76792200Y-47530000D01*
X75513300Y-50233900D02*
X75513300Y-48808900D01*
X76809400Y-51530000D02*
X75513300Y-50233900D01*
X78034300Y-51530000D02*
X76809400Y-51530000D01*
X85315800Y-58811500D02*
X78034300Y-51530000D01*
X95320500Y-58811500D02*
X85315800Y-58811500D01*
X96614700Y-57517300D02*
X95320500Y-58811500D01*
X96614700Y-57150000D02*
X96614700Y-57517300D01*
X97790000Y-57150000D02*
X96614700Y-57150000D01*
X111612100Y-55718800D02*
X111612100Y-55524300D01*
X117794500Y-61901200D02*
X111612100Y-55718800D01*
X120554100Y-61901200D02*
X117794500Y-61901200D01*
X81721700Y-49530000D02*
X77280000Y-49530000D01*
X83111400Y-48140300D02*
X81721700Y-49530000D01*
X83111400Y-45286000D02*
X83111400Y-48140300D01*
X84605600Y-43791800D02*
X83111400Y-45286000D01*
X88703900Y-43791800D02*
X84605600Y-43791800D01*
X101694700Y-56782600D02*
X88703900Y-43791800D01*
X101694700Y-57150000D02*
X101694700Y-56782600D01*
X102870000Y-57150000D02*
X101694700Y-57150000D01*
X116302900Y-59330200D02*
X112926300Y-55953600D01*
X122612500Y-59330200D02*
X116302900Y-59330200D01*
X85280000Y-53624700D02*
X85280000Y-53530000D01*
X87630000Y-55974700D02*
X85280000Y-53624700D01*
X87630000Y-57150000D02*
X87630000Y-55974700D01*
X117958700Y-56690600D02*
X114477500Y-53209400D01*
X120326400Y-56690600D02*
X117958700Y-56690600D01*
X121097800Y-57462000D02*
X120326400Y-56690600D01*
X90170000Y-54420000D02*
X85280000Y-49530000D01*
X90170000Y-57150000D02*
X90170000Y-54420000D01*
X117589400Y-58653300D02*
X113303400Y-54367300D01*
X119477500Y-58653300D02*
X117589400Y-58653300D01*
X120130300Y-58000500D02*
X119477500Y-58653300D01*
X120130300Y-57933600D02*
X120130300Y-58000500D01*
X158750000Y-75185300D02*
X153670000Y-70105300D01*
X158750000Y-81280000D02*
X158750000Y-75185300D01*
X153670000Y-68580000D02*
X153670000Y-70105300D01*
X81280000Y-52498500D02*
X81280000Y-51530000D01*
X87119000Y-58337500D02*
X81280000Y-52498500D01*
X93254500Y-58337500D02*
X87119000Y-58337500D01*
X94074700Y-57517300D02*
X93254500Y-58337500D01*
X94074700Y-57150000D02*
X94074700Y-57517300D01*
X95250000Y-57150000D02*
X94662400Y-57150000D01*
X94662400Y-57150000D02*
X94074700Y-57150000D01*
X105426300Y-64006100D02*
X107266000Y-64006100D01*
X99060000Y-57639800D02*
X105426300Y-64006100D01*
X99060000Y-56744400D02*
X99060000Y-57639800D01*
X98287500Y-55971900D02*
X99060000Y-56744400D01*
X95840500Y-55971900D02*
X98287500Y-55971900D01*
X94662400Y-57150000D02*
X95840500Y-55971900D01*
X56960000Y-55062300D02*
X56960000Y-54580000D01*
X60372500Y-58474800D02*
X56960000Y-55062300D01*
X61354900Y-58474800D02*
X60372500Y-58474800D01*
X64960000Y-62079900D02*
X61354900Y-58474800D01*
X64960000Y-62580000D02*
X64960000Y-62079900D01*
X92710000Y-57150000D02*
X92710000Y-55974700D01*
X92710000Y-52960000D02*
X92710000Y-55974700D01*
X85280000Y-45530000D02*
X92710000Y-52960000D01*
X117958000Y-57924100D02*
X106322900Y-46289000D01*
X119125700Y-57924100D02*
X117958000Y-57924100D01*
X87630000Y-86360000D02*
X87630000Y-82550000D01*
X82550000Y-86360000D02*
X82550000Y-82550000D01*
X77470000Y-86360000D02*
X77470000Y-82550000D01*
X113529700Y-61015300D02*
X113529700Y-64048700D01*
X99468900Y-46954500D02*
X113529700Y-61015300D01*
X99468900Y-42318900D02*
X99468900Y-46954500D01*
X97790000Y-40640000D02*
X99468900Y-42318900D01*
X111289000Y-60048400D02*
X111289000Y-64995500D01*
X97790000Y-46549400D02*
X111289000Y-60048400D01*
X97790000Y-43180000D02*
X97790000Y-46549400D01*
X95250000Y-40640000D02*
X96425300Y-40640000D01*
X111739400Y-63577600D02*
X113510300Y-65348500D01*
X111739400Y-59861900D02*
X111739400Y-63577600D01*
X98965400Y-47087900D02*
X111739400Y-59861900D01*
X98965400Y-42662000D02*
X98965400Y-47087900D01*
X98118700Y-41815300D02*
X98965400Y-42662000D01*
X96792500Y-41815300D02*
X98118700Y-41815300D01*
X96425300Y-41448100D02*
X96792500Y-41815300D01*
X96425300Y-40640000D02*
X96425300Y-41448100D01*
X95250000Y-43180000D02*
X95250000Y-44355300D01*
X110274200Y-59670500D02*
X110274200Y-65047300D01*
X95250000Y-44646300D02*
X110274200Y-59670500D01*
X95250000Y-44355300D02*
X95250000Y-44646300D01*
X92710000Y-40640000D02*
X93885300Y-40640000D01*
X115090600Y-61566100D02*
X115090600Y-65140200D01*
X99919200Y-46394700D02*
X115090600Y-61566100D01*
X99919200Y-40605400D02*
X99919200Y-46394700D01*
X98754200Y-39440400D02*
X99919200Y-40605400D01*
X94717500Y-39440400D02*
X98754200Y-39440400D01*
X93885300Y-40272600D02*
X94717500Y-39440400D01*
X93885300Y-40640000D02*
X93885300Y-40272600D01*
X110404900Y-66223400D02*
X115353100Y-66223400D01*
X109137200Y-64955700D02*
X110404900Y-66223400D01*
X109137200Y-64617400D02*
X109137200Y-64955700D01*
X104234600Y-59714800D02*
X109137200Y-64617400D01*
X104234600Y-55918900D02*
X104234600Y-59714800D01*
X92710000Y-44394300D02*
X104234600Y-55918900D01*
X92710000Y-43180000D02*
X92710000Y-44394300D01*
X90170000Y-40640000D02*
X91345300Y-40640000D01*
X116896700Y-61834600D02*
X116896700Y-64671900D01*
X101820300Y-46758200D02*
X116896700Y-61834600D01*
X101820300Y-41869600D02*
X101820300Y-46758200D01*
X98919800Y-38969100D02*
X101820300Y-41869600D01*
X92648900Y-38969100D02*
X98919800Y-38969100D01*
X91345300Y-40272700D02*
X92648900Y-38969100D01*
X91345300Y-40640000D02*
X91345300Y-40272700D01*
X115926400Y-61501200D02*
X115926400Y-63091000D01*
X100921600Y-46496400D02*
X115926400Y-61501200D01*
X100921600Y-45531000D02*
X100921600Y-46496400D01*
M02*
