G04 #@! TF.FileFunction,Legend,Bot*
%FSLAX46Y46*%
G04 Gerber Fmt 4.6, Leading zero omitted, Abs format (unit mm)*
G04 Created by KiCad (PCBNEW 4.0.7) date 03/01/18 23:30:02*
%MOMM*%
%LPD*%
G01*
G04 APERTURE LIST*
%ADD10C,0.100000*%
%ADD11C,0.150000*%
G04 APERTURE END LIST*
D10*
D11*
X90310000Y-63460000D02*
G75*
G03X90310000Y-63460000I-3000000J0D01*
G01*
X90310000Y-33060000D02*
G75*
G03X90310000Y-33060000I-3000000J0D01*
G01*
X72210000Y-61960000D02*
G75*
G03X72210000Y-61960000I-3000000J0D01*
G01*
X72210000Y-34560000D02*
G75*
G03X72210000Y-34560000I-3000000J0D01*
G01*
X72962381Y-47450477D02*
X73676667Y-47450477D01*
X73819524Y-47402857D01*
X73914762Y-47307619D01*
X73962381Y-47164762D01*
X73962381Y-47069524D01*
X73962381Y-48450477D02*
X73962381Y-47879048D01*
X73962381Y-48164762D02*
X72962381Y-48164762D01*
X73105238Y-48069524D01*
X73200476Y-47974286D01*
X73248095Y-47879048D01*
X72962381Y-49069524D02*
X72962381Y-49164763D01*
X73010000Y-49260001D01*
X73057619Y-49307620D01*
X73152857Y-49355239D01*
X73343333Y-49402858D01*
X73581429Y-49402858D01*
X73771905Y-49355239D01*
X73867143Y-49307620D01*
X73914762Y-49260001D01*
X73962381Y-49164763D01*
X73962381Y-49069524D01*
X73914762Y-48974286D01*
X73867143Y-48926667D01*
X73771905Y-48879048D01*
X73581429Y-48831429D01*
X73343333Y-48831429D01*
X73152857Y-48879048D01*
X73057619Y-48926667D01*
X73010000Y-48974286D01*
X72962381Y-49069524D01*
M02*
