M48
;DRILL file {KiCad 4.0.7} date 03/01/18 23:30:06
;FORMAT={-:-/ absolute / inch / decimal}
FMAT,2
INCH,TZ
T1C0.016
T2C0.024
T3C0.030
T4C0.031
T5C0.035
T6C0.039
T7C0.047
T8C0.069
%
G90
G05
M72
T1
X2.1232Y-2.3041
X2.49Y-3.625
X2.59Y-3.715
X2.645Y-3.31
X2.655Y-2.985
X2.7063Y-2.7697
X2.72Y-2.925
X2.76Y-3.285
X2.795Y-2.27
X2.82Y-3.51
X2.83Y-2.43
X2.89Y-1.85
X2.89Y-2.09
X2.89Y-2.37
X2.89Y-2.505
X2.93Y-2.72
X2.94Y-2.49
X2.97Y-2.265
X3.0675Y-2.8419
X3.17Y-2.1
X3.31Y-1.64
X3.5946Y-2.5282
X3.66Y-1.73
X3.67Y-3.93
X3.68Y-2.02
X3.8466Y-1.7254
X4.03Y-2.48
X4.0719Y-3.333
X4.165Y-3.3
X4.165Y-4.
X4.17Y-2.995
X4.17Y-3.615
X4.21Y-2.29
X4.2837Y-2.4168
X4.285Y-2.6394
X4.2955Y-2.7716
X4.3046Y-2.8859
X4.31Y-3.35
X4.3236Y-2.1562
X4.3449Y-2.8151
X4.3596Y-2.4417
X4.37Y-3.85
X4.3729Y-2.5153
X4.3782Y-2.5793
X4.3911Y-2.9514
X4.4Y-2.25
X4.4Y-3.23
X4.444Y-2.2115
X4.4573Y-2.9445
X4.4648Y-2.8812
X4.4672Y-1.7438
X4.4923Y-2.1233
X4.525Y-2.9661
X4.56Y-2.555
X4.5904Y-2.2699
X4.595Y-2.675
X4.625Y-2.615
X4.6335Y-2.8236
X4.6776Y-2.2709
X4.6793Y-2.8273
X4.6834Y-2.7299
X4.6985Y-2.2184
X4.7Y-2.555
X4.7041Y-2.8749
X4.7232Y-2.9843
X4.73Y-2.46
X4.7301Y-2.5831
X4.7468Y-1.6712
X4.7484Y-2.8197
X4.7593Y-2.7202
X4.7624Y-2.3817
X4.815Y-2.405
X4.82Y-1.69
X4.82Y-1.81
X4.8291Y-2.5226
X4.8366Y-2.7786
X4.84Y-2.12
X4.84Y-2.23
X4.8421Y-2.0034
X4.85Y-3.075
X4.87Y-2.33
X4.9649Y-2.5364
X4.98Y-2.91
X5.0085Y-2.6752
X5.04Y-2.9
X5.04Y-3.32
X5.05Y-3.01
X5.0575Y-2.3691
X5.0685Y-2.6866
X5.08Y-4.13
X5.145Y-3.01
X5.15Y-3.73
X5.16Y-2.9
X5.16Y-3.32
X5.18Y-2.53
X5.19Y-3.
X5.33Y-4.08
X5.34Y-4.17
X5.3446Y-1.8356
X5.37Y-4.13
X5.45Y-3.3
X5.47Y-2.23
X5.5353Y-3.8718
X5.55Y-1.91
X5.625Y-2.9
X5.64Y-3.14
X5.735Y-3.23
X5.9Y-1.86
X5.975Y-2.345
X6.16Y-2.1
X6.26Y-2.15
X6.38Y-1.92
T2
X3.5206Y-2.6797
X3.7781Y-2.5072
X3.9211Y-1.3184
T3
X2.8Y-3.75
X2.8Y-4.05
X3.1Y-3.75
X3.1Y-4.05
X3.4Y-3.75
X3.4Y-4.05
X3.5Y-3.75
X3.5Y-4.05
T4
X2.8Y-1.45
X2.8Y-1.85
X2.85Y-2.9
X2.85Y-3.3
X3.05Y-2.9
X3.05Y-3.3
X3.25Y-2.9
X3.25Y-3.3
X3.45Y-2.9
X3.45Y-3.3
X3.65Y-3.2
X3.65Y-3.6
X3.7016Y-3.
X3.7016Y-3.8
X3.75Y-4.0016
X3.75Y-4.1
X3.8Y-3.
X3.8Y-3.2
X3.8Y-3.6
X3.8Y-3.8
X3.95Y-2.95
X3.95Y-3.05
X3.95Y-3.15
X3.95Y-3.25
X3.95Y-3.4
X3.95Y-3.5
X3.95Y-3.6
X3.95Y-3.7
X3.95Y-3.8
X3.95Y-3.9
X3.95Y-4.
X3.95Y-4.1
X4.1516Y-2.05
X4.25Y-2.05
X4.25Y-2.95
X4.25Y-3.05
X4.25Y-3.15
X4.25Y-3.25
X4.25Y-3.4
X4.25Y-3.5
X4.25Y-3.6
X4.25Y-3.7
X4.25Y-3.8
X4.25Y-3.9
X4.25Y-4.
X4.25Y-4.1
X4.39Y-3.05
X4.45Y-3.5
X4.45Y-3.6
X4.45Y-3.7
X4.45Y-3.8
X4.45Y-3.9
X4.45Y-4.
X4.45Y-4.1
X4.4884Y-3.05
X4.5516Y-3.3
X4.65Y-3.3
X4.75Y-3.5
X4.75Y-3.6
X4.75Y-3.7
X4.75Y-3.8
X4.75Y-3.9
X4.75Y-4.
X4.75Y-4.1
X4.9Y-1.6516
X4.9Y-1.75
X4.95Y-3.4
X4.95Y-3.5
X4.95Y-3.6
X4.95Y-3.7
X4.95Y-3.8
X4.95Y-3.9
X4.95Y-4.
X4.95Y-4.1
X5.0516Y-3.2
X5.15Y-3.2
X5.25Y-3.4
X5.25Y-3.5
X5.25Y-3.6
X5.25Y-3.7
X5.25Y-3.8
X5.25Y-3.9
X5.25Y-4.
X5.25Y-4.1
X5.45Y-2.5
X5.45Y-2.6
X5.45Y-2.7
X5.45Y-2.8
X5.45Y-2.9
X5.45Y-3.
X5.45Y-3.1
X5.45Y-3.5
X5.45Y-3.6
X5.45Y-3.7
X5.45Y-3.8
X5.45Y-3.9
X5.45Y-4.
X5.45Y-4.1
X5.55Y-3.3
X5.6Y-1.75
X5.6Y-1.8484
X5.6484Y-3.3
X5.75Y-2.5
X5.75Y-2.6
X5.75Y-2.7
X5.75Y-2.8
X5.75Y-2.9
X5.75Y-3.
X5.75Y-3.1
X5.75Y-3.5
X5.75Y-3.6
X5.75Y-3.7
X5.75Y-3.8
X5.75Y-3.9
X5.75Y-4.
X5.75Y-4.1
X5.9Y-2.2
X5.9Y-2.6
X5.9Y-2.7
X5.9Y-3.1
X6.Y-3.5016
X6.Y-3.6
X6.Y-3.7
X6.Y-4.1
X6.05Y-2.2
X6.05Y-2.6
X6.05Y-2.7
X6.05Y-3.1
X6.2Y-2.7
X6.2Y-3.1
X6.35Y-2.7
X6.35Y-3.1
T5
X3.05Y-3.4
X3.05Y-3.5
X3.25Y-3.4
X3.25Y-3.5
X3.45Y-3.4
X3.45Y-3.5
T6
X3.45Y-1.9
X3.45Y-2.
X3.46Y-1.48
X3.46Y-1.58
X3.46Y-1.68
X3.6Y-1.9
X3.6Y-2.
X3.6Y-2.1
X3.6Y-2.2
X3.6Y-2.3
X3.6Y-2.4
X5.15Y-1.75
X5.25Y-1.75
X5.3Y-2.7
X5.3Y-2.8
X5.3Y-2.9
X5.3Y-3.
X5.35Y-1.75
X6.3Y-3.45
X6.3Y-3.55
X6.3Y-3.65
T7
X3.0031Y-1.4
X3.0031Y-1.4984
X3.1016Y-1.4
X3.1016Y-1.4984
X3.2Y-1.4
X3.2Y-1.4984
X3.7016Y-1.4
X3.8Y-1.4
X4.1031Y-1.4
X4.1031Y-1.4984
X4.2016Y-1.4
X4.2016Y-1.4984
X4.3Y-1.4
X4.3Y-1.4984
X4.6016Y-1.4
X4.7Y-1.4
X5.0016Y-1.4
X5.1Y-1.4
X5.4016Y-1.4
X5.4016Y-1.4984
X5.5Y-1.4
X5.5Y-1.4984
X5.8016Y-1.4
X5.9Y-1.4
X6.1516Y-1.7047
X6.1516Y-1.8031
X6.1516Y-1.9016
X6.1516Y-2.
X6.25Y-1.7047
X6.25Y-1.8031
X6.25Y-1.9016
X6.25Y-2.
X6.25Y-2.3031
X6.25Y-2.4016
X6.25Y-2.5
T8
X2.2425Y-1.8339
X2.2425Y-1.9913
X2.2425Y-2.1488
X2.2425Y-2.3063
X2.2425Y-2.4638
X2.2425Y-2.6213
X2.2425Y-2.7787
X2.2425Y-2.9362
X2.2425Y-3.0937
X2.2425Y-3.2512
X2.2425Y-3.4087
X2.2425Y-3.5661
X2.4Y-1.9126
X2.4Y-2.0701
X2.4Y-2.2276
X2.4Y-2.385
X2.4Y-2.5425
X2.4Y-2.7
X2.4Y-2.8575
X2.4Y-3.015
X2.4Y-3.1724
X2.4Y-3.3299
X2.4Y-3.4874
X2.5575Y-1.8339
X2.5575Y-1.9913
X2.5575Y-2.1488
X2.5575Y-2.3063
X2.5575Y-2.4638
X2.5575Y-2.6213
X2.5575Y-2.7787
X2.5575Y-2.9362
X2.5575Y-3.0937
X2.5575Y-3.2512
X2.5575Y-3.4087
X2.5575Y-3.5661
X2.9925Y-1.7425
X2.9925Y-1.9
X2.9925Y-2.0575
X3.15Y-1.8213
X3.15Y-1.9787
X3.3075Y-1.7425
X3.3075Y-1.9
X3.3075Y-2.0575
T0
M30
