G04 #@! TF.FileFunction,Legend,Top*
%FSLAX46Y46*%
G04 Gerber Fmt 4.6, Leading zero omitted, Abs format (unit mm)*
G04 Created by KiCad (PCBNEW 4.0.7) date 03/01/18 23:30:02*
%MOMM*%
%LPD*%
G01*
G04 APERTURE LIST*
%ADD10C,0.100000*%
%ADD11C,0.200000*%
%ADD12C,0.300000*%
%ADD13C,1.000000*%
%ADD14C,0.120000*%
%ADD15C,0.150000*%
G04 APERTURE END LIST*
D10*
D11*
X100965000Y-71120000D02*
X92710000Y-71120000D01*
X100965000Y-60325000D02*
X100965000Y-71120000D01*
X92710000Y-60325000D02*
X100965000Y-60325000D01*
X92710000Y-71120000D02*
X92710000Y-60325000D01*
D12*
X94497857Y-69627857D02*
X94497857Y-70127857D01*
X95283571Y-70127857D02*
X93783571Y-70127857D01*
X93783571Y-69413571D01*
X95283571Y-68627857D02*
X95212143Y-68770715D01*
X95140714Y-68842143D01*
X94997857Y-68913572D01*
X94569286Y-68913572D01*
X94426429Y-68842143D01*
X94355000Y-68770715D01*
X94283571Y-68627857D01*
X94283571Y-68413572D01*
X94355000Y-68270715D01*
X94426429Y-68199286D01*
X94569286Y-68127857D01*
X94997857Y-68127857D01*
X95140714Y-68199286D01*
X95212143Y-68270715D01*
X95283571Y-68413572D01*
X95283571Y-68627857D01*
X95283571Y-67485000D02*
X94283571Y-67485000D01*
X94569286Y-67485000D02*
X94426429Y-67413572D01*
X94355000Y-67342143D01*
X94283571Y-67199286D01*
X94283571Y-67056429D01*
X95283571Y-66556429D02*
X94283571Y-66556429D01*
X94426429Y-66556429D02*
X94355000Y-66485001D01*
X94283571Y-66342143D01*
X94283571Y-66127858D01*
X94355000Y-65985001D01*
X94497857Y-65913572D01*
X95283571Y-65913572D01*
X94497857Y-65913572D02*
X94355000Y-65842143D01*
X94283571Y-65699286D01*
X94283571Y-65485001D01*
X94355000Y-65342143D01*
X94497857Y-65270715D01*
X95283571Y-65270715D01*
X94283571Y-63913572D02*
X95283571Y-63913572D01*
X94283571Y-64556429D02*
X95069286Y-64556429D01*
X95212143Y-64485001D01*
X95283571Y-64342143D01*
X95283571Y-64127858D01*
X95212143Y-63985001D01*
X95140714Y-63913572D01*
X95283571Y-62985000D02*
X95212143Y-63127858D01*
X95069286Y-63199286D01*
X93783571Y-63199286D01*
X95283571Y-61770715D02*
X94497857Y-61770715D01*
X94355000Y-61842144D01*
X94283571Y-61985001D01*
X94283571Y-62270715D01*
X94355000Y-62413572D01*
X95212143Y-61770715D02*
X95283571Y-61913572D01*
X95283571Y-62270715D01*
X95212143Y-62413572D01*
X95069286Y-62485001D01*
X94926429Y-62485001D01*
X94783571Y-62413572D01*
X94712143Y-62270715D01*
X94712143Y-61913572D01*
X94640714Y-61770715D01*
X97762143Y-70199286D02*
X97833571Y-69985000D01*
X97833571Y-69627857D01*
X97762143Y-69485000D01*
X97690714Y-69413571D01*
X97547857Y-69342143D01*
X97405000Y-69342143D01*
X97262143Y-69413571D01*
X97190714Y-69485000D01*
X97119286Y-69627857D01*
X97047857Y-69913571D01*
X96976429Y-70056429D01*
X96905000Y-70127857D01*
X96762143Y-70199286D01*
X96619286Y-70199286D01*
X96476429Y-70127857D01*
X96405000Y-70056429D01*
X96333571Y-69913571D01*
X96333571Y-69556429D01*
X96405000Y-69342143D01*
X97833571Y-68485000D02*
X97762143Y-68627858D01*
X97619286Y-68699286D01*
X96333571Y-68699286D01*
X96833571Y-67270715D02*
X97833571Y-67270715D01*
X96833571Y-67913572D02*
X97619286Y-67913572D01*
X97762143Y-67842144D01*
X97833571Y-67699286D01*
X97833571Y-67485001D01*
X97762143Y-67342144D01*
X97690714Y-67270715D01*
X96833571Y-65913572D02*
X98047857Y-65913572D01*
X98190714Y-65985001D01*
X98262143Y-66056429D01*
X98333571Y-66199286D01*
X98333571Y-66413572D01*
X98262143Y-66556429D01*
X97762143Y-65913572D02*
X97833571Y-66056429D01*
X97833571Y-66342143D01*
X97762143Y-66485001D01*
X97690714Y-66556429D01*
X97547857Y-66627858D01*
X97119286Y-66627858D01*
X96976429Y-66556429D01*
X96905000Y-66485001D01*
X96833571Y-66342143D01*
X96833571Y-66056429D01*
X96905000Y-65913572D01*
X100383571Y-70127857D02*
X98883571Y-70127857D01*
X98883571Y-69556429D01*
X98955000Y-69413571D01*
X99026429Y-69342143D01*
X99169286Y-69270714D01*
X99383571Y-69270714D01*
X99526429Y-69342143D01*
X99597857Y-69413571D01*
X99669286Y-69556429D01*
X99669286Y-70127857D01*
X99597857Y-68627857D02*
X99597857Y-68127857D01*
X100383571Y-67913571D02*
X100383571Y-68627857D01*
X98883571Y-68627857D01*
X98883571Y-67913571D01*
X100383571Y-65413571D02*
X100383571Y-66127857D01*
X98883571Y-66127857D01*
X98883571Y-65127857D02*
X100383571Y-64627857D01*
X98883571Y-64127857D01*
X98883571Y-62699286D02*
X100383571Y-62199286D01*
X98883571Y-61699286D01*
X99026429Y-61270715D02*
X98955000Y-61199286D01*
X98883571Y-61056429D01*
X98883571Y-60699286D01*
X98955000Y-60556429D01*
X99026429Y-60485000D01*
X99169286Y-60413572D01*
X99312143Y-60413572D01*
X99526429Y-60485000D01*
X100383571Y-61342143D01*
X100383571Y-60413572D01*
X86487143Y-44898571D02*
X87344286Y-44898571D01*
X86915715Y-46398571D02*
X86915715Y-44898571D01*
X87701429Y-44898571D02*
X88701429Y-46398571D01*
X88701429Y-44898571D02*
X87701429Y-46398571D01*
X87380001Y-54018571D02*
X86880001Y-53304286D01*
X86522858Y-54018571D02*
X86522858Y-52518571D01*
X87094286Y-52518571D01*
X87237144Y-52590000D01*
X87308572Y-52661429D01*
X87380001Y-52804286D01*
X87380001Y-53018571D01*
X87308572Y-53161429D01*
X87237144Y-53232857D01*
X87094286Y-53304286D01*
X86522858Y-53304286D01*
X87880001Y-52518571D02*
X88880001Y-54018571D01*
X88880001Y-52518571D02*
X87880001Y-54018571D01*
D13*
X89150000Y-47625000D02*
G75*
G03X89150000Y-47625000I-250000J0D01*
G01*
D12*
X94587143Y-56645714D02*
X94658571Y-56431428D01*
X94658571Y-56074285D01*
X94587143Y-55931428D01*
X94515714Y-55859999D01*
X94372857Y-55788571D01*
X94230000Y-55788571D01*
X94087143Y-55859999D01*
X94015714Y-55931428D01*
X93944286Y-56074285D01*
X93872857Y-56359999D01*
X93801429Y-56502857D01*
X93730000Y-56574285D01*
X93587143Y-56645714D01*
X93444286Y-56645714D01*
X93301429Y-56574285D01*
X93230000Y-56502857D01*
X93158571Y-56359999D01*
X93158571Y-56002857D01*
X93230000Y-55788571D01*
X93158571Y-55288571D02*
X94658571Y-54931428D01*
X93587143Y-54645714D01*
X94658571Y-54360000D01*
X93158571Y-54002857D01*
X94658571Y-53431428D02*
X93158571Y-53431428D01*
X93158571Y-53074285D01*
X93230000Y-52860000D01*
X93372857Y-52717142D01*
X93515714Y-52645714D01*
X93801429Y-52574285D01*
X94015714Y-52574285D01*
X94301429Y-52645714D01*
X94444286Y-52717142D01*
X94587143Y-52860000D01*
X94658571Y-53074285D01*
X94658571Y-53431428D01*
D14*
X154360000Y-47050000D02*
X154360000Y-52670000D01*
X154360000Y-52670000D02*
X160640000Y-52670000D01*
X160640000Y-52670000D02*
X160640000Y-49800000D01*
X160640000Y-49800000D02*
X163500000Y-49800000D01*
X163500000Y-49800000D02*
X163500000Y-47050000D01*
X154360000Y-47050000D02*
X154360000Y-41430000D01*
X154360000Y-41430000D02*
X160640000Y-41430000D01*
X160640000Y-41430000D02*
X160640000Y-44300000D01*
X160640000Y-44300000D02*
X163500000Y-44300000D01*
X163500000Y-44300000D02*
X163500000Y-47050000D01*
X158750000Y-53020000D02*
X159050000Y-53620000D01*
X159050000Y-53620000D02*
X158450000Y-53620000D01*
X158450000Y-53620000D02*
X158750000Y-53020000D01*
X122135000Y-75430000D02*
X122135000Y-74430000D01*
X120435000Y-74430000D02*
X120435000Y-75430000D01*
X124075000Y-72555000D02*
X123575000Y-72555000D01*
X123575000Y-73495000D02*
X124075000Y-73495000D01*
X127250000Y-59855000D02*
X126750000Y-59855000D01*
X126750000Y-60795000D02*
X127250000Y-60795000D01*
X114685000Y-73495000D02*
X115185000Y-73495000D01*
X115185000Y-72555000D02*
X114685000Y-72555000D01*
X113830000Y-55630000D02*
X113830000Y-56130000D01*
X114770000Y-56130000D02*
X114770000Y-55630000D01*
X110325000Y-61845000D02*
X110325000Y-61345000D01*
X109385000Y-61345000D02*
X109385000Y-61845000D01*
X96264000Y-45522000D02*
X96264000Y-44592000D01*
X96264000Y-42362000D02*
X96264000Y-43292000D01*
X96264000Y-42362000D02*
X94104000Y-42362000D01*
X96264000Y-45522000D02*
X94804000Y-45522000D01*
X143240000Y-62170000D02*
G75*
G02X141240000Y-62170000I-1000000J0D01*
G01*
X141240000Y-62170000D02*
X139590000Y-62170000D01*
X139590000Y-62170000D02*
X139590000Y-80070000D01*
X139590000Y-80070000D02*
X144890000Y-80070000D01*
X144890000Y-80070000D02*
X144890000Y-62170000D01*
X144890000Y-62170000D02*
X143240000Y-62170000D01*
X117840000Y-87570000D02*
G75*
G02X115840000Y-87570000I-1000000J0D01*
G01*
X115840000Y-87570000D02*
X114190000Y-87570000D01*
X114190000Y-87570000D02*
X114190000Y-105470000D01*
X114190000Y-105470000D02*
X119490000Y-105470000D01*
X119490000Y-105470000D02*
X119490000Y-87570000D01*
X119490000Y-87570000D02*
X117840000Y-87570000D01*
D15*
X90510000Y-105410000D02*
X69510000Y-105410000D01*
X69510000Y-105410000D02*
X69510000Y-92710000D01*
X69510000Y-92710000D02*
X90510000Y-92710000D01*
X90510000Y-92710000D02*
X90510000Y-105410000D01*
D14*
X130540000Y-85030000D02*
G75*
G02X128540000Y-85030000I-1000000J0D01*
G01*
X128540000Y-85030000D02*
X126890000Y-85030000D01*
X126890000Y-85030000D02*
X126890000Y-105470000D01*
X126890000Y-105470000D02*
X132190000Y-105470000D01*
X132190000Y-105470000D02*
X132190000Y-85030000D01*
X132190000Y-85030000D02*
X130540000Y-85030000D01*
X105140000Y-73600000D02*
G75*
G02X103140000Y-73600000I-1000000J0D01*
G01*
X103140000Y-73600000D02*
X101490000Y-73600000D01*
X101490000Y-73600000D02*
X101490000Y-83880000D01*
X101490000Y-83880000D02*
X106790000Y-83880000D01*
X106790000Y-83880000D02*
X106790000Y-73600000D01*
X106790000Y-73600000D02*
X105140000Y-73600000D01*
X103345000Y-61885000D02*
X103345000Y-66385000D01*
X103345000Y-66385000D02*
X108745000Y-66385000D01*
X143240000Y-87570000D02*
G75*
G02X141240000Y-87570000I-1000000J0D01*
G01*
X141240000Y-87570000D02*
X139590000Y-87570000D01*
X139590000Y-87570000D02*
X139590000Y-105470000D01*
X139590000Y-105470000D02*
X144890000Y-105470000D01*
X144890000Y-105470000D02*
X144890000Y-87570000D01*
X144890000Y-87570000D02*
X143240000Y-87570000D01*
X156860000Y-61000000D02*
X156860000Y-65370000D01*
X156860000Y-65370000D02*
X160640000Y-65370000D01*
X160640000Y-65370000D02*
X160640000Y-63750000D01*
X160640000Y-63750000D02*
X163500000Y-63750000D01*
X163500000Y-63750000D02*
X163500000Y-61000000D01*
X156860000Y-61000000D02*
X156860000Y-56630000D01*
X156860000Y-56630000D02*
X160640000Y-56630000D01*
X160640000Y-56630000D02*
X160640000Y-58250000D01*
X160640000Y-58250000D02*
X163500000Y-58250000D01*
X163500000Y-58250000D02*
X163500000Y-61000000D01*
X158750000Y-65720000D02*
X159050000Y-66320000D01*
X159050000Y-66320000D02*
X158450000Y-66320000D01*
X158450000Y-66320000D02*
X158750000Y-65720000D01*
X95270000Y-37450000D02*
X98390000Y-37450000D01*
X98390000Y-37450000D02*
X98390000Y-33670000D01*
X98390000Y-33670000D02*
X98020000Y-33670000D01*
X98020000Y-33670000D02*
X98020000Y-30810000D01*
X98020000Y-30810000D02*
X95270000Y-30810000D01*
X95270000Y-37450000D02*
X92150000Y-37450000D01*
X92150000Y-37450000D02*
X92150000Y-33670000D01*
X92150000Y-33670000D02*
X92520000Y-33670000D01*
X92520000Y-33670000D02*
X92520000Y-30810000D01*
X92520000Y-30810000D02*
X95270000Y-30810000D01*
X98740000Y-35560000D02*
X99340000Y-35260000D01*
X99340000Y-35260000D02*
X99340000Y-35860000D01*
X99340000Y-35860000D02*
X98740000Y-35560000D01*
X118130000Y-37450000D02*
X121250000Y-37450000D01*
X121250000Y-37450000D02*
X121250000Y-33670000D01*
X121250000Y-33670000D02*
X120880000Y-33670000D01*
X120880000Y-33670000D02*
X120880000Y-30810000D01*
X120880000Y-30810000D02*
X118130000Y-30810000D01*
X118130000Y-37450000D02*
X115010000Y-37450000D01*
X115010000Y-37450000D02*
X115010000Y-33670000D01*
X115010000Y-33670000D02*
X115380000Y-33670000D01*
X115380000Y-33670000D02*
X115380000Y-30810000D01*
X115380000Y-30810000D02*
X118130000Y-30810000D01*
X121600000Y-35560000D02*
X122200000Y-35260000D01*
X122200000Y-35260000D02*
X122200000Y-35860000D01*
X122200000Y-35860000D02*
X121600000Y-35560000D01*
X148610000Y-37450000D02*
X151730000Y-37450000D01*
X151730000Y-37450000D02*
X151730000Y-33670000D01*
X151730000Y-33670000D02*
X151360000Y-33670000D01*
X151360000Y-33670000D02*
X151360000Y-30810000D01*
X151360000Y-30810000D02*
X148610000Y-30810000D01*
X148610000Y-37450000D02*
X145490000Y-37450000D01*
X145490000Y-37450000D02*
X145490000Y-33670000D01*
X145490000Y-33670000D02*
X145860000Y-33670000D01*
X145860000Y-33670000D02*
X145860000Y-30810000D01*
X145860000Y-30810000D02*
X148610000Y-30810000D01*
X152080000Y-35560000D02*
X152680000Y-35260000D01*
X152680000Y-35260000D02*
X152680000Y-35860000D01*
X152680000Y-35860000D02*
X152080000Y-35560000D01*
X128290000Y-37450000D02*
X131410000Y-37450000D01*
X131410000Y-37450000D02*
X131410000Y-33670000D01*
X131410000Y-33670000D02*
X131040000Y-33670000D01*
X131040000Y-33670000D02*
X131040000Y-30810000D01*
X131040000Y-30810000D02*
X128290000Y-30810000D01*
X128290000Y-37450000D02*
X125170000Y-37450000D01*
X125170000Y-37450000D02*
X125170000Y-33670000D01*
X125170000Y-33670000D02*
X125540000Y-33670000D01*
X125540000Y-33670000D02*
X125540000Y-30810000D01*
X125540000Y-30810000D02*
X128290000Y-30810000D01*
X131760000Y-35560000D02*
X132360000Y-35260000D01*
X132360000Y-35260000D02*
X132360000Y-35860000D01*
X132360000Y-35860000D02*
X131760000Y-35560000D01*
X105140000Y-85030000D02*
G75*
G02X103140000Y-85030000I-1000000J0D01*
G01*
X103140000Y-85030000D02*
X101490000Y-85030000D01*
X101490000Y-85030000D02*
X101490000Y-105470000D01*
X101490000Y-105470000D02*
X106790000Y-105470000D01*
X106790000Y-105470000D02*
X106790000Y-85030000D01*
X106790000Y-85030000D02*
X105140000Y-85030000D01*
X131110000Y-47350000D02*
X129610000Y-47350000D01*
X129610000Y-47350000D02*
X129610000Y-47620000D01*
X129610000Y-47620000D02*
X126780000Y-47620000D01*
X131110000Y-54250000D02*
X129610000Y-54250000D01*
X129610000Y-54250000D02*
X129610000Y-53980000D01*
X129610000Y-53980000D02*
X128510000Y-53980000D01*
X128230000Y-41830000D02*
X138470000Y-41830000D01*
X128230000Y-46471000D02*
X138470000Y-46471000D01*
X128230000Y-41830000D02*
X128230000Y-46471000D01*
X138470000Y-41830000D02*
X138470000Y-46471000D01*
X128230000Y-43340000D02*
X138470000Y-43340000D01*
X131500000Y-41830000D02*
X131500000Y-43340000D01*
X135201000Y-41830000D02*
X135201000Y-43340000D01*
D15*
X113030000Y-53340000D02*
X118110000Y-53340000D01*
X118110000Y-53340000D02*
X118110000Y-43180000D01*
X118110000Y-43180000D02*
X113030000Y-43180000D01*
X113030000Y-43180000D02*
X113030000Y-53340000D01*
X114300000Y-53340000D02*
X114300000Y-52070000D01*
X114300000Y-52070000D02*
X116840000Y-52070000D01*
X116840000Y-52070000D02*
X116840000Y-53340000D01*
X112935000Y-59595000D02*
X112935000Y-60595000D01*
X123285000Y-59595000D02*
X123285000Y-60670000D01*
X123285000Y-69945000D02*
X123285000Y-68870000D01*
X112935000Y-69945000D02*
X112935000Y-68870000D01*
X112935000Y-59595000D02*
X114010000Y-59595000D01*
X112935000Y-69945000D02*
X114010000Y-69945000D01*
X123285000Y-69945000D02*
X122210000Y-69945000D01*
X123285000Y-59595000D02*
X122210000Y-59595000D01*
X112935000Y-60595000D02*
X111910000Y-60595000D01*
D14*
X112169000Y-76609000D02*
X113343000Y-76609000D01*
X112169000Y-78331000D02*
X113343000Y-78331000D01*
X114554278Y-84999723D02*
G75*
G03X119165580Y-85000000I2305722J1179723D01*
G01*
X114554278Y-82640277D02*
G75*
G02X119165580Y-82640000I2305722J-1179723D01*
G01*
X114554278Y-82640277D02*
G75*
G03X114554420Y-85000000I2305722J-1179723D01*
G01*
X116860000Y-86370000D02*
X116860000Y-81270000D01*
X116820000Y-86370000D02*
X116820000Y-81270000D01*
X116780000Y-86369000D02*
X116780000Y-81271000D01*
X116740000Y-86368000D02*
X116740000Y-81272000D01*
X116700000Y-86366000D02*
X116700000Y-81274000D01*
X116660000Y-86363000D02*
X116660000Y-81277000D01*
X116620000Y-86359000D02*
X116620000Y-81281000D01*
X116580000Y-86355000D02*
X116580000Y-84800000D01*
X116580000Y-82840000D02*
X116580000Y-81285000D01*
X116540000Y-86351000D02*
X116540000Y-84800000D01*
X116540000Y-82840000D02*
X116540000Y-81289000D01*
X116500000Y-86345000D02*
X116500000Y-84800000D01*
X116500000Y-82840000D02*
X116500000Y-81295000D01*
X116460000Y-86339000D02*
X116460000Y-84800000D01*
X116460000Y-82840000D02*
X116460000Y-81301000D01*
X116420000Y-86333000D02*
X116420000Y-84800000D01*
X116420000Y-82840000D02*
X116420000Y-81307000D01*
X116380000Y-86326000D02*
X116380000Y-84800000D01*
X116380000Y-82840000D02*
X116380000Y-81314000D01*
X116340000Y-86318000D02*
X116340000Y-84800000D01*
X116340000Y-82840000D02*
X116340000Y-81322000D01*
X116300000Y-86309000D02*
X116300000Y-84800000D01*
X116300000Y-82840000D02*
X116300000Y-81331000D01*
X116260000Y-86300000D02*
X116260000Y-84800000D01*
X116260000Y-82840000D02*
X116260000Y-81340000D01*
X116220000Y-86290000D02*
X116220000Y-84800000D01*
X116220000Y-82840000D02*
X116220000Y-81350000D01*
X116180000Y-86280000D02*
X116180000Y-84800000D01*
X116180000Y-82840000D02*
X116180000Y-81360000D01*
X116139000Y-86268000D02*
X116139000Y-84800000D01*
X116139000Y-82840000D02*
X116139000Y-81372000D01*
X116099000Y-86256000D02*
X116099000Y-84800000D01*
X116099000Y-82840000D02*
X116099000Y-81384000D01*
X116059000Y-86244000D02*
X116059000Y-84800000D01*
X116059000Y-82840000D02*
X116059000Y-81396000D01*
X116019000Y-86230000D02*
X116019000Y-84800000D01*
X116019000Y-82840000D02*
X116019000Y-81410000D01*
X115979000Y-86216000D02*
X115979000Y-84800000D01*
X115979000Y-82840000D02*
X115979000Y-81424000D01*
X115939000Y-86202000D02*
X115939000Y-84800000D01*
X115939000Y-82840000D02*
X115939000Y-81438000D01*
X115899000Y-86186000D02*
X115899000Y-84800000D01*
X115899000Y-82840000D02*
X115899000Y-81454000D01*
X115859000Y-86170000D02*
X115859000Y-84800000D01*
X115859000Y-82840000D02*
X115859000Y-81470000D01*
X115819000Y-86153000D02*
X115819000Y-84800000D01*
X115819000Y-82840000D02*
X115819000Y-81487000D01*
X115779000Y-86135000D02*
X115779000Y-84800000D01*
X115779000Y-82840000D02*
X115779000Y-81505000D01*
X115739000Y-86116000D02*
X115739000Y-84800000D01*
X115739000Y-82840000D02*
X115739000Y-81524000D01*
X115699000Y-86096000D02*
X115699000Y-84800000D01*
X115699000Y-82840000D02*
X115699000Y-81544000D01*
X115659000Y-86076000D02*
X115659000Y-84800000D01*
X115659000Y-82840000D02*
X115659000Y-81564000D01*
X115619000Y-86054000D02*
X115619000Y-84800000D01*
X115619000Y-82840000D02*
X115619000Y-81586000D01*
X115579000Y-86032000D02*
X115579000Y-84800000D01*
X115579000Y-82840000D02*
X115579000Y-81608000D01*
X115539000Y-86009000D02*
X115539000Y-84800000D01*
X115539000Y-82840000D02*
X115539000Y-81631000D01*
X115499000Y-85985000D02*
X115499000Y-84800000D01*
X115499000Y-82840000D02*
X115499000Y-81655000D01*
X115459000Y-85960000D02*
X115459000Y-84800000D01*
X115459000Y-82840000D02*
X115459000Y-81680000D01*
X115419000Y-85933000D02*
X115419000Y-84800000D01*
X115419000Y-82840000D02*
X115419000Y-81707000D01*
X115379000Y-85906000D02*
X115379000Y-84800000D01*
X115379000Y-82840000D02*
X115379000Y-81734000D01*
X115339000Y-85878000D02*
X115339000Y-84800000D01*
X115339000Y-82840000D02*
X115339000Y-81762000D01*
X115299000Y-85848000D02*
X115299000Y-84800000D01*
X115299000Y-82840000D02*
X115299000Y-81792000D01*
X115259000Y-85817000D02*
X115259000Y-84800000D01*
X115259000Y-82840000D02*
X115259000Y-81823000D01*
X115219000Y-85785000D02*
X115219000Y-84800000D01*
X115219000Y-82840000D02*
X115219000Y-81855000D01*
X115179000Y-85752000D02*
X115179000Y-84800000D01*
X115179000Y-82840000D02*
X115179000Y-81888000D01*
X115139000Y-85717000D02*
X115139000Y-84800000D01*
X115139000Y-82840000D02*
X115139000Y-81923000D01*
X115099000Y-85681000D02*
X115099000Y-84800000D01*
X115099000Y-82840000D02*
X115099000Y-81959000D01*
X115059000Y-85643000D02*
X115059000Y-84800000D01*
X115059000Y-82840000D02*
X115059000Y-81997000D01*
X115019000Y-85603000D02*
X115019000Y-84800000D01*
X115019000Y-82840000D02*
X115019000Y-82037000D01*
X114979000Y-85562000D02*
X114979000Y-84800000D01*
X114979000Y-82840000D02*
X114979000Y-82078000D01*
X114939000Y-85519000D02*
X114939000Y-84800000D01*
X114939000Y-82840000D02*
X114939000Y-82121000D01*
X114899000Y-85474000D02*
X114899000Y-84800000D01*
X114899000Y-82840000D02*
X114899000Y-82166000D01*
X114859000Y-85426000D02*
X114859000Y-84800000D01*
X114859000Y-82840000D02*
X114859000Y-82214000D01*
X114819000Y-85376000D02*
X114819000Y-84800000D01*
X114819000Y-82840000D02*
X114819000Y-82264000D01*
X114779000Y-85324000D02*
X114779000Y-84800000D01*
X114779000Y-82840000D02*
X114779000Y-82316000D01*
X114739000Y-85268000D02*
X114739000Y-84800000D01*
X114739000Y-82840000D02*
X114739000Y-82372000D01*
X114699000Y-85210000D02*
X114699000Y-84800000D01*
X114699000Y-82840000D02*
X114699000Y-82430000D01*
X114659000Y-85147000D02*
X114659000Y-84800000D01*
X114659000Y-82840000D02*
X114659000Y-82493000D01*
X114619000Y-85081000D02*
X114619000Y-82559000D01*
X114579000Y-85009000D02*
X114579000Y-82631000D01*
X114539000Y-84932000D02*
X114539000Y-82708000D01*
X114499000Y-84848000D02*
X114499000Y-82792000D01*
X114459000Y-84754000D02*
X114459000Y-82886000D01*
X114419000Y-84649000D02*
X114419000Y-82991000D01*
X114379000Y-84527000D02*
X114379000Y-83113000D01*
X114339000Y-84379000D02*
X114339000Y-83261000D01*
X114299000Y-84174000D02*
X114299000Y-83466000D01*
X120310000Y-83820000D02*
X119110000Y-83820000D01*
X119710000Y-84470000D02*
X119710000Y-83170000D01*
X127254278Y-82459723D02*
G75*
G03X131865580Y-82460000I2305722J1179723D01*
G01*
X127254278Y-80100277D02*
G75*
G02X131865580Y-80100000I2305722J-1179723D01*
G01*
X127254278Y-80100277D02*
G75*
G03X127254420Y-82460000I2305722J-1179723D01*
G01*
X129560000Y-83830000D02*
X129560000Y-78730000D01*
X129520000Y-83830000D02*
X129520000Y-78730000D01*
X129480000Y-83829000D02*
X129480000Y-78731000D01*
X129440000Y-83828000D02*
X129440000Y-78732000D01*
X129400000Y-83826000D02*
X129400000Y-78734000D01*
X129360000Y-83823000D02*
X129360000Y-78737000D01*
X129320000Y-83819000D02*
X129320000Y-78741000D01*
X129280000Y-83815000D02*
X129280000Y-82260000D01*
X129280000Y-80300000D02*
X129280000Y-78745000D01*
X129240000Y-83811000D02*
X129240000Y-82260000D01*
X129240000Y-80300000D02*
X129240000Y-78749000D01*
X129200000Y-83805000D02*
X129200000Y-82260000D01*
X129200000Y-80300000D02*
X129200000Y-78755000D01*
X129160000Y-83799000D02*
X129160000Y-82260000D01*
X129160000Y-80300000D02*
X129160000Y-78761000D01*
X129120000Y-83793000D02*
X129120000Y-82260000D01*
X129120000Y-80300000D02*
X129120000Y-78767000D01*
X129080000Y-83786000D02*
X129080000Y-82260000D01*
X129080000Y-80300000D02*
X129080000Y-78774000D01*
X129040000Y-83778000D02*
X129040000Y-82260000D01*
X129040000Y-80300000D02*
X129040000Y-78782000D01*
X129000000Y-83769000D02*
X129000000Y-82260000D01*
X129000000Y-80300000D02*
X129000000Y-78791000D01*
X128960000Y-83760000D02*
X128960000Y-82260000D01*
X128960000Y-80300000D02*
X128960000Y-78800000D01*
X128920000Y-83750000D02*
X128920000Y-82260000D01*
X128920000Y-80300000D02*
X128920000Y-78810000D01*
X128880000Y-83740000D02*
X128880000Y-82260000D01*
X128880000Y-80300000D02*
X128880000Y-78820000D01*
X128839000Y-83728000D02*
X128839000Y-82260000D01*
X128839000Y-80300000D02*
X128839000Y-78832000D01*
X128799000Y-83716000D02*
X128799000Y-82260000D01*
X128799000Y-80300000D02*
X128799000Y-78844000D01*
X128759000Y-83704000D02*
X128759000Y-82260000D01*
X128759000Y-80300000D02*
X128759000Y-78856000D01*
X128719000Y-83690000D02*
X128719000Y-82260000D01*
X128719000Y-80300000D02*
X128719000Y-78870000D01*
X128679000Y-83676000D02*
X128679000Y-82260000D01*
X128679000Y-80300000D02*
X128679000Y-78884000D01*
X128639000Y-83662000D02*
X128639000Y-82260000D01*
X128639000Y-80300000D02*
X128639000Y-78898000D01*
X128599000Y-83646000D02*
X128599000Y-82260000D01*
X128599000Y-80300000D02*
X128599000Y-78914000D01*
X128559000Y-83630000D02*
X128559000Y-82260000D01*
X128559000Y-80300000D02*
X128559000Y-78930000D01*
X128519000Y-83613000D02*
X128519000Y-82260000D01*
X128519000Y-80300000D02*
X128519000Y-78947000D01*
X128479000Y-83595000D02*
X128479000Y-82260000D01*
X128479000Y-80300000D02*
X128479000Y-78965000D01*
X128439000Y-83576000D02*
X128439000Y-82260000D01*
X128439000Y-80300000D02*
X128439000Y-78984000D01*
X128399000Y-83556000D02*
X128399000Y-82260000D01*
X128399000Y-80300000D02*
X128399000Y-79004000D01*
X128359000Y-83536000D02*
X128359000Y-82260000D01*
X128359000Y-80300000D02*
X128359000Y-79024000D01*
X128319000Y-83514000D02*
X128319000Y-82260000D01*
X128319000Y-80300000D02*
X128319000Y-79046000D01*
X128279000Y-83492000D02*
X128279000Y-82260000D01*
X128279000Y-80300000D02*
X128279000Y-79068000D01*
X128239000Y-83469000D02*
X128239000Y-82260000D01*
X128239000Y-80300000D02*
X128239000Y-79091000D01*
X128199000Y-83445000D02*
X128199000Y-82260000D01*
X128199000Y-80300000D02*
X128199000Y-79115000D01*
X128159000Y-83420000D02*
X128159000Y-82260000D01*
X128159000Y-80300000D02*
X128159000Y-79140000D01*
X128119000Y-83393000D02*
X128119000Y-82260000D01*
X128119000Y-80300000D02*
X128119000Y-79167000D01*
X128079000Y-83366000D02*
X128079000Y-82260000D01*
X128079000Y-80300000D02*
X128079000Y-79194000D01*
X128039000Y-83338000D02*
X128039000Y-82260000D01*
X128039000Y-80300000D02*
X128039000Y-79222000D01*
X127999000Y-83308000D02*
X127999000Y-82260000D01*
X127999000Y-80300000D02*
X127999000Y-79252000D01*
X127959000Y-83277000D02*
X127959000Y-82260000D01*
X127959000Y-80300000D02*
X127959000Y-79283000D01*
X127919000Y-83245000D02*
X127919000Y-82260000D01*
X127919000Y-80300000D02*
X127919000Y-79315000D01*
X127879000Y-83212000D02*
X127879000Y-82260000D01*
X127879000Y-80300000D02*
X127879000Y-79348000D01*
X127839000Y-83177000D02*
X127839000Y-82260000D01*
X127839000Y-80300000D02*
X127839000Y-79383000D01*
X127799000Y-83141000D02*
X127799000Y-82260000D01*
X127799000Y-80300000D02*
X127799000Y-79419000D01*
X127759000Y-83103000D02*
X127759000Y-82260000D01*
X127759000Y-80300000D02*
X127759000Y-79457000D01*
X127719000Y-83063000D02*
X127719000Y-82260000D01*
X127719000Y-80300000D02*
X127719000Y-79497000D01*
X127679000Y-83022000D02*
X127679000Y-82260000D01*
X127679000Y-80300000D02*
X127679000Y-79538000D01*
X127639000Y-82979000D02*
X127639000Y-82260000D01*
X127639000Y-80300000D02*
X127639000Y-79581000D01*
X127599000Y-82934000D02*
X127599000Y-82260000D01*
X127599000Y-80300000D02*
X127599000Y-79626000D01*
X127559000Y-82886000D02*
X127559000Y-82260000D01*
X127559000Y-80300000D02*
X127559000Y-79674000D01*
X127519000Y-82836000D02*
X127519000Y-82260000D01*
X127519000Y-80300000D02*
X127519000Y-79724000D01*
X127479000Y-82784000D02*
X127479000Y-82260000D01*
X127479000Y-80300000D02*
X127479000Y-79776000D01*
X127439000Y-82728000D02*
X127439000Y-82260000D01*
X127439000Y-80300000D02*
X127439000Y-79832000D01*
X127399000Y-82670000D02*
X127399000Y-82260000D01*
X127399000Y-80300000D02*
X127399000Y-79890000D01*
X127359000Y-82607000D02*
X127359000Y-82260000D01*
X127359000Y-80300000D02*
X127359000Y-79953000D01*
X127319000Y-82541000D02*
X127319000Y-80019000D01*
X127279000Y-82469000D02*
X127279000Y-80091000D01*
X127239000Y-82392000D02*
X127239000Y-80168000D01*
X127199000Y-82308000D02*
X127199000Y-80252000D01*
X127159000Y-82214000D02*
X127159000Y-80346000D01*
X127119000Y-82109000D02*
X127119000Y-80451000D01*
X127079000Y-81987000D02*
X127079000Y-80573000D01*
X127039000Y-81839000D02*
X127039000Y-80721000D01*
X126999000Y-81634000D02*
X126999000Y-80926000D01*
X133010000Y-81280000D02*
X131810000Y-81280000D01*
X132410000Y-81930000D02*
X132410000Y-80630000D01*
X151220277Y-87884278D02*
G75*
G03X151220000Y-92495580I1179723J-2305722D01*
G01*
X153579723Y-87884278D02*
G75*
G02X153580000Y-92495580I-1179723J-2305722D01*
G01*
X153579723Y-87884278D02*
G75*
G03X151220000Y-87884420I-1179723J-2305722D01*
G01*
X149850000Y-90190000D02*
X154950000Y-90190000D01*
X149850000Y-90150000D02*
X154950000Y-90150000D01*
X149851000Y-90110000D02*
X154949000Y-90110000D01*
X149852000Y-90070000D02*
X154948000Y-90070000D01*
X149854000Y-90030000D02*
X154946000Y-90030000D01*
X149857000Y-89990000D02*
X154943000Y-89990000D01*
X149861000Y-89950000D02*
X154939000Y-89950000D01*
X149865000Y-89910000D02*
X151420000Y-89910000D01*
X153380000Y-89910000D02*
X154935000Y-89910000D01*
X149869000Y-89870000D02*
X151420000Y-89870000D01*
X153380000Y-89870000D02*
X154931000Y-89870000D01*
X149875000Y-89830000D02*
X151420000Y-89830000D01*
X153380000Y-89830000D02*
X154925000Y-89830000D01*
X149881000Y-89790000D02*
X151420000Y-89790000D01*
X153380000Y-89790000D02*
X154919000Y-89790000D01*
X149887000Y-89750000D02*
X151420000Y-89750000D01*
X153380000Y-89750000D02*
X154913000Y-89750000D01*
X149894000Y-89710000D02*
X151420000Y-89710000D01*
X153380000Y-89710000D02*
X154906000Y-89710000D01*
X149902000Y-89670000D02*
X151420000Y-89670000D01*
X153380000Y-89670000D02*
X154898000Y-89670000D01*
X149911000Y-89630000D02*
X151420000Y-89630000D01*
X153380000Y-89630000D02*
X154889000Y-89630000D01*
X149920000Y-89590000D02*
X151420000Y-89590000D01*
X153380000Y-89590000D02*
X154880000Y-89590000D01*
X149930000Y-89550000D02*
X151420000Y-89550000D01*
X153380000Y-89550000D02*
X154870000Y-89550000D01*
X149940000Y-89510000D02*
X151420000Y-89510000D01*
X153380000Y-89510000D02*
X154860000Y-89510000D01*
X149952000Y-89469000D02*
X151420000Y-89469000D01*
X153380000Y-89469000D02*
X154848000Y-89469000D01*
X149964000Y-89429000D02*
X151420000Y-89429000D01*
X153380000Y-89429000D02*
X154836000Y-89429000D01*
X149976000Y-89389000D02*
X151420000Y-89389000D01*
X153380000Y-89389000D02*
X154824000Y-89389000D01*
X149990000Y-89349000D02*
X151420000Y-89349000D01*
X153380000Y-89349000D02*
X154810000Y-89349000D01*
X150004000Y-89309000D02*
X151420000Y-89309000D01*
X153380000Y-89309000D02*
X154796000Y-89309000D01*
X150018000Y-89269000D02*
X151420000Y-89269000D01*
X153380000Y-89269000D02*
X154782000Y-89269000D01*
X150034000Y-89229000D02*
X151420000Y-89229000D01*
X153380000Y-89229000D02*
X154766000Y-89229000D01*
X150050000Y-89189000D02*
X151420000Y-89189000D01*
X153380000Y-89189000D02*
X154750000Y-89189000D01*
X150067000Y-89149000D02*
X151420000Y-89149000D01*
X153380000Y-89149000D02*
X154733000Y-89149000D01*
X150085000Y-89109000D02*
X151420000Y-89109000D01*
X153380000Y-89109000D02*
X154715000Y-89109000D01*
X150104000Y-89069000D02*
X151420000Y-89069000D01*
X153380000Y-89069000D02*
X154696000Y-89069000D01*
X150124000Y-89029000D02*
X151420000Y-89029000D01*
X153380000Y-89029000D02*
X154676000Y-89029000D01*
X150144000Y-88989000D02*
X151420000Y-88989000D01*
X153380000Y-88989000D02*
X154656000Y-88989000D01*
X150166000Y-88949000D02*
X151420000Y-88949000D01*
X153380000Y-88949000D02*
X154634000Y-88949000D01*
X150188000Y-88909000D02*
X151420000Y-88909000D01*
X153380000Y-88909000D02*
X154612000Y-88909000D01*
X150211000Y-88869000D02*
X151420000Y-88869000D01*
X153380000Y-88869000D02*
X154589000Y-88869000D01*
X150235000Y-88829000D02*
X151420000Y-88829000D01*
X153380000Y-88829000D02*
X154565000Y-88829000D01*
X150260000Y-88789000D02*
X151420000Y-88789000D01*
X153380000Y-88789000D02*
X154540000Y-88789000D01*
X150287000Y-88749000D02*
X151420000Y-88749000D01*
X153380000Y-88749000D02*
X154513000Y-88749000D01*
X150314000Y-88709000D02*
X151420000Y-88709000D01*
X153380000Y-88709000D02*
X154486000Y-88709000D01*
X150342000Y-88669000D02*
X151420000Y-88669000D01*
X153380000Y-88669000D02*
X154458000Y-88669000D01*
X150372000Y-88629000D02*
X151420000Y-88629000D01*
X153380000Y-88629000D02*
X154428000Y-88629000D01*
X150403000Y-88589000D02*
X151420000Y-88589000D01*
X153380000Y-88589000D02*
X154397000Y-88589000D01*
X150435000Y-88549000D02*
X151420000Y-88549000D01*
X153380000Y-88549000D02*
X154365000Y-88549000D01*
X150468000Y-88509000D02*
X151420000Y-88509000D01*
X153380000Y-88509000D02*
X154332000Y-88509000D01*
X150503000Y-88469000D02*
X151420000Y-88469000D01*
X153380000Y-88469000D02*
X154297000Y-88469000D01*
X150539000Y-88429000D02*
X151420000Y-88429000D01*
X153380000Y-88429000D02*
X154261000Y-88429000D01*
X150577000Y-88389000D02*
X151420000Y-88389000D01*
X153380000Y-88389000D02*
X154223000Y-88389000D01*
X150617000Y-88349000D02*
X151420000Y-88349000D01*
X153380000Y-88349000D02*
X154183000Y-88349000D01*
X150658000Y-88309000D02*
X151420000Y-88309000D01*
X153380000Y-88309000D02*
X154142000Y-88309000D01*
X150701000Y-88269000D02*
X151420000Y-88269000D01*
X153380000Y-88269000D02*
X154099000Y-88269000D01*
X150746000Y-88229000D02*
X151420000Y-88229000D01*
X153380000Y-88229000D02*
X154054000Y-88229000D01*
X150794000Y-88189000D02*
X151420000Y-88189000D01*
X153380000Y-88189000D02*
X154006000Y-88189000D01*
X150844000Y-88149000D02*
X151420000Y-88149000D01*
X153380000Y-88149000D02*
X153956000Y-88149000D01*
X150896000Y-88109000D02*
X151420000Y-88109000D01*
X153380000Y-88109000D02*
X153904000Y-88109000D01*
X150952000Y-88069000D02*
X151420000Y-88069000D01*
X153380000Y-88069000D02*
X153848000Y-88069000D01*
X151010000Y-88029000D02*
X151420000Y-88029000D01*
X153380000Y-88029000D02*
X153790000Y-88029000D01*
X151073000Y-87989000D02*
X151420000Y-87989000D01*
X153380000Y-87989000D02*
X153727000Y-87989000D01*
X151139000Y-87949000D02*
X153661000Y-87949000D01*
X151211000Y-87909000D02*
X153589000Y-87909000D01*
X151288000Y-87869000D02*
X153512000Y-87869000D01*
X151372000Y-87829000D02*
X153428000Y-87829000D01*
X151466000Y-87789000D02*
X153334000Y-87789000D01*
X151571000Y-87749000D02*
X153229000Y-87749000D01*
X151693000Y-87709000D02*
X153107000Y-87709000D01*
X151841000Y-87669000D02*
X152959000Y-87669000D01*
X152046000Y-87629000D02*
X152754000Y-87629000D01*
X152400000Y-93640000D02*
X152400000Y-92440000D01*
X151750000Y-93040000D02*
X153050000Y-93040000D01*
X92964278Y-77379723D02*
G75*
G03X97575580Y-77380000I2305722J1179723D01*
G01*
X92964278Y-75020277D02*
G75*
G02X97575580Y-75020000I2305722J-1179723D01*
G01*
X92964278Y-75020277D02*
G75*
G03X92964420Y-77380000I2305722J-1179723D01*
G01*
X95270000Y-78750000D02*
X95270000Y-73650000D01*
X95230000Y-78750000D02*
X95230000Y-73650000D01*
X95190000Y-78749000D02*
X95190000Y-73651000D01*
X95150000Y-78748000D02*
X95150000Y-73652000D01*
X95110000Y-78746000D02*
X95110000Y-73654000D01*
X95070000Y-78743000D02*
X95070000Y-73657000D01*
X95030000Y-78739000D02*
X95030000Y-73661000D01*
X94990000Y-78735000D02*
X94990000Y-77180000D01*
X94990000Y-75220000D02*
X94990000Y-73665000D01*
X94950000Y-78731000D02*
X94950000Y-77180000D01*
X94950000Y-75220000D02*
X94950000Y-73669000D01*
X94910000Y-78725000D02*
X94910000Y-77180000D01*
X94910000Y-75220000D02*
X94910000Y-73675000D01*
X94870000Y-78719000D02*
X94870000Y-77180000D01*
X94870000Y-75220000D02*
X94870000Y-73681000D01*
X94830000Y-78713000D02*
X94830000Y-77180000D01*
X94830000Y-75220000D02*
X94830000Y-73687000D01*
X94790000Y-78706000D02*
X94790000Y-77180000D01*
X94790000Y-75220000D02*
X94790000Y-73694000D01*
X94750000Y-78698000D02*
X94750000Y-77180000D01*
X94750000Y-75220000D02*
X94750000Y-73702000D01*
X94710000Y-78689000D02*
X94710000Y-77180000D01*
X94710000Y-75220000D02*
X94710000Y-73711000D01*
X94670000Y-78680000D02*
X94670000Y-77180000D01*
X94670000Y-75220000D02*
X94670000Y-73720000D01*
X94630000Y-78670000D02*
X94630000Y-77180000D01*
X94630000Y-75220000D02*
X94630000Y-73730000D01*
X94590000Y-78660000D02*
X94590000Y-77180000D01*
X94590000Y-75220000D02*
X94590000Y-73740000D01*
X94549000Y-78648000D02*
X94549000Y-77180000D01*
X94549000Y-75220000D02*
X94549000Y-73752000D01*
X94509000Y-78636000D02*
X94509000Y-77180000D01*
X94509000Y-75220000D02*
X94509000Y-73764000D01*
X94469000Y-78624000D02*
X94469000Y-77180000D01*
X94469000Y-75220000D02*
X94469000Y-73776000D01*
X94429000Y-78610000D02*
X94429000Y-77180000D01*
X94429000Y-75220000D02*
X94429000Y-73790000D01*
X94389000Y-78596000D02*
X94389000Y-77180000D01*
X94389000Y-75220000D02*
X94389000Y-73804000D01*
X94349000Y-78582000D02*
X94349000Y-77180000D01*
X94349000Y-75220000D02*
X94349000Y-73818000D01*
X94309000Y-78566000D02*
X94309000Y-77180000D01*
X94309000Y-75220000D02*
X94309000Y-73834000D01*
X94269000Y-78550000D02*
X94269000Y-77180000D01*
X94269000Y-75220000D02*
X94269000Y-73850000D01*
X94229000Y-78533000D02*
X94229000Y-77180000D01*
X94229000Y-75220000D02*
X94229000Y-73867000D01*
X94189000Y-78515000D02*
X94189000Y-77180000D01*
X94189000Y-75220000D02*
X94189000Y-73885000D01*
X94149000Y-78496000D02*
X94149000Y-77180000D01*
X94149000Y-75220000D02*
X94149000Y-73904000D01*
X94109000Y-78476000D02*
X94109000Y-77180000D01*
X94109000Y-75220000D02*
X94109000Y-73924000D01*
X94069000Y-78456000D02*
X94069000Y-77180000D01*
X94069000Y-75220000D02*
X94069000Y-73944000D01*
X94029000Y-78434000D02*
X94029000Y-77180000D01*
X94029000Y-75220000D02*
X94029000Y-73966000D01*
X93989000Y-78412000D02*
X93989000Y-77180000D01*
X93989000Y-75220000D02*
X93989000Y-73988000D01*
X93949000Y-78389000D02*
X93949000Y-77180000D01*
X93949000Y-75220000D02*
X93949000Y-74011000D01*
X93909000Y-78365000D02*
X93909000Y-77180000D01*
X93909000Y-75220000D02*
X93909000Y-74035000D01*
X93869000Y-78340000D02*
X93869000Y-77180000D01*
X93869000Y-75220000D02*
X93869000Y-74060000D01*
X93829000Y-78313000D02*
X93829000Y-77180000D01*
X93829000Y-75220000D02*
X93829000Y-74087000D01*
X93789000Y-78286000D02*
X93789000Y-77180000D01*
X93789000Y-75220000D02*
X93789000Y-74114000D01*
X93749000Y-78258000D02*
X93749000Y-77180000D01*
X93749000Y-75220000D02*
X93749000Y-74142000D01*
X93709000Y-78228000D02*
X93709000Y-77180000D01*
X93709000Y-75220000D02*
X93709000Y-74172000D01*
X93669000Y-78197000D02*
X93669000Y-77180000D01*
X93669000Y-75220000D02*
X93669000Y-74203000D01*
X93629000Y-78165000D02*
X93629000Y-77180000D01*
X93629000Y-75220000D02*
X93629000Y-74235000D01*
X93589000Y-78132000D02*
X93589000Y-77180000D01*
X93589000Y-75220000D02*
X93589000Y-74268000D01*
X93549000Y-78097000D02*
X93549000Y-77180000D01*
X93549000Y-75220000D02*
X93549000Y-74303000D01*
X93509000Y-78061000D02*
X93509000Y-77180000D01*
X93509000Y-75220000D02*
X93509000Y-74339000D01*
X93469000Y-78023000D02*
X93469000Y-77180000D01*
X93469000Y-75220000D02*
X93469000Y-74377000D01*
X93429000Y-77983000D02*
X93429000Y-77180000D01*
X93429000Y-75220000D02*
X93429000Y-74417000D01*
X93389000Y-77942000D02*
X93389000Y-77180000D01*
X93389000Y-75220000D02*
X93389000Y-74458000D01*
X93349000Y-77899000D02*
X93349000Y-77180000D01*
X93349000Y-75220000D02*
X93349000Y-74501000D01*
X93309000Y-77854000D02*
X93309000Y-77180000D01*
X93309000Y-75220000D02*
X93309000Y-74546000D01*
X93269000Y-77806000D02*
X93269000Y-77180000D01*
X93269000Y-75220000D02*
X93269000Y-74594000D01*
X93229000Y-77756000D02*
X93229000Y-77180000D01*
X93229000Y-75220000D02*
X93229000Y-74644000D01*
X93189000Y-77704000D02*
X93189000Y-77180000D01*
X93189000Y-75220000D02*
X93189000Y-74696000D01*
X93149000Y-77648000D02*
X93149000Y-77180000D01*
X93149000Y-75220000D02*
X93149000Y-74752000D01*
X93109000Y-77590000D02*
X93109000Y-77180000D01*
X93109000Y-75220000D02*
X93109000Y-74810000D01*
X93069000Y-77527000D02*
X93069000Y-77180000D01*
X93069000Y-75220000D02*
X93069000Y-74873000D01*
X93029000Y-77461000D02*
X93029000Y-74939000D01*
X92989000Y-77389000D02*
X92989000Y-75011000D01*
X92949000Y-77312000D02*
X92949000Y-75088000D01*
X92909000Y-77228000D02*
X92909000Y-75172000D01*
X92869000Y-77134000D02*
X92869000Y-75266000D01*
X92829000Y-77029000D02*
X92829000Y-75371000D01*
X92789000Y-76907000D02*
X92789000Y-75493000D01*
X92749000Y-76759000D02*
X92749000Y-75641000D01*
X92709000Y-76554000D02*
X92709000Y-75846000D01*
X98720000Y-76200000D02*
X97520000Y-76200000D01*
X98120000Y-76850000D02*
X98120000Y-75550000D01*
X92964278Y-97699723D02*
G75*
G03X97575580Y-97700000I2305722J1179723D01*
G01*
X92964278Y-95340277D02*
G75*
G02X97575580Y-95340000I2305722J-1179723D01*
G01*
X92964278Y-95340277D02*
G75*
G03X92964420Y-97700000I2305722J-1179723D01*
G01*
X95270000Y-99070000D02*
X95270000Y-93970000D01*
X95230000Y-99070000D02*
X95230000Y-93970000D01*
X95190000Y-99069000D02*
X95190000Y-93971000D01*
X95150000Y-99068000D02*
X95150000Y-93972000D01*
X95110000Y-99066000D02*
X95110000Y-93974000D01*
X95070000Y-99063000D02*
X95070000Y-93977000D01*
X95030000Y-99059000D02*
X95030000Y-93981000D01*
X94990000Y-99055000D02*
X94990000Y-97500000D01*
X94990000Y-95540000D02*
X94990000Y-93985000D01*
X94950000Y-99051000D02*
X94950000Y-97500000D01*
X94950000Y-95540000D02*
X94950000Y-93989000D01*
X94910000Y-99045000D02*
X94910000Y-97500000D01*
X94910000Y-95540000D02*
X94910000Y-93995000D01*
X94870000Y-99039000D02*
X94870000Y-97500000D01*
X94870000Y-95540000D02*
X94870000Y-94001000D01*
X94830000Y-99033000D02*
X94830000Y-97500000D01*
X94830000Y-95540000D02*
X94830000Y-94007000D01*
X94790000Y-99026000D02*
X94790000Y-97500000D01*
X94790000Y-95540000D02*
X94790000Y-94014000D01*
X94750000Y-99018000D02*
X94750000Y-97500000D01*
X94750000Y-95540000D02*
X94750000Y-94022000D01*
X94710000Y-99009000D02*
X94710000Y-97500000D01*
X94710000Y-95540000D02*
X94710000Y-94031000D01*
X94670000Y-99000000D02*
X94670000Y-97500000D01*
X94670000Y-95540000D02*
X94670000Y-94040000D01*
X94630000Y-98990000D02*
X94630000Y-97500000D01*
X94630000Y-95540000D02*
X94630000Y-94050000D01*
X94590000Y-98980000D02*
X94590000Y-97500000D01*
X94590000Y-95540000D02*
X94590000Y-94060000D01*
X94549000Y-98968000D02*
X94549000Y-97500000D01*
X94549000Y-95540000D02*
X94549000Y-94072000D01*
X94509000Y-98956000D02*
X94509000Y-97500000D01*
X94509000Y-95540000D02*
X94509000Y-94084000D01*
X94469000Y-98944000D02*
X94469000Y-97500000D01*
X94469000Y-95540000D02*
X94469000Y-94096000D01*
X94429000Y-98930000D02*
X94429000Y-97500000D01*
X94429000Y-95540000D02*
X94429000Y-94110000D01*
X94389000Y-98916000D02*
X94389000Y-97500000D01*
X94389000Y-95540000D02*
X94389000Y-94124000D01*
X94349000Y-98902000D02*
X94349000Y-97500000D01*
X94349000Y-95540000D02*
X94349000Y-94138000D01*
X94309000Y-98886000D02*
X94309000Y-97500000D01*
X94309000Y-95540000D02*
X94309000Y-94154000D01*
X94269000Y-98870000D02*
X94269000Y-97500000D01*
X94269000Y-95540000D02*
X94269000Y-94170000D01*
X94229000Y-98853000D02*
X94229000Y-97500000D01*
X94229000Y-95540000D02*
X94229000Y-94187000D01*
X94189000Y-98835000D02*
X94189000Y-97500000D01*
X94189000Y-95540000D02*
X94189000Y-94205000D01*
X94149000Y-98816000D02*
X94149000Y-97500000D01*
X94149000Y-95540000D02*
X94149000Y-94224000D01*
X94109000Y-98796000D02*
X94109000Y-97500000D01*
X94109000Y-95540000D02*
X94109000Y-94244000D01*
X94069000Y-98776000D02*
X94069000Y-97500000D01*
X94069000Y-95540000D02*
X94069000Y-94264000D01*
X94029000Y-98754000D02*
X94029000Y-97500000D01*
X94029000Y-95540000D02*
X94029000Y-94286000D01*
X93989000Y-98732000D02*
X93989000Y-97500000D01*
X93989000Y-95540000D02*
X93989000Y-94308000D01*
X93949000Y-98709000D02*
X93949000Y-97500000D01*
X93949000Y-95540000D02*
X93949000Y-94331000D01*
X93909000Y-98685000D02*
X93909000Y-97500000D01*
X93909000Y-95540000D02*
X93909000Y-94355000D01*
X93869000Y-98660000D02*
X93869000Y-97500000D01*
X93869000Y-95540000D02*
X93869000Y-94380000D01*
X93829000Y-98633000D02*
X93829000Y-97500000D01*
X93829000Y-95540000D02*
X93829000Y-94407000D01*
X93789000Y-98606000D02*
X93789000Y-97500000D01*
X93789000Y-95540000D02*
X93789000Y-94434000D01*
X93749000Y-98578000D02*
X93749000Y-97500000D01*
X93749000Y-95540000D02*
X93749000Y-94462000D01*
X93709000Y-98548000D02*
X93709000Y-97500000D01*
X93709000Y-95540000D02*
X93709000Y-94492000D01*
X93669000Y-98517000D02*
X93669000Y-97500000D01*
X93669000Y-95540000D02*
X93669000Y-94523000D01*
X93629000Y-98485000D02*
X93629000Y-97500000D01*
X93629000Y-95540000D02*
X93629000Y-94555000D01*
X93589000Y-98452000D02*
X93589000Y-97500000D01*
X93589000Y-95540000D02*
X93589000Y-94588000D01*
X93549000Y-98417000D02*
X93549000Y-97500000D01*
X93549000Y-95540000D02*
X93549000Y-94623000D01*
X93509000Y-98381000D02*
X93509000Y-97500000D01*
X93509000Y-95540000D02*
X93509000Y-94659000D01*
X93469000Y-98343000D02*
X93469000Y-97500000D01*
X93469000Y-95540000D02*
X93469000Y-94697000D01*
X93429000Y-98303000D02*
X93429000Y-97500000D01*
X93429000Y-95540000D02*
X93429000Y-94737000D01*
X93389000Y-98262000D02*
X93389000Y-97500000D01*
X93389000Y-95540000D02*
X93389000Y-94778000D01*
X93349000Y-98219000D02*
X93349000Y-97500000D01*
X93349000Y-95540000D02*
X93349000Y-94821000D01*
X93309000Y-98174000D02*
X93309000Y-97500000D01*
X93309000Y-95540000D02*
X93309000Y-94866000D01*
X93269000Y-98126000D02*
X93269000Y-97500000D01*
X93269000Y-95540000D02*
X93269000Y-94914000D01*
X93229000Y-98076000D02*
X93229000Y-97500000D01*
X93229000Y-95540000D02*
X93229000Y-94964000D01*
X93189000Y-98024000D02*
X93189000Y-97500000D01*
X93189000Y-95540000D02*
X93189000Y-95016000D01*
X93149000Y-97968000D02*
X93149000Y-97500000D01*
X93149000Y-95540000D02*
X93149000Y-95072000D01*
X93109000Y-97910000D02*
X93109000Y-97500000D01*
X93109000Y-95540000D02*
X93109000Y-95130000D01*
X93069000Y-97847000D02*
X93069000Y-97500000D01*
X93069000Y-95540000D02*
X93069000Y-95193000D01*
X93029000Y-97781000D02*
X93029000Y-95259000D01*
X92989000Y-97709000D02*
X92989000Y-95331000D01*
X92949000Y-97632000D02*
X92949000Y-95408000D01*
X92909000Y-97548000D02*
X92909000Y-95492000D01*
X92869000Y-97454000D02*
X92869000Y-95586000D01*
X92829000Y-97349000D02*
X92829000Y-95691000D01*
X92789000Y-97227000D02*
X92789000Y-95813000D01*
X92749000Y-97079000D02*
X92749000Y-95961000D01*
X92709000Y-96874000D02*
X92709000Y-96166000D01*
X98720000Y-96520000D02*
X97520000Y-96520000D01*
X98120000Y-97170000D02*
X98120000Y-95870000D01*
X94070277Y-100584278D02*
G75*
G03X94070000Y-105195580I1179723J-2305722D01*
G01*
X96429723Y-100584278D02*
G75*
G02X96430000Y-105195580I-1179723J-2305722D01*
G01*
X96429723Y-100584278D02*
G75*
G03X94070000Y-100584420I-1179723J-2305722D01*
G01*
X92700000Y-102890000D02*
X97800000Y-102890000D01*
X92700000Y-102850000D02*
X97800000Y-102850000D01*
X92701000Y-102810000D02*
X97799000Y-102810000D01*
X92702000Y-102770000D02*
X97798000Y-102770000D01*
X92704000Y-102730000D02*
X97796000Y-102730000D01*
X92707000Y-102690000D02*
X97793000Y-102690000D01*
X92711000Y-102650000D02*
X97789000Y-102650000D01*
X92715000Y-102610000D02*
X94270000Y-102610000D01*
X96230000Y-102610000D02*
X97785000Y-102610000D01*
X92719000Y-102570000D02*
X94270000Y-102570000D01*
X96230000Y-102570000D02*
X97781000Y-102570000D01*
X92725000Y-102530000D02*
X94270000Y-102530000D01*
X96230000Y-102530000D02*
X97775000Y-102530000D01*
X92731000Y-102490000D02*
X94270000Y-102490000D01*
X96230000Y-102490000D02*
X97769000Y-102490000D01*
X92737000Y-102450000D02*
X94270000Y-102450000D01*
X96230000Y-102450000D02*
X97763000Y-102450000D01*
X92744000Y-102410000D02*
X94270000Y-102410000D01*
X96230000Y-102410000D02*
X97756000Y-102410000D01*
X92752000Y-102370000D02*
X94270000Y-102370000D01*
X96230000Y-102370000D02*
X97748000Y-102370000D01*
X92761000Y-102330000D02*
X94270000Y-102330000D01*
X96230000Y-102330000D02*
X97739000Y-102330000D01*
X92770000Y-102290000D02*
X94270000Y-102290000D01*
X96230000Y-102290000D02*
X97730000Y-102290000D01*
X92780000Y-102250000D02*
X94270000Y-102250000D01*
X96230000Y-102250000D02*
X97720000Y-102250000D01*
X92790000Y-102210000D02*
X94270000Y-102210000D01*
X96230000Y-102210000D02*
X97710000Y-102210000D01*
X92802000Y-102169000D02*
X94270000Y-102169000D01*
X96230000Y-102169000D02*
X97698000Y-102169000D01*
X92814000Y-102129000D02*
X94270000Y-102129000D01*
X96230000Y-102129000D02*
X97686000Y-102129000D01*
X92826000Y-102089000D02*
X94270000Y-102089000D01*
X96230000Y-102089000D02*
X97674000Y-102089000D01*
X92840000Y-102049000D02*
X94270000Y-102049000D01*
X96230000Y-102049000D02*
X97660000Y-102049000D01*
X92854000Y-102009000D02*
X94270000Y-102009000D01*
X96230000Y-102009000D02*
X97646000Y-102009000D01*
X92868000Y-101969000D02*
X94270000Y-101969000D01*
X96230000Y-101969000D02*
X97632000Y-101969000D01*
X92884000Y-101929000D02*
X94270000Y-101929000D01*
X96230000Y-101929000D02*
X97616000Y-101929000D01*
X92900000Y-101889000D02*
X94270000Y-101889000D01*
X96230000Y-101889000D02*
X97600000Y-101889000D01*
X92917000Y-101849000D02*
X94270000Y-101849000D01*
X96230000Y-101849000D02*
X97583000Y-101849000D01*
X92935000Y-101809000D02*
X94270000Y-101809000D01*
X96230000Y-101809000D02*
X97565000Y-101809000D01*
X92954000Y-101769000D02*
X94270000Y-101769000D01*
X96230000Y-101769000D02*
X97546000Y-101769000D01*
X92974000Y-101729000D02*
X94270000Y-101729000D01*
X96230000Y-101729000D02*
X97526000Y-101729000D01*
X92994000Y-101689000D02*
X94270000Y-101689000D01*
X96230000Y-101689000D02*
X97506000Y-101689000D01*
X93016000Y-101649000D02*
X94270000Y-101649000D01*
X96230000Y-101649000D02*
X97484000Y-101649000D01*
X93038000Y-101609000D02*
X94270000Y-101609000D01*
X96230000Y-101609000D02*
X97462000Y-101609000D01*
X93061000Y-101569000D02*
X94270000Y-101569000D01*
X96230000Y-101569000D02*
X97439000Y-101569000D01*
X93085000Y-101529000D02*
X94270000Y-101529000D01*
X96230000Y-101529000D02*
X97415000Y-101529000D01*
X93110000Y-101489000D02*
X94270000Y-101489000D01*
X96230000Y-101489000D02*
X97390000Y-101489000D01*
X93137000Y-101449000D02*
X94270000Y-101449000D01*
X96230000Y-101449000D02*
X97363000Y-101449000D01*
X93164000Y-101409000D02*
X94270000Y-101409000D01*
X96230000Y-101409000D02*
X97336000Y-101409000D01*
X93192000Y-101369000D02*
X94270000Y-101369000D01*
X96230000Y-101369000D02*
X97308000Y-101369000D01*
X93222000Y-101329000D02*
X94270000Y-101329000D01*
X96230000Y-101329000D02*
X97278000Y-101329000D01*
X93253000Y-101289000D02*
X94270000Y-101289000D01*
X96230000Y-101289000D02*
X97247000Y-101289000D01*
X93285000Y-101249000D02*
X94270000Y-101249000D01*
X96230000Y-101249000D02*
X97215000Y-101249000D01*
X93318000Y-101209000D02*
X94270000Y-101209000D01*
X96230000Y-101209000D02*
X97182000Y-101209000D01*
X93353000Y-101169000D02*
X94270000Y-101169000D01*
X96230000Y-101169000D02*
X97147000Y-101169000D01*
X93389000Y-101129000D02*
X94270000Y-101129000D01*
X96230000Y-101129000D02*
X97111000Y-101129000D01*
X93427000Y-101089000D02*
X94270000Y-101089000D01*
X96230000Y-101089000D02*
X97073000Y-101089000D01*
X93467000Y-101049000D02*
X94270000Y-101049000D01*
X96230000Y-101049000D02*
X97033000Y-101049000D01*
X93508000Y-101009000D02*
X94270000Y-101009000D01*
X96230000Y-101009000D02*
X96992000Y-101009000D01*
X93551000Y-100969000D02*
X94270000Y-100969000D01*
X96230000Y-100969000D02*
X96949000Y-100969000D01*
X93596000Y-100929000D02*
X94270000Y-100929000D01*
X96230000Y-100929000D02*
X96904000Y-100929000D01*
X93644000Y-100889000D02*
X94270000Y-100889000D01*
X96230000Y-100889000D02*
X96856000Y-100889000D01*
X93694000Y-100849000D02*
X94270000Y-100849000D01*
X96230000Y-100849000D02*
X96806000Y-100849000D01*
X93746000Y-100809000D02*
X94270000Y-100809000D01*
X96230000Y-100809000D02*
X96754000Y-100809000D01*
X93802000Y-100769000D02*
X94270000Y-100769000D01*
X96230000Y-100769000D02*
X96698000Y-100769000D01*
X93860000Y-100729000D02*
X94270000Y-100729000D01*
X96230000Y-100729000D02*
X96640000Y-100729000D01*
X93923000Y-100689000D02*
X94270000Y-100689000D01*
X96230000Y-100689000D02*
X96577000Y-100689000D01*
X93989000Y-100649000D02*
X96511000Y-100649000D01*
X94061000Y-100609000D02*
X96439000Y-100609000D01*
X94138000Y-100569000D02*
X96362000Y-100569000D01*
X94222000Y-100529000D02*
X96278000Y-100529000D01*
X94316000Y-100489000D02*
X96184000Y-100489000D01*
X94421000Y-100449000D02*
X96079000Y-100449000D01*
X94543000Y-100409000D02*
X95957000Y-100409000D01*
X94691000Y-100369000D02*
X95809000Y-100369000D01*
X94896000Y-100329000D02*
X95604000Y-100329000D01*
X95250000Y-106340000D02*
X95250000Y-105140000D01*
X94600000Y-105740000D02*
X95900000Y-105740000D01*
X144525722Y-82640277D02*
G75*
G03X139914420Y-82640000I-2305722J-1179723D01*
G01*
X144525722Y-84999723D02*
G75*
G02X139914420Y-85000000I-2305722J1179723D01*
G01*
X144525722Y-84999723D02*
G75*
G03X144525580Y-82640000I-2305722J1179723D01*
G01*
X142220000Y-81270000D02*
X142220000Y-86370000D01*
X142260000Y-81270000D02*
X142260000Y-86370000D01*
X142300000Y-81271000D02*
X142300000Y-86369000D01*
X142340000Y-81272000D02*
X142340000Y-86368000D01*
X142380000Y-81274000D02*
X142380000Y-86366000D01*
X142420000Y-81277000D02*
X142420000Y-86363000D01*
X142460000Y-81281000D02*
X142460000Y-86359000D01*
X142500000Y-81285000D02*
X142500000Y-82840000D01*
X142500000Y-84800000D02*
X142500000Y-86355000D01*
X142540000Y-81289000D02*
X142540000Y-82840000D01*
X142540000Y-84800000D02*
X142540000Y-86351000D01*
X142580000Y-81295000D02*
X142580000Y-82840000D01*
X142580000Y-84800000D02*
X142580000Y-86345000D01*
X142620000Y-81301000D02*
X142620000Y-82840000D01*
X142620000Y-84800000D02*
X142620000Y-86339000D01*
X142660000Y-81307000D02*
X142660000Y-82840000D01*
X142660000Y-84800000D02*
X142660000Y-86333000D01*
X142700000Y-81314000D02*
X142700000Y-82840000D01*
X142700000Y-84800000D02*
X142700000Y-86326000D01*
X142740000Y-81322000D02*
X142740000Y-82840000D01*
X142740000Y-84800000D02*
X142740000Y-86318000D01*
X142780000Y-81331000D02*
X142780000Y-82840000D01*
X142780000Y-84800000D02*
X142780000Y-86309000D01*
X142820000Y-81340000D02*
X142820000Y-82840000D01*
X142820000Y-84800000D02*
X142820000Y-86300000D01*
X142860000Y-81350000D02*
X142860000Y-82840000D01*
X142860000Y-84800000D02*
X142860000Y-86290000D01*
X142900000Y-81360000D02*
X142900000Y-82840000D01*
X142900000Y-84800000D02*
X142900000Y-86280000D01*
X142941000Y-81372000D02*
X142941000Y-82840000D01*
X142941000Y-84800000D02*
X142941000Y-86268000D01*
X142981000Y-81384000D02*
X142981000Y-82840000D01*
X142981000Y-84800000D02*
X142981000Y-86256000D01*
X143021000Y-81396000D02*
X143021000Y-82840000D01*
X143021000Y-84800000D02*
X143021000Y-86244000D01*
X143061000Y-81410000D02*
X143061000Y-82840000D01*
X143061000Y-84800000D02*
X143061000Y-86230000D01*
X143101000Y-81424000D02*
X143101000Y-82840000D01*
X143101000Y-84800000D02*
X143101000Y-86216000D01*
X143141000Y-81438000D02*
X143141000Y-82840000D01*
X143141000Y-84800000D02*
X143141000Y-86202000D01*
X143181000Y-81454000D02*
X143181000Y-82840000D01*
X143181000Y-84800000D02*
X143181000Y-86186000D01*
X143221000Y-81470000D02*
X143221000Y-82840000D01*
X143221000Y-84800000D02*
X143221000Y-86170000D01*
X143261000Y-81487000D02*
X143261000Y-82840000D01*
X143261000Y-84800000D02*
X143261000Y-86153000D01*
X143301000Y-81505000D02*
X143301000Y-82840000D01*
X143301000Y-84800000D02*
X143301000Y-86135000D01*
X143341000Y-81524000D02*
X143341000Y-82840000D01*
X143341000Y-84800000D02*
X143341000Y-86116000D01*
X143381000Y-81544000D02*
X143381000Y-82840000D01*
X143381000Y-84800000D02*
X143381000Y-86096000D01*
X143421000Y-81564000D02*
X143421000Y-82840000D01*
X143421000Y-84800000D02*
X143421000Y-86076000D01*
X143461000Y-81586000D02*
X143461000Y-82840000D01*
X143461000Y-84800000D02*
X143461000Y-86054000D01*
X143501000Y-81608000D02*
X143501000Y-82840000D01*
X143501000Y-84800000D02*
X143501000Y-86032000D01*
X143541000Y-81631000D02*
X143541000Y-82840000D01*
X143541000Y-84800000D02*
X143541000Y-86009000D01*
X143581000Y-81655000D02*
X143581000Y-82840000D01*
X143581000Y-84800000D02*
X143581000Y-85985000D01*
X143621000Y-81680000D02*
X143621000Y-82840000D01*
X143621000Y-84800000D02*
X143621000Y-85960000D01*
X143661000Y-81707000D02*
X143661000Y-82840000D01*
X143661000Y-84800000D02*
X143661000Y-85933000D01*
X143701000Y-81734000D02*
X143701000Y-82840000D01*
X143701000Y-84800000D02*
X143701000Y-85906000D01*
X143741000Y-81762000D02*
X143741000Y-82840000D01*
X143741000Y-84800000D02*
X143741000Y-85878000D01*
X143781000Y-81792000D02*
X143781000Y-82840000D01*
X143781000Y-84800000D02*
X143781000Y-85848000D01*
X143821000Y-81823000D02*
X143821000Y-82840000D01*
X143821000Y-84800000D02*
X143821000Y-85817000D01*
X143861000Y-81855000D02*
X143861000Y-82840000D01*
X143861000Y-84800000D02*
X143861000Y-85785000D01*
X143901000Y-81888000D02*
X143901000Y-82840000D01*
X143901000Y-84800000D02*
X143901000Y-85752000D01*
X143941000Y-81923000D02*
X143941000Y-82840000D01*
X143941000Y-84800000D02*
X143941000Y-85717000D01*
X143981000Y-81959000D02*
X143981000Y-82840000D01*
X143981000Y-84800000D02*
X143981000Y-85681000D01*
X144021000Y-81997000D02*
X144021000Y-82840000D01*
X144021000Y-84800000D02*
X144021000Y-85643000D01*
X144061000Y-82037000D02*
X144061000Y-82840000D01*
X144061000Y-84800000D02*
X144061000Y-85603000D01*
X144101000Y-82078000D02*
X144101000Y-82840000D01*
X144101000Y-84800000D02*
X144101000Y-85562000D01*
X144141000Y-82121000D02*
X144141000Y-82840000D01*
X144141000Y-84800000D02*
X144141000Y-85519000D01*
X144181000Y-82166000D02*
X144181000Y-82840000D01*
X144181000Y-84800000D02*
X144181000Y-85474000D01*
X144221000Y-82214000D02*
X144221000Y-82840000D01*
X144221000Y-84800000D02*
X144221000Y-85426000D01*
X144261000Y-82264000D02*
X144261000Y-82840000D01*
X144261000Y-84800000D02*
X144261000Y-85376000D01*
X144301000Y-82316000D02*
X144301000Y-82840000D01*
X144301000Y-84800000D02*
X144301000Y-85324000D01*
X144341000Y-82372000D02*
X144341000Y-82840000D01*
X144341000Y-84800000D02*
X144341000Y-85268000D01*
X144381000Y-82430000D02*
X144381000Y-82840000D01*
X144381000Y-84800000D02*
X144381000Y-85210000D01*
X144421000Y-82493000D02*
X144421000Y-82840000D01*
X144421000Y-84800000D02*
X144421000Y-85147000D01*
X144461000Y-82559000D02*
X144461000Y-85081000D01*
X144501000Y-82631000D02*
X144501000Y-85009000D01*
X144541000Y-82708000D02*
X144541000Y-84932000D01*
X144581000Y-82792000D02*
X144581000Y-84848000D01*
X144621000Y-82886000D02*
X144621000Y-84754000D01*
X144661000Y-82991000D02*
X144661000Y-84649000D01*
X144701000Y-83113000D02*
X144701000Y-84527000D01*
X144741000Y-83261000D02*
X144741000Y-84379000D01*
X144781000Y-83466000D02*
X144781000Y-84174000D01*
X138770000Y-83820000D02*
X139970000Y-83820000D01*
X139370000Y-83170000D02*
X139370000Y-84470000D01*
X104394278Y-53249723D02*
G75*
G03X109005580Y-53250000I2305722J1179723D01*
G01*
X104394278Y-50890277D02*
G75*
G02X109005580Y-50890000I2305722J-1179723D01*
G01*
X104394278Y-50890277D02*
G75*
G03X104394420Y-53250000I2305722J-1179723D01*
G01*
X106700000Y-54620000D02*
X106700000Y-49520000D01*
X106660000Y-54620000D02*
X106660000Y-49520000D01*
X106620000Y-54619000D02*
X106620000Y-49521000D01*
X106580000Y-54618000D02*
X106580000Y-49522000D01*
X106540000Y-54616000D02*
X106540000Y-49524000D01*
X106500000Y-54613000D02*
X106500000Y-49527000D01*
X106460000Y-54609000D02*
X106460000Y-49531000D01*
X106420000Y-54605000D02*
X106420000Y-53050000D01*
X106420000Y-51090000D02*
X106420000Y-49535000D01*
X106380000Y-54601000D02*
X106380000Y-53050000D01*
X106380000Y-51090000D02*
X106380000Y-49539000D01*
X106340000Y-54595000D02*
X106340000Y-53050000D01*
X106340000Y-51090000D02*
X106340000Y-49545000D01*
X106300000Y-54589000D02*
X106300000Y-53050000D01*
X106300000Y-51090000D02*
X106300000Y-49551000D01*
X106260000Y-54583000D02*
X106260000Y-53050000D01*
X106260000Y-51090000D02*
X106260000Y-49557000D01*
X106220000Y-54576000D02*
X106220000Y-53050000D01*
X106220000Y-51090000D02*
X106220000Y-49564000D01*
X106180000Y-54568000D02*
X106180000Y-53050000D01*
X106180000Y-51090000D02*
X106180000Y-49572000D01*
X106140000Y-54559000D02*
X106140000Y-53050000D01*
X106140000Y-51090000D02*
X106140000Y-49581000D01*
X106100000Y-54550000D02*
X106100000Y-53050000D01*
X106100000Y-51090000D02*
X106100000Y-49590000D01*
X106060000Y-54540000D02*
X106060000Y-53050000D01*
X106060000Y-51090000D02*
X106060000Y-49600000D01*
X106020000Y-54530000D02*
X106020000Y-53050000D01*
X106020000Y-51090000D02*
X106020000Y-49610000D01*
X105979000Y-54518000D02*
X105979000Y-53050000D01*
X105979000Y-51090000D02*
X105979000Y-49622000D01*
X105939000Y-54506000D02*
X105939000Y-53050000D01*
X105939000Y-51090000D02*
X105939000Y-49634000D01*
X105899000Y-54494000D02*
X105899000Y-53050000D01*
X105899000Y-51090000D02*
X105899000Y-49646000D01*
X105859000Y-54480000D02*
X105859000Y-53050000D01*
X105859000Y-51090000D02*
X105859000Y-49660000D01*
X105819000Y-54466000D02*
X105819000Y-53050000D01*
X105819000Y-51090000D02*
X105819000Y-49674000D01*
X105779000Y-54452000D02*
X105779000Y-53050000D01*
X105779000Y-51090000D02*
X105779000Y-49688000D01*
X105739000Y-54436000D02*
X105739000Y-53050000D01*
X105739000Y-51090000D02*
X105739000Y-49704000D01*
X105699000Y-54420000D02*
X105699000Y-53050000D01*
X105699000Y-51090000D02*
X105699000Y-49720000D01*
X105659000Y-54403000D02*
X105659000Y-53050000D01*
X105659000Y-51090000D02*
X105659000Y-49737000D01*
X105619000Y-54385000D02*
X105619000Y-53050000D01*
X105619000Y-51090000D02*
X105619000Y-49755000D01*
X105579000Y-54366000D02*
X105579000Y-53050000D01*
X105579000Y-51090000D02*
X105579000Y-49774000D01*
X105539000Y-54346000D02*
X105539000Y-53050000D01*
X105539000Y-51090000D02*
X105539000Y-49794000D01*
X105499000Y-54326000D02*
X105499000Y-53050000D01*
X105499000Y-51090000D02*
X105499000Y-49814000D01*
X105459000Y-54304000D02*
X105459000Y-53050000D01*
X105459000Y-51090000D02*
X105459000Y-49836000D01*
X105419000Y-54282000D02*
X105419000Y-53050000D01*
X105419000Y-51090000D02*
X105419000Y-49858000D01*
X105379000Y-54259000D02*
X105379000Y-53050000D01*
X105379000Y-51090000D02*
X105379000Y-49881000D01*
X105339000Y-54235000D02*
X105339000Y-53050000D01*
X105339000Y-51090000D02*
X105339000Y-49905000D01*
X105299000Y-54210000D02*
X105299000Y-53050000D01*
X105299000Y-51090000D02*
X105299000Y-49930000D01*
X105259000Y-54183000D02*
X105259000Y-53050000D01*
X105259000Y-51090000D02*
X105259000Y-49957000D01*
X105219000Y-54156000D02*
X105219000Y-53050000D01*
X105219000Y-51090000D02*
X105219000Y-49984000D01*
X105179000Y-54128000D02*
X105179000Y-53050000D01*
X105179000Y-51090000D02*
X105179000Y-50012000D01*
X105139000Y-54098000D02*
X105139000Y-53050000D01*
X105139000Y-51090000D02*
X105139000Y-50042000D01*
X105099000Y-54067000D02*
X105099000Y-53050000D01*
X105099000Y-51090000D02*
X105099000Y-50073000D01*
X105059000Y-54035000D02*
X105059000Y-53050000D01*
X105059000Y-51090000D02*
X105059000Y-50105000D01*
X105019000Y-54002000D02*
X105019000Y-53050000D01*
X105019000Y-51090000D02*
X105019000Y-50138000D01*
X104979000Y-53967000D02*
X104979000Y-53050000D01*
X104979000Y-51090000D02*
X104979000Y-50173000D01*
X104939000Y-53931000D02*
X104939000Y-53050000D01*
X104939000Y-51090000D02*
X104939000Y-50209000D01*
X104899000Y-53893000D02*
X104899000Y-53050000D01*
X104899000Y-51090000D02*
X104899000Y-50247000D01*
X104859000Y-53853000D02*
X104859000Y-53050000D01*
X104859000Y-51090000D02*
X104859000Y-50287000D01*
X104819000Y-53812000D02*
X104819000Y-53050000D01*
X104819000Y-51090000D02*
X104819000Y-50328000D01*
X104779000Y-53769000D02*
X104779000Y-53050000D01*
X104779000Y-51090000D02*
X104779000Y-50371000D01*
X104739000Y-53724000D02*
X104739000Y-53050000D01*
X104739000Y-51090000D02*
X104739000Y-50416000D01*
X104699000Y-53676000D02*
X104699000Y-53050000D01*
X104699000Y-51090000D02*
X104699000Y-50464000D01*
X104659000Y-53626000D02*
X104659000Y-53050000D01*
X104659000Y-51090000D02*
X104659000Y-50514000D01*
X104619000Y-53574000D02*
X104619000Y-53050000D01*
X104619000Y-51090000D02*
X104619000Y-50566000D01*
X104579000Y-53518000D02*
X104579000Y-53050000D01*
X104579000Y-51090000D02*
X104579000Y-50622000D01*
X104539000Y-53460000D02*
X104539000Y-53050000D01*
X104539000Y-51090000D02*
X104539000Y-50680000D01*
X104499000Y-53397000D02*
X104499000Y-53050000D01*
X104499000Y-51090000D02*
X104499000Y-50743000D01*
X104459000Y-53331000D02*
X104459000Y-50809000D01*
X104419000Y-53259000D02*
X104419000Y-50881000D01*
X104379000Y-53182000D02*
X104379000Y-50958000D01*
X104339000Y-53098000D02*
X104339000Y-51042000D01*
X104299000Y-53004000D02*
X104299000Y-51136000D01*
X104259000Y-52899000D02*
X104259000Y-51241000D01*
X104219000Y-52777000D02*
X104219000Y-51363000D01*
X104179000Y-52629000D02*
X104179000Y-51511000D01*
X104139000Y-52424000D02*
X104139000Y-51716000D01*
X110150000Y-52070000D02*
X108950000Y-52070000D01*
X109550000Y-52720000D02*
X109550000Y-51420000D01*
X123280277Y-40894278D02*
G75*
G03X123280000Y-45505580I1179723J-2305722D01*
G01*
X125639723Y-40894278D02*
G75*
G02X125640000Y-45505580I-1179723J-2305722D01*
G01*
X125639723Y-40894278D02*
G75*
G03X123280000Y-40894420I-1179723J-2305722D01*
G01*
X121910000Y-43200000D02*
X127010000Y-43200000D01*
X121910000Y-43160000D02*
X127010000Y-43160000D01*
X121911000Y-43120000D02*
X127009000Y-43120000D01*
X121912000Y-43080000D02*
X127008000Y-43080000D01*
X121914000Y-43040000D02*
X127006000Y-43040000D01*
X121917000Y-43000000D02*
X127003000Y-43000000D01*
X121921000Y-42960000D02*
X126999000Y-42960000D01*
X121925000Y-42920000D02*
X123480000Y-42920000D01*
X125440000Y-42920000D02*
X126995000Y-42920000D01*
X121929000Y-42880000D02*
X123480000Y-42880000D01*
X125440000Y-42880000D02*
X126991000Y-42880000D01*
X121935000Y-42840000D02*
X123480000Y-42840000D01*
X125440000Y-42840000D02*
X126985000Y-42840000D01*
X121941000Y-42800000D02*
X123480000Y-42800000D01*
X125440000Y-42800000D02*
X126979000Y-42800000D01*
X121947000Y-42760000D02*
X123480000Y-42760000D01*
X125440000Y-42760000D02*
X126973000Y-42760000D01*
X121954000Y-42720000D02*
X123480000Y-42720000D01*
X125440000Y-42720000D02*
X126966000Y-42720000D01*
X121962000Y-42680000D02*
X123480000Y-42680000D01*
X125440000Y-42680000D02*
X126958000Y-42680000D01*
X121971000Y-42640000D02*
X123480000Y-42640000D01*
X125440000Y-42640000D02*
X126949000Y-42640000D01*
X121980000Y-42600000D02*
X123480000Y-42600000D01*
X125440000Y-42600000D02*
X126940000Y-42600000D01*
X121990000Y-42560000D02*
X123480000Y-42560000D01*
X125440000Y-42560000D02*
X126930000Y-42560000D01*
X122000000Y-42520000D02*
X123480000Y-42520000D01*
X125440000Y-42520000D02*
X126920000Y-42520000D01*
X122012000Y-42479000D02*
X123480000Y-42479000D01*
X125440000Y-42479000D02*
X126908000Y-42479000D01*
X122024000Y-42439000D02*
X123480000Y-42439000D01*
X125440000Y-42439000D02*
X126896000Y-42439000D01*
X122036000Y-42399000D02*
X123480000Y-42399000D01*
X125440000Y-42399000D02*
X126884000Y-42399000D01*
X122050000Y-42359000D02*
X123480000Y-42359000D01*
X125440000Y-42359000D02*
X126870000Y-42359000D01*
X122064000Y-42319000D02*
X123480000Y-42319000D01*
X125440000Y-42319000D02*
X126856000Y-42319000D01*
X122078000Y-42279000D02*
X123480000Y-42279000D01*
X125440000Y-42279000D02*
X126842000Y-42279000D01*
X122094000Y-42239000D02*
X123480000Y-42239000D01*
X125440000Y-42239000D02*
X126826000Y-42239000D01*
X122110000Y-42199000D02*
X123480000Y-42199000D01*
X125440000Y-42199000D02*
X126810000Y-42199000D01*
X122127000Y-42159000D02*
X123480000Y-42159000D01*
X125440000Y-42159000D02*
X126793000Y-42159000D01*
X122145000Y-42119000D02*
X123480000Y-42119000D01*
X125440000Y-42119000D02*
X126775000Y-42119000D01*
X122164000Y-42079000D02*
X123480000Y-42079000D01*
X125440000Y-42079000D02*
X126756000Y-42079000D01*
X122184000Y-42039000D02*
X123480000Y-42039000D01*
X125440000Y-42039000D02*
X126736000Y-42039000D01*
X122204000Y-41999000D02*
X123480000Y-41999000D01*
X125440000Y-41999000D02*
X126716000Y-41999000D01*
X122226000Y-41959000D02*
X123480000Y-41959000D01*
X125440000Y-41959000D02*
X126694000Y-41959000D01*
X122248000Y-41919000D02*
X123480000Y-41919000D01*
X125440000Y-41919000D02*
X126672000Y-41919000D01*
X122271000Y-41879000D02*
X123480000Y-41879000D01*
X125440000Y-41879000D02*
X126649000Y-41879000D01*
X122295000Y-41839000D02*
X123480000Y-41839000D01*
X125440000Y-41839000D02*
X126625000Y-41839000D01*
X122320000Y-41799000D02*
X123480000Y-41799000D01*
X125440000Y-41799000D02*
X126600000Y-41799000D01*
X122347000Y-41759000D02*
X123480000Y-41759000D01*
X125440000Y-41759000D02*
X126573000Y-41759000D01*
X122374000Y-41719000D02*
X123480000Y-41719000D01*
X125440000Y-41719000D02*
X126546000Y-41719000D01*
X122402000Y-41679000D02*
X123480000Y-41679000D01*
X125440000Y-41679000D02*
X126518000Y-41679000D01*
X122432000Y-41639000D02*
X123480000Y-41639000D01*
X125440000Y-41639000D02*
X126488000Y-41639000D01*
X122463000Y-41599000D02*
X123480000Y-41599000D01*
X125440000Y-41599000D02*
X126457000Y-41599000D01*
X122495000Y-41559000D02*
X123480000Y-41559000D01*
X125440000Y-41559000D02*
X126425000Y-41559000D01*
X122528000Y-41519000D02*
X123480000Y-41519000D01*
X125440000Y-41519000D02*
X126392000Y-41519000D01*
X122563000Y-41479000D02*
X123480000Y-41479000D01*
X125440000Y-41479000D02*
X126357000Y-41479000D01*
X122599000Y-41439000D02*
X123480000Y-41439000D01*
X125440000Y-41439000D02*
X126321000Y-41439000D01*
X122637000Y-41399000D02*
X123480000Y-41399000D01*
X125440000Y-41399000D02*
X126283000Y-41399000D01*
X122677000Y-41359000D02*
X123480000Y-41359000D01*
X125440000Y-41359000D02*
X126243000Y-41359000D01*
X122718000Y-41319000D02*
X123480000Y-41319000D01*
X125440000Y-41319000D02*
X126202000Y-41319000D01*
X122761000Y-41279000D02*
X123480000Y-41279000D01*
X125440000Y-41279000D02*
X126159000Y-41279000D01*
X122806000Y-41239000D02*
X123480000Y-41239000D01*
X125440000Y-41239000D02*
X126114000Y-41239000D01*
X122854000Y-41199000D02*
X123480000Y-41199000D01*
X125440000Y-41199000D02*
X126066000Y-41199000D01*
X122904000Y-41159000D02*
X123480000Y-41159000D01*
X125440000Y-41159000D02*
X126016000Y-41159000D01*
X122956000Y-41119000D02*
X123480000Y-41119000D01*
X125440000Y-41119000D02*
X125964000Y-41119000D01*
X123012000Y-41079000D02*
X123480000Y-41079000D01*
X125440000Y-41079000D02*
X125908000Y-41079000D01*
X123070000Y-41039000D02*
X123480000Y-41039000D01*
X125440000Y-41039000D02*
X125850000Y-41039000D01*
X123133000Y-40999000D02*
X123480000Y-40999000D01*
X125440000Y-40999000D02*
X125787000Y-40999000D01*
X123199000Y-40959000D02*
X125721000Y-40959000D01*
X123271000Y-40919000D02*
X125649000Y-40919000D01*
X123348000Y-40879000D02*
X125572000Y-40879000D01*
X123432000Y-40839000D02*
X125488000Y-40839000D01*
X123526000Y-40799000D02*
X125394000Y-40799000D01*
X123631000Y-40759000D02*
X125289000Y-40759000D01*
X123753000Y-40719000D02*
X125167000Y-40719000D01*
X123901000Y-40679000D02*
X125019000Y-40679000D01*
X124106000Y-40639000D02*
X124814000Y-40639000D01*
X124460000Y-46650000D02*
X124460000Y-45450000D01*
X123810000Y-46050000D02*
X125110000Y-46050000D01*
X161350000Y-86300000D02*
X158690000Y-86300000D01*
X161350000Y-91440000D02*
X161350000Y-86300000D01*
X158690000Y-91440000D02*
X158690000Y-86300000D01*
X161350000Y-91440000D02*
X158690000Y-91440000D01*
X161350000Y-92710000D02*
X161350000Y-94040000D01*
X161350000Y-94040000D02*
X160020000Y-94040000D01*
X78780000Y-39950000D02*
X83150000Y-39950000D01*
X83150000Y-39950000D02*
X83150000Y-33670000D01*
X83150000Y-33670000D02*
X81530000Y-33670000D01*
X81530000Y-33670000D02*
X81530000Y-30810000D01*
X81530000Y-30810000D02*
X78780000Y-30810000D01*
X78780000Y-39950000D02*
X74410000Y-39950000D01*
X74410000Y-39950000D02*
X74410000Y-33670000D01*
X74410000Y-33670000D02*
X76030000Y-33670000D01*
X76030000Y-33670000D02*
X76030000Y-30810000D01*
X76030000Y-30810000D02*
X78780000Y-30810000D01*
X83500000Y-35560000D02*
X84100000Y-35260000D01*
X84100000Y-35260000D02*
X84100000Y-35860000D01*
X84100000Y-35860000D02*
X83500000Y-35560000D01*
X106720000Y-39950000D02*
X111090000Y-39950000D01*
X111090000Y-39950000D02*
X111090000Y-33670000D01*
X111090000Y-33670000D02*
X109470000Y-33670000D01*
X109470000Y-33670000D02*
X109470000Y-30810000D01*
X109470000Y-30810000D02*
X106720000Y-30810000D01*
X106720000Y-39950000D02*
X102350000Y-39950000D01*
X102350000Y-39950000D02*
X102350000Y-33670000D01*
X102350000Y-33670000D02*
X103970000Y-33670000D01*
X103970000Y-33670000D02*
X103970000Y-30810000D01*
X103970000Y-30810000D02*
X106720000Y-30810000D01*
X111440000Y-35560000D02*
X112040000Y-35260000D01*
X112040000Y-35260000D02*
X112040000Y-35860000D01*
X112040000Y-35860000D02*
X111440000Y-35560000D01*
X86551392Y-85957665D02*
G75*
G03X86394484Y-89190000I1078608J-1672335D01*
G01*
X88708608Y-85957665D02*
G75*
G02X88865516Y-89190000I-1078608J-1672335D01*
G01*
X86550163Y-86588870D02*
G75*
G03X86550000Y-88670961I1079837J-1041130D01*
G01*
X88709837Y-86588870D02*
G75*
G02X88710000Y-88670961I-1079837J-1041130D01*
G01*
X86394000Y-89190000D02*
X86550000Y-89190000D01*
X88710000Y-89190000D02*
X88866000Y-89190000D01*
X81471392Y-85957665D02*
G75*
G03X81314484Y-89190000I1078608J-1672335D01*
G01*
X83628608Y-85957665D02*
G75*
G02X83785516Y-89190000I-1078608J-1672335D01*
G01*
X81470163Y-86588870D02*
G75*
G03X81470000Y-88670961I1079837J-1041130D01*
G01*
X83629837Y-86588870D02*
G75*
G02X83630000Y-88670961I-1079837J-1041130D01*
G01*
X81314000Y-89190000D02*
X81470000Y-89190000D01*
X83630000Y-89190000D02*
X83786000Y-89190000D01*
X76391392Y-85957665D02*
G75*
G03X76234484Y-89190000I1078608J-1672335D01*
G01*
X78548608Y-85957665D02*
G75*
G02X78705516Y-89190000I-1078608J-1672335D01*
G01*
X76390163Y-86588870D02*
G75*
G03X76390000Y-88670961I1079837J-1041130D01*
G01*
X78549837Y-86588870D02*
G75*
G02X78550000Y-88670961I-1079837J-1041130D01*
G01*
X76234000Y-89190000D02*
X76390000Y-89190000D01*
X78550000Y-89190000D02*
X78706000Y-89190000D01*
X99440000Y-44750000D02*
X99440000Y-44150000D01*
X109040000Y-44750000D02*
X108840000Y-44750000D01*
X108840000Y-44750000D02*
X108840000Y-44150000D01*
X108840000Y-46650000D02*
X109040000Y-46650000D01*
X109040000Y-46650000D02*
X108940000Y-46650000D01*
X108840000Y-47550000D02*
X99440000Y-47550000D01*
X108840000Y-47550000D02*
X108840000Y-46650000D01*
X99440000Y-47550000D02*
X99440000Y-46650000D01*
X108840000Y-41350000D02*
X108840000Y-42250000D01*
X99440000Y-41350000D02*
X99440000Y-42250000D01*
X99440000Y-41350000D02*
X108840000Y-41350000D01*
X148550000Y-76870000D02*
X151170000Y-76870000D01*
X151170000Y-76870000D02*
X151170000Y-70450000D01*
X151170000Y-70450000D02*
X148550000Y-70450000D01*
X148550000Y-70450000D02*
X148550000Y-76870000D01*
X149860000Y-77760000D02*
X149860000Y-76870000D01*
X149860000Y-69560000D02*
X149860000Y-70450000D01*
X152360000Y-76870000D02*
X154980000Y-76870000D01*
X154980000Y-76870000D02*
X154980000Y-70450000D01*
X154980000Y-70450000D02*
X152360000Y-70450000D01*
X152360000Y-70450000D02*
X152360000Y-76870000D01*
X153670000Y-77760000D02*
X153670000Y-76870000D01*
X153670000Y-69560000D02*
X153670000Y-70450000D01*
X156170000Y-76870000D02*
X158790000Y-76870000D01*
X158790000Y-76870000D02*
X158790000Y-70450000D01*
X158790000Y-70450000D02*
X156170000Y-70450000D01*
X156170000Y-70450000D02*
X156170000Y-76870000D01*
X157480000Y-77760000D02*
X157480000Y-76870000D01*
X157480000Y-69560000D02*
X157480000Y-70450000D01*
X159980000Y-76870000D02*
X162600000Y-76870000D01*
X162600000Y-76870000D02*
X162600000Y-70450000D01*
X162600000Y-70450000D02*
X159980000Y-70450000D01*
X159980000Y-70450000D02*
X159980000Y-76870000D01*
X161290000Y-77760000D02*
X161290000Y-76870000D01*
X161290000Y-69560000D02*
X161290000Y-70450000D01*
X151170000Y-57750000D02*
X148550000Y-57750000D01*
X148550000Y-57750000D02*
X148550000Y-64170000D01*
X148550000Y-64170000D02*
X151170000Y-64170000D01*
X151170000Y-64170000D02*
X151170000Y-57750000D01*
X149860000Y-56860000D02*
X149860000Y-57750000D01*
X149860000Y-65060000D02*
X149860000Y-64170000D01*
X152360000Y-64170000D02*
X154980000Y-64170000D01*
X154980000Y-64170000D02*
X154980000Y-57750000D01*
X154980000Y-57750000D02*
X152360000Y-57750000D01*
X152360000Y-57750000D02*
X152360000Y-64170000D01*
X153670000Y-65060000D02*
X153670000Y-64170000D01*
X153670000Y-56860000D02*
X153670000Y-57750000D01*
X151090000Y-102270000D02*
X153710000Y-102270000D01*
X153710000Y-102270000D02*
X153710000Y-95850000D01*
X153710000Y-95850000D02*
X151090000Y-95850000D01*
X151090000Y-95850000D02*
X151090000Y-102270000D01*
X152400000Y-103160000D02*
X152400000Y-102270000D01*
X152400000Y-94960000D02*
X152400000Y-95850000D01*
X91400000Y-89570000D02*
X94020000Y-89570000D01*
X94020000Y-89570000D02*
X94020000Y-83150000D01*
X94020000Y-83150000D02*
X91400000Y-83150000D01*
X91400000Y-83150000D02*
X91400000Y-89570000D01*
X92710000Y-90460000D02*
X92710000Y-89570000D01*
X92710000Y-82260000D02*
X92710000Y-83150000D01*
X97830000Y-83150000D02*
X95210000Y-83150000D01*
X95210000Y-83150000D02*
X95210000Y-89570000D01*
X95210000Y-89570000D02*
X97830000Y-89570000D01*
X97830000Y-89570000D02*
X97830000Y-83150000D01*
X96520000Y-82260000D02*
X96520000Y-83150000D01*
X96520000Y-90460000D02*
X96520000Y-89570000D01*
X86320000Y-81950000D02*
X88940000Y-81950000D01*
X88940000Y-81950000D02*
X88940000Y-75530000D01*
X88940000Y-75530000D02*
X86320000Y-75530000D01*
X86320000Y-75530000D02*
X86320000Y-81950000D01*
X87630000Y-82840000D02*
X87630000Y-81950000D01*
X87630000Y-74640000D02*
X87630000Y-75530000D01*
X81240000Y-81950000D02*
X83860000Y-81950000D01*
X83860000Y-81950000D02*
X83860000Y-75530000D01*
X83860000Y-75530000D02*
X81240000Y-75530000D01*
X81240000Y-75530000D02*
X81240000Y-81950000D01*
X82550000Y-82840000D02*
X82550000Y-81950000D01*
X82550000Y-74640000D02*
X82550000Y-75530000D01*
X76160000Y-81950000D02*
X78780000Y-81950000D01*
X78780000Y-81950000D02*
X78780000Y-75530000D01*
X78780000Y-75530000D02*
X76160000Y-75530000D01*
X76160000Y-75530000D02*
X76160000Y-81950000D01*
X77470000Y-82840000D02*
X77470000Y-81950000D01*
X77470000Y-74640000D02*
X77470000Y-75530000D01*
X73700000Y-75530000D02*
X71080000Y-75530000D01*
X71080000Y-75530000D02*
X71080000Y-81950000D01*
X71080000Y-81950000D02*
X73700000Y-81950000D01*
X73700000Y-81950000D02*
X73700000Y-75530000D01*
X72390000Y-74640000D02*
X72390000Y-75530000D01*
X72390000Y-82840000D02*
X72390000Y-81950000D01*
X143419723Y-48005722D02*
G75*
G03X143420000Y-43394420I-1179723J2305722D01*
G01*
X141060277Y-48005722D02*
G75*
G02X141060000Y-43394420I1179723J2305722D01*
G01*
X141060277Y-48005722D02*
G75*
G03X143420000Y-48005580I1179723J2305722D01*
G01*
X144790000Y-45700000D02*
X139690000Y-45700000D01*
X144790000Y-45740000D02*
X139690000Y-45740000D01*
X144789000Y-45780000D02*
X139691000Y-45780000D01*
X144788000Y-45820000D02*
X139692000Y-45820000D01*
X144786000Y-45860000D02*
X139694000Y-45860000D01*
X144783000Y-45900000D02*
X139697000Y-45900000D01*
X144779000Y-45940000D02*
X139701000Y-45940000D01*
X144775000Y-45980000D02*
X143220000Y-45980000D01*
X141260000Y-45980000D02*
X139705000Y-45980000D01*
X144771000Y-46020000D02*
X143220000Y-46020000D01*
X141260000Y-46020000D02*
X139709000Y-46020000D01*
X144765000Y-46060000D02*
X143220000Y-46060000D01*
X141260000Y-46060000D02*
X139715000Y-46060000D01*
X144759000Y-46100000D02*
X143220000Y-46100000D01*
X141260000Y-46100000D02*
X139721000Y-46100000D01*
X144753000Y-46140000D02*
X143220000Y-46140000D01*
X141260000Y-46140000D02*
X139727000Y-46140000D01*
X144746000Y-46180000D02*
X143220000Y-46180000D01*
X141260000Y-46180000D02*
X139734000Y-46180000D01*
X144738000Y-46220000D02*
X143220000Y-46220000D01*
X141260000Y-46220000D02*
X139742000Y-46220000D01*
X144729000Y-46260000D02*
X143220000Y-46260000D01*
X141260000Y-46260000D02*
X139751000Y-46260000D01*
X144720000Y-46300000D02*
X143220000Y-46300000D01*
X141260000Y-46300000D02*
X139760000Y-46300000D01*
X144710000Y-46340000D02*
X143220000Y-46340000D01*
X141260000Y-46340000D02*
X139770000Y-46340000D01*
X144700000Y-46380000D02*
X143220000Y-46380000D01*
X141260000Y-46380000D02*
X139780000Y-46380000D01*
X144688000Y-46421000D02*
X143220000Y-46421000D01*
X141260000Y-46421000D02*
X139792000Y-46421000D01*
X144676000Y-46461000D02*
X143220000Y-46461000D01*
X141260000Y-46461000D02*
X139804000Y-46461000D01*
X144664000Y-46501000D02*
X143220000Y-46501000D01*
X141260000Y-46501000D02*
X139816000Y-46501000D01*
X144650000Y-46541000D02*
X143220000Y-46541000D01*
X141260000Y-46541000D02*
X139830000Y-46541000D01*
X144636000Y-46581000D02*
X143220000Y-46581000D01*
X141260000Y-46581000D02*
X139844000Y-46581000D01*
X144622000Y-46621000D02*
X143220000Y-46621000D01*
X141260000Y-46621000D02*
X139858000Y-46621000D01*
X144606000Y-46661000D02*
X143220000Y-46661000D01*
X141260000Y-46661000D02*
X139874000Y-46661000D01*
X144590000Y-46701000D02*
X143220000Y-46701000D01*
X141260000Y-46701000D02*
X139890000Y-46701000D01*
X144573000Y-46741000D02*
X143220000Y-46741000D01*
X141260000Y-46741000D02*
X139907000Y-46741000D01*
X144555000Y-46781000D02*
X143220000Y-46781000D01*
X141260000Y-46781000D02*
X139925000Y-46781000D01*
X144536000Y-46821000D02*
X143220000Y-46821000D01*
X141260000Y-46821000D02*
X139944000Y-46821000D01*
X144516000Y-46861000D02*
X143220000Y-46861000D01*
X141260000Y-46861000D02*
X139964000Y-46861000D01*
X144496000Y-46901000D02*
X143220000Y-46901000D01*
X141260000Y-46901000D02*
X139984000Y-46901000D01*
X144474000Y-46941000D02*
X143220000Y-46941000D01*
X141260000Y-46941000D02*
X140006000Y-46941000D01*
X144452000Y-46981000D02*
X143220000Y-46981000D01*
X141260000Y-46981000D02*
X140028000Y-46981000D01*
X144429000Y-47021000D02*
X143220000Y-47021000D01*
X141260000Y-47021000D02*
X140051000Y-47021000D01*
X144405000Y-47061000D02*
X143220000Y-47061000D01*
X141260000Y-47061000D02*
X140075000Y-47061000D01*
X144380000Y-47101000D02*
X143220000Y-47101000D01*
X141260000Y-47101000D02*
X140100000Y-47101000D01*
X144353000Y-47141000D02*
X143220000Y-47141000D01*
X141260000Y-47141000D02*
X140127000Y-47141000D01*
X144326000Y-47181000D02*
X143220000Y-47181000D01*
X141260000Y-47181000D02*
X140154000Y-47181000D01*
X144298000Y-47221000D02*
X143220000Y-47221000D01*
X141260000Y-47221000D02*
X140182000Y-47221000D01*
X144268000Y-47261000D02*
X143220000Y-47261000D01*
X141260000Y-47261000D02*
X140212000Y-47261000D01*
X144237000Y-47301000D02*
X143220000Y-47301000D01*
X141260000Y-47301000D02*
X140243000Y-47301000D01*
X144205000Y-47341000D02*
X143220000Y-47341000D01*
X141260000Y-47341000D02*
X140275000Y-47341000D01*
X144172000Y-47381000D02*
X143220000Y-47381000D01*
X141260000Y-47381000D02*
X140308000Y-47381000D01*
X144137000Y-47421000D02*
X143220000Y-47421000D01*
X141260000Y-47421000D02*
X140343000Y-47421000D01*
X144101000Y-47461000D02*
X143220000Y-47461000D01*
X141260000Y-47461000D02*
X140379000Y-47461000D01*
X144063000Y-47501000D02*
X143220000Y-47501000D01*
X141260000Y-47501000D02*
X140417000Y-47501000D01*
X144023000Y-47541000D02*
X143220000Y-47541000D01*
X141260000Y-47541000D02*
X140457000Y-47541000D01*
X143982000Y-47581000D02*
X143220000Y-47581000D01*
X141260000Y-47581000D02*
X140498000Y-47581000D01*
X143939000Y-47621000D02*
X143220000Y-47621000D01*
X141260000Y-47621000D02*
X140541000Y-47621000D01*
X143894000Y-47661000D02*
X143220000Y-47661000D01*
X141260000Y-47661000D02*
X140586000Y-47661000D01*
X143846000Y-47701000D02*
X143220000Y-47701000D01*
X141260000Y-47701000D02*
X140634000Y-47701000D01*
X143796000Y-47741000D02*
X143220000Y-47741000D01*
X141260000Y-47741000D02*
X140684000Y-47741000D01*
X143744000Y-47781000D02*
X143220000Y-47781000D01*
X141260000Y-47781000D02*
X140736000Y-47781000D01*
X143688000Y-47821000D02*
X143220000Y-47821000D01*
X141260000Y-47821000D02*
X140792000Y-47821000D01*
X143630000Y-47861000D02*
X143220000Y-47861000D01*
X141260000Y-47861000D02*
X140850000Y-47861000D01*
X143567000Y-47901000D02*
X143220000Y-47901000D01*
X141260000Y-47901000D02*
X140913000Y-47901000D01*
X143501000Y-47941000D02*
X140979000Y-47941000D01*
X143429000Y-47981000D02*
X141051000Y-47981000D01*
X143352000Y-48021000D02*
X141128000Y-48021000D01*
X143268000Y-48061000D02*
X141212000Y-48061000D01*
X143174000Y-48101000D02*
X141306000Y-48101000D01*
X143069000Y-48141000D02*
X141411000Y-48141000D01*
X142947000Y-48181000D02*
X141533000Y-48181000D01*
X142799000Y-48221000D02*
X141681000Y-48221000D01*
X142594000Y-48261000D02*
X141886000Y-48261000D01*
X142240000Y-42250000D02*
X142240000Y-43450000D01*
X142890000Y-42850000D02*
X141590000Y-42850000D01*
X128770000Y-61380000D02*
X127770000Y-61380000D01*
X127770000Y-63080000D02*
X128770000Y-63080000D01*
X109385000Y-65790000D02*
X109385000Y-66290000D01*
X110325000Y-66290000D02*
X110325000Y-65790000D01*
X123610000Y-51570000D02*
X123610000Y-52570000D01*
X125310000Y-52570000D02*
X125310000Y-51570000D01*
X89214000Y-36262000D02*
X86554000Y-36262000D01*
X89214000Y-41402000D02*
X89214000Y-36262000D01*
X86554000Y-41402000D02*
X86554000Y-36262000D01*
X89214000Y-41402000D02*
X86554000Y-41402000D01*
X89214000Y-42672000D02*
X89214000Y-44002000D01*
X89214000Y-44002000D02*
X87884000Y-44002000D01*
X135950000Y-67250000D02*
X133290000Y-67250000D01*
X135950000Y-74930000D02*
X135950000Y-67250000D01*
X133290000Y-74930000D02*
X133290000Y-67250000D01*
X135950000Y-74930000D02*
X133290000Y-74930000D01*
X135950000Y-76200000D02*
X135950000Y-77530000D01*
X135950000Y-77530000D02*
X134620000Y-77530000D01*
X69810000Y-45120000D02*
X72430000Y-45120000D01*
X72430000Y-45120000D02*
X72430000Y-38700000D01*
X72430000Y-38700000D02*
X69810000Y-38700000D01*
X69810000Y-38700000D02*
X69810000Y-45120000D01*
X71120000Y-46010000D02*
X71120000Y-45120000D01*
X71120000Y-37810000D02*
X71120000Y-38700000D01*
X90110000Y-62290000D02*
X92770000Y-62290000D01*
X90110000Y-49530000D02*
X90110000Y-62290000D01*
X92770000Y-49530000D02*
X92770000Y-62290000D01*
X90110000Y-49530000D02*
X92770000Y-49530000D01*
X90110000Y-48260000D02*
X90110000Y-46930000D01*
X90110000Y-46930000D02*
X91440000Y-46930000D01*
X86300000Y-52130000D02*
X88960000Y-52130000D01*
X86300000Y-49530000D02*
X86300000Y-52130000D01*
X88960000Y-49530000D02*
X88960000Y-52130000D01*
X86300000Y-49530000D02*
X88960000Y-49530000D01*
X86300000Y-48260000D02*
X86300000Y-46930000D01*
X86300000Y-46930000D02*
X87630000Y-46930000D01*
X138450000Y-39950000D02*
X141570000Y-39950000D01*
X141570000Y-39950000D02*
X141570000Y-33670000D01*
X141570000Y-33670000D02*
X141200000Y-33670000D01*
X141200000Y-33670000D02*
X141200000Y-30810000D01*
X141200000Y-30810000D02*
X138450000Y-30810000D01*
X138450000Y-39950000D02*
X135330000Y-39950000D01*
X135330000Y-39950000D02*
X135330000Y-33670000D01*
X135330000Y-33670000D02*
X135700000Y-33670000D01*
X135700000Y-33670000D02*
X135700000Y-30810000D01*
X135700000Y-30810000D02*
X138450000Y-30810000D01*
X141920000Y-35560000D02*
X142520000Y-35260000D01*
X142520000Y-35260000D02*
X142520000Y-35860000D01*
X142520000Y-35860000D02*
X141920000Y-35560000D01*
D15*
X152702381Y-47383333D02*
X153416667Y-47383333D01*
X153559524Y-47430953D01*
X153654762Y-47526191D01*
X153702381Y-47669048D01*
X153702381Y-47764286D01*
X152702381Y-47002381D02*
X152702381Y-46335714D01*
X153702381Y-46764286D01*
X123392143Y-75572857D02*
X123439762Y-75620476D01*
X123487381Y-75763333D01*
X123487381Y-75858571D01*
X123439762Y-76001429D01*
X123344524Y-76096667D01*
X123249286Y-76144286D01*
X123058810Y-76191905D01*
X122915952Y-76191905D01*
X122725476Y-76144286D01*
X122630238Y-76096667D01*
X122535000Y-76001429D01*
X122487381Y-75858571D01*
X122487381Y-75763333D01*
X122535000Y-75620476D01*
X122582619Y-75572857D01*
X123487381Y-74620476D02*
X123487381Y-75191905D01*
X123487381Y-74906191D02*
X122487381Y-74906191D01*
X122630238Y-75001429D01*
X122725476Y-75096667D01*
X122773095Y-75191905D01*
X122582619Y-74239524D02*
X122535000Y-74191905D01*
X122487381Y-74096667D01*
X122487381Y-73858571D01*
X122535000Y-73763333D01*
X122582619Y-73715714D01*
X122677857Y-73668095D01*
X122773095Y-73668095D01*
X122915952Y-73715714D01*
X123487381Y-74287143D01*
X123487381Y-73668095D01*
X123182143Y-72112143D02*
X123134524Y-72159762D01*
X122991667Y-72207381D01*
X122896429Y-72207381D01*
X122753571Y-72159762D01*
X122658333Y-72064524D01*
X122610714Y-71969286D01*
X122563095Y-71778810D01*
X122563095Y-71635952D01*
X122610714Y-71445476D01*
X122658333Y-71350238D01*
X122753571Y-71255000D01*
X122896429Y-71207381D01*
X122991667Y-71207381D01*
X123134524Y-71255000D01*
X123182143Y-71302619D01*
X124134524Y-72207381D02*
X123563095Y-72207381D01*
X123848809Y-72207381D02*
X123848809Y-71207381D01*
X123753571Y-71350238D01*
X123658333Y-71445476D01*
X123563095Y-71493095D01*
X124991667Y-71540714D02*
X124991667Y-72207381D01*
X124753571Y-71159762D02*
X124515476Y-71874048D01*
X125134524Y-71874048D01*
X126357143Y-59412143D02*
X126309524Y-59459762D01*
X126166667Y-59507381D01*
X126071429Y-59507381D01*
X125928571Y-59459762D01*
X125833333Y-59364524D01*
X125785714Y-59269286D01*
X125738095Y-59078810D01*
X125738095Y-58935952D01*
X125785714Y-58745476D01*
X125833333Y-58650238D01*
X125928571Y-58555000D01*
X126071429Y-58507381D01*
X126166667Y-58507381D01*
X126309524Y-58555000D01*
X126357143Y-58602619D01*
X127309524Y-59507381D02*
X126738095Y-59507381D01*
X127023809Y-59507381D02*
X127023809Y-58507381D01*
X126928571Y-58650238D01*
X126833333Y-58745476D01*
X126738095Y-58793095D01*
X128214286Y-58507381D02*
X127738095Y-58507381D01*
X127690476Y-58983571D01*
X127738095Y-58935952D01*
X127833333Y-58888333D01*
X128071429Y-58888333D01*
X128166667Y-58935952D01*
X128214286Y-58983571D01*
X128261905Y-59078810D01*
X128261905Y-59316905D01*
X128214286Y-59412143D01*
X128166667Y-59459762D01*
X128071429Y-59507381D01*
X127833333Y-59507381D01*
X127738095Y-59459762D01*
X127690476Y-59412143D01*
X114292143Y-74652143D02*
X114244524Y-74699762D01*
X114101667Y-74747381D01*
X114006429Y-74747381D01*
X113863571Y-74699762D01*
X113768333Y-74604524D01*
X113720714Y-74509286D01*
X113673095Y-74318810D01*
X113673095Y-74175952D01*
X113720714Y-73985476D01*
X113768333Y-73890238D01*
X113863571Y-73795000D01*
X114006429Y-73747381D01*
X114101667Y-73747381D01*
X114244524Y-73795000D01*
X114292143Y-73842619D01*
X115244524Y-74747381D02*
X114673095Y-74747381D01*
X114958809Y-74747381D02*
X114958809Y-73747381D01*
X114863571Y-73890238D01*
X114768333Y-73985476D01*
X114673095Y-74033095D01*
X116101667Y-73747381D02*
X115911190Y-73747381D01*
X115815952Y-73795000D01*
X115768333Y-73842619D01*
X115673095Y-73985476D01*
X115625476Y-74175952D01*
X115625476Y-74556905D01*
X115673095Y-74652143D01*
X115720714Y-74699762D01*
X115815952Y-74747381D01*
X116006429Y-74747381D01*
X116101667Y-74699762D01*
X116149286Y-74652143D01*
X116196905Y-74556905D01*
X116196905Y-74318810D01*
X116149286Y-74223571D01*
X116101667Y-74175952D01*
X116006429Y-74128333D01*
X115815952Y-74128333D01*
X115720714Y-74175952D01*
X115673095Y-74223571D01*
X115625476Y-74318810D01*
X113387143Y-56522857D02*
X113434762Y-56570476D01*
X113482381Y-56713333D01*
X113482381Y-56808571D01*
X113434762Y-56951429D01*
X113339524Y-57046667D01*
X113244286Y-57094286D01*
X113053810Y-57141905D01*
X112910952Y-57141905D01*
X112720476Y-57094286D01*
X112625238Y-57046667D01*
X112530000Y-56951429D01*
X112482381Y-56808571D01*
X112482381Y-56713333D01*
X112530000Y-56570476D01*
X112577619Y-56522857D01*
X113482381Y-55570476D02*
X113482381Y-56141905D01*
X113482381Y-55856191D02*
X112482381Y-55856191D01*
X112625238Y-55951429D01*
X112720476Y-56046667D01*
X112768095Y-56141905D01*
X112482381Y-55237143D02*
X112482381Y-54570476D01*
X113482381Y-54999048D01*
X111482143Y-62237857D02*
X111529762Y-62285476D01*
X111577381Y-62428333D01*
X111577381Y-62523571D01*
X111529762Y-62666429D01*
X111434524Y-62761667D01*
X111339286Y-62809286D01*
X111148810Y-62856905D01*
X111005952Y-62856905D01*
X110815476Y-62809286D01*
X110720238Y-62761667D01*
X110625000Y-62666429D01*
X110577381Y-62523571D01*
X110577381Y-62428333D01*
X110625000Y-62285476D01*
X110672619Y-62237857D01*
X111577381Y-61285476D02*
X111577381Y-61856905D01*
X111577381Y-61571191D02*
X110577381Y-61571191D01*
X110720238Y-61666429D01*
X110815476Y-61761667D01*
X110863095Y-61856905D01*
X111005952Y-60714048D02*
X110958333Y-60809286D01*
X110910714Y-60856905D01*
X110815476Y-60904524D01*
X110767857Y-60904524D01*
X110672619Y-60856905D01*
X110625000Y-60809286D01*
X110577381Y-60714048D01*
X110577381Y-60523571D01*
X110625000Y-60428333D01*
X110672619Y-60380714D01*
X110767857Y-60333095D01*
X110815476Y-60333095D01*
X110910714Y-60380714D01*
X110958333Y-60428333D01*
X111005952Y-60523571D01*
X111005952Y-60714048D01*
X111053571Y-60809286D01*
X111101190Y-60856905D01*
X111196429Y-60904524D01*
X111386905Y-60904524D01*
X111482143Y-60856905D01*
X111529762Y-60809286D01*
X111577381Y-60714048D01*
X111577381Y-60523571D01*
X111529762Y-60428333D01*
X111482143Y-60380714D01*
X111386905Y-60333095D01*
X111196429Y-60333095D01*
X111101190Y-60380714D01*
X111053571Y-60428333D01*
X111005952Y-60523571D01*
X94765905Y-41894381D02*
X94765905Y-40894381D01*
X95004000Y-40894381D01*
X95146858Y-40942000D01*
X95242096Y-41037238D01*
X95289715Y-41132476D01*
X95337334Y-41322952D01*
X95337334Y-41465810D01*
X95289715Y-41656286D01*
X95242096Y-41751524D01*
X95146858Y-41846762D01*
X95004000Y-41894381D01*
X94765905Y-41894381D01*
X96289715Y-41894381D02*
X95718286Y-41894381D01*
X96004000Y-41894381D02*
X96004000Y-40894381D01*
X95908762Y-41037238D01*
X95813524Y-41132476D01*
X95718286Y-41180095D01*
X140843095Y-61047381D02*
X140843095Y-61856905D01*
X140890714Y-61952143D01*
X140938333Y-61999762D01*
X141033571Y-62047381D01*
X141224048Y-62047381D01*
X141319286Y-61999762D01*
X141366905Y-61952143D01*
X141414524Y-61856905D01*
X141414524Y-61047381D01*
X142414524Y-62047381D02*
X141843095Y-62047381D01*
X142128809Y-62047381D02*
X142128809Y-61047381D01*
X142033571Y-61190238D01*
X141938333Y-61285476D01*
X141843095Y-61333095D01*
X116078095Y-106132381D02*
X116078095Y-106941905D01*
X116125714Y-107037143D01*
X116173333Y-107084762D01*
X116268571Y-107132381D01*
X116459048Y-107132381D01*
X116554286Y-107084762D01*
X116601905Y-107037143D01*
X116649524Y-106941905D01*
X116649524Y-106132381D01*
X117078095Y-106227619D02*
X117125714Y-106180000D01*
X117220952Y-106132381D01*
X117459048Y-106132381D01*
X117554286Y-106180000D01*
X117601905Y-106227619D01*
X117649524Y-106322857D01*
X117649524Y-106418095D01*
X117601905Y-106560952D01*
X117030476Y-107132381D01*
X117649524Y-107132381D01*
X68032381Y-99821905D02*
X68841905Y-99821905D01*
X68937143Y-99774286D01*
X68984762Y-99726667D01*
X69032381Y-99631429D01*
X69032381Y-99440952D01*
X68984762Y-99345714D01*
X68937143Y-99298095D01*
X68841905Y-99250476D01*
X68032381Y-99250476D01*
X68365714Y-98345714D02*
X69032381Y-98345714D01*
X67984762Y-98583810D02*
X68699048Y-98821905D01*
X68699048Y-98202857D01*
X128778095Y-106132381D02*
X128778095Y-106941905D01*
X128825714Y-107037143D01*
X128873333Y-107084762D01*
X128968571Y-107132381D01*
X129159048Y-107132381D01*
X129254286Y-107084762D01*
X129301905Y-107037143D01*
X129349524Y-106941905D01*
X129349524Y-106132381D01*
X130301905Y-106132381D02*
X129825714Y-106132381D01*
X129778095Y-106608571D01*
X129825714Y-106560952D01*
X129920952Y-106513333D01*
X130159048Y-106513333D01*
X130254286Y-106560952D01*
X130301905Y-106608571D01*
X130349524Y-106703810D01*
X130349524Y-106941905D01*
X130301905Y-107037143D01*
X130254286Y-107084762D01*
X130159048Y-107132381D01*
X129920952Y-107132381D01*
X129825714Y-107084762D01*
X129778095Y-107037143D01*
X103378095Y-72052381D02*
X103378095Y-72861905D01*
X103425714Y-72957143D01*
X103473333Y-73004762D01*
X103568571Y-73052381D01*
X103759048Y-73052381D01*
X103854286Y-73004762D01*
X103901905Y-72957143D01*
X103949524Y-72861905D01*
X103949524Y-72052381D01*
X104854286Y-72052381D02*
X104663809Y-72052381D01*
X104568571Y-72100000D01*
X104520952Y-72147619D01*
X104425714Y-72290476D01*
X104378095Y-72480952D01*
X104378095Y-72861905D01*
X104425714Y-72957143D01*
X104473333Y-73004762D01*
X104568571Y-73052381D01*
X104759048Y-73052381D01*
X104854286Y-73004762D01*
X104901905Y-72957143D01*
X104949524Y-72861905D01*
X104949524Y-72623810D01*
X104901905Y-72528571D01*
X104854286Y-72480952D01*
X104759048Y-72433333D01*
X104568571Y-72433333D01*
X104473333Y-72480952D01*
X104425714Y-72528571D01*
X104378095Y-72623810D01*
X105568809Y-61061190D02*
X105568809Y-61537381D01*
X105235476Y-60537381D02*
X105568809Y-61061190D01*
X105902143Y-60537381D01*
X106759286Y-61537381D02*
X106187857Y-61537381D01*
X106473571Y-61537381D02*
X106473571Y-60537381D01*
X106378333Y-60680238D01*
X106283095Y-60775476D01*
X106187857Y-60823095D01*
X141478095Y-106132381D02*
X141478095Y-106941905D01*
X141525714Y-107037143D01*
X141573333Y-107084762D01*
X141668571Y-107132381D01*
X141859048Y-107132381D01*
X141954286Y-107084762D01*
X142001905Y-107037143D01*
X142049524Y-106941905D01*
X142049524Y-106132381D01*
X142430476Y-106132381D02*
X143049524Y-106132381D01*
X142716190Y-106513333D01*
X142859048Y-106513333D01*
X142954286Y-106560952D01*
X143001905Y-106608571D01*
X143049524Y-106703810D01*
X143049524Y-106941905D01*
X143001905Y-107037143D01*
X142954286Y-107084762D01*
X142859048Y-107132381D01*
X142573333Y-107132381D01*
X142478095Y-107084762D01*
X142430476Y-107037143D01*
X155202381Y-61333333D02*
X155916667Y-61333333D01*
X156059524Y-61380953D01*
X156154762Y-61476191D01*
X156202381Y-61619048D01*
X156202381Y-61714286D01*
X156202381Y-60333333D02*
X156202381Y-60904762D01*
X156202381Y-60619048D02*
X155202381Y-60619048D01*
X155345238Y-60714286D01*
X155440476Y-60809524D01*
X155488095Y-60904762D01*
X94936667Y-38012381D02*
X94936667Y-38726667D01*
X94889047Y-38869524D01*
X94793809Y-38964762D01*
X94650952Y-39012381D01*
X94555714Y-39012381D01*
X95365238Y-38107619D02*
X95412857Y-38060000D01*
X95508095Y-38012381D01*
X95746191Y-38012381D01*
X95841429Y-38060000D01*
X95889048Y-38107619D01*
X95936667Y-38202857D01*
X95936667Y-38298095D01*
X95889048Y-38440952D01*
X95317619Y-39012381D01*
X95936667Y-39012381D01*
X117796667Y-38012381D02*
X117796667Y-38726667D01*
X117749047Y-38869524D01*
X117653809Y-38964762D01*
X117510952Y-39012381D01*
X117415714Y-39012381D01*
X118701429Y-38345714D02*
X118701429Y-39012381D01*
X118463333Y-37964762D02*
X118225238Y-38679048D01*
X118844286Y-38679048D01*
X148276667Y-38012381D02*
X148276667Y-38726667D01*
X148229047Y-38869524D01*
X148133809Y-38964762D01*
X147990952Y-39012381D01*
X147895714Y-39012381D01*
X149181429Y-38012381D02*
X148990952Y-38012381D01*
X148895714Y-38060000D01*
X148848095Y-38107619D01*
X148752857Y-38250476D01*
X148705238Y-38440952D01*
X148705238Y-38821905D01*
X148752857Y-38917143D01*
X148800476Y-38964762D01*
X148895714Y-39012381D01*
X149086191Y-39012381D01*
X149181429Y-38964762D01*
X149229048Y-38917143D01*
X149276667Y-38821905D01*
X149276667Y-38583810D01*
X149229048Y-38488571D01*
X149181429Y-38440952D01*
X149086191Y-38393333D01*
X148895714Y-38393333D01*
X148800476Y-38440952D01*
X148752857Y-38488571D01*
X148705238Y-38583810D01*
X127956667Y-38012381D02*
X127956667Y-38726667D01*
X127909047Y-38869524D01*
X127813809Y-38964762D01*
X127670952Y-39012381D01*
X127575714Y-39012381D01*
X128575714Y-38440952D02*
X128480476Y-38393333D01*
X128432857Y-38345714D01*
X128385238Y-38250476D01*
X128385238Y-38202857D01*
X128432857Y-38107619D01*
X128480476Y-38060000D01*
X128575714Y-38012381D01*
X128766191Y-38012381D01*
X128861429Y-38060000D01*
X128909048Y-38107619D01*
X128956667Y-38202857D01*
X128956667Y-38250476D01*
X128909048Y-38345714D01*
X128861429Y-38393333D01*
X128766191Y-38440952D01*
X128575714Y-38440952D01*
X128480476Y-38488571D01*
X128432857Y-38536190D01*
X128385238Y-38631429D01*
X128385238Y-38821905D01*
X128432857Y-38917143D01*
X128480476Y-38964762D01*
X128575714Y-39012381D01*
X128766191Y-39012381D01*
X128861429Y-38964762D01*
X128909048Y-38917143D01*
X128956667Y-38821905D01*
X128956667Y-38631429D01*
X128909048Y-38536190D01*
X128861429Y-38488571D01*
X128766191Y-38440952D01*
X66912381Y-68913333D02*
X67626667Y-68913333D01*
X67769524Y-68960953D01*
X67864762Y-69056191D01*
X67912381Y-69199048D01*
X67912381Y-69294286D01*
X67912381Y-68389524D02*
X67912381Y-68199048D01*
X67864762Y-68103809D01*
X67817143Y-68056190D01*
X67674286Y-67960952D01*
X67483810Y-67913333D01*
X67102857Y-67913333D01*
X67007619Y-67960952D01*
X66960000Y-68008571D01*
X66912381Y-68103809D01*
X66912381Y-68294286D01*
X66960000Y-68389524D01*
X67007619Y-68437143D01*
X67102857Y-68484762D01*
X67340952Y-68484762D01*
X67436190Y-68437143D01*
X67483810Y-68389524D01*
X67531429Y-68294286D01*
X67531429Y-68103809D01*
X67483810Y-68008571D01*
X67436190Y-67960952D01*
X67340952Y-67913333D01*
X103378095Y-106132381D02*
X103378095Y-106941905D01*
X103425714Y-107037143D01*
X103473333Y-107084762D01*
X103568571Y-107132381D01*
X103759048Y-107132381D01*
X103854286Y-107084762D01*
X103901905Y-107037143D01*
X103949524Y-106941905D01*
X103949524Y-106132381D01*
X104330476Y-106132381D02*
X104997143Y-106132381D01*
X104568571Y-107132381D01*
X137882381Y-51561905D02*
X138691905Y-51561905D01*
X138787143Y-51514286D01*
X138834762Y-51466667D01*
X138882381Y-51371429D01*
X138882381Y-51180952D01*
X138834762Y-51085714D01*
X138787143Y-51038095D01*
X138691905Y-50990476D01*
X137882381Y-50990476D01*
X138310952Y-50371429D02*
X138263333Y-50466667D01*
X138215714Y-50514286D01*
X138120476Y-50561905D01*
X138072857Y-50561905D01*
X137977619Y-50514286D01*
X137930000Y-50466667D01*
X137882381Y-50371429D01*
X137882381Y-50180952D01*
X137930000Y-50085714D01*
X137977619Y-50038095D01*
X138072857Y-49990476D01*
X138120476Y-49990476D01*
X138215714Y-50038095D01*
X138263333Y-50085714D01*
X138310952Y-50180952D01*
X138310952Y-50371429D01*
X138358571Y-50466667D01*
X138406190Y-50514286D01*
X138501429Y-50561905D01*
X138691905Y-50561905D01*
X138787143Y-50514286D01*
X138834762Y-50466667D01*
X138882381Y-50371429D01*
X138882381Y-50180952D01*
X138834762Y-50085714D01*
X138787143Y-50038095D01*
X138691905Y-49990476D01*
X138501429Y-49990476D01*
X138406190Y-50038095D01*
X138358571Y-50085714D01*
X138310952Y-50180952D01*
X132588095Y-47077381D02*
X132588095Y-47886905D01*
X132635714Y-47982143D01*
X132683333Y-48029762D01*
X132778571Y-48077381D01*
X132969048Y-48077381D01*
X133064286Y-48029762D01*
X133111905Y-47982143D01*
X133159524Y-47886905D01*
X133159524Y-47077381D01*
X133683333Y-48077381D02*
X133873809Y-48077381D01*
X133969048Y-48029762D01*
X134016667Y-47982143D01*
X134111905Y-47839286D01*
X134159524Y-47648810D01*
X134159524Y-47267857D01*
X134111905Y-47172619D01*
X134064286Y-47125000D01*
X133969048Y-47077381D01*
X133778571Y-47077381D01*
X133683333Y-47125000D01*
X133635714Y-47172619D01*
X133588095Y-47267857D01*
X133588095Y-47505952D01*
X133635714Y-47601190D01*
X133683333Y-47648810D01*
X133778571Y-47696429D01*
X133969048Y-47696429D01*
X134064286Y-47648810D01*
X134111905Y-47601190D01*
X134159524Y-47505952D01*
X113879381Y-49117095D02*
X114688905Y-49117095D01*
X114784143Y-49069476D01*
X114831762Y-49021857D01*
X114879381Y-48926619D01*
X114879381Y-48736142D01*
X114831762Y-48640904D01*
X114784143Y-48593285D01*
X114688905Y-48545666D01*
X113879381Y-48545666D01*
X114879381Y-47545666D02*
X114879381Y-48117095D01*
X114879381Y-47831381D02*
X113879381Y-47831381D01*
X114022238Y-47926619D01*
X114117476Y-48021857D01*
X114165095Y-48117095D01*
X113879381Y-46926619D02*
X113879381Y-46831380D01*
X113927000Y-46736142D01*
X113974619Y-46688523D01*
X114069857Y-46640904D01*
X114260333Y-46593285D01*
X114498429Y-46593285D01*
X114688905Y-46640904D01*
X114784143Y-46688523D01*
X114831762Y-46736142D01*
X114879381Y-46831380D01*
X114879381Y-46926619D01*
X114831762Y-47021857D01*
X114784143Y-47069476D01*
X114688905Y-47117095D01*
X114498429Y-47164714D01*
X114260333Y-47164714D01*
X114069857Y-47117095D01*
X113974619Y-47069476D01*
X113927000Y-47021857D01*
X113879381Y-46926619D01*
X116871905Y-57022381D02*
X116871905Y-57831905D01*
X116919524Y-57927143D01*
X116967143Y-57974762D01*
X117062381Y-58022381D01*
X117252858Y-58022381D01*
X117348096Y-57974762D01*
X117395715Y-57927143D01*
X117443334Y-57831905D01*
X117443334Y-57022381D01*
X118443334Y-58022381D02*
X117871905Y-58022381D01*
X118157619Y-58022381D02*
X118157619Y-57022381D01*
X118062381Y-57165238D01*
X117967143Y-57260476D01*
X117871905Y-57308095D01*
X119395715Y-58022381D02*
X118824286Y-58022381D01*
X119110000Y-58022381D02*
X119110000Y-57022381D01*
X119014762Y-57165238D01*
X118919524Y-57260476D01*
X118824286Y-57308095D01*
X112589334Y-75717143D02*
X112541715Y-75764762D01*
X112398858Y-75812381D01*
X112303620Y-75812381D01*
X112160762Y-75764762D01*
X112065524Y-75669524D01*
X112017905Y-75574286D01*
X111970286Y-75383810D01*
X111970286Y-75240952D01*
X112017905Y-75050476D01*
X112065524Y-74955238D01*
X112160762Y-74860000D01*
X112303620Y-74812381D01*
X112398858Y-74812381D01*
X112541715Y-74860000D01*
X112589334Y-74907619D01*
X113446477Y-75145714D02*
X113446477Y-75812381D01*
X113208381Y-74764762D02*
X112970286Y-75479048D01*
X113589334Y-75479048D01*
X113387143Y-83986666D02*
X113434762Y-84034285D01*
X113482381Y-84177142D01*
X113482381Y-84272380D01*
X113434762Y-84415238D01*
X113339524Y-84510476D01*
X113244286Y-84558095D01*
X113053810Y-84605714D01*
X112910952Y-84605714D01*
X112720476Y-84558095D01*
X112625238Y-84510476D01*
X112530000Y-84415238D01*
X112482381Y-84272380D01*
X112482381Y-84177142D01*
X112530000Y-84034285D01*
X112577619Y-83986666D01*
X113482381Y-83034285D02*
X113482381Y-83605714D01*
X113482381Y-83320000D02*
X112482381Y-83320000D01*
X112625238Y-83415238D01*
X112720476Y-83510476D01*
X112768095Y-83605714D01*
X126087143Y-81446666D02*
X126134762Y-81494285D01*
X126182381Y-81637142D01*
X126182381Y-81732380D01*
X126134762Y-81875238D01*
X126039524Y-81970476D01*
X125944286Y-82018095D01*
X125753810Y-82065714D01*
X125610952Y-82065714D01*
X125420476Y-82018095D01*
X125325238Y-81970476D01*
X125230000Y-81875238D01*
X125182381Y-81732380D01*
X125182381Y-81637142D01*
X125230000Y-81494285D01*
X125277619Y-81446666D01*
X125277619Y-81065714D02*
X125230000Y-81018095D01*
X125182381Y-80922857D01*
X125182381Y-80684761D01*
X125230000Y-80589523D01*
X125277619Y-80541904D01*
X125372857Y-80494285D01*
X125468095Y-80494285D01*
X125610952Y-80541904D01*
X126182381Y-81113333D01*
X126182381Y-80494285D01*
X156567143Y-90336666D02*
X156614762Y-90384285D01*
X156662381Y-90527142D01*
X156662381Y-90622380D01*
X156614762Y-90765238D01*
X156519524Y-90860476D01*
X156424286Y-90908095D01*
X156233810Y-90955714D01*
X156090952Y-90955714D01*
X155900476Y-90908095D01*
X155805238Y-90860476D01*
X155710000Y-90765238D01*
X155662381Y-90622380D01*
X155662381Y-90527142D01*
X155710000Y-90384285D01*
X155757619Y-90336666D01*
X155662381Y-90003333D02*
X155662381Y-89384285D01*
X156043333Y-89717619D01*
X156043333Y-89574761D01*
X156090952Y-89479523D01*
X156138571Y-89431904D01*
X156233810Y-89384285D01*
X156471905Y-89384285D01*
X156567143Y-89431904D01*
X156614762Y-89479523D01*
X156662381Y-89574761D01*
X156662381Y-89860476D01*
X156614762Y-89955714D01*
X156567143Y-90003333D01*
X91797143Y-76366666D02*
X91844762Y-76414285D01*
X91892381Y-76557142D01*
X91892381Y-76652380D01*
X91844762Y-76795238D01*
X91749524Y-76890476D01*
X91654286Y-76938095D01*
X91463810Y-76985714D01*
X91320952Y-76985714D01*
X91130476Y-76938095D01*
X91035238Y-76890476D01*
X90940000Y-76795238D01*
X90892381Y-76652380D01*
X90892381Y-76557142D01*
X90940000Y-76414285D01*
X90987619Y-76366666D01*
X90892381Y-75461904D02*
X90892381Y-75938095D01*
X91368571Y-75985714D01*
X91320952Y-75938095D01*
X91273333Y-75842857D01*
X91273333Y-75604761D01*
X91320952Y-75509523D01*
X91368571Y-75461904D01*
X91463810Y-75414285D01*
X91701905Y-75414285D01*
X91797143Y-75461904D01*
X91844762Y-75509523D01*
X91892381Y-75604761D01*
X91892381Y-75842857D01*
X91844762Y-75938095D01*
X91797143Y-75985714D01*
X95083334Y-93067143D02*
X95035715Y-93114762D01*
X94892858Y-93162381D01*
X94797620Y-93162381D01*
X94654762Y-93114762D01*
X94559524Y-93019524D01*
X94511905Y-92924286D01*
X94464286Y-92733810D01*
X94464286Y-92590952D01*
X94511905Y-92400476D01*
X94559524Y-92305238D01*
X94654762Y-92210000D01*
X94797620Y-92162381D01*
X94892858Y-92162381D01*
X95035715Y-92210000D01*
X95083334Y-92257619D01*
X95940477Y-92162381D02*
X95750000Y-92162381D01*
X95654762Y-92210000D01*
X95607143Y-92257619D01*
X95511905Y-92400476D01*
X95464286Y-92590952D01*
X95464286Y-92971905D01*
X95511905Y-93067143D01*
X95559524Y-93114762D01*
X95654762Y-93162381D01*
X95845239Y-93162381D01*
X95940477Y-93114762D01*
X95988096Y-93067143D01*
X96035715Y-92971905D01*
X96035715Y-92733810D01*
X95988096Y-92638571D01*
X95940477Y-92590952D01*
X95845239Y-92543333D01*
X95654762Y-92543333D01*
X95559524Y-92590952D01*
X95511905Y-92638571D01*
X95464286Y-92733810D01*
X91797143Y-103056666D02*
X91844762Y-103104285D01*
X91892381Y-103247142D01*
X91892381Y-103342380D01*
X91844762Y-103485238D01*
X91749524Y-103580476D01*
X91654286Y-103628095D01*
X91463810Y-103675714D01*
X91320952Y-103675714D01*
X91130476Y-103628095D01*
X91035238Y-103580476D01*
X90940000Y-103485238D01*
X90892381Y-103342380D01*
X90892381Y-103247142D01*
X90940000Y-103104285D01*
X90987619Y-103056666D01*
X90892381Y-102723333D02*
X90892381Y-102056666D01*
X91892381Y-102485238D01*
X138787143Y-83986666D02*
X138834762Y-84034285D01*
X138882381Y-84177142D01*
X138882381Y-84272380D01*
X138834762Y-84415238D01*
X138739524Y-84510476D01*
X138644286Y-84558095D01*
X138453810Y-84605714D01*
X138310952Y-84605714D01*
X138120476Y-84558095D01*
X138025238Y-84510476D01*
X137930000Y-84415238D01*
X137882381Y-84272380D01*
X137882381Y-84177142D01*
X137930000Y-84034285D01*
X137977619Y-83986666D01*
X138310952Y-83415238D02*
X138263333Y-83510476D01*
X138215714Y-83558095D01*
X138120476Y-83605714D01*
X138072857Y-83605714D01*
X137977619Y-83558095D01*
X137930000Y-83510476D01*
X137882381Y-83415238D01*
X137882381Y-83224761D01*
X137930000Y-83129523D01*
X137977619Y-83081904D01*
X138072857Y-83034285D01*
X138120476Y-83034285D01*
X138215714Y-83081904D01*
X138263333Y-83129523D01*
X138310952Y-83224761D01*
X138310952Y-83415238D01*
X138358571Y-83510476D01*
X138406190Y-83558095D01*
X138501429Y-83605714D01*
X138691905Y-83605714D01*
X138787143Y-83558095D01*
X138834762Y-83510476D01*
X138882381Y-83415238D01*
X138882381Y-83224761D01*
X138834762Y-83129523D01*
X138787143Y-83081904D01*
X138691905Y-83034285D01*
X138501429Y-83034285D01*
X138406190Y-83081904D01*
X138358571Y-83129523D01*
X138310952Y-83224761D01*
X106513334Y-56237143D02*
X106465715Y-56284762D01*
X106322858Y-56332381D01*
X106227620Y-56332381D01*
X106084762Y-56284762D01*
X105989524Y-56189524D01*
X105941905Y-56094286D01*
X105894286Y-55903810D01*
X105894286Y-55760952D01*
X105941905Y-55570476D01*
X105989524Y-55475238D01*
X106084762Y-55380000D01*
X106227620Y-55332381D01*
X106322858Y-55332381D01*
X106465715Y-55380000D01*
X106513334Y-55427619D01*
X106989524Y-56332381D02*
X107180000Y-56332381D01*
X107275239Y-56284762D01*
X107322858Y-56237143D01*
X107418096Y-56094286D01*
X107465715Y-55903810D01*
X107465715Y-55522857D01*
X107418096Y-55427619D01*
X107370477Y-55380000D01*
X107275239Y-55332381D01*
X107084762Y-55332381D01*
X106989524Y-55380000D01*
X106941905Y-55427619D01*
X106894286Y-55522857D01*
X106894286Y-55760952D01*
X106941905Y-55856190D01*
X106989524Y-55903810D01*
X107084762Y-55951429D01*
X107275239Y-55951429D01*
X107370477Y-55903810D01*
X107418096Y-55856190D01*
X107465715Y-55760952D01*
X123817143Y-39727143D02*
X123769524Y-39774762D01*
X123626667Y-39822381D01*
X123531429Y-39822381D01*
X123388571Y-39774762D01*
X123293333Y-39679524D01*
X123245714Y-39584286D01*
X123198095Y-39393810D01*
X123198095Y-39250952D01*
X123245714Y-39060476D01*
X123293333Y-38965238D01*
X123388571Y-38870000D01*
X123531429Y-38822381D01*
X123626667Y-38822381D01*
X123769524Y-38870000D01*
X123817143Y-38917619D01*
X124769524Y-39822381D02*
X124198095Y-39822381D01*
X124483809Y-39822381D02*
X124483809Y-38822381D01*
X124388571Y-38965238D01*
X124293333Y-39060476D01*
X124198095Y-39108095D01*
X125388571Y-38822381D02*
X125483810Y-38822381D01*
X125579048Y-38870000D01*
X125626667Y-38917619D01*
X125674286Y-39012857D01*
X125721905Y-39203333D01*
X125721905Y-39441429D01*
X125674286Y-39631905D01*
X125626667Y-39727143D01*
X125579048Y-39774762D01*
X125483810Y-39822381D01*
X125388571Y-39822381D01*
X125293333Y-39774762D01*
X125245714Y-39727143D01*
X125198095Y-39631905D01*
X125150476Y-39441429D01*
X125150476Y-39203333D01*
X125198095Y-39012857D01*
X125245714Y-38917619D01*
X125293333Y-38870000D01*
X125388571Y-38822381D01*
X159424762Y-95492381D02*
X159091428Y-95016190D01*
X158853333Y-95492381D02*
X158853333Y-94492381D01*
X159234286Y-94492381D01*
X159329524Y-94540000D01*
X159377143Y-94587619D01*
X159424762Y-94682857D01*
X159424762Y-94825714D01*
X159377143Y-94920952D01*
X159329524Y-94968571D01*
X159234286Y-95016190D01*
X158853333Y-95016190D01*
X159710476Y-94492381D02*
X160043809Y-95492381D01*
X160377143Y-94492381D01*
X161234286Y-95492381D02*
X160662857Y-95492381D01*
X160948571Y-95492381D02*
X160948571Y-94492381D01*
X160853333Y-94635238D01*
X160758095Y-94730476D01*
X160662857Y-94778095D01*
X78446667Y-40512381D02*
X78446667Y-41226667D01*
X78399047Y-41369524D01*
X78303809Y-41464762D01*
X78160952Y-41512381D01*
X78065714Y-41512381D01*
X78827619Y-40512381D02*
X79446667Y-40512381D01*
X79113333Y-40893333D01*
X79256191Y-40893333D01*
X79351429Y-40940952D01*
X79399048Y-40988571D01*
X79446667Y-41083810D01*
X79446667Y-41321905D01*
X79399048Y-41417143D01*
X79351429Y-41464762D01*
X79256191Y-41512381D01*
X78970476Y-41512381D01*
X78875238Y-41464762D01*
X78827619Y-41417143D01*
X106386667Y-40512381D02*
X106386667Y-41226667D01*
X106339047Y-41369524D01*
X106243809Y-41464762D01*
X106100952Y-41512381D01*
X106005714Y-41512381D01*
X107339048Y-40512381D02*
X106862857Y-40512381D01*
X106815238Y-40988571D01*
X106862857Y-40940952D01*
X106958095Y-40893333D01*
X107196191Y-40893333D01*
X107291429Y-40940952D01*
X107339048Y-40988571D01*
X107386667Y-41083810D01*
X107386667Y-41321905D01*
X107339048Y-41417143D01*
X107291429Y-41464762D01*
X107196191Y-41512381D01*
X106958095Y-41512381D01*
X106862857Y-41464762D01*
X106815238Y-41417143D01*
X159258095Y-96972381D02*
X159258095Y-95972381D01*
X159258095Y-96448571D02*
X159829524Y-96448571D01*
X159829524Y-96972381D02*
X159829524Y-95972381D01*
X160829524Y-96972381D02*
X160258095Y-96972381D01*
X160543809Y-96972381D02*
X160543809Y-95972381D01*
X160448571Y-96115238D01*
X160353333Y-96210476D01*
X160258095Y-96258095D01*
X159258095Y-41092381D02*
X159258095Y-40092381D01*
X159258095Y-40568571D02*
X159829524Y-40568571D01*
X159829524Y-41092381D02*
X159829524Y-40092381D01*
X160258095Y-40187619D02*
X160305714Y-40140000D01*
X160400952Y-40092381D01*
X160639048Y-40092381D01*
X160734286Y-40140000D01*
X160781905Y-40187619D01*
X160829524Y-40282857D01*
X160829524Y-40378095D01*
X160781905Y-40520952D01*
X160210476Y-41092381D01*
X160829524Y-41092381D01*
X86963334Y-91892381D02*
X86487143Y-91892381D01*
X86487143Y-90892381D01*
X87296667Y-91892381D02*
X87296667Y-90892381D01*
X87534762Y-90892381D01*
X87677620Y-90940000D01*
X87772858Y-91035238D01*
X87820477Y-91130476D01*
X87868096Y-91320952D01*
X87868096Y-91463810D01*
X87820477Y-91654286D01*
X87772858Y-91749524D01*
X87677620Y-91844762D01*
X87534762Y-91892381D01*
X87296667Y-91892381D01*
X88820477Y-91892381D02*
X88249048Y-91892381D01*
X88534762Y-91892381D02*
X88534762Y-90892381D01*
X88439524Y-91035238D01*
X88344286Y-91130476D01*
X88249048Y-91178095D01*
X81883334Y-91892381D02*
X81407143Y-91892381D01*
X81407143Y-90892381D01*
X82216667Y-91892381D02*
X82216667Y-90892381D01*
X82454762Y-90892381D01*
X82597620Y-90940000D01*
X82692858Y-91035238D01*
X82740477Y-91130476D01*
X82788096Y-91320952D01*
X82788096Y-91463810D01*
X82740477Y-91654286D01*
X82692858Y-91749524D01*
X82597620Y-91844762D01*
X82454762Y-91892381D01*
X82216667Y-91892381D01*
X83169048Y-90987619D02*
X83216667Y-90940000D01*
X83311905Y-90892381D01*
X83550001Y-90892381D01*
X83645239Y-90940000D01*
X83692858Y-90987619D01*
X83740477Y-91082857D01*
X83740477Y-91178095D01*
X83692858Y-91320952D01*
X83121429Y-91892381D01*
X83740477Y-91892381D01*
X76803334Y-91892381D02*
X76327143Y-91892381D01*
X76327143Y-90892381D01*
X77136667Y-91892381D02*
X77136667Y-90892381D01*
X77374762Y-90892381D01*
X77517620Y-90940000D01*
X77612858Y-91035238D01*
X77660477Y-91130476D01*
X77708096Y-91320952D01*
X77708096Y-91463810D01*
X77660477Y-91654286D01*
X77612858Y-91749524D01*
X77517620Y-91844762D01*
X77374762Y-91892381D01*
X77136667Y-91892381D01*
X78041429Y-90892381D02*
X78660477Y-90892381D01*
X78327143Y-91273333D01*
X78470001Y-91273333D01*
X78565239Y-91320952D01*
X78612858Y-91368571D01*
X78660477Y-91463810D01*
X78660477Y-91701905D01*
X78612858Y-91797143D01*
X78565239Y-91844762D01*
X78470001Y-91892381D01*
X78184286Y-91892381D01*
X78089048Y-91844762D01*
X78041429Y-91797143D01*
X103401905Y-48578571D02*
X103068571Y-48578571D01*
X103068571Y-49102381D02*
X103068571Y-48102381D01*
X103544762Y-48102381D01*
X104401905Y-49102381D02*
X103925714Y-49102381D01*
X103925714Y-48102381D01*
X105259048Y-49102381D02*
X104687619Y-49102381D01*
X104973333Y-49102381D02*
X104973333Y-48102381D01*
X104878095Y-48245238D01*
X104782857Y-48340476D01*
X104687619Y-48388095D01*
X149693334Y-81732381D02*
X149360000Y-81256190D01*
X149121905Y-81732381D02*
X149121905Y-80732381D01*
X149502858Y-80732381D01*
X149598096Y-80780000D01*
X149645715Y-80827619D01*
X149693334Y-80922857D01*
X149693334Y-81065714D01*
X149645715Y-81160952D01*
X149598096Y-81208571D01*
X149502858Y-81256190D01*
X149121905Y-81256190D01*
X150645715Y-81732381D02*
X150074286Y-81732381D01*
X150360000Y-81732381D02*
X150360000Y-80732381D01*
X150264762Y-80875238D01*
X150169524Y-80970476D01*
X150074286Y-81018095D01*
X153503334Y-81732381D02*
X153170000Y-81256190D01*
X152931905Y-81732381D02*
X152931905Y-80732381D01*
X153312858Y-80732381D01*
X153408096Y-80780000D01*
X153455715Y-80827619D01*
X153503334Y-80922857D01*
X153503334Y-81065714D01*
X153455715Y-81160952D01*
X153408096Y-81208571D01*
X153312858Y-81256190D01*
X152931905Y-81256190D01*
X153884286Y-80827619D02*
X153931905Y-80780000D01*
X154027143Y-80732381D01*
X154265239Y-80732381D01*
X154360477Y-80780000D01*
X154408096Y-80827619D01*
X154455715Y-80922857D01*
X154455715Y-81018095D01*
X154408096Y-81160952D01*
X153836667Y-81732381D01*
X154455715Y-81732381D01*
X157313334Y-81732381D02*
X156980000Y-81256190D01*
X156741905Y-81732381D02*
X156741905Y-80732381D01*
X157122858Y-80732381D01*
X157218096Y-80780000D01*
X157265715Y-80827619D01*
X157313334Y-80922857D01*
X157313334Y-81065714D01*
X157265715Y-81160952D01*
X157218096Y-81208571D01*
X157122858Y-81256190D01*
X156741905Y-81256190D01*
X157646667Y-80732381D02*
X158265715Y-80732381D01*
X157932381Y-81113333D01*
X158075239Y-81113333D01*
X158170477Y-81160952D01*
X158218096Y-81208571D01*
X158265715Y-81303810D01*
X158265715Y-81541905D01*
X158218096Y-81637143D01*
X158170477Y-81684762D01*
X158075239Y-81732381D01*
X157789524Y-81732381D01*
X157694286Y-81684762D01*
X157646667Y-81637143D01*
X161123334Y-81732381D02*
X160790000Y-81256190D01*
X160551905Y-81732381D02*
X160551905Y-80732381D01*
X160932858Y-80732381D01*
X161028096Y-80780000D01*
X161075715Y-80827619D01*
X161123334Y-80922857D01*
X161123334Y-81065714D01*
X161075715Y-81160952D01*
X161028096Y-81208571D01*
X160932858Y-81256190D01*
X160551905Y-81256190D01*
X161980477Y-81065714D02*
X161980477Y-81732381D01*
X161742381Y-80684762D02*
X161504286Y-81399048D01*
X162123334Y-81399048D01*
X149693334Y-53792381D02*
X149360000Y-53316190D01*
X149121905Y-53792381D02*
X149121905Y-52792381D01*
X149502858Y-52792381D01*
X149598096Y-52840000D01*
X149645715Y-52887619D01*
X149693334Y-52982857D01*
X149693334Y-53125714D01*
X149645715Y-53220952D01*
X149598096Y-53268571D01*
X149502858Y-53316190D01*
X149121905Y-53316190D01*
X150598096Y-52792381D02*
X150121905Y-52792381D01*
X150074286Y-53268571D01*
X150121905Y-53220952D01*
X150217143Y-53173333D01*
X150455239Y-53173333D01*
X150550477Y-53220952D01*
X150598096Y-53268571D01*
X150645715Y-53363810D01*
X150645715Y-53601905D01*
X150598096Y-53697143D01*
X150550477Y-53744762D01*
X150455239Y-53792381D01*
X150217143Y-53792381D01*
X150121905Y-53744762D01*
X150074286Y-53697143D01*
X153503334Y-53792381D02*
X153170000Y-53316190D01*
X152931905Y-53792381D02*
X152931905Y-52792381D01*
X153312858Y-52792381D01*
X153408096Y-52840000D01*
X153455715Y-52887619D01*
X153503334Y-52982857D01*
X153503334Y-53125714D01*
X153455715Y-53220952D01*
X153408096Y-53268571D01*
X153312858Y-53316190D01*
X152931905Y-53316190D01*
X154360477Y-52792381D02*
X154170000Y-52792381D01*
X154074762Y-52840000D01*
X154027143Y-52887619D01*
X153931905Y-53030476D01*
X153884286Y-53220952D01*
X153884286Y-53601905D01*
X153931905Y-53697143D01*
X153979524Y-53744762D01*
X154074762Y-53792381D01*
X154265239Y-53792381D01*
X154360477Y-53744762D01*
X154408096Y-53697143D01*
X154455715Y-53601905D01*
X154455715Y-53363810D01*
X154408096Y-53268571D01*
X154360477Y-53220952D01*
X154265239Y-53173333D01*
X154074762Y-53173333D01*
X153979524Y-53220952D01*
X153931905Y-53268571D01*
X153884286Y-53363810D01*
X150542381Y-99226666D02*
X150066190Y-99560000D01*
X150542381Y-99798095D02*
X149542381Y-99798095D01*
X149542381Y-99417142D01*
X149590000Y-99321904D01*
X149637619Y-99274285D01*
X149732857Y-99226666D01*
X149875714Y-99226666D01*
X149970952Y-99274285D01*
X150018571Y-99321904D01*
X150066190Y-99417142D01*
X150066190Y-99798095D01*
X149542381Y-98893333D02*
X149542381Y-98226666D01*
X150542381Y-98655238D01*
X90852381Y-86526666D02*
X90376190Y-86860000D01*
X90852381Y-87098095D02*
X89852381Y-87098095D01*
X89852381Y-86717142D01*
X89900000Y-86621904D01*
X89947619Y-86574285D01*
X90042857Y-86526666D01*
X90185714Y-86526666D01*
X90280952Y-86574285D01*
X90328571Y-86621904D01*
X90376190Y-86717142D01*
X90376190Y-87098095D01*
X90280952Y-85955238D02*
X90233333Y-86050476D01*
X90185714Y-86098095D01*
X90090476Y-86145714D01*
X90042857Y-86145714D01*
X89947619Y-86098095D01*
X89900000Y-86050476D01*
X89852381Y-85955238D01*
X89852381Y-85764761D01*
X89900000Y-85669523D01*
X89947619Y-85621904D01*
X90042857Y-85574285D01*
X90090476Y-85574285D01*
X90185714Y-85621904D01*
X90233333Y-85669523D01*
X90280952Y-85764761D01*
X90280952Y-85955238D01*
X90328571Y-86050476D01*
X90376190Y-86098095D01*
X90471429Y-86145714D01*
X90661905Y-86145714D01*
X90757143Y-86098095D01*
X90804762Y-86050476D01*
X90852381Y-85955238D01*
X90852381Y-85764761D01*
X90804762Y-85669523D01*
X90757143Y-85621904D01*
X90661905Y-85574285D01*
X90471429Y-85574285D01*
X90376190Y-85621904D01*
X90328571Y-85669523D01*
X90280952Y-85764761D01*
X99282381Y-86526666D02*
X98806190Y-86860000D01*
X99282381Y-87098095D02*
X98282381Y-87098095D01*
X98282381Y-86717142D01*
X98330000Y-86621904D01*
X98377619Y-86574285D01*
X98472857Y-86526666D01*
X98615714Y-86526666D01*
X98710952Y-86574285D01*
X98758571Y-86621904D01*
X98806190Y-86717142D01*
X98806190Y-87098095D01*
X99282381Y-86050476D02*
X99282381Y-85860000D01*
X99234762Y-85764761D01*
X99187143Y-85717142D01*
X99044286Y-85621904D01*
X98853810Y-85574285D01*
X98472857Y-85574285D01*
X98377619Y-85621904D01*
X98330000Y-85669523D01*
X98282381Y-85764761D01*
X98282381Y-85955238D01*
X98330000Y-86050476D01*
X98377619Y-86098095D01*
X98472857Y-86145714D01*
X98710952Y-86145714D01*
X98806190Y-86098095D01*
X98853810Y-86050476D01*
X98901429Y-85955238D01*
X98901429Y-85764761D01*
X98853810Y-85669523D01*
X98806190Y-85621904D01*
X98710952Y-85574285D01*
X85772381Y-79382857D02*
X85296190Y-79716191D01*
X85772381Y-79954286D02*
X84772381Y-79954286D01*
X84772381Y-79573333D01*
X84820000Y-79478095D01*
X84867619Y-79430476D01*
X84962857Y-79382857D01*
X85105714Y-79382857D01*
X85200952Y-79430476D01*
X85248571Y-79478095D01*
X85296190Y-79573333D01*
X85296190Y-79954286D01*
X85772381Y-78430476D02*
X85772381Y-79001905D01*
X85772381Y-78716191D02*
X84772381Y-78716191D01*
X84915238Y-78811429D01*
X85010476Y-78906667D01*
X85058095Y-79001905D01*
X84772381Y-77811429D02*
X84772381Y-77716190D01*
X84820000Y-77620952D01*
X84867619Y-77573333D01*
X84962857Y-77525714D01*
X85153333Y-77478095D01*
X85391429Y-77478095D01*
X85581905Y-77525714D01*
X85677143Y-77573333D01*
X85724762Y-77620952D01*
X85772381Y-77716190D01*
X85772381Y-77811429D01*
X85724762Y-77906667D01*
X85677143Y-77954286D01*
X85581905Y-78001905D01*
X85391429Y-78049524D01*
X85153333Y-78049524D01*
X84962857Y-78001905D01*
X84867619Y-77954286D01*
X84820000Y-77906667D01*
X84772381Y-77811429D01*
X80692381Y-79382857D02*
X80216190Y-79716191D01*
X80692381Y-79954286D02*
X79692381Y-79954286D01*
X79692381Y-79573333D01*
X79740000Y-79478095D01*
X79787619Y-79430476D01*
X79882857Y-79382857D01*
X80025714Y-79382857D01*
X80120952Y-79430476D01*
X80168571Y-79478095D01*
X80216190Y-79573333D01*
X80216190Y-79954286D01*
X80692381Y-78430476D02*
X80692381Y-79001905D01*
X80692381Y-78716191D02*
X79692381Y-78716191D01*
X79835238Y-78811429D01*
X79930476Y-78906667D01*
X79978095Y-79001905D01*
X80692381Y-77478095D02*
X80692381Y-78049524D01*
X80692381Y-77763810D02*
X79692381Y-77763810D01*
X79835238Y-77859048D01*
X79930476Y-77954286D01*
X79978095Y-78049524D01*
X75612381Y-79382857D02*
X75136190Y-79716191D01*
X75612381Y-79954286D02*
X74612381Y-79954286D01*
X74612381Y-79573333D01*
X74660000Y-79478095D01*
X74707619Y-79430476D01*
X74802857Y-79382857D01*
X74945714Y-79382857D01*
X75040952Y-79430476D01*
X75088571Y-79478095D01*
X75136190Y-79573333D01*
X75136190Y-79954286D01*
X75612381Y-78430476D02*
X75612381Y-79001905D01*
X75612381Y-78716191D02*
X74612381Y-78716191D01*
X74755238Y-78811429D01*
X74850476Y-78906667D01*
X74898095Y-79001905D01*
X74707619Y-78049524D02*
X74660000Y-78001905D01*
X74612381Y-77906667D01*
X74612381Y-77668571D01*
X74660000Y-77573333D01*
X74707619Y-77525714D01*
X74802857Y-77478095D01*
X74898095Y-77478095D01*
X75040952Y-77525714D01*
X75612381Y-78097143D01*
X75612381Y-77478095D01*
X75152381Y-79382857D02*
X74676190Y-79716191D01*
X75152381Y-79954286D02*
X74152381Y-79954286D01*
X74152381Y-79573333D01*
X74200000Y-79478095D01*
X74247619Y-79430476D01*
X74342857Y-79382857D01*
X74485714Y-79382857D01*
X74580952Y-79430476D01*
X74628571Y-79478095D01*
X74676190Y-79573333D01*
X74676190Y-79954286D01*
X75152381Y-78430476D02*
X75152381Y-79001905D01*
X75152381Y-78716191D02*
X74152381Y-78716191D01*
X74295238Y-78811429D01*
X74390476Y-78906667D01*
X74438095Y-79001905D01*
X74152381Y-78097143D02*
X74152381Y-77478095D01*
X74533333Y-77811429D01*
X74533333Y-77668571D01*
X74580952Y-77573333D01*
X74628571Y-77525714D01*
X74723810Y-77478095D01*
X74961905Y-77478095D01*
X75057143Y-77525714D01*
X75104762Y-77573333D01*
X75152381Y-77668571D01*
X75152381Y-77954286D01*
X75104762Y-78049524D01*
X75057143Y-78097143D01*
X146407143Y-46342857D02*
X146454762Y-46390476D01*
X146502381Y-46533333D01*
X146502381Y-46628571D01*
X146454762Y-46771429D01*
X146359524Y-46866667D01*
X146264286Y-46914286D01*
X146073810Y-46961905D01*
X145930952Y-46961905D01*
X145740476Y-46914286D01*
X145645238Y-46866667D01*
X145550000Y-46771429D01*
X145502381Y-46628571D01*
X145502381Y-46533333D01*
X145550000Y-46390476D01*
X145597619Y-46342857D01*
X146502381Y-45390476D02*
X146502381Y-45961905D01*
X146502381Y-45676191D02*
X145502381Y-45676191D01*
X145645238Y-45771429D01*
X145740476Y-45866667D01*
X145788095Y-45961905D01*
X146502381Y-44438095D02*
X146502381Y-45009524D01*
X146502381Y-44723810D02*
X145502381Y-44723810D01*
X145645238Y-44819048D01*
X145740476Y-44914286D01*
X145788095Y-45009524D01*
X127627143Y-60837143D02*
X127579524Y-60884762D01*
X127436667Y-60932381D01*
X127341429Y-60932381D01*
X127198571Y-60884762D01*
X127103333Y-60789524D01*
X127055714Y-60694286D01*
X127008095Y-60503810D01*
X127008095Y-60360952D01*
X127055714Y-60170476D01*
X127103333Y-60075238D01*
X127198571Y-59980000D01*
X127341429Y-59932381D01*
X127436667Y-59932381D01*
X127579524Y-59980000D01*
X127627143Y-60027619D01*
X128579524Y-60932381D02*
X128008095Y-60932381D01*
X128293809Y-60932381D02*
X128293809Y-59932381D01*
X128198571Y-60075238D01*
X128103333Y-60170476D01*
X128008095Y-60218095D01*
X128912857Y-59932381D02*
X129531905Y-59932381D01*
X129198571Y-60313333D01*
X129341429Y-60313333D01*
X129436667Y-60360952D01*
X129484286Y-60408571D01*
X129531905Y-60503810D01*
X129531905Y-60741905D01*
X129484286Y-60837143D01*
X129436667Y-60884762D01*
X129341429Y-60932381D01*
X129055714Y-60932381D01*
X128960476Y-60884762D01*
X128912857Y-60837143D01*
X108942143Y-66682857D02*
X108989762Y-66730476D01*
X109037381Y-66873333D01*
X109037381Y-66968571D01*
X108989762Y-67111429D01*
X108894524Y-67206667D01*
X108799286Y-67254286D01*
X108608810Y-67301905D01*
X108465952Y-67301905D01*
X108275476Y-67254286D01*
X108180238Y-67206667D01*
X108085000Y-67111429D01*
X108037381Y-66968571D01*
X108037381Y-66873333D01*
X108085000Y-66730476D01*
X108132619Y-66682857D01*
X109037381Y-65730476D02*
X109037381Y-66301905D01*
X109037381Y-66016191D02*
X108037381Y-66016191D01*
X108180238Y-66111429D01*
X108275476Y-66206667D01*
X108323095Y-66301905D01*
X109037381Y-65254286D02*
X109037381Y-65063810D01*
X108989762Y-64968571D01*
X108942143Y-64920952D01*
X108799286Y-64825714D01*
X108608810Y-64778095D01*
X108227857Y-64778095D01*
X108132619Y-64825714D01*
X108085000Y-64873333D01*
X108037381Y-64968571D01*
X108037381Y-65159048D01*
X108085000Y-65254286D01*
X108132619Y-65301905D01*
X108227857Y-65349524D01*
X108465952Y-65349524D01*
X108561190Y-65301905D01*
X108608810Y-65254286D01*
X108656429Y-65159048D01*
X108656429Y-64968571D01*
X108608810Y-64873333D01*
X108561190Y-64825714D01*
X108465952Y-64778095D01*
X123067143Y-52712857D02*
X123114762Y-52760476D01*
X123162381Y-52903333D01*
X123162381Y-52998571D01*
X123114762Y-53141429D01*
X123019524Y-53236667D01*
X122924286Y-53284286D01*
X122733810Y-53331905D01*
X122590952Y-53331905D01*
X122400476Y-53284286D01*
X122305238Y-53236667D01*
X122210000Y-53141429D01*
X122162381Y-52998571D01*
X122162381Y-52903333D01*
X122210000Y-52760476D01*
X122257619Y-52712857D01*
X122257619Y-52331905D02*
X122210000Y-52284286D01*
X122162381Y-52189048D01*
X122162381Y-51950952D01*
X122210000Y-51855714D01*
X122257619Y-51808095D01*
X122352857Y-51760476D01*
X122448095Y-51760476D01*
X122590952Y-51808095D01*
X123162381Y-52379524D01*
X123162381Y-51760476D01*
X122162381Y-51141429D02*
X122162381Y-51046190D01*
X122210000Y-50950952D01*
X122257619Y-50903333D01*
X122352857Y-50855714D01*
X122543333Y-50808095D01*
X122781429Y-50808095D01*
X122971905Y-50855714D01*
X123067143Y-50903333D01*
X123114762Y-50950952D01*
X123162381Y-51046190D01*
X123162381Y-51141429D01*
X123114762Y-51236667D01*
X123067143Y-51284286D01*
X122971905Y-51331905D01*
X122781429Y-51379524D01*
X122543333Y-51379524D01*
X122352857Y-51331905D01*
X122257619Y-51284286D01*
X122210000Y-51236667D01*
X122162381Y-51141429D01*
X87074477Y-35139381D02*
X87074477Y-35853667D01*
X87026857Y-35996524D01*
X86931619Y-36091762D01*
X86788762Y-36139381D01*
X86693524Y-36139381D01*
X88074477Y-36139381D02*
X87503048Y-36139381D01*
X87788762Y-36139381D02*
X87788762Y-35139381D01*
X87693524Y-35282238D01*
X87598286Y-35377476D01*
X87503048Y-35425095D01*
X88407810Y-35139381D02*
X89026858Y-35139381D01*
X88693524Y-35520333D01*
X88836382Y-35520333D01*
X88931620Y-35567952D01*
X88979239Y-35615571D01*
X89026858Y-35710810D01*
X89026858Y-35948905D01*
X88979239Y-36044143D01*
X88931620Y-36091762D01*
X88836382Y-36139381D01*
X88550667Y-36139381D01*
X88455429Y-36091762D01*
X88407810Y-36044143D01*
X133810477Y-77982381D02*
X133810477Y-78696667D01*
X133762857Y-78839524D01*
X133667619Y-78934762D01*
X133524762Y-78982381D01*
X133429524Y-78982381D01*
X134810477Y-78982381D02*
X134239048Y-78982381D01*
X134524762Y-78982381D02*
X134524762Y-77982381D01*
X134429524Y-78125238D01*
X134334286Y-78220476D01*
X134239048Y-78268095D01*
X135191429Y-78077619D02*
X135239048Y-78030000D01*
X135334286Y-77982381D01*
X135572382Y-77982381D01*
X135667620Y-78030000D01*
X135715239Y-78077619D01*
X135762858Y-78172857D01*
X135762858Y-78268095D01*
X135715239Y-78410952D01*
X135143810Y-78982381D01*
X135762858Y-78982381D01*
X69262381Y-42552857D02*
X68786190Y-42886191D01*
X69262381Y-43124286D02*
X68262381Y-43124286D01*
X68262381Y-42743333D01*
X68310000Y-42648095D01*
X68357619Y-42600476D01*
X68452857Y-42552857D01*
X68595714Y-42552857D01*
X68690952Y-42600476D01*
X68738571Y-42648095D01*
X68786190Y-42743333D01*
X68786190Y-43124286D01*
X69262381Y-41600476D02*
X69262381Y-42171905D01*
X69262381Y-41886191D02*
X68262381Y-41886191D01*
X68405238Y-41981429D01*
X68500476Y-42076667D01*
X68548095Y-42171905D01*
X68595714Y-40743333D02*
X69262381Y-40743333D01*
X68214762Y-40981429D02*
X68929048Y-41219524D01*
X68929048Y-40600476D01*
X90630477Y-62952381D02*
X90630477Y-63666667D01*
X90582857Y-63809524D01*
X90487619Y-63904762D01*
X90344762Y-63952381D01*
X90249524Y-63952381D01*
X91630477Y-63952381D02*
X91059048Y-63952381D01*
X91344762Y-63952381D02*
X91344762Y-62952381D01*
X91249524Y-63095238D01*
X91154286Y-63190476D01*
X91059048Y-63238095D01*
X92582858Y-63952381D02*
X92011429Y-63952381D01*
X92297143Y-63952381D02*
X92297143Y-62952381D01*
X92201905Y-63095238D01*
X92106667Y-63190476D01*
X92011429Y-63238095D01*
X88987381Y-50339523D02*
X89701667Y-50339523D01*
X89844524Y-50387143D01*
X89939762Y-50482381D01*
X89987381Y-50625238D01*
X89987381Y-50720476D01*
X89987381Y-49339523D02*
X89987381Y-49910952D01*
X89987381Y-49625238D02*
X88987381Y-49625238D01*
X89130238Y-49720476D01*
X89225476Y-49815714D01*
X89273095Y-49910952D01*
X89320714Y-48482380D02*
X89987381Y-48482380D01*
X88939762Y-48720476D02*
X89654048Y-48958571D01*
X89654048Y-48339523D01*
X137640477Y-40512381D02*
X137640477Y-41226667D01*
X137592857Y-41369524D01*
X137497619Y-41464762D01*
X137354762Y-41512381D01*
X137259524Y-41512381D01*
X138640477Y-41512381D02*
X138069048Y-41512381D01*
X138354762Y-41512381D02*
X138354762Y-40512381D01*
X138259524Y-40655238D01*
X138164286Y-40750476D01*
X138069048Y-40798095D01*
X139545239Y-40512381D02*
X139069048Y-40512381D01*
X139021429Y-40988571D01*
X139069048Y-40940952D01*
X139164286Y-40893333D01*
X139402382Y-40893333D01*
X139497620Y-40940952D01*
X139545239Y-40988571D01*
X139592858Y-41083810D01*
X139592858Y-41321905D01*
X139545239Y-41417143D01*
X139497620Y-41464762D01*
X139402382Y-41512381D01*
X139164286Y-41512381D01*
X139069048Y-41464762D01*
X139021429Y-41417143D01*
M02*
