G04 #@! TF.FileFunction,Copper,L1,Top,Signal*
%FSLAX46Y46*%
G04 Gerber Fmt 4.6, Leading zero omitted, Abs format (unit mm)*
G04 Created by KiCad (PCBNEW 4.0.7) date 02/28/18 12:29:38*
%MOMM*%
%LPD*%
G01*
G04 APERTURE LIST*
%ADD10C,0.100000*%
%ADD11R,1.250000X1.500000*%
%ADD12R,0.600000X0.500000*%
%ADD13R,0.500000X0.600000*%
%ADD14R,0.900000X0.800000*%
%ADD15R,2.000000X1.200000*%
%ADD16C,2.400000*%
%ADD17O,2.400000X2.400000*%
%ADD18R,1.600000X1.600000*%
%ADD19O,1.600000X1.600000*%
%ADD20C,1.524000*%
%ADD21R,2.100000X1.800000*%
%ADD22R,1.900000X1.900000*%
%ADD23C,1.900000*%
%ADD24C,2.750000*%
%ADD25R,2.200000X1.200000*%
%ADD26R,6.400000X5.800000*%
%ADD27R,3.050000X2.750000*%
%ADD28R,1.800000X1.800000*%
%ADD29O,1.800000X1.800000*%
%ADD30R,2.032000X1.524000*%
%ADD31R,1.000000X0.250000*%
%ADD32R,0.250000X1.000000*%
%ADD33C,1.600000*%
%ADD34R,1.700000X1.700000*%
%ADD35O,1.700000X1.700000*%
%ADD36C,1.800000*%
%ADD37C,0.800000*%
%ADD38C,1.000000*%
%ADD39C,0.250000*%
%ADD40C,0.500000*%
%ADD41C,0.249800*%
G04 APERTURE END LIST*
D10*
D11*
X119380000Y-73045000D03*
X119380000Y-75545000D03*
X126365000Y-62885000D03*
X126365000Y-65385000D03*
D12*
X110405000Y-67310000D03*
X109305000Y-67310000D03*
D13*
X121920000Y-72475000D03*
X121920000Y-73575000D03*
D12*
X125815000Y-60325000D03*
X126915000Y-60325000D03*
D13*
X114300000Y-72475000D03*
X114300000Y-73575000D03*
X114300000Y-57065000D03*
X114300000Y-55965000D03*
D12*
X110405000Y-60960000D03*
X109305000Y-60960000D03*
D11*
X121920000Y-54590000D03*
X121920000Y-52090000D03*
D14*
X91710000Y-47310000D03*
X91710000Y-49210000D03*
X93710000Y-48260000D03*
D15*
X97850000Y-48260000D03*
X97850000Y-50800000D03*
X105350000Y-50800000D03*
X105350000Y-48260000D03*
D16*
X130810000Y-76200000D03*
D17*
X130810000Y-63500000D03*
D16*
X135890000Y-63500000D03*
D17*
X135890000Y-76200000D03*
D16*
X153670000Y-81280000D03*
D17*
X153670000Y-68580000D03*
D16*
X158750000Y-81280000D03*
D17*
X158750000Y-68580000D03*
D16*
X151130000Y-58420000D03*
D17*
X138430000Y-58420000D03*
D16*
X138430000Y-53340000D03*
D17*
X151130000Y-53340000D03*
D16*
X152400000Y-104140000D03*
D17*
X152400000Y-91440000D03*
D16*
X94615000Y-90170000D03*
D17*
X94615000Y-77470000D03*
D16*
X92075000Y-70485000D03*
D17*
X104775000Y-70485000D03*
D16*
X87630000Y-82550000D03*
D17*
X87630000Y-69850000D03*
D16*
X82550000Y-82550000D03*
D17*
X82550000Y-69850000D03*
D16*
X77470000Y-82550000D03*
D17*
X77470000Y-69850000D03*
D16*
X72390000Y-82550000D03*
D17*
X72390000Y-69850000D03*
D18*
X139700000Y-63500000D03*
D19*
X147320000Y-78740000D03*
X139700000Y-66040000D03*
X147320000Y-76200000D03*
X139700000Y-68580000D03*
X147320000Y-73660000D03*
X139700000Y-71120000D03*
X147320000Y-71120000D03*
X139700000Y-73660000D03*
X147320000Y-68580000D03*
X139700000Y-76200000D03*
X147320000Y-66040000D03*
X139700000Y-78740000D03*
X147320000Y-63500000D03*
D18*
X114300000Y-88900000D03*
D19*
X121920000Y-104140000D03*
X114300000Y-91440000D03*
X121920000Y-101600000D03*
X114300000Y-93980000D03*
X121920000Y-99060000D03*
X114300000Y-96520000D03*
X121920000Y-96520000D03*
X114300000Y-99060000D03*
X121920000Y-93980000D03*
X114300000Y-101600000D03*
X121920000Y-91440000D03*
X114300000Y-104140000D03*
X121920000Y-88900000D03*
D20*
X86360000Y-102870000D03*
X86360000Y-95250000D03*
X88900000Y-95250000D03*
X78740000Y-95250000D03*
X71120000Y-95250000D03*
X88900000Y-102870000D03*
X78740000Y-102870000D03*
X71120000Y-102870000D03*
D18*
X127000000Y-86360000D03*
D19*
X134620000Y-104140000D03*
X127000000Y-88900000D03*
X134620000Y-101600000D03*
X127000000Y-91440000D03*
X134620000Y-99060000D03*
X127000000Y-93980000D03*
X134620000Y-96520000D03*
X127000000Y-96520000D03*
X134620000Y-93980000D03*
X127000000Y-99060000D03*
X134620000Y-91440000D03*
X127000000Y-101600000D03*
X134620000Y-88900000D03*
X127000000Y-104140000D03*
X134620000Y-86360000D03*
D18*
X101600000Y-74930000D03*
D19*
X109220000Y-82550000D03*
X101600000Y-77470000D03*
X109220000Y-80010000D03*
X101600000Y-80010000D03*
X109220000Y-77470000D03*
X101600000Y-82550000D03*
X109220000Y-74930000D03*
D21*
X102690000Y-64650000D03*
X105590000Y-64650000D03*
X105590000Y-62350000D03*
X102690000Y-62350000D03*
D18*
X139700000Y-88900000D03*
D19*
X147320000Y-104140000D03*
X139700000Y-91440000D03*
X147320000Y-101600000D03*
X139700000Y-93980000D03*
X147320000Y-99060000D03*
X139700000Y-96520000D03*
X147320000Y-96520000D03*
X139700000Y-99060000D03*
X147320000Y-93980000D03*
X139700000Y-101600000D03*
X147320000Y-91440000D03*
X139700000Y-104140000D03*
X147320000Y-88900000D03*
D22*
X158750000Y-63500000D03*
D23*
X158750000Y-61000000D03*
X158750000Y-58500000D03*
D22*
X96520000Y-35560000D03*
D23*
X94020000Y-35560000D03*
D22*
X119380000Y-35560000D03*
D23*
X116880000Y-35560000D03*
D22*
X149860000Y-35560000D03*
D23*
X147360000Y-35560000D03*
D22*
X158750000Y-50800000D03*
D23*
X158750000Y-48300000D03*
X158750000Y-45800000D03*
X158750000Y-43300000D03*
X156250000Y-50800000D03*
X156250000Y-48300000D03*
X156250000Y-45800000D03*
X156250000Y-43300000D03*
D22*
X129540000Y-35560000D03*
D23*
X127040000Y-35560000D03*
D24*
X56960000Y-86580000D03*
X56960000Y-90580000D03*
X56960000Y-78580000D03*
X56960000Y-74580000D03*
X56960000Y-82580000D03*
X60960000Y-84580000D03*
X60960000Y-88580000D03*
X56960000Y-46580000D03*
X56960000Y-50580000D03*
X56960000Y-62580000D03*
X56960000Y-58580000D03*
X56960000Y-54580000D03*
X56960000Y-66580000D03*
X56960000Y-70580000D03*
X60960000Y-52580000D03*
X60960000Y-56580000D03*
X60960000Y-48580000D03*
X60960000Y-68580000D03*
X60960000Y-64580000D03*
X60960000Y-60580000D03*
X60960000Y-72580000D03*
X60960000Y-76580000D03*
X60960000Y-80580000D03*
X64960000Y-86580000D03*
X64960000Y-82580000D03*
X64960000Y-90580000D03*
X64960000Y-78580000D03*
X64960000Y-66580000D03*
X64960000Y-70580000D03*
X64960000Y-74580000D03*
X64960000Y-54580000D03*
X64960000Y-46580000D03*
X64960000Y-50580000D03*
X64960000Y-62580000D03*
X64960000Y-58580000D03*
X85280000Y-45530000D03*
X85280000Y-49530000D03*
X85280000Y-53530000D03*
X77280000Y-53530000D03*
X77280000Y-45530000D03*
X77280000Y-49530000D03*
X81280000Y-51530000D03*
X81280000Y-47530000D03*
D18*
X101600000Y-86360000D03*
D19*
X109220000Y-104140000D03*
X101600000Y-88900000D03*
X109220000Y-101600000D03*
X101600000Y-91440000D03*
X109220000Y-99060000D03*
X101600000Y-93980000D03*
X109220000Y-96520000D03*
X101600000Y-96520000D03*
X109220000Y-93980000D03*
X101600000Y-99060000D03*
X109220000Y-91440000D03*
X101600000Y-101600000D03*
X109220000Y-88900000D03*
X101600000Y-104140000D03*
X109220000Y-86360000D03*
D25*
X125340000Y-49790000D03*
X125340000Y-52070000D03*
X125340000Y-54350000D03*
D26*
X131640000Y-52070000D03*
D27*
X133315000Y-53595000D03*
X129965000Y-50545000D03*
X133315000Y-50545000D03*
X129965000Y-53595000D03*
D28*
X133350000Y-44450000D03*
D29*
X130810000Y-44450000D03*
X128270000Y-44450000D03*
D30*
X116840000Y-52070000D03*
X116840000Y-49530000D03*
X116840000Y-46990000D03*
X116840000Y-44450000D03*
X109220000Y-44450000D03*
X109220000Y-46990000D03*
X109220000Y-49530000D03*
X109220000Y-52070000D03*
D31*
X112410000Y-61020000D03*
X112410000Y-61520000D03*
X112410000Y-62020000D03*
X112410000Y-62520000D03*
X112410000Y-63020000D03*
X112410000Y-63520000D03*
X112410000Y-64020000D03*
X112410000Y-64520000D03*
X112410000Y-65020000D03*
X112410000Y-65520000D03*
X112410000Y-66020000D03*
X112410000Y-66520000D03*
X112410000Y-67020000D03*
X112410000Y-67520000D03*
X112410000Y-68020000D03*
X112410000Y-68520000D03*
D32*
X114360000Y-70470000D03*
X114860000Y-70470000D03*
X115360000Y-70470000D03*
X115860000Y-70470000D03*
X116360000Y-70470000D03*
X116860000Y-70470000D03*
X117360000Y-70470000D03*
X117860000Y-70470000D03*
X118360000Y-70470000D03*
X118860000Y-70470000D03*
X119360000Y-70470000D03*
X119860000Y-70470000D03*
X120360000Y-70470000D03*
X120860000Y-70470000D03*
X121360000Y-70470000D03*
X121860000Y-70470000D03*
D31*
X123810000Y-68520000D03*
X123810000Y-68020000D03*
X123810000Y-67520000D03*
X123810000Y-67020000D03*
X123810000Y-66520000D03*
X123810000Y-66020000D03*
X123810000Y-65520000D03*
X123810000Y-65020000D03*
X123810000Y-64520000D03*
X123810000Y-64020000D03*
X123810000Y-63520000D03*
X123810000Y-63020000D03*
X123810000Y-62520000D03*
X123810000Y-62020000D03*
X123810000Y-61520000D03*
X123810000Y-61020000D03*
D32*
X121860000Y-59070000D03*
X121360000Y-59070000D03*
X120860000Y-59070000D03*
X120360000Y-59070000D03*
X119860000Y-59070000D03*
X119360000Y-59070000D03*
X118860000Y-59070000D03*
X118360000Y-59070000D03*
X117860000Y-59070000D03*
X117360000Y-59070000D03*
X116860000Y-59070000D03*
X116360000Y-59070000D03*
X115860000Y-59070000D03*
X115360000Y-59070000D03*
X114860000Y-59070000D03*
X114360000Y-59070000D03*
D33*
X113030000Y-77470000D03*
X115530000Y-77470000D03*
D18*
X119380000Y-83820000D03*
D33*
X116880000Y-83820000D03*
D18*
X132080000Y-81280000D03*
D33*
X129580000Y-81280000D03*
D18*
X152400000Y-87630000D03*
D33*
X152400000Y-85130000D03*
D18*
X97790000Y-64770000D03*
D33*
X95290000Y-64770000D03*
D18*
X97790000Y-96520000D03*
D33*
X95290000Y-96520000D03*
D18*
X96520000Y-104140000D03*
D33*
X96520000Y-101640000D03*
D18*
X142240000Y-83820000D03*
D33*
X144740000Y-83820000D03*
D18*
X139700000Y-44450000D03*
D33*
X139700000Y-46950000D03*
D18*
X121920000Y-41910000D03*
D33*
X121920000Y-44410000D03*
D34*
X160020000Y-92710000D03*
D35*
X160020000Y-90170000D03*
X160020000Y-87630000D03*
D34*
X105410000Y-57150000D03*
D35*
X102870000Y-57150000D03*
X100330000Y-57150000D03*
X97790000Y-57150000D03*
X95250000Y-57150000D03*
X92710000Y-57150000D03*
X90170000Y-57150000D03*
X87630000Y-57150000D03*
D22*
X81280000Y-35560000D03*
D23*
X78780000Y-35560000D03*
X76280000Y-35560000D03*
X81280000Y-38060000D03*
X78780000Y-38060000D03*
X76280000Y-38060000D03*
D22*
X109220000Y-35560000D03*
D23*
X106720000Y-35560000D03*
X104220000Y-35560000D03*
X109220000Y-38060000D03*
X106720000Y-38060000D03*
X104220000Y-38060000D03*
D28*
X87630000Y-88900000D03*
D36*
X87630000Y-86360000D03*
D28*
X82550000Y-88900000D03*
D36*
X82550000Y-86360000D03*
D28*
X77470000Y-88900000D03*
D36*
X77470000Y-86360000D03*
D22*
X139700000Y-35560000D03*
D23*
X137200000Y-35560000D03*
X139700000Y-38060000D03*
X137200000Y-38060000D03*
D34*
X97790000Y-40640000D03*
D35*
X97790000Y-43180000D03*
X95250000Y-40640000D03*
X95250000Y-43180000D03*
X92710000Y-40640000D03*
X92710000Y-43180000D03*
X90170000Y-40640000D03*
X90170000Y-43180000D03*
D37*
X137080400Y-42882500D03*
X115828700Y-72739300D03*
X116877800Y-53442800D03*
X119981900Y-54590000D03*
X122459000Y-60975500D03*
X126025500Y-68185800D03*
D38*
X85392800Y-40141100D03*
D37*
X115847400Y-73765200D03*
X110510600Y-84488600D03*
X122798700Y-57016400D03*
X120058600Y-30225700D03*
X120448500Y-64520000D03*
X105132000Y-105107200D03*
X122704200Y-66520000D03*
X112315600Y-83675400D03*
X120419000Y-67366600D03*
X112496200Y-70151700D03*
X120982100Y-69343800D03*
X133392300Y-37988000D03*
X122708300Y-67743600D03*
X134269500Y-37411500D03*
X108478500Y-69005300D03*
X104995900Y-73760900D03*
X118977100Y-68297300D03*
X113475500Y-70588200D03*
X119152300Y-69313400D03*
X112124300Y-72224200D03*
X125476400Y-73073200D03*
X104759200Y-95394700D03*
X125372100Y-67350800D03*
X111612100Y-55524300D03*
X120554100Y-61901200D03*
X112926300Y-55953600D03*
X122612500Y-59330200D03*
X114477500Y-53209400D03*
X121097800Y-57462000D03*
X113303400Y-54367300D03*
X120130300Y-57933600D03*
X107266000Y-64006100D03*
X106322900Y-46289000D03*
X119125700Y-57924100D03*
X113529700Y-64048700D03*
X111289000Y-64995500D03*
X113510300Y-65348500D03*
X110274200Y-65047300D03*
X115090600Y-65140200D03*
X115353100Y-66223400D03*
X116896700Y-64671900D03*
X100921600Y-45531000D03*
X115926400Y-63091000D03*
D39*
X121920000Y-41910000D02*
X123045300Y-41910000D01*
X109220000Y-52070000D02*
X109220000Y-50982700D01*
X142240000Y-83820000D02*
X141114700Y-83820000D01*
X138574700Y-86360000D02*
X134620000Y-86360000D01*
X141114700Y-83820000D02*
X138574700Y-86360000D01*
X119380000Y-83820000D02*
X118254700Y-83820000D01*
X101600000Y-86360000D02*
X109220000Y-86360000D01*
X109220000Y-86360000D02*
X110345300Y-86360000D01*
X116001500Y-86360000D02*
X110345300Y-86360000D01*
X118254700Y-84106800D02*
X116001500Y-86360000D01*
X118254700Y-83820000D02*
X118254700Y-84106800D01*
X123253500Y-44450000D02*
X127044700Y-44450000D01*
X123253500Y-44693700D02*
X123253500Y-44450000D01*
X122178700Y-45768500D02*
X123253500Y-44693700D01*
X115563000Y-45768500D02*
X122178700Y-45768500D01*
X110348800Y-50982700D02*
X115563000Y-45768500D01*
X109220000Y-50982700D02*
X110348800Y-50982700D01*
X123253500Y-42118200D02*
X123045300Y-41910000D01*
X123253500Y-44450000D02*
X123253500Y-42118200D01*
X128270000Y-44450000D02*
X127657400Y-44450000D01*
X127657400Y-44450000D02*
X127044700Y-44450000D01*
X129224900Y-42882500D02*
X137080400Y-42882500D01*
X127657400Y-44450000D02*
X129224900Y-42882500D01*
X114875300Y-58229400D02*
X114875300Y-55965000D01*
X114860000Y-58244700D02*
X114875300Y-58229400D01*
X114300000Y-55965000D02*
X114875300Y-55965000D01*
X114955000Y-43906300D02*
X115498700Y-44450000D01*
X109220000Y-43906300D02*
X114955000Y-43906300D01*
X116840000Y-44450000D02*
X115498700Y-44450000D01*
X60960000Y-60097700D02*
X60960000Y-60580000D01*
X64213500Y-56844200D02*
X60960000Y-60097700D01*
X73965800Y-56844200D02*
X64213500Y-56844200D01*
X77280000Y-53530000D02*
X73965800Y-56844200D01*
X109220000Y-93980000D02*
X101600000Y-93980000D01*
X82276100Y-53530000D02*
X77280000Y-53530000D01*
X84170900Y-51635200D02*
X82276100Y-53530000D01*
X87701700Y-51635200D02*
X84170900Y-51635200D01*
X91076900Y-48260000D02*
X87701700Y-51635200D01*
X93710000Y-48260000D02*
X91076900Y-48260000D01*
X114860000Y-70470000D02*
X114860000Y-71295300D01*
X121920000Y-52090000D02*
X120969700Y-52090000D01*
X114860000Y-58657300D02*
X114860000Y-58244700D01*
X114860000Y-58657300D02*
X114860000Y-59070000D01*
X114300000Y-55965000D02*
X113724700Y-55965000D01*
X114300000Y-73575000D02*
X113724700Y-73575000D01*
X114018600Y-103014700D02*
X114300000Y-103014700D01*
X113174700Y-102170800D02*
X114018600Y-103014700D01*
X113174700Y-101178000D02*
X113174700Y-102170800D01*
X109642000Y-97645300D02*
X113174700Y-101178000D01*
X109220000Y-97645300D02*
X109642000Y-97645300D01*
X109220000Y-96520000D02*
X109220000Y-97645300D01*
X129965000Y-50545000D02*
X131640000Y-50545000D01*
X131640000Y-52070000D02*
X131640000Y-50545000D01*
X87630000Y-88900000D02*
X82550000Y-88900000D01*
X82550000Y-88900000D02*
X77470000Y-88900000D01*
X118221300Y-44410000D02*
X118181300Y-44450000D01*
X121920000Y-44410000D02*
X118221300Y-44410000D01*
X116840000Y-44450000D02*
X118181300Y-44450000D01*
X120330300Y-74589400D02*
X121344700Y-73575000D01*
X120330300Y-75545000D02*
X120330300Y-74589400D01*
X119380000Y-75545000D02*
X120330300Y-75545000D01*
X121920000Y-73575000D02*
X121344700Y-73575000D01*
X99349400Y-97645300D02*
X100474700Y-96520000D01*
X96415300Y-97645300D02*
X99349400Y-97645300D01*
X95290000Y-96520000D02*
X96415300Y-97645300D01*
X101600000Y-96520000D02*
X100474700Y-96520000D01*
X119380000Y-75545000D02*
X118904900Y-75545000D01*
X127000000Y-104140000D02*
X128125300Y-104140000D01*
X139700000Y-104140000D02*
X138574700Y-104140000D01*
X134620000Y-93980000D02*
X134620000Y-95105300D01*
X135747000Y-95951000D02*
X135747000Y-103014700D01*
X134901300Y-95105300D02*
X135747000Y-95951000D01*
X134620000Y-95105300D02*
X134901300Y-95105300D01*
X129250600Y-103014700D02*
X135747000Y-103014700D01*
X128125300Y-104140000D02*
X129250600Y-103014700D01*
X137449400Y-103014700D02*
X138574700Y-104140000D01*
X135747000Y-103014700D02*
X137449400Y-103014700D01*
X114300000Y-104140000D02*
X114300000Y-103127300D01*
X114300000Y-103127300D02*
X114300000Y-103014700D01*
X124749400Y-103014700D02*
X125874700Y-104140000D01*
X114300000Y-103014700D02*
X124749400Y-103014700D01*
X127000000Y-104140000D02*
X125874700Y-104140000D01*
X114450700Y-71295300D02*
X114860000Y-71295300D01*
X113724700Y-72021300D02*
X114450700Y-71295300D01*
X113724700Y-73575000D02*
X113724700Y-72021300D01*
X109220000Y-44450000D02*
X109220000Y-44178100D01*
X109220000Y-44178100D02*
X109220000Y-43906300D01*
X106720000Y-41678100D02*
X106720000Y-38060000D01*
X109220000Y-44178100D02*
X106720000Y-41678100D01*
X120360000Y-70470000D02*
X120360000Y-71295300D01*
X158750000Y-68580000D02*
X157224700Y-68580000D01*
X118429700Y-75545000D02*
X118406600Y-75521900D01*
X118904900Y-75545000D02*
X118429700Y-75545000D01*
X119279600Y-71295300D02*
X120360000Y-71295300D01*
X118406600Y-72168300D02*
X119279600Y-71295300D01*
X118406600Y-75521900D02*
X118406600Y-72168300D01*
X116360000Y-56699700D02*
X116360000Y-59070000D01*
X120969700Y-52090000D02*
X116360000Y-56699700D01*
X116360000Y-59895300D02*
X114860000Y-59895300D01*
X116360000Y-59070000D02*
X116360000Y-59895300D01*
X114860000Y-59070000D02*
X114860000Y-59895300D01*
X109305000Y-60960000D02*
X109305000Y-60384700D01*
X139700000Y-104140000D02*
X139700000Y-103014700D01*
X139981300Y-103014700D02*
X139700000Y-103014700D01*
X146050000Y-96946000D02*
X139981300Y-103014700D01*
X146050000Y-85130000D02*
X146050000Y-96946000D01*
X152400000Y-85130000D02*
X146050000Y-85130000D01*
X146050000Y-85130000D02*
X144740000Y-83820000D01*
X147320000Y-71120000D02*
X154684700Y-71120000D01*
X154684700Y-71120000D02*
X157224700Y-68580000D01*
X160020000Y-87630000D02*
X158844700Y-87630000D01*
X155221200Y-82803500D02*
X154619700Y-83405000D01*
X155221200Y-71656500D02*
X155221200Y-82803500D01*
X154684700Y-71120000D02*
X155221200Y-71656500D01*
X154125000Y-83405000D02*
X154619700Y-83405000D01*
X152400000Y-85130000D02*
X154125000Y-83405000D01*
X154619700Y-83405000D02*
X158844700Y-87630000D01*
X61125900Y-84745900D02*
X60960000Y-84580000D01*
X61125900Y-85868000D02*
X61125900Y-84745900D01*
X61837900Y-86580000D02*
X61125900Y-85868000D01*
X64960000Y-86580000D02*
X61837900Y-86580000D01*
X56960000Y-90033900D02*
X56960000Y-90580000D01*
X61125900Y-85868000D02*
X56960000Y-90033900D01*
X137200000Y-38060000D02*
X137200000Y-38799200D01*
X137736200Y-39335400D02*
X137200000Y-38799200D01*
X143584600Y-39335400D02*
X137736200Y-39335400D01*
X147360000Y-35560000D02*
X143584600Y-39335400D01*
X130279200Y-38799200D02*
X127040000Y-35560000D01*
X137200000Y-38799200D02*
X130279200Y-38799200D01*
X117478100Y-75521900D02*
X115530000Y-77470000D01*
X118406600Y-75521900D02*
X117478100Y-75521900D01*
X121920000Y-73575000D02*
X122495300Y-73575000D01*
X126365000Y-65385000D02*
X126365000Y-66460300D01*
X129385100Y-76200000D02*
X126760100Y-73575000D01*
X130810000Y-76200000D02*
X129385100Y-76200000D01*
X126760100Y-66855400D02*
X126365000Y-66460300D01*
X126760100Y-73575000D02*
X126760100Y-66855400D01*
X127315300Y-61300600D02*
X127315300Y-65385000D01*
X126915000Y-60900300D02*
X127315300Y-61300600D01*
X126915000Y-60325000D02*
X126915000Y-60900300D01*
X126365000Y-65385000D02*
X127315300Y-65385000D01*
X114993000Y-73575000D02*
X115828700Y-72739300D01*
X114300000Y-73575000D02*
X114993000Y-73575000D01*
X130810000Y-44450000D02*
X129584700Y-44450000D01*
X123790300Y-48977700D02*
X123790300Y-52070000D01*
X127092700Y-45675300D02*
X123790300Y-48977700D01*
X128819000Y-45675300D02*
X127092700Y-45675300D01*
X129584700Y-44909600D02*
X128819000Y-45675300D01*
X129584700Y-44450000D02*
X129584700Y-44909600D01*
X122890300Y-52070000D02*
X122870300Y-52090000D01*
X123790300Y-52070000D02*
X122890300Y-52070000D01*
X121920000Y-52090000D02*
X122870300Y-52090000D01*
X133315000Y-53595000D02*
X131464700Y-53595000D01*
X130789900Y-52920100D02*
X131464700Y-53595000D01*
X130115000Y-53595000D02*
X130789900Y-52920100D01*
X129965000Y-53595000D02*
X130115000Y-53595000D01*
X130789900Y-52920100D02*
X131640000Y-52070000D01*
X125340000Y-52070000D02*
X123790300Y-52070000D01*
X128114700Y-53419400D02*
X128114700Y-53595000D01*
X126765300Y-52070000D02*
X128114700Y-53419400D01*
X125340000Y-52070000D02*
X126765300Y-52070000D01*
X129965000Y-53595000D02*
X128114700Y-53595000D01*
X113724700Y-56183000D02*
X113724700Y-55965000D01*
X109523000Y-60384700D02*
X113724700Y-56183000D01*
X109305000Y-60384700D02*
X109523000Y-60384700D01*
X130944400Y-82644400D02*
X129580000Y-81280000D01*
X143564400Y-82644400D02*
X130944400Y-82644400D01*
X144740000Y-83820000D02*
X143564400Y-82644400D01*
X119420000Y-81280000D02*
X129580000Y-81280000D01*
X116880000Y-83820000D02*
X119420000Y-81280000D01*
X126505900Y-73829200D02*
X126760100Y-73575000D01*
X122749500Y-73829200D02*
X126505900Y-73829200D01*
X122495300Y-73575000D02*
X122749500Y-73829200D01*
X131640000Y-50545000D02*
X133315000Y-50545000D01*
X136105000Y-50545000D02*
X139700000Y-46950000D01*
X133315000Y-50545000D02*
X136105000Y-50545000D01*
X105590000Y-64650000D02*
X105590000Y-65875300D01*
X98652700Y-60002600D02*
X100330000Y-58325300D01*
X98652700Y-63500000D02*
X98652700Y-60002600D01*
X96560000Y-63500000D02*
X98652700Y-63500000D01*
X95290000Y-64770000D02*
X96560000Y-63500000D01*
X100330000Y-57150000D02*
X100330000Y-58325300D01*
X101028000Y-65875300D02*
X105590000Y-65875300D01*
X98652700Y-63500000D02*
X101028000Y-65875300D01*
X108445600Y-65875300D02*
X109305000Y-66734700D01*
X105590000Y-65875300D02*
X108445600Y-65875300D01*
X109305000Y-67310000D02*
X109305000Y-66734700D01*
X109519700Y-66520000D02*
X109305000Y-66734700D01*
X112410000Y-66520000D02*
X109519700Y-66520000D01*
X152400000Y-87630000D02*
X152400000Y-91440000D01*
X105554700Y-77470000D02*
X108094700Y-80010000D01*
X101600000Y-77470000D02*
X105554700Y-77470000D01*
X109220000Y-80010000D02*
X108094700Y-80010000D01*
D40*
X96520000Y-104140000D02*
X95169700Y-104140000D01*
X90089700Y-99060000D02*
X95169700Y-104140000D01*
X78939600Y-99060000D02*
X90089700Y-99060000D01*
X68459600Y-88580000D02*
X78939600Y-99060000D01*
X60960000Y-88580000D02*
X68459600Y-88580000D01*
X138349700Y-44450000D02*
X134800300Y-44450000D01*
X139700000Y-44450000D02*
X138349700Y-44450000D01*
X133350000Y-44450000D02*
X134075200Y-44450000D01*
X134075200Y-44450000D02*
X134800300Y-44450000D01*
X129351200Y-47429100D02*
X126990300Y-49790000D01*
X131096100Y-47429100D02*
X129351200Y-47429100D01*
X134075200Y-44450000D02*
X131096100Y-47429100D01*
X125340000Y-49790000D02*
X126990300Y-49790000D01*
D39*
X120330300Y-72325000D02*
X120330300Y-73045000D01*
X121360000Y-71295300D02*
X120330300Y-72325000D01*
X121360000Y-70470000D02*
X121360000Y-71295300D01*
X119380000Y-73045000D02*
X120330300Y-73045000D01*
X124635300Y-62105600D02*
X125414700Y-62885000D01*
X124635300Y-61520000D02*
X124635300Y-62105600D01*
X126365000Y-62885000D02*
X125414700Y-62885000D01*
X123810000Y-61520000D02*
X124635300Y-61520000D01*
X111320300Y-67020000D02*
X111030300Y-67310000D01*
X112410000Y-67020000D02*
X111320300Y-67020000D01*
X114360000Y-57750300D02*
X114360000Y-59070000D01*
X114300000Y-57690300D02*
X114360000Y-57750300D01*
X125815000Y-60612600D02*
X125815000Y-60900300D01*
X114300000Y-72475000D02*
X114875300Y-72475000D01*
X116840000Y-52070000D02*
X116840000Y-53157300D01*
X110405000Y-67310000D02*
X111030300Y-67310000D01*
X114300000Y-57065000D02*
X114300000Y-57690300D01*
X60960000Y-77043900D02*
X60960000Y-76580000D01*
X64496100Y-80580000D02*
X60960000Y-77043900D01*
X70420000Y-80580000D02*
X64496100Y-80580000D01*
X72390000Y-82550000D02*
X70420000Y-80580000D01*
X70230000Y-52580000D02*
X60960000Y-52580000D01*
X77280000Y-45530000D02*
X70230000Y-52580000D01*
X105410000Y-57150000D02*
X105410000Y-58325300D01*
X116840000Y-53405000D02*
X116877800Y-53442800D01*
X116840000Y-53157300D02*
X116840000Y-53405000D01*
X125695300Y-61020000D02*
X123810000Y-61020000D01*
X125815000Y-60900300D02*
X125695300Y-61020000D01*
X119981900Y-54590000D02*
X121920000Y-54590000D01*
X123674700Y-54590000D02*
X123914700Y-54350000D01*
X121920000Y-54590000D02*
X123674700Y-54590000D01*
X125340000Y-54350000D02*
X123914700Y-54350000D01*
X102690000Y-62350000D02*
X102690000Y-61124700D01*
X105410000Y-59837600D02*
X105410000Y-58325300D01*
X103977100Y-59837600D02*
X105410000Y-59837600D01*
X102690000Y-61124700D02*
X103977100Y-59837600D01*
X109939200Y-61535400D02*
X110405000Y-61069600D01*
X107817500Y-61535400D02*
X109939200Y-61535400D01*
X106119700Y-59837600D02*
X107817500Y-61535400D01*
X105410000Y-59837600D02*
X106119700Y-59837600D01*
X125815000Y-60612600D02*
X125815000Y-60325000D01*
X149600400Y-59949600D02*
X151130000Y-58420000D01*
X136688300Y-59949600D02*
X149600400Y-59949600D01*
X136488400Y-59749700D02*
X136688300Y-59949600D01*
X125815000Y-59749700D02*
X136488400Y-59749700D01*
X125815000Y-60325000D02*
X125815000Y-59749700D01*
X112410000Y-61020000D02*
X113235300Y-61020000D01*
X114360000Y-59070000D02*
X114360000Y-59895300D01*
X110405000Y-60960000D02*
X110405000Y-61014800D01*
X110405000Y-61014800D02*
X110405000Y-61069600D01*
X111579500Y-61014800D02*
X111584700Y-61020000D01*
X110405000Y-61014800D02*
X111579500Y-61014800D01*
X112410000Y-61020000D02*
X111584700Y-61020000D01*
X112410000Y-67020000D02*
X113235300Y-67020000D01*
X115360000Y-71990300D02*
X115360000Y-70470000D01*
X114875300Y-72475000D02*
X115360000Y-71990300D01*
X115360000Y-69144700D02*
X113235300Y-67020000D01*
X115360000Y-70470000D02*
X115360000Y-69144700D01*
X113235300Y-61020000D02*
X114360000Y-59895300D01*
X123810000Y-61020000D02*
X122984700Y-61020000D01*
X121920000Y-71355300D02*
X121920000Y-72475000D01*
X121860000Y-71295300D02*
X121920000Y-71355300D01*
X121860000Y-70470000D02*
X121860000Y-71295300D01*
X122940200Y-60975500D02*
X122984700Y-61020000D01*
X122459000Y-60975500D02*
X122940200Y-60975500D01*
X114633400Y-62418100D02*
X113235300Y-61020000D01*
X114348100Y-62703400D02*
X114633400Y-62418100D01*
X114348100Y-65536500D02*
X114348100Y-62703400D01*
X113235300Y-66649300D02*
X114348100Y-65536500D01*
X113235300Y-67020000D02*
X113235300Y-66649300D01*
X114723300Y-62328200D02*
X114633400Y-62418100D01*
X119692400Y-62328200D02*
X114723300Y-62328200D01*
X119692400Y-67711100D02*
X119692400Y-62328200D01*
X120495800Y-68514500D02*
X119692400Y-67711100D01*
X121182900Y-68514500D02*
X120495800Y-68514500D01*
X121860000Y-69191600D02*
X121182900Y-68514500D01*
X121860000Y-70470000D02*
X121860000Y-69191600D01*
X120415700Y-60975500D02*
X122459000Y-60975500D01*
X119692400Y-61698800D02*
X120415700Y-60975500D01*
X119692400Y-62328200D02*
X119692400Y-61698800D01*
X91710000Y-49210000D02*
X91710000Y-49935300D01*
X92574700Y-50800000D02*
X96524700Y-50800000D01*
X91710000Y-49935300D02*
X92574700Y-50800000D01*
X97850000Y-50800000D02*
X96524700Y-50800000D01*
X83065300Y-58580000D02*
X64960000Y-58580000D01*
X91710000Y-49935300D02*
X83065300Y-58580000D01*
X97850000Y-48260000D02*
X99175300Y-48260000D01*
X109220000Y-49530000D02*
X107878700Y-49530000D01*
X102640700Y-51725400D02*
X99175300Y-48260000D01*
X106497100Y-51725400D02*
X102640700Y-51725400D01*
X107878700Y-50343800D02*
X106497100Y-51725400D01*
X107878700Y-49530000D02*
X107878700Y-50343800D01*
X106675300Y-49774600D02*
X106675300Y-50800000D01*
X108372600Y-48077300D02*
X106675300Y-49774600D01*
X109220000Y-48077300D02*
X108372600Y-48077300D01*
X109220000Y-46990000D02*
X109220000Y-48077300D01*
X105350000Y-50800000D02*
X106675300Y-50800000D01*
X138574700Y-96238700D02*
X138574700Y-96520000D01*
X135046000Y-92710000D02*
X138574700Y-96238700D01*
X106535300Y-92710000D02*
X135046000Y-92710000D01*
X102725300Y-88900000D02*
X106535300Y-92710000D01*
X101600000Y-88900000D02*
X102725300Y-88900000D01*
X139700000Y-96520000D02*
X138574700Y-96520000D01*
X123810000Y-65020000D02*
X124635300Y-65020000D01*
X126134100Y-68077200D02*
X126025500Y-68185800D01*
X126134100Y-67086800D02*
X126134100Y-68077200D01*
X125373200Y-66325900D02*
X126134100Y-67086800D01*
X125373200Y-65757900D02*
X125373200Y-66325900D01*
X124635300Y-65020000D02*
X125373200Y-65757900D01*
D40*
X110935600Y-100775600D02*
X109220000Y-99060000D01*
X110935600Y-102755200D02*
X110935600Y-100775600D01*
X113689900Y-105509500D02*
X110935600Y-102755200D01*
X148519900Y-105509500D02*
X113689900Y-105509500D01*
X152979200Y-101050200D02*
X148519900Y-105509500D01*
X154221300Y-101050200D02*
X152979200Y-101050200D01*
X161472100Y-93799400D02*
X154221300Y-101050200D01*
X161472100Y-43812000D02*
X161472100Y-93799400D01*
X153220100Y-35560000D02*
X161472100Y-43812000D01*
X149860000Y-35560000D02*
X153220100Y-35560000D01*
D39*
X92710000Y-99060000D02*
X88900000Y-95250000D01*
X101600000Y-99060000D02*
X92710000Y-99060000D01*
X88900000Y-95250000D02*
X86360000Y-95250000D01*
X145069400Y-79865300D02*
X146194700Y-78740000D01*
X118026400Y-79865300D02*
X145069400Y-79865300D01*
X112657100Y-85234600D02*
X118026400Y-79865300D01*
X100621200Y-85234600D02*
X112657100Y-85234600D01*
X100425600Y-85430200D02*
X100621200Y-85234600D01*
X100425600Y-94430000D02*
X100425600Y-85430200D01*
X101390200Y-95394600D02*
X100425600Y-94430000D01*
X102085900Y-95394600D02*
X101390200Y-95394600D01*
X102727700Y-96036400D02*
X102085900Y-95394600D01*
X102727700Y-99628300D02*
X102727700Y-96036400D01*
X101881300Y-100474700D02*
X102727700Y-99628300D01*
X101600000Y-100474700D02*
X101881300Y-100474700D01*
X101600000Y-101600000D02*
X101600000Y-100474700D01*
X147320000Y-78740000D02*
X146194700Y-78740000D01*
D40*
X86452600Y-40141100D02*
X85392800Y-40141100D01*
X89533400Y-37060300D02*
X86452600Y-40141100D01*
X95019700Y-37060300D02*
X89533400Y-37060300D01*
X96520000Y-35560000D02*
X95019700Y-37060300D01*
X78780000Y-38060000D02*
X81280000Y-38060000D01*
X69501400Y-54580000D02*
X64960000Y-54580000D01*
X76551400Y-47530000D02*
X69501400Y-54580000D01*
X78551000Y-47530000D02*
X76551400Y-47530000D01*
X83100800Y-42980200D02*
X78551000Y-47530000D01*
X85106900Y-42980200D02*
X83100800Y-42980200D01*
X88979500Y-39107600D02*
X85106900Y-42980200D01*
X97923800Y-39107600D02*
X88979500Y-39107600D01*
X104018500Y-33012900D02*
X97923800Y-39107600D01*
X108477900Y-33012900D02*
X104018500Y-33012900D01*
X109220000Y-33755000D02*
X108477900Y-33012900D01*
X109220000Y-35560000D02*
X109220000Y-33755000D01*
X151909700Y-41459700D02*
X156250000Y-45800000D01*
X138152400Y-41459700D02*
X151909700Y-41459700D01*
X136253100Y-39560400D02*
X138152400Y-41459700D01*
X110720400Y-39560400D02*
X136253100Y-39560400D01*
X109220000Y-38060000D02*
X110720400Y-39560400D01*
D39*
X150281000Y-56769000D02*
X156250000Y-50800000D01*
X126746000Y-56769000D02*
X150281000Y-56769000D01*
X123317000Y-60198000D02*
X126746000Y-56769000D01*
X117602000Y-60198000D02*
X123317000Y-60198000D01*
X117360000Y-59956000D02*
X117602000Y-60198000D01*
X117360000Y-59070000D02*
X117360000Y-59956000D01*
X150836000Y-48300000D02*
X156250000Y-48300000D01*
X143256000Y-55880000D02*
X150836000Y-48300000D01*
X120142000Y-55880000D02*
X143256000Y-55880000D01*
X117860000Y-58162000D02*
X120142000Y-55880000D01*
X117860000Y-59070000D02*
X117860000Y-58162000D01*
X56960000Y-86128400D02*
X56960000Y-86580000D01*
X60239400Y-82849000D02*
X56960000Y-86128400D01*
X62135200Y-82849000D02*
X60239400Y-82849000D01*
X64017400Y-84731200D02*
X62135200Y-82849000D01*
X110268000Y-84731200D02*
X64017400Y-84731200D01*
X110510600Y-84488600D02*
X110268000Y-84731200D01*
X116860000Y-72752600D02*
X116860000Y-70470000D01*
X115847400Y-73765200D02*
X116860000Y-72752600D01*
X54315900Y-75935900D02*
X56960000Y-78580000D01*
X54315900Y-46622800D02*
X54315900Y-75935900D01*
X57256000Y-43682700D02*
X54315900Y-46622800D01*
X61600700Y-43682700D02*
X57256000Y-43682700D01*
X67535900Y-37747500D02*
X61600700Y-43682700D01*
X70523200Y-37747500D02*
X67535900Y-37747500D01*
X78045000Y-30225700D02*
X70523200Y-37747500D01*
X120058600Y-30225700D02*
X78045000Y-30225700D01*
X121360000Y-59070000D02*
X121360000Y-58244700D01*
X121570400Y-58244700D02*
X122798700Y-57016400D01*
X121360000Y-58244700D02*
X121570400Y-58244700D01*
X123810000Y-64520000D02*
X120448500Y-64520000D01*
X58694500Y-76314500D02*
X56960000Y-74580000D01*
X58694500Y-79319300D02*
X58694500Y-76314500D01*
X57433800Y-80580000D02*
X58694500Y-79319300D01*
X56479700Y-80580000D02*
X57433800Y-80580000D01*
X55219900Y-81839800D02*
X56479700Y-80580000D01*
X55219900Y-91248600D02*
X55219900Y-81839800D01*
X57412400Y-93441100D02*
X55219900Y-91248600D01*
X64444900Y-93441100D02*
X57412400Y-93441100D01*
X76369200Y-105365400D02*
X64444900Y-93441100D01*
X104873800Y-105365400D02*
X76369200Y-105365400D01*
X105132000Y-105107200D02*
X104873800Y-105365400D01*
X57200500Y-82339500D02*
X56960000Y-82580000D01*
X62262700Y-82339500D02*
X57200500Y-82339500D01*
X64204000Y-84280800D02*
X62262700Y-82339500D01*
X88056400Y-84280800D02*
X64204000Y-84280800D01*
X88661800Y-83675400D02*
X88056400Y-84280800D01*
X112315600Y-83675400D02*
X88661800Y-83675400D01*
X123810000Y-66520000D02*
X122704200Y-66520000D01*
X121236700Y-67366600D02*
X120419000Y-67366600D01*
X122390100Y-68520000D02*
X121236700Y-67366600D01*
X123810000Y-68520000D02*
X122390100Y-68520000D01*
X57189300Y-62809300D02*
X56960000Y-62580000D01*
X62707100Y-62809300D02*
X57189300Y-62809300D01*
X64372600Y-64474800D02*
X62707100Y-62809300D01*
X69850400Y-64474800D02*
X64372600Y-64474800D01*
X72883300Y-67507700D02*
X69850400Y-64474800D01*
X105892800Y-67507700D02*
X72883300Y-67507700D01*
X108536800Y-70151700D02*
X105892800Y-67507700D01*
X112496200Y-70151700D02*
X108536800Y-70151700D01*
X120860000Y-69465900D02*
X120982100Y-69343800D01*
X120860000Y-70470000D02*
X120860000Y-69465900D01*
X55250000Y-56870000D02*
X56960000Y-58580000D01*
X55250000Y-53787300D02*
X55250000Y-56870000D01*
X56562400Y-52474900D02*
X55250000Y-53787300D01*
X57547300Y-52474900D02*
X56562400Y-52474900D01*
X59392200Y-50630000D02*
X57547300Y-52474900D01*
X61519100Y-50630000D02*
X59392200Y-50630000D01*
X63569100Y-48580000D02*
X61519100Y-50630000D01*
X70184500Y-48580000D02*
X63569100Y-48580000D01*
X76459700Y-42304800D02*
X70184500Y-48580000D01*
X81920500Y-42304800D02*
X76459700Y-42304800D01*
X85009500Y-39215800D02*
X81920500Y-42304800D01*
X85601400Y-39215800D02*
X85009500Y-39215800D01*
X92486400Y-32330800D02*
X85601400Y-39215800D01*
X128732600Y-32330800D02*
X92486400Y-32330800D01*
X133392300Y-36990500D02*
X128732600Y-32330800D01*
X133392300Y-37988000D02*
X133392300Y-36990500D01*
X123810000Y-68020000D02*
X122984700Y-68020000D01*
X134269500Y-37230800D02*
X134269500Y-37411500D01*
X128855100Y-31816400D02*
X134269500Y-37230800D01*
X77814300Y-31816400D02*
X128855100Y-31816400D01*
X67800200Y-41830500D02*
X77814300Y-31816400D01*
X65100400Y-41830500D02*
X67800200Y-41830500D01*
X58169800Y-48761100D02*
X65100400Y-41830500D01*
X56339800Y-48761100D02*
X58169800Y-48761100D01*
X54775200Y-50325700D02*
X56339800Y-48761100D01*
X54775200Y-64395200D02*
X54775200Y-50325700D01*
X56960000Y-66580000D02*
X54775200Y-64395200D01*
X122984700Y-68020000D02*
X122708300Y-67743600D01*
X139700000Y-76200000D02*
X138574700Y-76200000D01*
X112410000Y-68020000D02*
X113235300Y-68020000D01*
X96166800Y-73760900D02*
X104995900Y-73760900D01*
X93491000Y-76436700D02*
X96166800Y-73760900D01*
X63616600Y-76436700D02*
X93491000Y-76436700D01*
X62034600Y-74854700D02*
X63616600Y-76436700D01*
X60259800Y-74854700D02*
X62034600Y-74854700D01*
X59228900Y-75885600D02*
X60259800Y-74854700D01*
X59228900Y-78848900D02*
X59228900Y-75885600D01*
X60960000Y-80580000D02*
X59228900Y-78848900D01*
X137030100Y-74655400D02*
X138574700Y-76200000D01*
X134688800Y-74655400D02*
X137030100Y-74655400D01*
X130725100Y-78619100D02*
X134688800Y-74655400D01*
X114994400Y-78619100D02*
X130725100Y-78619100D01*
X114280000Y-77904700D02*
X114994400Y-78619100D01*
X114280000Y-77120200D02*
X114280000Y-77904700D01*
X110920700Y-73760900D02*
X114280000Y-77120200D01*
X104995900Y-73760900D02*
X110920700Y-73760900D01*
X113078700Y-69005300D02*
X108478500Y-69005300D01*
X113235300Y-68848700D02*
X113078700Y-69005300D01*
X113235300Y-68020000D02*
X113235300Y-68848700D01*
X149860000Y-77470000D02*
X153670000Y-81280000D01*
X138685300Y-77470000D02*
X149860000Y-77470000D01*
X137415300Y-76200000D02*
X138685300Y-77470000D01*
X135890000Y-76200000D02*
X137415300Y-76200000D01*
X131163200Y-79401500D02*
X134364700Y-76200000D01*
X112053600Y-79401500D02*
X131163200Y-79401500D01*
X110315900Y-81139200D02*
X112053600Y-79401500D01*
X88376500Y-81139200D02*
X110315900Y-81139200D01*
X85817300Y-78580000D02*
X88376500Y-81139200D01*
X64960000Y-78580000D02*
X85817300Y-78580000D01*
X135890000Y-76200000D02*
X134364700Y-76200000D01*
X130810000Y-63500000D02*
X132335300Y-63500000D01*
X135890000Y-63500000D02*
X132335300Y-63500000D01*
X135890000Y-63926000D02*
X135890000Y-63500000D01*
X139418700Y-67454700D02*
X135890000Y-63926000D01*
X139700000Y-67454700D02*
X139418700Y-67454700D01*
X139700000Y-68580000D02*
X139700000Y-67454700D01*
X97269900Y-76340400D02*
X96140300Y-77470000D01*
X106965100Y-76340400D02*
X97269900Y-76340400D01*
X108094700Y-77470000D02*
X106965100Y-76340400D01*
X109220000Y-77470000D02*
X108094700Y-77470000D01*
X94615000Y-77470000D02*
X96140300Y-77470000D01*
X87630000Y-69850000D02*
X89155300Y-69850000D01*
X119860000Y-70470000D02*
X119860000Y-69644700D01*
X119190400Y-68297300D02*
X118977100Y-68297300D01*
X119877600Y-68984500D02*
X119190400Y-68297300D01*
X119877600Y-69627100D02*
X119877600Y-68984500D01*
X119860000Y-69644700D02*
X119877600Y-69627100D01*
X113186700Y-70877000D02*
X113475500Y-70588200D01*
X107345500Y-70877000D02*
X113186700Y-70877000D01*
X105426800Y-68958300D02*
X107345500Y-70877000D01*
X90047000Y-68958300D02*
X105426800Y-68958300D01*
X89155300Y-69850000D02*
X90047000Y-68958300D01*
X82550000Y-69850000D02*
X84075300Y-69850000D01*
X119360000Y-69521100D02*
X119152300Y-69313400D01*
X119360000Y-70470000D02*
X119360000Y-69521100D01*
X111882800Y-72465700D02*
X112124300Y-72224200D01*
X86691000Y-72465700D02*
X111882800Y-72465700D01*
X84075300Y-69850000D02*
X86691000Y-72465700D01*
X116550600Y-87774700D02*
X115425300Y-88900000D01*
X135148900Y-87774700D02*
X116550600Y-87774700D01*
X136825800Y-89451600D02*
X135148900Y-87774700D01*
X136825800Y-92774300D02*
X136825800Y-89451600D01*
X139300800Y-95249300D02*
X136825800Y-92774300D01*
X140026800Y-95249300D02*
X139300800Y-95249300D01*
X140825400Y-96047900D02*
X140026800Y-95249300D01*
X140825400Y-97090600D02*
X140825400Y-96047900D01*
X139981300Y-97934700D02*
X140825400Y-97090600D01*
X139700000Y-97934700D02*
X139981300Y-97934700D01*
X139700000Y-99060000D02*
X139700000Y-97934700D01*
X114300000Y-88900000D02*
X115425300Y-88900000D01*
X116550600Y-90314700D02*
X115425300Y-91440000D01*
X132080000Y-90314700D02*
X116550600Y-90314700D01*
X133494700Y-88900000D02*
X132080000Y-90314700D01*
X134620000Y-88900000D02*
X133494700Y-88900000D01*
X114300000Y-91440000D02*
X115425300Y-91440000D01*
X124170600Y-100185300D02*
X123045300Y-99060000D01*
X127503900Y-100185300D02*
X124170600Y-100185300D01*
X128142400Y-99546800D02*
X127503900Y-100185300D01*
X128142400Y-98506400D02*
X128142400Y-99546800D01*
X127281300Y-97645300D02*
X128142400Y-98506400D01*
X127000000Y-97645300D02*
X127281300Y-97645300D01*
X127000000Y-96520000D02*
X127000000Y-97645300D01*
X121920000Y-99060000D02*
X123045300Y-99060000D01*
X123334700Y-96520000D02*
X121920000Y-96520000D01*
X125874700Y-99060000D02*
X123334700Y-96520000D01*
X127000000Y-99060000D02*
X125874700Y-99060000D01*
X123810000Y-67520000D02*
X124635300Y-67520000D01*
X124635300Y-72232100D02*
X125476400Y-73073200D01*
X124635300Y-67520000D02*
X124635300Y-72232100D01*
X134620000Y-96520000D02*
X133494700Y-96520000D01*
X132369400Y-95394700D02*
X133494700Y-96520000D01*
X104759200Y-95394700D02*
X132369400Y-95394700D01*
X118491000Y-51181000D02*
X116840000Y-49530000D01*
X118491000Y-52959000D02*
X118491000Y-51181000D01*
X115860000Y-55590000D02*
X118491000Y-52959000D01*
X115860000Y-59070000D02*
X115860000Y-55590000D01*
X115360000Y-48470000D02*
X116840000Y-46990000D01*
X115360000Y-59070000D02*
X115360000Y-48470000D01*
X112410000Y-63020000D02*
X111584700Y-63020000D01*
X105590000Y-62350000D02*
X106965300Y-62350000D01*
X110914700Y-62350000D02*
X106965300Y-62350000D01*
X111584700Y-63020000D02*
X110914700Y-62350000D01*
X124680400Y-66659100D02*
X125372100Y-67350800D01*
X124680400Y-65788100D02*
X124680400Y-66659100D01*
X124412300Y-65520000D02*
X124680400Y-65788100D01*
X123810000Y-65520000D02*
X124412300Y-65520000D01*
X123810000Y-62020000D02*
X122984700Y-62020000D01*
X97790000Y-57150000D02*
X98965300Y-57150000D01*
X122865900Y-61901200D02*
X120554100Y-61901200D01*
X122984700Y-62020000D02*
X122865900Y-61901200D01*
X100223700Y-55524300D02*
X111612100Y-55524300D01*
X98965300Y-56782700D02*
X100223700Y-55524300D01*
X98965300Y-57150000D02*
X98965300Y-56782700D01*
X122120200Y-59330200D02*
X121860000Y-59070000D01*
X122612500Y-59330200D02*
X122120200Y-59330200D01*
X102870000Y-57150000D02*
X104045300Y-57150000D01*
X112597500Y-56282400D02*
X112926300Y-55953600D01*
X110479800Y-56282400D02*
X112597500Y-56282400D01*
X110172100Y-55974700D02*
X110479800Y-56282400D01*
X104412500Y-55974700D02*
X110172100Y-55974700D01*
X104045300Y-56341900D02*
X104412500Y-55974700D01*
X104045300Y-57150000D02*
X104045300Y-56341900D01*
X120860000Y-57699800D02*
X120860000Y-59070000D01*
X121097800Y-57462000D02*
X120860000Y-57699800D01*
X87630000Y-57150000D02*
X88805300Y-57150000D01*
X92378600Y-53209400D02*
X114477500Y-53209400D01*
X88805300Y-56782700D02*
X92378600Y-53209400D01*
X88805300Y-57150000D02*
X88805300Y-56782700D01*
X120360000Y-58163300D02*
X120130300Y-57933600D01*
X120360000Y-59070000D02*
X120360000Y-58163300D01*
X90170000Y-57150000D02*
X91345300Y-57150000D01*
X91345300Y-56782700D02*
X91345300Y-57150000D01*
X93760700Y-54367300D02*
X91345300Y-56782700D01*
X113303400Y-54367300D02*
X93760700Y-54367300D01*
X155195300Y-68330000D02*
X155195300Y-68580000D01*
X158750000Y-64775300D02*
X155195300Y-68330000D01*
X158750000Y-63500000D02*
X158750000Y-64775300D01*
X153670000Y-68580000D02*
X155195300Y-68580000D01*
X145865300Y-61000000D02*
X140825300Y-66040000D01*
X158750000Y-61000000D02*
X145865300Y-61000000D01*
X139700000Y-66040000D02*
X140825300Y-66040000D01*
X76280000Y-35560000D02*
X78780000Y-35560000D01*
X69786100Y-68771400D02*
X70864700Y-69850000D01*
X64577100Y-68771400D02*
X69786100Y-68771400D01*
X60960000Y-65154300D02*
X64577100Y-68771400D01*
X60960000Y-64580000D02*
X60960000Y-65154300D01*
X72390000Y-69850000D02*
X70864700Y-69850000D01*
X111570800Y-64006100D02*
X111584700Y-64020000D01*
X107266000Y-64006100D02*
X111570800Y-64006100D01*
X112410000Y-64020000D02*
X111584700Y-64020000D01*
X105350000Y-48260000D02*
X104024700Y-48260000D01*
X91710000Y-47310000D02*
X92485300Y-47310000D01*
X62385700Y-54580000D02*
X56960000Y-54580000D01*
X64199500Y-56393800D02*
X62385700Y-54580000D01*
X71748200Y-56393800D02*
X64199500Y-56393800D01*
X76717100Y-51424900D02*
X71748200Y-56393800D01*
X78980400Y-51424900D02*
X76717100Y-51424900D01*
X80980400Y-49424900D02*
X78980400Y-51424900D01*
X81867300Y-49424900D02*
X80980400Y-49424900D01*
X83982200Y-47310000D02*
X81867300Y-49424900D01*
X90934700Y-47310000D02*
X83982200Y-47310000D01*
X91710000Y-47310000D02*
X90934700Y-47310000D01*
X103074700Y-47310000D02*
X104024700Y-48260000D01*
X92485300Y-47310000D02*
X103074700Y-47310000D01*
X118860000Y-59070000D02*
X118860000Y-58244700D01*
X119125700Y-57979000D02*
X119125700Y-57924100D01*
X118860000Y-58244700D02*
X119125700Y-57979000D01*
X86039000Y-46289000D02*
X106322900Y-46289000D01*
X85280000Y-45530000D02*
X86039000Y-46289000D01*
X82124100Y-72978800D02*
X78995300Y-69850000D01*
X112471800Y-72978800D02*
X82124100Y-72978800D01*
X114005500Y-74512500D02*
X112471800Y-72978800D01*
X116126000Y-74512500D02*
X114005500Y-74512500D01*
X117792600Y-72845900D02*
X116126000Y-74512500D01*
X117792600Y-72145300D02*
X117792600Y-72845900D01*
X118860000Y-71077900D02*
X117792600Y-72145300D01*
X118860000Y-70470000D02*
X118860000Y-71077900D01*
X77470000Y-69850000D02*
X78995300Y-69850000D01*
X112410000Y-68520000D02*
X111584700Y-68520000D01*
X109433100Y-68520000D02*
X111584700Y-68520000D01*
X107833800Y-66920700D02*
X109433100Y-68520000D01*
X78937400Y-66920700D02*
X107833800Y-66920700D01*
X72894500Y-60877800D02*
X78937400Y-66920700D01*
X63350900Y-60877800D02*
X72894500Y-60877800D01*
X61940400Y-62288300D02*
X63350900Y-60877800D01*
X60227100Y-62288300D02*
X61940400Y-62288300D01*
X59239000Y-61300200D02*
X60227100Y-62288300D01*
X59239000Y-58301000D02*
X59239000Y-61300200D01*
X60960000Y-56580000D02*
X59239000Y-58301000D01*
D41*
X114409600Y-70519600D02*
X114360000Y-70470000D01*
X114409600Y-70679700D02*
X114409600Y-70519600D01*
D39*
X114409600Y-70689800D02*
X114409600Y-70679700D01*
X113772100Y-71327300D02*
X114409600Y-70689800D01*
X111933000Y-71327300D02*
X113772100Y-71327300D01*
X111244900Y-72015400D02*
X111933000Y-71327300D01*
X87611700Y-72015400D02*
X111244900Y-72015400D01*
X83919600Y-68323300D02*
X87611700Y-72015400D01*
X76810300Y-68323300D02*
X83919600Y-68323300D01*
X72707500Y-72426100D02*
X76810300Y-68323300D01*
X64242700Y-72426100D02*
X72707500Y-72426100D01*
X60960000Y-69143400D02*
X64242700Y-72426100D01*
X60960000Y-68580000D02*
X60960000Y-69143400D01*
X112410000Y-64520000D02*
X113235300Y-64520000D01*
X113235300Y-64343100D02*
X113529700Y-64048700D01*
X113235300Y-64520000D02*
X113235300Y-64343100D01*
X111313500Y-65020000D02*
X111289000Y-64995500D01*
X112410000Y-65020000D02*
X111313500Y-65020000D01*
X113338800Y-65520000D02*
X112410000Y-65520000D01*
X113510300Y-65348500D02*
X113338800Y-65520000D01*
X111246900Y-66020000D02*
X110274200Y-65047300D01*
X112410000Y-66020000D02*
X111246900Y-66020000D01*
X115860000Y-68364700D02*
X115860000Y-70470000D01*
X114627800Y-67132500D02*
X115860000Y-68364700D01*
X114627800Y-65894900D02*
X114627800Y-67132500D01*
X115090600Y-65432100D02*
X114627800Y-65894900D01*
X115090600Y-65140200D02*
X115090600Y-65432100D01*
X116360000Y-67230300D02*
X116360000Y-70470000D01*
X115353100Y-66223400D02*
X116360000Y-67230300D01*
X117360000Y-65135200D02*
X117360000Y-70470000D01*
X116896700Y-64671900D02*
X117360000Y-65135200D01*
X93329000Y-45531000D02*
X100921600Y-45531000D01*
X91345300Y-43547300D02*
X93329000Y-45531000D01*
X91345300Y-43180000D02*
X91345300Y-43547300D01*
X117860000Y-64558300D02*
X117860000Y-70470000D01*
X116392700Y-63091000D02*
X117860000Y-64558300D01*
X115926400Y-63091000D02*
X116392700Y-63091000D01*
X90170000Y-43180000D02*
X91345300Y-43180000D01*
M02*
