M48
;DRILL file {KiCad 4.0.7} date 02/28/18 12:29:41
;FORMAT={-:-/ absolute / inch / decimal}
FMAT,2
INCH,TZ
T1C0.016
T2C0.024
T3C0.030
T4C0.031
T5C0.035
T6C0.039
T7C0.047
T8C0.069
%
G90
G05
M72
T1
X3.9733Y-1.7926
X4.1244Y-3.7557
X4.1337Y-2.904
X4.1391Y-4.1381
X4.1859Y-1.8224
X4.2231Y-2.5199
X4.2708Y-2.7167
X4.3415Y-2.5609
X4.3508Y-3.3263
X4.3815Y-2.5589
X4.3942Y-2.186
X4.4143Y-2.8435
X4.4219Y-3.2943
X4.429Y-2.7619
X4.4459Y-2.2029
X4.4608Y-2.1404
X4.4675Y-2.7791
X4.4689Y-2.5728
X4.4697Y-2.5216
X4.507Y-2.0949
X4.5311Y-2.5646
X4.5415Y-2.6072
X4.5602Y-2.8638
X4.5609Y-2.9041
X4.564Y-2.4839
X4.6015Y-2.104
X4.6022Y-2.5461
X4.6841Y-2.6889
X4.69Y-2.2805
X4.691Y-2.7289
X4.7237Y-2.1492
X4.7267Y-1.19
X4.7295Y-2.2809
X4.7409Y-2.6522
X4.7421Y-2.5402
X4.7462Y-2.4371
X4.7631Y-2.7301
X4.7676Y-2.2623
X4.8212Y-2.4006
X4.8273Y-2.3358
X4.8309Y-2.6189
X4.831Y-2.6671
X4.8346Y-2.2447
X4.9359Y-2.6516
X4.94Y-2.8769
X4.9616Y-2.6845
X5.2517Y-1.4956
X5.2862Y-1.4729
X5.3969Y-1.6883
T2
X3.3619Y-1.5804
T3
X2.8Y-3.75
X2.8Y-4.05
X3.1Y-3.75
X3.1Y-4.05
X3.4Y-3.75
X3.4Y-4.05
X3.5Y-3.75
X3.5Y-4.05
T4
X3.7516Y-2.55
X3.7516Y-3.8
X3.8Y-4.0016
X3.8Y-4.1
X3.85Y-2.55
X3.85Y-3.8
X4.Y-2.95
X4.Y-3.05
X4.Y-3.15
X4.Y-3.25
X4.Y-3.4
X4.Y-3.5
X4.Y-3.6
X4.Y-3.7
X4.Y-3.8
X4.Y-3.9
X4.Y-4.
X4.Y-4.1
X4.3Y-2.95
X4.3Y-3.05
X4.3Y-3.15
X4.3Y-3.25
X4.3Y-3.4
X4.3Y-3.5
X4.3Y-3.6
X4.3Y-3.7
X4.3Y-3.8
X4.3Y-3.9
X4.3Y-4.
X4.3Y-4.1
X4.45Y-3.05
X4.5Y-3.5
X4.5Y-3.6
X4.5Y-3.7
X4.5Y-3.8
X4.5Y-3.9
X4.5Y-4.
X4.5Y-4.1
X4.5484Y-3.05
X4.6016Y-3.3
X4.7Y-3.3
X4.8Y-1.65
X4.8Y-1.7484
X4.8Y-3.5
X4.8Y-3.6
X4.8Y-3.7
X4.8Y-3.8
X4.8Y-3.9
X4.8Y-4.
X4.8Y-4.1
X5.Y-3.4
X5.Y-3.5
X5.Y-3.6
X5.Y-3.7
X5.Y-3.8
X5.Y-3.9
X5.Y-4.
X5.Y-4.1
X5.1016Y-3.2
X5.2Y-3.2
X5.3Y-3.4
X5.3Y-3.5
X5.3Y-3.6
X5.3Y-3.7
X5.3Y-3.8
X5.3Y-3.9
X5.3Y-4.
X5.3Y-4.1
X5.5Y-1.75
X5.5Y-1.8484
X5.5Y-2.5
X5.5Y-2.6
X5.5Y-2.7
X5.5Y-2.8
X5.5Y-2.9
X5.5Y-3.
X5.5Y-3.1
X5.5Y-3.5
X5.5Y-3.6
X5.5Y-3.7
X5.5Y-3.8
X5.5Y-3.9
X5.5Y-4.
X5.5Y-4.1
X5.6Y-3.3
X5.6984Y-3.3
X5.8Y-2.5
X5.8Y-2.6
X5.8Y-2.7
X5.8Y-2.8
X5.8Y-2.9
X5.8Y-3.
X5.8Y-3.1
X5.8Y-3.5
X5.8Y-3.6
X5.8Y-3.7
X5.8Y-3.8
X5.8Y-3.9
X5.8Y-4.
X5.8Y-4.1
X6.Y-3.3516
X6.Y-3.45
T5
X3.05Y-3.4
X3.05Y-3.5
X3.25Y-3.4
X3.25Y-3.5
X3.45Y-3.4
X3.45Y-3.5
T6
X3.45Y-2.25
X3.55Y-1.6
X3.55Y-1.7
X3.55Y-2.25
X3.65Y-1.6
X3.65Y-1.7
X3.65Y-2.25
X3.75Y-1.6
X3.75Y-1.7
X3.75Y-2.25
X3.85Y-1.6
X3.85Y-1.7
X3.85Y-2.25
X3.95Y-2.25
X4.05Y-2.25
X4.15Y-2.25
X5.05Y-1.75
X5.15Y-1.75
X5.25Y-1.75
X6.3Y-3.45
X6.3Y-3.55
X6.3Y-3.65
T7
X2.85Y-2.75
X2.85Y-3.25
X3.0031Y-1.4
X3.0031Y-1.4984
X3.05Y-2.75
X3.05Y-3.25
X3.1016Y-1.4
X3.1016Y-1.4984
X3.2Y-1.4
X3.2Y-1.4984
X3.25Y-2.75
X3.25Y-3.25
X3.45Y-2.75
X3.45Y-3.25
X3.625Y-2.775
X3.7016Y-1.4
X3.725Y-3.05
X3.725Y-3.55
X3.8Y-1.4
X4.1031Y-1.4
X4.1031Y-1.4984
X4.125Y-2.775
X4.2016Y-1.4
X4.2016Y-1.4984
X4.3Y-1.4
X4.3Y-1.4984
X4.6016Y-1.4
X4.7Y-1.4
X5.0016Y-1.4
X5.1Y-1.4
X5.15Y-2.5
X5.15Y-3.
X5.35Y-2.5
X5.35Y-3.
X5.4016Y-1.4
X5.4016Y-1.4984
X5.45Y-2.1
X5.45Y-2.3
X5.5Y-1.4
X5.5Y-1.4984
X5.8016Y-1.4
X5.9Y-1.4
X5.95Y-2.1
X5.95Y-2.3
X6.Y-3.6
X6.Y-4.1
X6.05Y-2.7
X6.05Y-3.2
X6.1516Y-1.7047
X6.1516Y-1.8031
X6.1516Y-1.9016
X6.1516Y-2.
X6.25Y-1.7047
X6.25Y-1.8031
X6.25Y-1.9016
X6.25Y-2.
X6.25Y-2.3031
X6.25Y-2.4016
X6.25Y-2.5
X6.25Y-2.7
X6.25Y-3.2
T8
X2.2425Y-1.8339
X2.2425Y-1.9913
X2.2425Y-2.1488
X2.2425Y-2.3063
X2.2425Y-2.4638
X2.2425Y-2.6213
X2.2425Y-2.7787
X2.2425Y-2.9362
X2.2425Y-3.0937
X2.2425Y-3.2512
X2.2425Y-3.4087
X2.2425Y-3.5661
X2.4Y-1.9126
X2.4Y-2.0701
X2.4Y-2.2276
X2.4Y-2.385
X2.4Y-2.5425
X2.4Y-2.7
X2.4Y-2.8575
X2.4Y-3.015
X2.4Y-3.1724
X2.4Y-3.3299
X2.4Y-3.4874
X2.5575Y-1.8339
X2.5575Y-1.9913
X2.5575Y-2.1488
X2.5575Y-2.3063
X2.5575Y-2.4638
X2.5575Y-2.6213
X2.5575Y-2.7787
X2.5575Y-2.9362
X2.5575Y-3.0937
X2.5575Y-3.2512
X2.5575Y-3.4087
X2.5575Y-3.5661
X3.0425Y-1.7925
X3.0425Y-1.95
X3.0425Y-2.1075
X3.2Y-1.8713
X3.2Y-2.0287
X3.3575Y-1.7925
X3.3575Y-1.95
X3.3575Y-2.1075
T0
M30
