G04 #@! TF.FileFunction,Legend,Top*
%FSLAX46Y46*%
G04 Gerber Fmt 4.6, Leading zero omitted, Abs format (unit mm)*
G04 Created by KiCad (PCBNEW 4.0.7) date 02/28/18 12:29:38*
%MOMM*%
%LPD*%
G01*
G04 APERTURE LIST*
%ADD10C,0.100000*%
%ADD11C,0.300000*%
%ADD12C,0.200000*%
%ADD13C,1.000000*%
%ADD14C,0.120000*%
%ADD15C,0.150000*%
G04 APERTURE END LIST*
D10*
D11*
X88451429Y-58547143D02*
X88451429Y-59404286D01*
X86951429Y-58975715D02*
X88451429Y-58975715D01*
X88451429Y-59761429D02*
X86951429Y-60761429D01*
X88451429Y-60761429D02*
X86951429Y-59761429D01*
X89491429Y-59440001D02*
X90205714Y-58940001D01*
X89491429Y-58582858D02*
X90991429Y-58582858D01*
X90991429Y-59154286D01*
X90920000Y-59297144D01*
X90848571Y-59368572D01*
X90705714Y-59440001D01*
X90491429Y-59440001D01*
X90348571Y-59368572D01*
X90277143Y-59297144D01*
X90205714Y-59154286D01*
X90205714Y-58582858D01*
X90991429Y-59940001D02*
X89491429Y-60940001D01*
X90991429Y-60940001D02*
X89491429Y-59940001D01*
D12*
X91440000Y-59055000D02*
X106680000Y-59055000D01*
D13*
X106930000Y-54610000D02*
G75*
G03X106930000Y-54610000I-250000J0D01*
G01*
D11*
X95754286Y-60932143D02*
X95968572Y-61003571D01*
X96325715Y-61003571D01*
X96468572Y-60932143D01*
X96540001Y-60860714D01*
X96611429Y-60717857D01*
X96611429Y-60575000D01*
X96540001Y-60432143D01*
X96468572Y-60360714D01*
X96325715Y-60289286D01*
X96040001Y-60217857D01*
X95897143Y-60146429D01*
X95825715Y-60075000D01*
X95754286Y-59932143D01*
X95754286Y-59789286D01*
X95825715Y-59646429D01*
X95897143Y-59575000D01*
X96040001Y-59503571D01*
X96397143Y-59503571D01*
X96611429Y-59575000D01*
X97111429Y-59503571D02*
X97468572Y-61003571D01*
X97754286Y-59932143D01*
X98040000Y-61003571D01*
X98397143Y-59503571D01*
X98968572Y-61003571D02*
X98968572Y-59503571D01*
X99325715Y-59503571D01*
X99540000Y-59575000D01*
X99682858Y-59717857D01*
X99754286Y-59860714D01*
X99825715Y-60146429D01*
X99825715Y-60360714D01*
X99754286Y-60646429D01*
X99682858Y-60789286D01*
X99540000Y-60932143D01*
X99325715Y-61003571D01*
X98968572Y-61003571D01*
D14*
X120230000Y-74795000D02*
X120230000Y-73795000D01*
X118530000Y-73795000D02*
X118530000Y-74795000D01*
X127215000Y-64635000D02*
X127215000Y-63635000D01*
X125515000Y-63635000D02*
X125515000Y-64635000D01*
X109605000Y-67780000D02*
X110105000Y-67780000D01*
X110105000Y-66840000D02*
X109605000Y-66840000D01*
X122390000Y-73275000D02*
X122390000Y-72775000D01*
X121450000Y-72775000D02*
X121450000Y-73275000D01*
X126615000Y-59855000D02*
X126115000Y-59855000D01*
X126115000Y-60795000D02*
X126615000Y-60795000D01*
X114770000Y-73275000D02*
X114770000Y-72775000D01*
X113830000Y-72775000D02*
X113830000Y-73275000D01*
X113830000Y-56265000D02*
X113830000Y-56765000D01*
X114770000Y-56765000D02*
X114770000Y-56265000D01*
X109605000Y-61430000D02*
X110105000Y-61430000D01*
X110105000Y-60490000D02*
X109605000Y-60490000D01*
X121070000Y-52840000D02*
X121070000Y-53840000D01*
X122770000Y-53840000D02*
X122770000Y-52840000D01*
X93470000Y-49840000D02*
X93470000Y-48910000D01*
X93470000Y-46680000D02*
X93470000Y-47610000D01*
X93470000Y-46680000D02*
X91310000Y-46680000D01*
X93470000Y-49840000D02*
X92010000Y-49840000D01*
X106300000Y-49230000D02*
X106300000Y-49830000D01*
X96700000Y-49230000D02*
X96900000Y-49230000D01*
X96900000Y-49230000D02*
X96900000Y-49830000D01*
X96900000Y-47330000D02*
X96700000Y-47330000D01*
X96700000Y-47330000D02*
X96800000Y-47330000D01*
X96900000Y-46430000D02*
X106300000Y-46430000D01*
X96900000Y-46430000D02*
X96900000Y-47330000D01*
X106300000Y-46430000D02*
X106300000Y-47330000D01*
X96900000Y-52630000D02*
X96900000Y-51730000D01*
X106300000Y-52630000D02*
X106300000Y-51730000D01*
X106300000Y-52630000D02*
X96900000Y-52630000D01*
X129430000Y-74860000D02*
X128950000Y-74860000D01*
X128950000Y-74860000D02*
X128950000Y-64840000D01*
X128950000Y-64840000D02*
X129430000Y-64840000D01*
X132190000Y-74860000D02*
X132670000Y-74860000D01*
X132670000Y-74860000D02*
X132670000Y-64840000D01*
X132670000Y-64840000D02*
X132190000Y-64840000D01*
X137270000Y-64840000D02*
X137750000Y-64840000D01*
X137750000Y-64840000D02*
X137750000Y-74860000D01*
X137750000Y-74860000D02*
X137270000Y-74860000D01*
X134510000Y-64840000D02*
X134030000Y-64840000D01*
X134030000Y-64840000D02*
X134030000Y-74860000D01*
X134030000Y-74860000D02*
X134510000Y-74860000D01*
X152290000Y-79940000D02*
X151810000Y-79940000D01*
X151810000Y-79940000D02*
X151810000Y-69920000D01*
X151810000Y-69920000D02*
X152290000Y-69920000D01*
X155050000Y-79940000D02*
X155530000Y-79940000D01*
X155530000Y-79940000D02*
X155530000Y-69920000D01*
X155530000Y-69920000D02*
X155050000Y-69920000D01*
X157370000Y-79940000D02*
X156890000Y-79940000D01*
X156890000Y-79940000D02*
X156890000Y-69920000D01*
X156890000Y-69920000D02*
X157370000Y-69920000D01*
X160130000Y-79940000D02*
X160610000Y-79940000D01*
X160610000Y-79940000D02*
X160610000Y-69920000D01*
X160610000Y-69920000D02*
X160130000Y-69920000D01*
X149790000Y-59800000D02*
X149790000Y-60280000D01*
X149790000Y-60280000D02*
X139770000Y-60280000D01*
X139770000Y-60280000D02*
X139770000Y-59800000D01*
X149790000Y-57040000D02*
X149790000Y-56560000D01*
X149790000Y-56560000D02*
X139770000Y-56560000D01*
X139770000Y-56560000D02*
X139770000Y-57040000D01*
X139770000Y-51960000D02*
X139770000Y-51480000D01*
X139770000Y-51480000D02*
X149790000Y-51480000D01*
X149790000Y-51480000D02*
X149790000Y-51960000D01*
X139770000Y-54720000D02*
X139770000Y-55200000D01*
X139770000Y-55200000D02*
X149790000Y-55200000D01*
X149790000Y-55200000D02*
X149790000Y-54720000D01*
X151020000Y-102800000D02*
X150540000Y-102800000D01*
X150540000Y-102800000D02*
X150540000Y-92780000D01*
X150540000Y-92780000D02*
X151020000Y-92780000D01*
X153780000Y-102800000D02*
X154260000Y-102800000D01*
X154260000Y-102800000D02*
X154260000Y-92780000D01*
X154260000Y-92780000D02*
X153780000Y-92780000D01*
X93235000Y-88830000D02*
X92755000Y-88830000D01*
X92755000Y-88830000D02*
X92755000Y-78810000D01*
X92755000Y-78810000D02*
X93235000Y-78810000D01*
X95995000Y-88830000D02*
X96475000Y-88830000D01*
X96475000Y-88830000D02*
X96475000Y-78810000D01*
X96475000Y-78810000D02*
X95995000Y-78810000D01*
X93415000Y-69105000D02*
X93415000Y-68625000D01*
X93415000Y-68625000D02*
X103435000Y-68625000D01*
X103435000Y-68625000D02*
X103435000Y-69105000D01*
X93415000Y-71865000D02*
X93415000Y-72345000D01*
X93415000Y-72345000D02*
X103435000Y-72345000D01*
X103435000Y-72345000D02*
X103435000Y-71865000D01*
X86250000Y-81210000D02*
X85770000Y-81210000D01*
X85770000Y-81210000D02*
X85770000Y-71190000D01*
X85770000Y-71190000D02*
X86250000Y-71190000D01*
X89010000Y-81210000D02*
X89490000Y-81210000D01*
X89490000Y-81210000D02*
X89490000Y-71190000D01*
X89490000Y-71190000D02*
X89010000Y-71190000D01*
X81170000Y-81210000D02*
X80690000Y-81210000D01*
X80690000Y-81210000D02*
X80690000Y-71190000D01*
X80690000Y-71190000D02*
X81170000Y-71190000D01*
X83930000Y-81210000D02*
X84410000Y-81210000D01*
X84410000Y-81210000D02*
X84410000Y-71190000D01*
X84410000Y-71190000D02*
X83930000Y-71190000D01*
X76090000Y-81210000D02*
X75610000Y-81210000D01*
X75610000Y-81210000D02*
X75610000Y-71190000D01*
X75610000Y-71190000D02*
X76090000Y-71190000D01*
X78850000Y-81210000D02*
X79330000Y-81210000D01*
X79330000Y-81210000D02*
X79330000Y-71190000D01*
X79330000Y-71190000D02*
X78850000Y-71190000D01*
X71010000Y-81210000D02*
X70530000Y-81210000D01*
X70530000Y-81210000D02*
X70530000Y-71190000D01*
X70530000Y-71190000D02*
X71010000Y-71190000D01*
X73770000Y-81210000D02*
X74250000Y-81210000D01*
X74250000Y-81210000D02*
X74250000Y-71190000D01*
X74250000Y-71190000D02*
X73770000Y-71190000D01*
X144510000Y-62170000D02*
G75*
G02X142510000Y-62170000I-1000000J0D01*
G01*
X142510000Y-62170000D02*
X140860000Y-62170000D01*
X140860000Y-62170000D02*
X140860000Y-80070000D01*
X140860000Y-80070000D02*
X146160000Y-80070000D01*
X146160000Y-80070000D02*
X146160000Y-62170000D01*
X146160000Y-62170000D02*
X144510000Y-62170000D01*
X119110000Y-87570000D02*
G75*
G02X117110000Y-87570000I-1000000J0D01*
G01*
X117110000Y-87570000D02*
X115460000Y-87570000D01*
X115460000Y-87570000D02*
X115460000Y-105470000D01*
X115460000Y-105470000D02*
X120760000Y-105470000D01*
X120760000Y-105470000D02*
X120760000Y-87570000D01*
X120760000Y-87570000D02*
X119110000Y-87570000D01*
D15*
X90510000Y-105410000D02*
X69510000Y-105410000D01*
X69510000Y-105410000D02*
X69510000Y-92710000D01*
X69510000Y-92710000D02*
X90510000Y-92710000D01*
X90510000Y-92710000D02*
X90510000Y-105410000D01*
D14*
X131810000Y-85030000D02*
G75*
G02X129810000Y-85030000I-1000000J0D01*
G01*
X129810000Y-85030000D02*
X128160000Y-85030000D01*
X128160000Y-85030000D02*
X128160000Y-105470000D01*
X128160000Y-105470000D02*
X133460000Y-105470000D01*
X133460000Y-105470000D02*
X133460000Y-85030000D01*
X133460000Y-85030000D02*
X131810000Y-85030000D01*
X106410000Y-73600000D02*
G75*
G02X104410000Y-73600000I-1000000J0D01*
G01*
X104410000Y-73600000D02*
X102760000Y-73600000D01*
X102760000Y-73600000D02*
X102760000Y-83880000D01*
X102760000Y-83880000D02*
X108060000Y-83880000D01*
X108060000Y-83880000D02*
X108060000Y-73600000D01*
X108060000Y-73600000D02*
X106410000Y-73600000D01*
X101440000Y-61250000D02*
X101440000Y-65750000D01*
X101440000Y-65750000D02*
X106840000Y-65750000D01*
X144510000Y-87570000D02*
G75*
G02X142510000Y-87570000I-1000000J0D01*
G01*
X142510000Y-87570000D02*
X140860000Y-87570000D01*
X140860000Y-87570000D02*
X140860000Y-105470000D01*
X140860000Y-105470000D02*
X146160000Y-105470000D01*
X146160000Y-105470000D02*
X146160000Y-87570000D01*
X146160000Y-87570000D02*
X144510000Y-87570000D01*
X156860000Y-61000000D02*
X156860000Y-65370000D01*
X156860000Y-65370000D02*
X160640000Y-65370000D01*
X160640000Y-65370000D02*
X160640000Y-63750000D01*
X160640000Y-63750000D02*
X163500000Y-63750000D01*
X163500000Y-63750000D02*
X163500000Y-61000000D01*
X156860000Y-61000000D02*
X156860000Y-56630000D01*
X156860000Y-56630000D02*
X160640000Y-56630000D01*
X160640000Y-56630000D02*
X160640000Y-58250000D01*
X160640000Y-58250000D02*
X163500000Y-58250000D01*
X163500000Y-58250000D02*
X163500000Y-61000000D01*
X158750000Y-65720000D02*
X159050000Y-66320000D01*
X159050000Y-66320000D02*
X158450000Y-66320000D01*
X158450000Y-66320000D02*
X158750000Y-65720000D01*
X95270000Y-37450000D02*
X98390000Y-37450000D01*
X98390000Y-37450000D02*
X98390000Y-33670000D01*
X98390000Y-33670000D02*
X98020000Y-33670000D01*
X98020000Y-33670000D02*
X98020000Y-30810000D01*
X98020000Y-30810000D02*
X95270000Y-30810000D01*
X95270000Y-37450000D02*
X92150000Y-37450000D01*
X92150000Y-37450000D02*
X92150000Y-33670000D01*
X92150000Y-33670000D02*
X92520000Y-33670000D01*
X92520000Y-33670000D02*
X92520000Y-30810000D01*
X92520000Y-30810000D02*
X95270000Y-30810000D01*
X98740000Y-35560000D02*
X99340000Y-35260000D01*
X99340000Y-35260000D02*
X99340000Y-35860000D01*
X99340000Y-35860000D02*
X98740000Y-35560000D01*
X118130000Y-37450000D02*
X121250000Y-37450000D01*
X121250000Y-37450000D02*
X121250000Y-33670000D01*
X121250000Y-33670000D02*
X120880000Y-33670000D01*
X120880000Y-33670000D02*
X120880000Y-30810000D01*
X120880000Y-30810000D02*
X118130000Y-30810000D01*
X118130000Y-37450000D02*
X115010000Y-37450000D01*
X115010000Y-37450000D02*
X115010000Y-33670000D01*
X115010000Y-33670000D02*
X115380000Y-33670000D01*
X115380000Y-33670000D02*
X115380000Y-30810000D01*
X115380000Y-30810000D02*
X118130000Y-30810000D01*
X121600000Y-35560000D02*
X122200000Y-35260000D01*
X122200000Y-35260000D02*
X122200000Y-35860000D01*
X122200000Y-35860000D02*
X121600000Y-35560000D01*
X148610000Y-37450000D02*
X151730000Y-37450000D01*
X151730000Y-37450000D02*
X151730000Y-33670000D01*
X151730000Y-33670000D02*
X151360000Y-33670000D01*
X151360000Y-33670000D02*
X151360000Y-30810000D01*
X151360000Y-30810000D02*
X148610000Y-30810000D01*
X148610000Y-37450000D02*
X145490000Y-37450000D01*
X145490000Y-37450000D02*
X145490000Y-33670000D01*
X145490000Y-33670000D02*
X145860000Y-33670000D01*
X145860000Y-33670000D02*
X145860000Y-30810000D01*
X145860000Y-30810000D02*
X148610000Y-30810000D01*
X152080000Y-35560000D02*
X152680000Y-35260000D01*
X152680000Y-35260000D02*
X152680000Y-35860000D01*
X152680000Y-35860000D02*
X152080000Y-35560000D01*
X154360000Y-47050000D02*
X154360000Y-52670000D01*
X154360000Y-52670000D02*
X160640000Y-52670000D01*
X160640000Y-52670000D02*
X160640000Y-49800000D01*
X160640000Y-49800000D02*
X163500000Y-49800000D01*
X163500000Y-49800000D02*
X163500000Y-47050000D01*
X154360000Y-47050000D02*
X154360000Y-41430000D01*
X154360000Y-41430000D02*
X160640000Y-41430000D01*
X160640000Y-41430000D02*
X160640000Y-44300000D01*
X160640000Y-44300000D02*
X163500000Y-44300000D01*
X163500000Y-44300000D02*
X163500000Y-47050000D01*
X158750000Y-53020000D02*
X159050000Y-53620000D01*
X159050000Y-53620000D02*
X158450000Y-53620000D01*
X158450000Y-53620000D02*
X158750000Y-53020000D01*
X128290000Y-37450000D02*
X131410000Y-37450000D01*
X131410000Y-37450000D02*
X131410000Y-33670000D01*
X131410000Y-33670000D02*
X131040000Y-33670000D01*
X131040000Y-33670000D02*
X131040000Y-30810000D01*
X131040000Y-30810000D02*
X128290000Y-30810000D01*
X128290000Y-37450000D02*
X125170000Y-37450000D01*
X125170000Y-37450000D02*
X125170000Y-33670000D01*
X125170000Y-33670000D02*
X125540000Y-33670000D01*
X125540000Y-33670000D02*
X125540000Y-30810000D01*
X125540000Y-30810000D02*
X128290000Y-30810000D01*
X131760000Y-35560000D02*
X132360000Y-35260000D01*
X132360000Y-35260000D02*
X132360000Y-35860000D01*
X132360000Y-35860000D02*
X131760000Y-35560000D01*
X106410000Y-85030000D02*
G75*
G02X104410000Y-85030000I-1000000J0D01*
G01*
X104410000Y-85030000D02*
X102760000Y-85030000D01*
X102760000Y-85030000D02*
X102760000Y-105470000D01*
X102760000Y-105470000D02*
X108060000Y-105470000D01*
X108060000Y-105470000D02*
X108060000Y-85030000D01*
X108060000Y-85030000D02*
X106410000Y-85030000D01*
X128570000Y-48620000D02*
X127070000Y-48620000D01*
X127070000Y-48620000D02*
X127070000Y-48890000D01*
X127070000Y-48890000D02*
X124240000Y-48890000D01*
X128570000Y-55520000D02*
X127070000Y-55520000D01*
X127070000Y-55520000D02*
X127070000Y-55250000D01*
X127070000Y-55250000D02*
X125970000Y-55250000D01*
X135930000Y-47070000D02*
X125690000Y-47070000D01*
X135930000Y-42429000D02*
X125690000Y-42429000D01*
X135930000Y-47070000D02*
X135930000Y-42429000D01*
X125690000Y-47070000D02*
X125690000Y-42429000D01*
X135930000Y-45560000D02*
X125690000Y-45560000D01*
X132660000Y-47070000D02*
X132660000Y-45560000D01*
X128959000Y-47070000D02*
X128959000Y-45560000D01*
D15*
X110490000Y-53340000D02*
X115570000Y-53340000D01*
X115570000Y-53340000D02*
X115570000Y-43180000D01*
X115570000Y-43180000D02*
X110490000Y-43180000D01*
X110490000Y-43180000D02*
X110490000Y-53340000D01*
X111760000Y-53340000D02*
X111760000Y-52070000D01*
X111760000Y-52070000D02*
X114300000Y-52070000D01*
X114300000Y-52070000D02*
X114300000Y-53340000D01*
X112935000Y-59595000D02*
X112935000Y-60595000D01*
X123285000Y-59595000D02*
X123285000Y-60670000D01*
X123285000Y-69945000D02*
X123285000Y-68870000D01*
X112935000Y-69945000D02*
X112935000Y-68870000D01*
X112935000Y-59595000D02*
X114010000Y-59595000D01*
X112935000Y-69945000D02*
X114010000Y-69945000D01*
X123285000Y-69945000D02*
X122210000Y-69945000D01*
X123285000Y-59595000D02*
X122210000Y-59595000D01*
X112935000Y-60595000D02*
X111910000Y-60595000D01*
D14*
X113693000Y-76609000D02*
X114867000Y-76609000D01*
X113693000Y-78331000D02*
X114867000Y-78331000D01*
X115824278Y-84999723D02*
G75*
G03X120435580Y-85000000I2305722J1179723D01*
G01*
X115824278Y-82640277D02*
G75*
G02X120435580Y-82640000I2305722J-1179723D01*
G01*
X115824278Y-82640277D02*
G75*
G03X115824420Y-85000000I2305722J-1179723D01*
G01*
X118130000Y-86370000D02*
X118130000Y-81270000D01*
X118090000Y-86370000D02*
X118090000Y-81270000D01*
X118050000Y-86369000D02*
X118050000Y-81271000D01*
X118010000Y-86368000D02*
X118010000Y-81272000D01*
X117970000Y-86366000D02*
X117970000Y-81274000D01*
X117930000Y-86363000D02*
X117930000Y-81277000D01*
X117890000Y-86359000D02*
X117890000Y-81281000D01*
X117850000Y-86355000D02*
X117850000Y-84800000D01*
X117850000Y-82840000D02*
X117850000Y-81285000D01*
X117810000Y-86351000D02*
X117810000Y-84800000D01*
X117810000Y-82840000D02*
X117810000Y-81289000D01*
X117770000Y-86345000D02*
X117770000Y-84800000D01*
X117770000Y-82840000D02*
X117770000Y-81295000D01*
X117730000Y-86339000D02*
X117730000Y-84800000D01*
X117730000Y-82840000D02*
X117730000Y-81301000D01*
X117690000Y-86333000D02*
X117690000Y-84800000D01*
X117690000Y-82840000D02*
X117690000Y-81307000D01*
X117650000Y-86326000D02*
X117650000Y-84800000D01*
X117650000Y-82840000D02*
X117650000Y-81314000D01*
X117610000Y-86318000D02*
X117610000Y-84800000D01*
X117610000Y-82840000D02*
X117610000Y-81322000D01*
X117570000Y-86309000D02*
X117570000Y-84800000D01*
X117570000Y-82840000D02*
X117570000Y-81331000D01*
X117530000Y-86300000D02*
X117530000Y-84800000D01*
X117530000Y-82840000D02*
X117530000Y-81340000D01*
X117490000Y-86290000D02*
X117490000Y-84800000D01*
X117490000Y-82840000D02*
X117490000Y-81350000D01*
X117450000Y-86280000D02*
X117450000Y-84800000D01*
X117450000Y-82840000D02*
X117450000Y-81360000D01*
X117409000Y-86268000D02*
X117409000Y-84800000D01*
X117409000Y-82840000D02*
X117409000Y-81372000D01*
X117369000Y-86256000D02*
X117369000Y-84800000D01*
X117369000Y-82840000D02*
X117369000Y-81384000D01*
X117329000Y-86244000D02*
X117329000Y-84800000D01*
X117329000Y-82840000D02*
X117329000Y-81396000D01*
X117289000Y-86230000D02*
X117289000Y-84800000D01*
X117289000Y-82840000D02*
X117289000Y-81410000D01*
X117249000Y-86216000D02*
X117249000Y-84800000D01*
X117249000Y-82840000D02*
X117249000Y-81424000D01*
X117209000Y-86202000D02*
X117209000Y-84800000D01*
X117209000Y-82840000D02*
X117209000Y-81438000D01*
X117169000Y-86186000D02*
X117169000Y-84800000D01*
X117169000Y-82840000D02*
X117169000Y-81454000D01*
X117129000Y-86170000D02*
X117129000Y-84800000D01*
X117129000Y-82840000D02*
X117129000Y-81470000D01*
X117089000Y-86153000D02*
X117089000Y-84800000D01*
X117089000Y-82840000D02*
X117089000Y-81487000D01*
X117049000Y-86135000D02*
X117049000Y-84800000D01*
X117049000Y-82840000D02*
X117049000Y-81505000D01*
X117009000Y-86116000D02*
X117009000Y-84800000D01*
X117009000Y-82840000D02*
X117009000Y-81524000D01*
X116969000Y-86096000D02*
X116969000Y-84800000D01*
X116969000Y-82840000D02*
X116969000Y-81544000D01*
X116929000Y-86076000D02*
X116929000Y-84800000D01*
X116929000Y-82840000D02*
X116929000Y-81564000D01*
X116889000Y-86054000D02*
X116889000Y-84800000D01*
X116889000Y-82840000D02*
X116889000Y-81586000D01*
X116849000Y-86032000D02*
X116849000Y-84800000D01*
X116849000Y-82840000D02*
X116849000Y-81608000D01*
X116809000Y-86009000D02*
X116809000Y-84800000D01*
X116809000Y-82840000D02*
X116809000Y-81631000D01*
X116769000Y-85985000D02*
X116769000Y-84800000D01*
X116769000Y-82840000D02*
X116769000Y-81655000D01*
X116729000Y-85960000D02*
X116729000Y-84800000D01*
X116729000Y-82840000D02*
X116729000Y-81680000D01*
X116689000Y-85933000D02*
X116689000Y-84800000D01*
X116689000Y-82840000D02*
X116689000Y-81707000D01*
X116649000Y-85906000D02*
X116649000Y-84800000D01*
X116649000Y-82840000D02*
X116649000Y-81734000D01*
X116609000Y-85878000D02*
X116609000Y-84800000D01*
X116609000Y-82840000D02*
X116609000Y-81762000D01*
X116569000Y-85848000D02*
X116569000Y-84800000D01*
X116569000Y-82840000D02*
X116569000Y-81792000D01*
X116529000Y-85817000D02*
X116529000Y-84800000D01*
X116529000Y-82840000D02*
X116529000Y-81823000D01*
X116489000Y-85785000D02*
X116489000Y-84800000D01*
X116489000Y-82840000D02*
X116489000Y-81855000D01*
X116449000Y-85752000D02*
X116449000Y-84800000D01*
X116449000Y-82840000D02*
X116449000Y-81888000D01*
X116409000Y-85717000D02*
X116409000Y-84800000D01*
X116409000Y-82840000D02*
X116409000Y-81923000D01*
X116369000Y-85681000D02*
X116369000Y-84800000D01*
X116369000Y-82840000D02*
X116369000Y-81959000D01*
X116329000Y-85643000D02*
X116329000Y-84800000D01*
X116329000Y-82840000D02*
X116329000Y-81997000D01*
X116289000Y-85603000D02*
X116289000Y-84800000D01*
X116289000Y-82840000D02*
X116289000Y-82037000D01*
X116249000Y-85562000D02*
X116249000Y-84800000D01*
X116249000Y-82840000D02*
X116249000Y-82078000D01*
X116209000Y-85519000D02*
X116209000Y-84800000D01*
X116209000Y-82840000D02*
X116209000Y-82121000D01*
X116169000Y-85474000D02*
X116169000Y-84800000D01*
X116169000Y-82840000D02*
X116169000Y-82166000D01*
X116129000Y-85426000D02*
X116129000Y-84800000D01*
X116129000Y-82840000D02*
X116129000Y-82214000D01*
X116089000Y-85376000D02*
X116089000Y-84800000D01*
X116089000Y-82840000D02*
X116089000Y-82264000D01*
X116049000Y-85324000D02*
X116049000Y-84800000D01*
X116049000Y-82840000D02*
X116049000Y-82316000D01*
X116009000Y-85268000D02*
X116009000Y-84800000D01*
X116009000Y-82840000D02*
X116009000Y-82372000D01*
X115969000Y-85210000D02*
X115969000Y-84800000D01*
X115969000Y-82840000D02*
X115969000Y-82430000D01*
X115929000Y-85147000D02*
X115929000Y-84800000D01*
X115929000Y-82840000D02*
X115929000Y-82493000D01*
X115889000Y-85081000D02*
X115889000Y-82559000D01*
X115849000Y-85009000D02*
X115849000Y-82631000D01*
X115809000Y-84932000D02*
X115809000Y-82708000D01*
X115769000Y-84848000D02*
X115769000Y-82792000D01*
X115729000Y-84754000D02*
X115729000Y-82886000D01*
X115689000Y-84649000D02*
X115689000Y-82991000D01*
X115649000Y-84527000D02*
X115649000Y-83113000D01*
X115609000Y-84379000D02*
X115609000Y-83261000D01*
X115569000Y-84174000D02*
X115569000Y-83466000D01*
X121580000Y-83820000D02*
X120380000Y-83820000D01*
X120980000Y-84470000D02*
X120980000Y-83170000D01*
X128524278Y-82459723D02*
G75*
G03X133135580Y-82460000I2305722J1179723D01*
G01*
X128524278Y-80100277D02*
G75*
G02X133135580Y-80100000I2305722J-1179723D01*
G01*
X128524278Y-80100277D02*
G75*
G03X128524420Y-82460000I2305722J-1179723D01*
G01*
X130830000Y-83830000D02*
X130830000Y-78730000D01*
X130790000Y-83830000D02*
X130790000Y-78730000D01*
X130750000Y-83829000D02*
X130750000Y-78731000D01*
X130710000Y-83828000D02*
X130710000Y-78732000D01*
X130670000Y-83826000D02*
X130670000Y-78734000D01*
X130630000Y-83823000D02*
X130630000Y-78737000D01*
X130590000Y-83819000D02*
X130590000Y-78741000D01*
X130550000Y-83815000D02*
X130550000Y-82260000D01*
X130550000Y-80300000D02*
X130550000Y-78745000D01*
X130510000Y-83811000D02*
X130510000Y-82260000D01*
X130510000Y-80300000D02*
X130510000Y-78749000D01*
X130470000Y-83805000D02*
X130470000Y-82260000D01*
X130470000Y-80300000D02*
X130470000Y-78755000D01*
X130430000Y-83799000D02*
X130430000Y-82260000D01*
X130430000Y-80300000D02*
X130430000Y-78761000D01*
X130390000Y-83793000D02*
X130390000Y-82260000D01*
X130390000Y-80300000D02*
X130390000Y-78767000D01*
X130350000Y-83786000D02*
X130350000Y-82260000D01*
X130350000Y-80300000D02*
X130350000Y-78774000D01*
X130310000Y-83778000D02*
X130310000Y-82260000D01*
X130310000Y-80300000D02*
X130310000Y-78782000D01*
X130270000Y-83769000D02*
X130270000Y-82260000D01*
X130270000Y-80300000D02*
X130270000Y-78791000D01*
X130230000Y-83760000D02*
X130230000Y-82260000D01*
X130230000Y-80300000D02*
X130230000Y-78800000D01*
X130190000Y-83750000D02*
X130190000Y-82260000D01*
X130190000Y-80300000D02*
X130190000Y-78810000D01*
X130150000Y-83740000D02*
X130150000Y-82260000D01*
X130150000Y-80300000D02*
X130150000Y-78820000D01*
X130109000Y-83728000D02*
X130109000Y-82260000D01*
X130109000Y-80300000D02*
X130109000Y-78832000D01*
X130069000Y-83716000D02*
X130069000Y-82260000D01*
X130069000Y-80300000D02*
X130069000Y-78844000D01*
X130029000Y-83704000D02*
X130029000Y-82260000D01*
X130029000Y-80300000D02*
X130029000Y-78856000D01*
X129989000Y-83690000D02*
X129989000Y-82260000D01*
X129989000Y-80300000D02*
X129989000Y-78870000D01*
X129949000Y-83676000D02*
X129949000Y-82260000D01*
X129949000Y-80300000D02*
X129949000Y-78884000D01*
X129909000Y-83662000D02*
X129909000Y-82260000D01*
X129909000Y-80300000D02*
X129909000Y-78898000D01*
X129869000Y-83646000D02*
X129869000Y-82260000D01*
X129869000Y-80300000D02*
X129869000Y-78914000D01*
X129829000Y-83630000D02*
X129829000Y-82260000D01*
X129829000Y-80300000D02*
X129829000Y-78930000D01*
X129789000Y-83613000D02*
X129789000Y-82260000D01*
X129789000Y-80300000D02*
X129789000Y-78947000D01*
X129749000Y-83595000D02*
X129749000Y-82260000D01*
X129749000Y-80300000D02*
X129749000Y-78965000D01*
X129709000Y-83576000D02*
X129709000Y-82260000D01*
X129709000Y-80300000D02*
X129709000Y-78984000D01*
X129669000Y-83556000D02*
X129669000Y-82260000D01*
X129669000Y-80300000D02*
X129669000Y-79004000D01*
X129629000Y-83536000D02*
X129629000Y-82260000D01*
X129629000Y-80300000D02*
X129629000Y-79024000D01*
X129589000Y-83514000D02*
X129589000Y-82260000D01*
X129589000Y-80300000D02*
X129589000Y-79046000D01*
X129549000Y-83492000D02*
X129549000Y-82260000D01*
X129549000Y-80300000D02*
X129549000Y-79068000D01*
X129509000Y-83469000D02*
X129509000Y-82260000D01*
X129509000Y-80300000D02*
X129509000Y-79091000D01*
X129469000Y-83445000D02*
X129469000Y-82260000D01*
X129469000Y-80300000D02*
X129469000Y-79115000D01*
X129429000Y-83420000D02*
X129429000Y-82260000D01*
X129429000Y-80300000D02*
X129429000Y-79140000D01*
X129389000Y-83393000D02*
X129389000Y-82260000D01*
X129389000Y-80300000D02*
X129389000Y-79167000D01*
X129349000Y-83366000D02*
X129349000Y-82260000D01*
X129349000Y-80300000D02*
X129349000Y-79194000D01*
X129309000Y-83338000D02*
X129309000Y-82260000D01*
X129309000Y-80300000D02*
X129309000Y-79222000D01*
X129269000Y-83308000D02*
X129269000Y-82260000D01*
X129269000Y-80300000D02*
X129269000Y-79252000D01*
X129229000Y-83277000D02*
X129229000Y-82260000D01*
X129229000Y-80300000D02*
X129229000Y-79283000D01*
X129189000Y-83245000D02*
X129189000Y-82260000D01*
X129189000Y-80300000D02*
X129189000Y-79315000D01*
X129149000Y-83212000D02*
X129149000Y-82260000D01*
X129149000Y-80300000D02*
X129149000Y-79348000D01*
X129109000Y-83177000D02*
X129109000Y-82260000D01*
X129109000Y-80300000D02*
X129109000Y-79383000D01*
X129069000Y-83141000D02*
X129069000Y-82260000D01*
X129069000Y-80300000D02*
X129069000Y-79419000D01*
X129029000Y-83103000D02*
X129029000Y-82260000D01*
X129029000Y-80300000D02*
X129029000Y-79457000D01*
X128989000Y-83063000D02*
X128989000Y-82260000D01*
X128989000Y-80300000D02*
X128989000Y-79497000D01*
X128949000Y-83022000D02*
X128949000Y-82260000D01*
X128949000Y-80300000D02*
X128949000Y-79538000D01*
X128909000Y-82979000D02*
X128909000Y-82260000D01*
X128909000Y-80300000D02*
X128909000Y-79581000D01*
X128869000Y-82934000D02*
X128869000Y-82260000D01*
X128869000Y-80300000D02*
X128869000Y-79626000D01*
X128829000Y-82886000D02*
X128829000Y-82260000D01*
X128829000Y-80300000D02*
X128829000Y-79674000D01*
X128789000Y-82836000D02*
X128789000Y-82260000D01*
X128789000Y-80300000D02*
X128789000Y-79724000D01*
X128749000Y-82784000D02*
X128749000Y-82260000D01*
X128749000Y-80300000D02*
X128749000Y-79776000D01*
X128709000Y-82728000D02*
X128709000Y-82260000D01*
X128709000Y-80300000D02*
X128709000Y-79832000D01*
X128669000Y-82670000D02*
X128669000Y-82260000D01*
X128669000Y-80300000D02*
X128669000Y-79890000D01*
X128629000Y-82607000D02*
X128629000Y-82260000D01*
X128629000Y-80300000D02*
X128629000Y-79953000D01*
X128589000Y-82541000D02*
X128589000Y-80019000D01*
X128549000Y-82469000D02*
X128549000Y-80091000D01*
X128509000Y-82392000D02*
X128509000Y-80168000D01*
X128469000Y-82308000D02*
X128469000Y-80252000D01*
X128429000Y-82214000D02*
X128429000Y-80346000D01*
X128389000Y-82109000D02*
X128389000Y-80451000D01*
X128349000Y-81987000D02*
X128349000Y-80573000D01*
X128309000Y-81839000D02*
X128309000Y-80721000D01*
X128269000Y-81634000D02*
X128269000Y-80926000D01*
X134280000Y-81280000D02*
X133080000Y-81280000D01*
X133680000Y-81930000D02*
X133680000Y-80630000D01*
X151220277Y-84074278D02*
G75*
G03X151220000Y-88685580I1179723J-2305722D01*
G01*
X153579723Y-84074278D02*
G75*
G02X153580000Y-88685580I-1179723J-2305722D01*
G01*
X153579723Y-84074278D02*
G75*
G03X151220000Y-84074420I-1179723J-2305722D01*
G01*
X149850000Y-86380000D02*
X154950000Y-86380000D01*
X149850000Y-86340000D02*
X154950000Y-86340000D01*
X149851000Y-86300000D02*
X154949000Y-86300000D01*
X149852000Y-86260000D02*
X154948000Y-86260000D01*
X149854000Y-86220000D02*
X154946000Y-86220000D01*
X149857000Y-86180000D02*
X154943000Y-86180000D01*
X149861000Y-86140000D02*
X154939000Y-86140000D01*
X149865000Y-86100000D02*
X151420000Y-86100000D01*
X153380000Y-86100000D02*
X154935000Y-86100000D01*
X149869000Y-86060000D02*
X151420000Y-86060000D01*
X153380000Y-86060000D02*
X154931000Y-86060000D01*
X149875000Y-86020000D02*
X151420000Y-86020000D01*
X153380000Y-86020000D02*
X154925000Y-86020000D01*
X149881000Y-85980000D02*
X151420000Y-85980000D01*
X153380000Y-85980000D02*
X154919000Y-85980000D01*
X149887000Y-85940000D02*
X151420000Y-85940000D01*
X153380000Y-85940000D02*
X154913000Y-85940000D01*
X149894000Y-85900000D02*
X151420000Y-85900000D01*
X153380000Y-85900000D02*
X154906000Y-85900000D01*
X149902000Y-85860000D02*
X151420000Y-85860000D01*
X153380000Y-85860000D02*
X154898000Y-85860000D01*
X149911000Y-85820000D02*
X151420000Y-85820000D01*
X153380000Y-85820000D02*
X154889000Y-85820000D01*
X149920000Y-85780000D02*
X151420000Y-85780000D01*
X153380000Y-85780000D02*
X154880000Y-85780000D01*
X149930000Y-85740000D02*
X151420000Y-85740000D01*
X153380000Y-85740000D02*
X154870000Y-85740000D01*
X149940000Y-85700000D02*
X151420000Y-85700000D01*
X153380000Y-85700000D02*
X154860000Y-85700000D01*
X149952000Y-85659000D02*
X151420000Y-85659000D01*
X153380000Y-85659000D02*
X154848000Y-85659000D01*
X149964000Y-85619000D02*
X151420000Y-85619000D01*
X153380000Y-85619000D02*
X154836000Y-85619000D01*
X149976000Y-85579000D02*
X151420000Y-85579000D01*
X153380000Y-85579000D02*
X154824000Y-85579000D01*
X149990000Y-85539000D02*
X151420000Y-85539000D01*
X153380000Y-85539000D02*
X154810000Y-85539000D01*
X150004000Y-85499000D02*
X151420000Y-85499000D01*
X153380000Y-85499000D02*
X154796000Y-85499000D01*
X150018000Y-85459000D02*
X151420000Y-85459000D01*
X153380000Y-85459000D02*
X154782000Y-85459000D01*
X150034000Y-85419000D02*
X151420000Y-85419000D01*
X153380000Y-85419000D02*
X154766000Y-85419000D01*
X150050000Y-85379000D02*
X151420000Y-85379000D01*
X153380000Y-85379000D02*
X154750000Y-85379000D01*
X150067000Y-85339000D02*
X151420000Y-85339000D01*
X153380000Y-85339000D02*
X154733000Y-85339000D01*
X150085000Y-85299000D02*
X151420000Y-85299000D01*
X153380000Y-85299000D02*
X154715000Y-85299000D01*
X150104000Y-85259000D02*
X151420000Y-85259000D01*
X153380000Y-85259000D02*
X154696000Y-85259000D01*
X150124000Y-85219000D02*
X151420000Y-85219000D01*
X153380000Y-85219000D02*
X154676000Y-85219000D01*
X150144000Y-85179000D02*
X151420000Y-85179000D01*
X153380000Y-85179000D02*
X154656000Y-85179000D01*
X150166000Y-85139000D02*
X151420000Y-85139000D01*
X153380000Y-85139000D02*
X154634000Y-85139000D01*
X150188000Y-85099000D02*
X151420000Y-85099000D01*
X153380000Y-85099000D02*
X154612000Y-85099000D01*
X150211000Y-85059000D02*
X151420000Y-85059000D01*
X153380000Y-85059000D02*
X154589000Y-85059000D01*
X150235000Y-85019000D02*
X151420000Y-85019000D01*
X153380000Y-85019000D02*
X154565000Y-85019000D01*
X150260000Y-84979000D02*
X151420000Y-84979000D01*
X153380000Y-84979000D02*
X154540000Y-84979000D01*
X150287000Y-84939000D02*
X151420000Y-84939000D01*
X153380000Y-84939000D02*
X154513000Y-84939000D01*
X150314000Y-84899000D02*
X151420000Y-84899000D01*
X153380000Y-84899000D02*
X154486000Y-84899000D01*
X150342000Y-84859000D02*
X151420000Y-84859000D01*
X153380000Y-84859000D02*
X154458000Y-84859000D01*
X150372000Y-84819000D02*
X151420000Y-84819000D01*
X153380000Y-84819000D02*
X154428000Y-84819000D01*
X150403000Y-84779000D02*
X151420000Y-84779000D01*
X153380000Y-84779000D02*
X154397000Y-84779000D01*
X150435000Y-84739000D02*
X151420000Y-84739000D01*
X153380000Y-84739000D02*
X154365000Y-84739000D01*
X150468000Y-84699000D02*
X151420000Y-84699000D01*
X153380000Y-84699000D02*
X154332000Y-84699000D01*
X150503000Y-84659000D02*
X151420000Y-84659000D01*
X153380000Y-84659000D02*
X154297000Y-84659000D01*
X150539000Y-84619000D02*
X151420000Y-84619000D01*
X153380000Y-84619000D02*
X154261000Y-84619000D01*
X150577000Y-84579000D02*
X151420000Y-84579000D01*
X153380000Y-84579000D02*
X154223000Y-84579000D01*
X150617000Y-84539000D02*
X151420000Y-84539000D01*
X153380000Y-84539000D02*
X154183000Y-84539000D01*
X150658000Y-84499000D02*
X151420000Y-84499000D01*
X153380000Y-84499000D02*
X154142000Y-84499000D01*
X150701000Y-84459000D02*
X151420000Y-84459000D01*
X153380000Y-84459000D02*
X154099000Y-84459000D01*
X150746000Y-84419000D02*
X151420000Y-84419000D01*
X153380000Y-84419000D02*
X154054000Y-84419000D01*
X150794000Y-84379000D02*
X151420000Y-84379000D01*
X153380000Y-84379000D02*
X154006000Y-84379000D01*
X150844000Y-84339000D02*
X151420000Y-84339000D01*
X153380000Y-84339000D02*
X153956000Y-84339000D01*
X150896000Y-84299000D02*
X151420000Y-84299000D01*
X153380000Y-84299000D02*
X153904000Y-84299000D01*
X150952000Y-84259000D02*
X151420000Y-84259000D01*
X153380000Y-84259000D02*
X153848000Y-84259000D01*
X151010000Y-84219000D02*
X151420000Y-84219000D01*
X153380000Y-84219000D02*
X153790000Y-84219000D01*
X151073000Y-84179000D02*
X151420000Y-84179000D01*
X153380000Y-84179000D02*
X153727000Y-84179000D01*
X151139000Y-84139000D02*
X153661000Y-84139000D01*
X151211000Y-84099000D02*
X153589000Y-84099000D01*
X151288000Y-84059000D02*
X153512000Y-84059000D01*
X151372000Y-84019000D02*
X153428000Y-84019000D01*
X151466000Y-83979000D02*
X153334000Y-83979000D01*
X151571000Y-83939000D02*
X153229000Y-83939000D01*
X151693000Y-83899000D02*
X153107000Y-83899000D01*
X151841000Y-83859000D02*
X152959000Y-83859000D01*
X152046000Y-83819000D02*
X152754000Y-83819000D01*
X152400000Y-89830000D02*
X152400000Y-88630000D01*
X151750000Y-89230000D02*
X153050000Y-89230000D01*
X94234278Y-65949723D02*
G75*
G03X98845580Y-65950000I2305722J1179723D01*
G01*
X94234278Y-63590277D02*
G75*
G02X98845580Y-63590000I2305722J-1179723D01*
G01*
X94234278Y-63590277D02*
G75*
G03X94234420Y-65950000I2305722J-1179723D01*
G01*
X96540000Y-67320000D02*
X96540000Y-62220000D01*
X96500000Y-67320000D02*
X96500000Y-62220000D01*
X96460000Y-67319000D02*
X96460000Y-62221000D01*
X96420000Y-67318000D02*
X96420000Y-62222000D01*
X96380000Y-67316000D02*
X96380000Y-62224000D01*
X96340000Y-67313000D02*
X96340000Y-62227000D01*
X96300000Y-67309000D02*
X96300000Y-62231000D01*
X96260000Y-67305000D02*
X96260000Y-65750000D01*
X96260000Y-63790000D02*
X96260000Y-62235000D01*
X96220000Y-67301000D02*
X96220000Y-65750000D01*
X96220000Y-63790000D02*
X96220000Y-62239000D01*
X96180000Y-67295000D02*
X96180000Y-65750000D01*
X96180000Y-63790000D02*
X96180000Y-62245000D01*
X96140000Y-67289000D02*
X96140000Y-65750000D01*
X96140000Y-63790000D02*
X96140000Y-62251000D01*
X96100000Y-67283000D02*
X96100000Y-65750000D01*
X96100000Y-63790000D02*
X96100000Y-62257000D01*
X96060000Y-67276000D02*
X96060000Y-65750000D01*
X96060000Y-63790000D02*
X96060000Y-62264000D01*
X96020000Y-67268000D02*
X96020000Y-65750000D01*
X96020000Y-63790000D02*
X96020000Y-62272000D01*
X95980000Y-67259000D02*
X95980000Y-65750000D01*
X95980000Y-63790000D02*
X95980000Y-62281000D01*
X95940000Y-67250000D02*
X95940000Y-65750000D01*
X95940000Y-63790000D02*
X95940000Y-62290000D01*
X95900000Y-67240000D02*
X95900000Y-65750000D01*
X95900000Y-63790000D02*
X95900000Y-62300000D01*
X95860000Y-67230000D02*
X95860000Y-65750000D01*
X95860000Y-63790000D02*
X95860000Y-62310000D01*
X95819000Y-67218000D02*
X95819000Y-65750000D01*
X95819000Y-63790000D02*
X95819000Y-62322000D01*
X95779000Y-67206000D02*
X95779000Y-65750000D01*
X95779000Y-63790000D02*
X95779000Y-62334000D01*
X95739000Y-67194000D02*
X95739000Y-65750000D01*
X95739000Y-63790000D02*
X95739000Y-62346000D01*
X95699000Y-67180000D02*
X95699000Y-65750000D01*
X95699000Y-63790000D02*
X95699000Y-62360000D01*
X95659000Y-67166000D02*
X95659000Y-65750000D01*
X95659000Y-63790000D02*
X95659000Y-62374000D01*
X95619000Y-67152000D02*
X95619000Y-65750000D01*
X95619000Y-63790000D02*
X95619000Y-62388000D01*
X95579000Y-67136000D02*
X95579000Y-65750000D01*
X95579000Y-63790000D02*
X95579000Y-62404000D01*
X95539000Y-67120000D02*
X95539000Y-65750000D01*
X95539000Y-63790000D02*
X95539000Y-62420000D01*
X95499000Y-67103000D02*
X95499000Y-65750000D01*
X95499000Y-63790000D02*
X95499000Y-62437000D01*
X95459000Y-67085000D02*
X95459000Y-65750000D01*
X95459000Y-63790000D02*
X95459000Y-62455000D01*
X95419000Y-67066000D02*
X95419000Y-65750000D01*
X95419000Y-63790000D02*
X95419000Y-62474000D01*
X95379000Y-67046000D02*
X95379000Y-65750000D01*
X95379000Y-63790000D02*
X95379000Y-62494000D01*
X95339000Y-67026000D02*
X95339000Y-65750000D01*
X95339000Y-63790000D02*
X95339000Y-62514000D01*
X95299000Y-67004000D02*
X95299000Y-65750000D01*
X95299000Y-63790000D02*
X95299000Y-62536000D01*
X95259000Y-66982000D02*
X95259000Y-65750000D01*
X95259000Y-63790000D02*
X95259000Y-62558000D01*
X95219000Y-66959000D02*
X95219000Y-65750000D01*
X95219000Y-63790000D02*
X95219000Y-62581000D01*
X95179000Y-66935000D02*
X95179000Y-65750000D01*
X95179000Y-63790000D02*
X95179000Y-62605000D01*
X95139000Y-66910000D02*
X95139000Y-65750000D01*
X95139000Y-63790000D02*
X95139000Y-62630000D01*
X95099000Y-66883000D02*
X95099000Y-65750000D01*
X95099000Y-63790000D02*
X95099000Y-62657000D01*
X95059000Y-66856000D02*
X95059000Y-65750000D01*
X95059000Y-63790000D02*
X95059000Y-62684000D01*
X95019000Y-66828000D02*
X95019000Y-65750000D01*
X95019000Y-63790000D02*
X95019000Y-62712000D01*
X94979000Y-66798000D02*
X94979000Y-65750000D01*
X94979000Y-63790000D02*
X94979000Y-62742000D01*
X94939000Y-66767000D02*
X94939000Y-65750000D01*
X94939000Y-63790000D02*
X94939000Y-62773000D01*
X94899000Y-66735000D02*
X94899000Y-65750000D01*
X94899000Y-63790000D02*
X94899000Y-62805000D01*
X94859000Y-66702000D02*
X94859000Y-65750000D01*
X94859000Y-63790000D02*
X94859000Y-62838000D01*
X94819000Y-66667000D02*
X94819000Y-65750000D01*
X94819000Y-63790000D02*
X94819000Y-62873000D01*
X94779000Y-66631000D02*
X94779000Y-65750000D01*
X94779000Y-63790000D02*
X94779000Y-62909000D01*
X94739000Y-66593000D02*
X94739000Y-65750000D01*
X94739000Y-63790000D02*
X94739000Y-62947000D01*
X94699000Y-66553000D02*
X94699000Y-65750000D01*
X94699000Y-63790000D02*
X94699000Y-62987000D01*
X94659000Y-66512000D02*
X94659000Y-65750000D01*
X94659000Y-63790000D02*
X94659000Y-63028000D01*
X94619000Y-66469000D02*
X94619000Y-65750000D01*
X94619000Y-63790000D02*
X94619000Y-63071000D01*
X94579000Y-66424000D02*
X94579000Y-65750000D01*
X94579000Y-63790000D02*
X94579000Y-63116000D01*
X94539000Y-66376000D02*
X94539000Y-65750000D01*
X94539000Y-63790000D02*
X94539000Y-63164000D01*
X94499000Y-66326000D02*
X94499000Y-65750000D01*
X94499000Y-63790000D02*
X94499000Y-63214000D01*
X94459000Y-66274000D02*
X94459000Y-65750000D01*
X94459000Y-63790000D02*
X94459000Y-63266000D01*
X94419000Y-66218000D02*
X94419000Y-65750000D01*
X94419000Y-63790000D02*
X94419000Y-63322000D01*
X94379000Y-66160000D02*
X94379000Y-65750000D01*
X94379000Y-63790000D02*
X94379000Y-63380000D01*
X94339000Y-66097000D02*
X94339000Y-65750000D01*
X94339000Y-63790000D02*
X94339000Y-63443000D01*
X94299000Y-66031000D02*
X94299000Y-63509000D01*
X94259000Y-65959000D02*
X94259000Y-63581000D01*
X94219000Y-65882000D02*
X94219000Y-63658000D01*
X94179000Y-65798000D02*
X94179000Y-63742000D01*
X94139000Y-65704000D02*
X94139000Y-63836000D01*
X94099000Y-65599000D02*
X94099000Y-63941000D01*
X94059000Y-65477000D02*
X94059000Y-64063000D01*
X94019000Y-65329000D02*
X94019000Y-64211000D01*
X93979000Y-65124000D02*
X93979000Y-64416000D01*
X99990000Y-64770000D02*
X98790000Y-64770000D01*
X99390000Y-65420000D02*
X99390000Y-64120000D01*
X94234278Y-97699723D02*
G75*
G03X98845580Y-97700000I2305722J1179723D01*
G01*
X94234278Y-95340277D02*
G75*
G02X98845580Y-95340000I2305722J-1179723D01*
G01*
X94234278Y-95340277D02*
G75*
G03X94234420Y-97700000I2305722J-1179723D01*
G01*
X96540000Y-99070000D02*
X96540000Y-93970000D01*
X96500000Y-99070000D02*
X96500000Y-93970000D01*
X96460000Y-99069000D02*
X96460000Y-93971000D01*
X96420000Y-99068000D02*
X96420000Y-93972000D01*
X96380000Y-99066000D02*
X96380000Y-93974000D01*
X96340000Y-99063000D02*
X96340000Y-93977000D01*
X96300000Y-99059000D02*
X96300000Y-93981000D01*
X96260000Y-99055000D02*
X96260000Y-97500000D01*
X96260000Y-95540000D02*
X96260000Y-93985000D01*
X96220000Y-99051000D02*
X96220000Y-97500000D01*
X96220000Y-95540000D02*
X96220000Y-93989000D01*
X96180000Y-99045000D02*
X96180000Y-97500000D01*
X96180000Y-95540000D02*
X96180000Y-93995000D01*
X96140000Y-99039000D02*
X96140000Y-97500000D01*
X96140000Y-95540000D02*
X96140000Y-94001000D01*
X96100000Y-99033000D02*
X96100000Y-97500000D01*
X96100000Y-95540000D02*
X96100000Y-94007000D01*
X96060000Y-99026000D02*
X96060000Y-97500000D01*
X96060000Y-95540000D02*
X96060000Y-94014000D01*
X96020000Y-99018000D02*
X96020000Y-97500000D01*
X96020000Y-95540000D02*
X96020000Y-94022000D01*
X95980000Y-99009000D02*
X95980000Y-97500000D01*
X95980000Y-95540000D02*
X95980000Y-94031000D01*
X95940000Y-99000000D02*
X95940000Y-97500000D01*
X95940000Y-95540000D02*
X95940000Y-94040000D01*
X95900000Y-98990000D02*
X95900000Y-97500000D01*
X95900000Y-95540000D02*
X95900000Y-94050000D01*
X95860000Y-98980000D02*
X95860000Y-97500000D01*
X95860000Y-95540000D02*
X95860000Y-94060000D01*
X95819000Y-98968000D02*
X95819000Y-97500000D01*
X95819000Y-95540000D02*
X95819000Y-94072000D01*
X95779000Y-98956000D02*
X95779000Y-97500000D01*
X95779000Y-95540000D02*
X95779000Y-94084000D01*
X95739000Y-98944000D02*
X95739000Y-97500000D01*
X95739000Y-95540000D02*
X95739000Y-94096000D01*
X95699000Y-98930000D02*
X95699000Y-97500000D01*
X95699000Y-95540000D02*
X95699000Y-94110000D01*
X95659000Y-98916000D02*
X95659000Y-97500000D01*
X95659000Y-95540000D02*
X95659000Y-94124000D01*
X95619000Y-98902000D02*
X95619000Y-97500000D01*
X95619000Y-95540000D02*
X95619000Y-94138000D01*
X95579000Y-98886000D02*
X95579000Y-97500000D01*
X95579000Y-95540000D02*
X95579000Y-94154000D01*
X95539000Y-98870000D02*
X95539000Y-97500000D01*
X95539000Y-95540000D02*
X95539000Y-94170000D01*
X95499000Y-98853000D02*
X95499000Y-97500000D01*
X95499000Y-95540000D02*
X95499000Y-94187000D01*
X95459000Y-98835000D02*
X95459000Y-97500000D01*
X95459000Y-95540000D02*
X95459000Y-94205000D01*
X95419000Y-98816000D02*
X95419000Y-97500000D01*
X95419000Y-95540000D02*
X95419000Y-94224000D01*
X95379000Y-98796000D02*
X95379000Y-97500000D01*
X95379000Y-95540000D02*
X95379000Y-94244000D01*
X95339000Y-98776000D02*
X95339000Y-97500000D01*
X95339000Y-95540000D02*
X95339000Y-94264000D01*
X95299000Y-98754000D02*
X95299000Y-97500000D01*
X95299000Y-95540000D02*
X95299000Y-94286000D01*
X95259000Y-98732000D02*
X95259000Y-97500000D01*
X95259000Y-95540000D02*
X95259000Y-94308000D01*
X95219000Y-98709000D02*
X95219000Y-97500000D01*
X95219000Y-95540000D02*
X95219000Y-94331000D01*
X95179000Y-98685000D02*
X95179000Y-97500000D01*
X95179000Y-95540000D02*
X95179000Y-94355000D01*
X95139000Y-98660000D02*
X95139000Y-97500000D01*
X95139000Y-95540000D02*
X95139000Y-94380000D01*
X95099000Y-98633000D02*
X95099000Y-97500000D01*
X95099000Y-95540000D02*
X95099000Y-94407000D01*
X95059000Y-98606000D02*
X95059000Y-97500000D01*
X95059000Y-95540000D02*
X95059000Y-94434000D01*
X95019000Y-98578000D02*
X95019000Y-97500000D01*
X95019000Y-95540000D02*
X95019000Y-94462000D01*
X94979000Y-98548000D02*
X94979000Y-97500000D01*
X94979000Y-95540000D02*
X94979000Y-94492000D01*
X94939000Y-98517000D02*
X94939000Y-97500000D01*
X94939000Y-95540000D02*
X94939000Y-94523000D01*
X94899000Y-98485000D02*
X94899000Y-97500000D01*
X94899000Y-95540000D02*
X94899000Y-94555000D01*
X94859000Y-98452000D02*
X94859000Y-97500000D01*
X94859000Y-95540000D02*
X94859000Y-94588000D01*
X94819000Y-98417000D02*
X94819000Y-97500000D01*
X94819000Y-95540000D02*
X94819000Y-94623000D01*
X94779000Y-98381000D02*
X94779000Y-97500000D01*
X94779000Y-95540000D02*
X94779000Y-94659000D01*
X94739000Y-98343000D02*
X94739000Y-97500000D01*
X94739000Y-95540000D02*
X94739000Y-94697000D01*
X94699000Y-98303000D02*
X94699000Y-97500000D01*
X94699000Y-95540000D02*
X94699000Y-94737000D01*
X94659000Y-98262000D02*
X94659000Y-97500000D01*
X94659000Y-95540000D02*
X94659000Y-94778000D01*
X94619000Y-98219000D02*
X94619000Y-97500000D01*
X94619000Y-95540000D02*
X94619000Y-94821000D01*
X94579000Y-98174000D02*
X94579000Y-97500000D01*
X94579000Y-95540000D02*
X94579000Y-94866000D01*
X94539000Y-98126000D02*
X94539000Y-97500000D01*
X94539000Y-95540000D02*
X94539000Y-94914000D01*
X94499000Y-98076000D02*
X94499000Y-97500000D01*
X94499000Y-95540000D02*
X94499000Y-94964000D01*
X94459000Y-98024000D02*
X94459000Y-97500000D01*
X94459000Y-95540000D02*
X94459000Y-95016000D01*
X94419000Y-97968000D02*
X94419000Y-97500000D01*
X94419000Y-95540000D02*
X94419000Y-95072000D01*
X94379000Y-97910000D02*
X94379000Y-97500000D01*
X94379000Y-95540000D02*
X94379000Y-95130000D01*
X94339000Y-97847000D02*
X94339000Y-97500000D01*
X94339000Y-95540000D02*
X94339000Y-95193000D01*
X94299000Y-97781000D02*
X94299000Y-95259000D01*
X94259000Y-97709000D02*
X94259000Y-95331000D01*
X94219000Y-97632000D02*
X94219000Y-95408000D01*
X94179000Y-97548000D02*
X94179000Y-95492000D01*
X94139000Y-97454000D02*
X94139000Y-95586000D01*
X94099000Y-97349000D02*
X94099000Y-95691000D01*
X94059000Y-97227000D02*
X94059000Y-95813000D01*
X94019000Y-97079000D02*
X94019000Y-95961000D01*
X93979000Y-96874000D02*
X93979000Y-96166000D01*
X99990000Y-96520000D02*
X98790000Y-96520000D01*
X99390000Y-97170000D02*
X99390000Y-95870000D01*
X95340277Y-100584278D02*
G75*
G03X95340000Y-105195580I1179723J-2305722D01*
G01*
X97699723Y-100584278D02*
G75*
G02X97700000Y-105195580I-1179723J-2305722D01*
G01*
X97699723Y-100584278D02*
G75*
G03X95340000Y-100584420I-1179723J-2305722D01*
G01*
X93970000Y-102890000D02*
X99070000Y-102890000D01*
X93970000Y-102850000D02*
X99070000Y-102850000D01*
X93971000Y-102810000D02*
X99069000Y-102810000D01*
X93972000Y-102770000D02*
X99068000Y-102770000D01*
X93974000Y-102730000D02*
X99066000Y-102730000D01*
X93977000Y-102690000D02*
X99063000Y-102690000D01*
X93981000Y-102650000D02*
X99059000Y-102650000D01*
X93985000Y-102610000D02*
X95540000Y-102610000D01*
X97500000Y-102610000D02*
X99055000Y-102610000D01*
X93989000Y-102570000D02*
X95540000Y-102570000D01*
X97500000Y-102570000D02*
X99051000Y-102570000D01*
X93995000Y-102530000D02*
X95540000Y-102530000D01*
X97500000Y-102530000D02*
X99045000Y-102530000D01*
X94001000Y-102490000D02*
X95540000Y-102490000D01*
X97500000Y-102490000D02*
X99039000Y-102490000D01*
X94007000Y-102450000D02*
X95540000Y-102450000D01*
X97500000Y-102450000D02*
X99033000Y-102450000D01*
X94014000Y-102410000D02*
X95540000Y-102410000D01*
X97500000Y-102410000D02*
X99026000Y-102410000D01*
X94022000Y-102370000D02*
X95540000Y-102370000D01*
X97500000Y-102370000D02*
X99018000Y-102370000D01*
X94031000Y-102330000D02*
X95540000Y-102330000D01*
X97500000Y-102330000D02*
X99009000Y-102330000D01*
X94040000Y-102290000D02*
X95540000Y-102290000D01*
X97500000Y-102290000D02*
X99000000Y-102290000D01*
X94050000Y-102250000D02*
X95540000Y-102250000D01*
X97500000Y-102250000D02*
X98990000Y-102250000D01*
X94060000Y-102210000D02*
X95540000Y-102210000D01*
X97500000Y-102210000D02*
X98980000Y-102210000D01*
X94072000Y-102169000D02*
X95540000Y-102169000D01*
X97500000Y-102169000D02*
X98968000Y-102169000D01*
X94084000Y-102129000D02*
X95540000Y-102129000D01*
X97500000Y-102129000D02*
X98956000Y-102129000D01*
X94096000Y-102089000D02*
X95540000Y-102089000D01*
X97500000Y-102089000D02*
X98944000Y-102089000D01*
X94110000Y-102049000D02*
X95540000Y-102049000D01*
X97500000Y-102049000D02*
X98930000Y-102049000D01*
X94124000Y-102009000D02*
X95540000Y-102009000D01*
X97500000Y-102009000D02*
X98916000Y-102009000D01*
X94138000Y-101969000D02*
X95540000Y-101969000D01*
X97500000Y-101969000D02*
X98902000Y-101969000D01*
X94154000Y-101929000D02*
X95540000Y-101929000D01*
X97500000Y-101929000D02*
X98886000Y-101929000D01*
X94170000Y-101889000D02*
X95540000Y-101889000D01*
X97500000Y-101889000D02*
X98870000Y-101889000D01*
X94187000Y-101849000D02*
X95540000Y-101849000D01*
X97500000Y-101849000D02*
X98853000Y-101849000D01*
X94205000Y-101809000D02*
X95540000Y-101809000D01*
X97500000Y-101809000D02*
X98835000Y-101809000D01*
X94224000Y-101769000D02*
X95540000Y-101769000D01*
X97500000Y-101769000D02*
X98816000Y-101769000D01*
X94244000Y-101729000D02*
X95540000Y-101729000D01*
X97500000Y-101729000D02*
X98796000Y-101729000D01*
X94264000Y-101689000D02*
X95540000Y-101689000D01*
X97500000Y-101689000D02*
X98776000Y-101689000D01*
X94286000Y-101649000D02*
X95540000Y-101649000D01*
X97500000Y-101649000D02*
X98754000Y-101649000D01*
X94308000Y-101609000D02*
X95540000Y-101609000D01*
X97500000Y-101609000D02*
X98732000Y-101609000D01*
X94331000Y-101569000D02*
X95540000Y-101569000D01*
X97500000Y-101569000D02*
X98709000Y-101569000D01*
X94355000Y-101529000D02*
X95540000Y-101529000D01*
X97500000Y-101529000D02*
X98685000Y-101529000D01*
X94380000Y-101489000D02*
X95540000Y-101489000D01*
X97500000Y-101489000D02*
X98660000Y-101489000D01*
X94407000Y-101449000D02*
X95540000Y-101449000D01*
X97500000Y-101449000D02*
X98633000Y-101449000D01*
X94434000Y-101409000D02*
X95540000Y-101409000D01*
X97500000Y-101409000D02*
X98606000Y-101409000D01*
X94462000Y-101369000D02*
X95540000Y-101369000D01*
X97500000Y-101369000D02*
X98578000Y-101369000D01*
X94492000Y-101329000D02*
X95540000Y-101329000D01*
X97500000Y-101329000D02*
X98548000Y-101329000D01*
X94523000Y-101289000D02*
X95540000Y-101289000D01*
X97500000Y-101289000D02*
X98517000Y-101289000D01*
X94555000Y-101249000D02*
X95540000Y-101249000D01*
X97500000Y-101249000D02*
X98485000Y-101249000D01*
X94588000Y-101209000D02*
X95540000Y-101209000D01*
X97500000Y-101209000D02*
X98452000Y-101209000D01*
X94623000Y-101169000D02*
X95540000Y-101169000D01*
X97500000Y-101169000D02*
X98417000Y-101169000D01*
X94659000Y-101129000D02*
X95540000Y-101129000D01*
X97500000Y-101129000D02*
X98381000Y-101129000D01*
X94697000Y-101089000D02*
X95540000Y-101089000D01*
X97500000Y-101089000D02*
X98343000Y-101089000D01*
X94737000Y-101049000D02*
X95540000Y-101049000D01*
X97500000Y-101049000D02*
X98303000Y-101049000D01*
X94778000Y-101009000D02*
X95540000Y-101009000D01*
X97500000Y-101009000D02*
X98262000Y-101009000D01*
X94821000Y-100969000D02*
X95540000Y-100969000D01*
X97500000Y-100969000D02*
X98219000Y-100969000D01*
X94866000Y-100929000D02*
X95540000Y-100929000D01*
X97500000Y-100929000D02*
X98174000Y-100929000D01*
X94914000Y-100889000D02*
X95540000Y-100889000D01*
X97500000Y-100889000D02*
X98126000Y-100889000D01*
X94964000Y-100849000D02*
X95540000Y-100849000D01*
X97500000Y-100849000D02*
X98076000Y-100849000D01*
X95016000Y-100809000D02*
X95540000Y-100809000D01*
X97500000Y-100809000D02*
X98024000Y-100809000D01*
X95072000Y-100769000D02*
X95540000Y-100769000D01*
X97500000Y-100769000D02*
X97968000Y-100769000D01*
X95130000Y-100729000D02*
X95540000Y-100729000D01*
X97500000Y-100729000D02*
X97910000Y-100729000D01*
X95193000Y-100689000D02*
X95540000Y-100689000D01*
X97500000Y-100689000D02*
X97847000Y-100689000D01*
X95259000Y-100649000D02*
X97781000Y-100649000D01*
X95331000Y-100609000D02*
X97709000Y-100609000D01*
X95408000Y-100569000D02*
X97632000Y-100569000D01*
X95492000Y-100529000D02*
X97548000Y-100529000D01*
X95586000Y-100489000D02*
X97454000Y-100489000D01*
X95691000Y-100449000D02*
X97349000Y-100449000D01*
X95813000Y-100409000D02*
X97227000Y-100409000D01*
X95961000Y-100369000D02*
X97079000Y-100369000D01*
X96166000Y-100329000D02*
X96874000Y-100329000D01*
X96520000Y-106340000D02*
X96520000Y-105140000D01*
X95870000Y-105740000D02*
X97170000Y-105740000D01*
X145795722Y-82640277D02*
G75*
G03X141184420Y-82640000I-2305722J-1179723D01*
G01*
X145795722Y-84999723D02*
G75*
G02X141184420Y-85000000I-2305722J1179723D01*
G01*
X145795722Y-84999723D02*
G75*
G03X145795580Y-82640000I-2305722J1179723D01*
G01*
X143490000Y-81270000D02*
X143490000Y-86370000D01*
X143530000Y-81270000D02*
X143530000Y-86370000D01*
X143570000Y-81271000D02*
X143570000Y-86369000D01*
X143610000Y-81272000D02*
X143610000Y-86368000D01*
X143650000Y-81274000D02*
X143650000Y-86366000D01*
X143690000Y-81277000D02*
X143690000Y-86363000D01*
X143730000Y-81281000D02*
X143730000Y-86359000D01*
X143770000Y-81285000D02*
X143770000Y-82840000D01*
X143770000Y-84800000D02*
X143770000Y-86355000D01*
X143810000Y-81289000D02*
X143810000Y-82840000D01*
X143810000Y-84800000D02*
X143810000Y-86351000D01*
X143850000Y-81295000D02*
X143850000Y-82840000D01*
X143850000Y-84800000D02*
X143850000Y-86345000D01*
X143890000Y-81301000D02*
X143890000Y-82840000D01*
X143890000Y-84800000D02*
X143890000Y-86339000D01*
X143930000Y-81307000D02*
X143930000Y-82840000D01*
X143930000Y-84800000D02*
X143930000Y-86333000D01*
X143970000Y-81314000D02*
X143970000Y-82840000D01*
X143970000Y-84800000D02*
X143970000Y-86326000D01*
X144010000Y-81322000D02*
X144010000Y-82840000D01*
X144010000Y-84800000D02*
X144010000Y-86318000D01*
X144050000Y-81331000D02*
X144050000Y-82840000D01*
X144050000Y-84800000D02*
X144050000Y-86309000D01*
X144090000Y-81340000D02*
X144090000Y-82840000D01*
X144090000Y-84800000D02*
X144090000Y-86300000D01*
X144130000Y-81350000D02*
X144130000Y-82840000D01*
X144130000Y-84800000D02*
X144130000Y-86290000D01*
X144170000Y-81360000D02*
X144170000Y-82840000D01*
X144170000Y-84800000D02*
X144170000Y-86280000D01*
X144211000Y-81372000D02*
X144211000Y-82840000D01*
X144211000Y-84800000D02*
X144211000Y-86268000D01*
X144251000Y-81384000D02*
X144251000Y-82840000D01*
X144251000Y-84800000D02*
X144251000Y-86256000D01*
X144291000Y-81396000D02*
X144291000Y-82840000D01*
X144291000Y-84800000D02*
X144291000Y-86244000D01*
X144331000Y-81410000D02*
X144331000Y-82840000D01*
X144331000Y-84800000D02*
X144331000Y-86230000D01*
X144371000Y-81424000D02*
X144371000Y-82840000D01*
X144371000Y-84800000D02*
X144371000Y-86216000D01*
X144411000Y-81438000D02*
X144411000Y-82840000D01*
X144411000Y-84800000D02*
X144411000Y-86202000D01*
X144451000Y-81454000D02*
X144451000Y-82840000D01*
X144451000Y-84800000D02*
X144451000Y-86186000D01*
X144491000Y-81470000D02*
X144491000Y-82840000D01*
X144491000Y-84800000D02*
X144491000Y-86170000D01*
X144531000Y-81487000D02*
X144531000Y-82840000D01*
X144531000Y-84800000D02*
X144531000Y-86153000D01*
X144571000Y-81505000D02*
X144571000Y-82840000D01*
X144571000Y-84800000D02*
X144571000Y-86135000D01*
X144611000Y-81524000D02*
X144611000Y-82840000D01*
X144611000Y-84800000D02*
X144611000Y-86116000D01*
X144651000Y-81544000D02*
X144651000Y-82840000D01*
X144651000Y-84800000D02*
X144651000Y-86096000D01*
X144691000Y-81564000D02*
X144691000Y-82840000D01*
X144691000Y-84800000D02*
X144691000Y-86076000D01*
X144731000Y-81586000D02*
X144731000Y-82840000D01*
X144731000Y-84800000D02*
X144731000Y-86054000D01*
X144771000Y-81608000D02*
X144771000Y-82840000D01*
X144771000Y-84800000D02*
X144771000Y-86032000D01*
X144811000Y-81631000D02*
X144811000Y-82840000D01*
X144811000Y-84800000D02*
X144811000Y-86009000D01*
X144851000Y-81655000D02*
X144851000Y-82840000D01*
X144851000Y-84800000D02*
X144851000Y-85985000D01*
X144891000Y-81680000D02*
X144891000Y-82840000D01*
X144891000Y-84800000D02*
X144891000Y-85960000D01*
X144931000Y-81707000D02*
X144931000Y-82840000D01*
X144931000Y-84800000D02*
X144931000Y-85933000D01*
X144971000Y-81734000D02*
X144971000Y-82840000D01*
X144971000Y-84800000D02*
X144971000Y-85906000D01*
X145011000Y-81762000D02*
X145011000Y-82840000D01*
X145011000Y-84800000D02*
X145011000Y-85878000D01*
X145051000Y-81792000D02*
X145051000Y-82840000D01*
X145051000Y-84800000D02*
X145051000Y-85848000D01*
X145091000Y-81823000D02*
X145091000Y-82840000D01*
X145091000Y-84800000D02*
X145091000Y-85817000D01*
X145131000Y-81855000D02*
X145131000Y-82840000D01*
X145131000Y-84800000D02*
X145131000Y-85785000D01*
X145171000Y-81888000D02*
X145171000Y-82840000D01*
X145171000Y-84800000D02*
X145171000Y-85752000D01*
X145211000Y-81923000D02*
X145211000Y-82840000D01*
X145211000Y-84800000D02*
X145211000Y-85717000D01*
X145251000Y-81959000D02*
X145251000Y-82840000D01*
X145251000Y-84800000D02*
X145251000Y-85681000D01*
X145291000Y-81997000D02*
X145291000Y-82840000D01*
X145291000Y-84800000D02*
X145291000Y-85643000D01*
X145331000Y-82037000D02*
X145331000Y-82840000D01*
X145331000Y-84800000D02*
X145331000Y-85603000D01*
X145371000Y-82078000D02*
X145371000Y-82840000D01*
X145371000Y-84800000D02*
X145371000Y-85562000D01*
X145411000Y-82121000D02*
X145411000Y-82840000D01*
X145411000Y-84800000D02*
X145411000Y-85519000D01*
X145451000Y-82166000D02*
X145451000Y-82840000D01*
X145451000Y-84800000D02*
X145451000Y-85474000D01*
X145491000Y-82214000D02*
X145491000Y-82840000D01*
X145491000Y-84800000D02*
X145491000Y-85426000D01*
X145531000Y-82264000D02*
X145531000Y-82840000D01*
X145531000Y-84800000D02*
X145531000Y-85376000D01*
X145571000Y-82316000D02*
X145571000Y-82840000D01*
X145571000Y-84800000D02*
X145571000Y-85324000D01*
X145611000Y-82372000D02*
X145611000Y-82840000D01*
X145611000Y-84800000D02*
X145611000Y-85268000D01*
X145651000Y-82430000D02*
X145651000Y-82840000D01*
X145651000Y-84800000D02*
X145651000Y-85210000D01*
X145691000Y-82493000D02*
X145691000Y-82840000D01*
X145691000Y-84800000D02*
X145691000Y-85147000D01*
X145731000Y-82559000D02*
X145731000Y-85081000D01*
X145771000Y-82631000D02*
X145771000Y-85009000D01*
X145811000Y-82708000D02*
X145811000Y-84932000D01*
X145851000Y-82792000D02*
X145851000Y-84848000D01*
X145891000Y-82886000D02*
X145891000Y-84754000D01*
X145931000Y-82991000D02*
X145931000Y-84649000D01*
X145971000Y-83113000D02*
X145971000Y-84527000D01*
X146011000Y-83261000D02*
X146011000Y-84379000D01*
X146051000Y-83466000D02*
X146051000Y-84174000D01*
X140040000Y-83820000D02*
X141240000Y-83820000D01*
X140640000Y-83170000D02*
X140640000Y-84470000D01*
X140879723Y-48005722D02*
G75*
G03X140880000Y-43394420I-1179723J2305722D01*
G01*
X138520277Y-48005722D02*
G75*
G02X138520000Y-43394420I1179723J2305722D01*
G01*
X138520277Y-48005722D02*
G75*
G03X140880000Y-48005580I1179723J2305722D01*
G01*
X142250000Y-45700000D02*
X137150000Y-45700000D01*
X142250000Y-45740000D02*
X137150000Y-45740000D01*
X142249000Y-45780000D02*
X137151000Y-45780000D01*
X142248000Y-45820000D02*
X137152000Y-45820000D01*
X142246000Y-45860000D02*
X137154000Y-45860000D01*
X142243000Y-45900000D02*
X137157000Y-45900000D01*
X142239000Y-45940000D02*
X137161000Y-45940000D01*
X142235000Y-45980000D02*
X140680000Y-45980000D01*
X138720000Y-45980000D02*
X137165000Y-45980000D01*
X142231000Y-46020000D02*
X140680000Y-46020000D01*
X138720000Y-46020000D02*
X137169000Y-46020000D01*
X142225000Y-46060000D02*
X140680000Y-46060000D01*
X138720000Y-46060000D02*
X137175000Y-46060000D01*
X142219000Y-46100000D02*
X140680000Y-46100000D01*
X138720000Y-46100000D02*
X137181000Y-46100000D01*
X142213000Y-46140000D02*
X140680000Y-46140000D01*
X138720000Y-46140000D02*
X137187000Y-46140000D01*
X142206000Y-46180000D02*
X140680000Y-46180000D01*
X138720000Y-46180000D02*
X137194000Y-46180000D01*
X142198000Y-46220000D02*
X140680000Y-46220000D01*
X138720000Y-46220000D02*
X137202000Y-46220000D01*
X142189000Y-46260000D02*
X140680000Y-46260000D01*
X138720000Y-46260000D02*
X137211000Y-46260000D01*
X142180000Y-46300000D02*
X140680000Y-46300000D01*
X138720000Y-46300000D02*
X137220000Y-46300000D01*
X142170000Y-46340000D02*
X140680000Y-46340000D01*
X138720000Y-46340000D02*
X137230000Y-46340000D01*
X142160000Y-46380000D02*
X140680000Y-46380000D01*
X138720000Y-46380000D02*
X137240000Y-46380000D01*
X142148000Y-46421000D02*
X140680000Y-46421000D01*
X138720000Y-46421000D02*
X137252000Y-46421000D01*
X142136000Y-46461000D02*
X140680000Y-46461000D01*
X138720000Y-46461000D02*
X137264000Y-46461000D01*
X142124000Y-46501000D02*
X140680000Y-46501000D01*
X138720000Y-46501000D02*
X137276000Y-46501000D01*
X142110000Y-46541000D02*
X140680000Y-46541000D01*
X138720000Y-46541000D02*
X137290000Y-46541000D01*
X142096000Y-46581000D02*
X140680000Y-46581000D01*
X138720000Y-46581000D02*
X137304000Y-46581000D01*
X142082000Y-46621000D02*
X140680000Y-46621000D01*
X138720000Y-46621000D02*
X137318000Y-46621000D01*
X142066000Y-46661000D02*
X140680000Y-46661000D01*
X138720000Y-46661000D02*
X137334000Y-46661000D01*
X142050000Y-46701000D02*
X140680000Y-46701000D01*
X138720000Y-46701000D02*
X137350000Y-46701000D01*
X142033000Y-46741000D02*
X140680000Y-46741000D01*
X138720000Y-46741000D02*
X137367000Y-46741000D01*
X142015000Y-46781000D02*
X140680000Y-46781000D01*
X138720000Y-46781000D02*
X137385000Y-46781000D01*
X141996000Y-46821000D02*
X140680000Y-46821000D01*
X138720000Y-46821000D02*
X137404000Y-46821000D01*
X141976000Y-46861000D02*
X140680000Y-46861000D01*
X138720000Y-46861000D02*
X137424000Y-46861000D01*
X141956000Y-46901000D02*
X140680000Y-46901000D01*
X138720000Y-46901000D02*
X137444000Y-46901000D01*
X141934000Y-46941000D02*
X140680000Y-46941000D01*
X138720000Y-46941000D02*
X137466000Y-46941000D01*
X141912000Y-46981000D02*
X140680000Y-46981000D01*
X138720000Y-46981000D02*
X137488000Y-46981000D01*
X141889000Y-47021000D02*
X140680000Y-47021000D01*
X138720000Y-47021000D02*
X137511000Y-47021000D01*
X141865000Y-47061000D02*
X140680000Y-47061000D01*
X138720000Y-47061000D02*
X137535000Y-47061000D01*
X141840000Y-47101000D02*
X140680000Y-47101000D01*
X138720000Y-47101000D02*
X137560000Y-47101000D01*
X141813000Y-47141000D02*
X140680000Y-47141000D01*
X138720000Y-47141000D02*
X137587000Y-47141000D01*
X141786000Y-47181000D02*
X140680000Y-47181000D01*
X138720000Y-47181000D02*
X137614000Y-47181000D01*
X141758000Y-47221000D02*
X140680000Y-47221000D01*
X138720000Y-47221000D02*
X137642000Y-47221000D01*
X141728000Y-47261000D02*
X140680000Y-47261000D01*
X138720000Y-47261000D02*
X137672000Y-47261000D01*
X141697000Y-47301000D02*
X140680000Y-47301000D01*
X138720000Y-47301000D02*
X137703000Y-47301000D01*
X141665000Y-47341000D02*
X140680000Y-47341000D01*
X138720000Y-47341000D02*
X137735000Y-47341000D01*
X141632000Y-47381000D02*
X140680000Y-47381000D01*
X138720000Y-47381000D02*
X137768000Y-47381000D01*
X141597000Y-47421000D02*
X140680000Y-47421000D01*
X138720000Y-47421000D02*
X137803000Y-47421000D01*
X141561000Y-47461000D02*
X140680000Y-47461000D01*
X138720000Y-47461000D02*
X137839000Y-47461000D01*
X141523000Y-47501000D02*
X140680000Y-47501000D01*
X138720000Y-47501000D02*
X137877000Y-47501000D01*
X141483000Y-47541000D02*
X140680000Y-47541000D01*
X138720000Y-47541000D02*
X137917000Y-47541000D01*
X141442000Y-47581000D02*
X140680000Y-47581000D01*
X138720000Y-47581000D02*
X137958000Y-47581000D01*
X141399000Y-47621000D02*
X140680000Y-47621000D01*
X138720000Y-47621000D02*
X138001000Y-47621000D01*
X141354000Y-47661000D02*
X140680000Y-47661000D01*
X138720000Y-47661000D02*
X138046000Y-47661000D01*
X141306000Y-47701000D02*
X140680000Y-47701000D01*
X138720000Y-47701000D02*
X138094000Y-47701000D01*
X141256000Y-47741000D02*
X140680000Y-47741000D01*
X138720000Y-47741000D02*
X138144000Y-47741000D01*
X141204000Y-47781000D02*
X140680000Y-47781000D01*
X138720000Y-47781000D02*
X138196000Y-47781000D01*
X141148000Y-47821000D02*
X140680000Y-47821000D01*
X138720000Y-47821000D02*
X138252000Y-47821000D01*
X141090000Y-47861000D02*
X140680000Y-47861000D01*
X138720000Y-47861000D02*
X138310000Y-47861000D01*
X141027000Y-47901000D02*
X140680000Y-47901000D01*
X138720000Y-47901000D02*
X138373000Y-47901000D01*
X140961000Y-47941000D02*
X138439000Y-47941000D01*
X140889000Y-47981000D02*
X138511000Y-47981000D01*
X140812000Y-48021000D02*
X138588000Y-48021000D01*
X140728000Y-48061000D02*
X138672000Y-48061000D01*
X140634000Y-48101000D02*
X138766000Y-48101000D01*
X140529000Y-48141000D02*
X138871000Y-48141000D01*
X140407000Y-48181000D02*
X138993000Y-48181000D01*
X140259000Y-48221000D02*
X139141000Y-48221000D01*
X140054000Y-48261000D02*
X139346000Y-48261000D01*
X139700000Y-42250000D02*
X139700000Y-43450000D01*
X140350000Y-42850000D02*
X139050000Y-42850000D01*
X123099723Y-45465722D02*
G75*
G03X123100000Y-40854420I-1179723J2305722D01*
G01*
X120740277Y-45465722D02*
G75*
G02X120740000Y-40854420I1179723J2305722D01*
G01*
X120740277Y-45465722D02*
G75*
G03X123100000Y-45465580I1179723J2305722D01*
G01*
X124470000Y-43160000D02*
X119370000Y-43160000D01*
X124470000Y-43200000D02*
X119370000Y-43200000D01*
X124469000Y-43240000D02*
X119371000Y-43240000D01*
X124468000Y-43280000D02*
X119372000Y-43280000D01*
X124466000Y-43320000D02*
X119374000Y-43320000D01*
X124463000Y-43360000D02*
X119377000Y-43360000D01*
X124459000Y-43400000D02*
X119381000Y-43400000D01*
X124455000Y-43440000D02*
X122900000Y-43440000D01*
X120940000Y-43440000D02*
X119385000Y-43440000D01*
X124451000Y-43480000D02*
X122900000Y-43480000D01*
X120940000Y-43480000D02*
X119389000Y-43480000D01*
X124445000Y-43520000D02*
X122900000Y-43520000D01*
X120940000Y-43520000D02*
X119395000Y-43520000D01*
X124439000Y-43560000D02*
X122900000Y-43560000D01*
X120940000Y-43560000D02*
X119401000Y-43560000D01*
X124433000Y-43600000D02*
X122900000Y-43600000D01*
X120940000Y-43600000D02*
X119407000Y-43600000D01*
X124426000Y-43640000D02*
X122900000Y-43640000D01*
X120940000Y-43640000D02*
X119414000Y-43640000D01*
X124418000Y-43680000D02*
X122900000Y-43680000D01*
X120940000Y-43680000D02*
X119422000Y-43680000D01*
X124409000Y-43720000D02*
X122900000Y-43720000D01*
X120940000Y-43720000D02*
X119431000Y-43720000D01*
X124400000Y-43760000D02*
X122900000Y-43760000D01*
X120940000Y-43760000D02*
X119440000Y-43760000D01*
X124390000Y-43800000D02*
X122900000Y-43800000D01*
X120940000Y-43800000D02*
X119450000Y-43800000D01*
X124380000Y-43840000D02*
X122900000Y-43840000D01*
X120940000Y-43840000D02*
X119460000Y-43840000D01*
X124368000Y-43881000D02*
X122900000Y-43881000D01*
X120940000Y-43881000D02*
X119472000Y-43881000D01*
X124356000Y-43921000D02*
X122900000Y-43921000D01*
X120940000Y-43921000D02*
X119484000Y-43921000D01*
X124344000Y-43961000D02*
X122900000Y-43961000D01*
X120940000Y-43961000D02*
X119496000Y-43961000D01*
X124330000Y-44001000D02*
X122900000Y-44001000D01*
X120940000Y-44001000D02*
X119510000Y-44001000D01*
X124316000Y-44041000D02*
X122900000Y-44041000D01*
X120940000Y-44041000D02*
X119524000Y-44041000D01*
X124302000Y-44081000D02*
X122900000Y-44081000D01*
X120940000Y-44081000D02*
X119538000Y-44081000D01*
X124286000Y-44121000D02*
X122900000Y-44121000D01*
X120940000Y-44121000D02*
X119554000Y-44121000D01*
X124270000Y-44161000D02*
X122900000Y-44161000D01*
X120940000Y-44161000D02*
X119570000Y-44161000D01*
X124253000Y-44201000D02*
X122900000Y-44201000D01*
X120940000Y-44201000D02*
X119587000Y-44201000D01*
X124235000Y-44241000D02*
X122900000Y-44241000D01*
X120940000Y-44241000D02*
X119605000Y-44241000D01*
X124216000Y-44281000D02*
X122900000Y-44281000D01*
X120940000Y-44281000D02*
X119624000Y-44281000D01*
X124196000Y-44321000D02*
X122900000Y-44321000D01*
X120940000Y-44321000D02*
X119644000Y-44321000D01*
X124176000Y-44361000D02*
X122900000Y-44361000D01*
X120940000Y-44361000D02*
X119664000Y-44361000D01*
X124154000Y-44401000D02*
X122900000Y-44401000D01*
X120940000Y-44401000D02*
X119686000Y-44401000D01*
X124132000Y-44441000D02*
X122900000Y-44441000D01*
X120940000Y-44441000D02*
X119708000Y-44441000D01*
X124109000Y-44481000D02*
X122900000Y-44481000D01*
X120940000Y-44481000D02*
X119731000Y-44481000D01*
X124085000Y-44521000D02*
X122900000Y-44521000D01*
X120940000Y-44521000D02*
X119755000Y-44521000D01*
X124060000Y-44561000D02*
X122900000Y-44561000D01*
X120940000Y-44561000D02*
X119780000Y-44561000D01*
X124033000Y-44601000D02*
X122900000Y-44601000D01*
X120940000Y-44601000D02*
X119807000Y-44601000D01*
X124006000Y-44641000D02*
X122900000Y-44641000D01*
X120940000Y-44641000D02*
X119834000Y-44641000D01*
X123978000Y-44681000D02*
X122900000Y-44681000D01*
X120940000Y-44681000D02*
X119862000Y-44681000D01*
X123948000Y-44721000D02*
X122900000Y-44721000D01*
X120940000Y-44721000D02*
X119892000Y-44721000D01*
X123917000Y-44761000D02*
X122900000Y-44761000D01*
X120940000Y-44761000D02*
X119923000Y-44761000D01*
X123885000Y-44801000D02*
X122900000Y-44801000D01*
X120940000Y-44801000D02*
X119955000Y-44801000D01*
X123852000Y-44841000D02*
X122900000Y-44841000D01*
X120940000Y-44841000D02*
X119988000Y-44841000D01*
X123817000Y-44881000D02*
X122900000Y-44881000D01*
X120940000Y-44881000D02*
X120023000Y-44881000D01*
X123781000Y-44921000D02*
X122900000Y-44921000D01*
X120940000Y-44921000D02*
X120059000Y-44921000D01*
X123743000Y-44961000D02*
X122900000Y-44961000D01*
X120940000Y-44961000D02*
X120097000Y-44961000D01*
X123703000Y-45001000D02*
X122900000Y-45001000D01*
X120940000Y-45001000D02*
X120137000Y-45001000D01*
X123662000Y-45041000D02*
X122900000Y-45041000D01*
X120940000Y-45041000D02*
X120178000Y-45041000D01*
X123619000Y-45081000D02*
X122900000Y-45081000D01*
X120940000Y-45081000D02*
X120221000Y-45081000D01*
X123574000Y-45121000D02*
X122900000Y-45121000D01*
X120940000Y-45121000D02*
X120266000Y-45121000D01*
X123526000Y-45161000D02*
X122900000Y-45161000D01*
X120940000Y-45161000D02*
X120314000Y-45161000D01*
X123476000Y-45201000D02*
X122900000Y-45201000D01*
X120940000Y-45201000D02*
X120364000Y-45201000D01*
X123424000Y-45241000D02*
X122900000Y-45241000D01*
X120940000Y-45241000D02*
X120416000Y-45241000D01*
X123368000Y-45281000D02*
X122900000Y-45281000D01*
X120940000Y-45281000D02*
X120472000Y-45281000D01*
X123310000Y-45321000D02*
X122900000Y-45321000D01*
X120940000Y-45321000D02*
X120530000Y-45321000D01*
X123247000Y-45361000D02*
X122900000Y-45361000D01*
X120940000Y-45361000D02*
X120593000Y-45361000D01*
X123181000Y-45401000D02*
X120659000Y-45401000D01*
X123109000Y-45441000D02*
X120731000Y-45441000D01*
X123032000Y-45481000D02*
X120808000Y-45481000D01*
X122948000Y-45521000D02*
X120892000Y-45521000D01*
X122854000Y-45561000D02*
X120986000Y-45561000D01*
X122749000Y-45601000D02*
X121091000Y-45601000D01*
X122627000Y-45641000D02*
X121213000Y-45641000D01*
X122479000Y-45681000D02*
X121361000Y-45681000D01*
X122274000Y-45721000D02*
X121566000Y-45721000D01*
X121920000Y-39710000D02*
X121920000Y-40910000D01*
X122570000Y-40310000D02*
X121270000Y-40310000D01*
X161350000Y-86300000D02*
X158690000Y-86300000D01*
X161350000Y-91440000D02*
X161350000Y-86300000D01*
X158690000Y-91440000D02*
X158690000Y-86300000D01*
X161350000Y-91440000D02*
X158690000Y-91440000D01*
X161350000Y-92710000D02*
X161350000Y-94040000D01*
X161350000Y-94040000D02*
X160020000Y-94040000D01*
X86300000Y-55820000D02*
X86300000Y-58480000D01*
X104140000Y-55820000D02*
X86300000Y-55820000D01*
X104140000Y-58480000D02*
X86300000Y-58480000D01*
X104140000Y-55820000D02*
X104140000Y-58480000D01*
X105410000Y-55820000D02*
X106740000Y-55820000D01*
X106740000Y-55820000D02*
X106740000Y-57150000D01*
X78780000Y-39950000D02*
X83150000Y-39950000D01*
X83150000Y-39950000D02*
X83150000Y-33670000D01*
X83150000Y-33670000D02*
X81530000Y-33670000D01*
X81530000Y-33670000D02*
X81530000Y-30810000D01*
X81530000Y-30810000D02*
X78780000Y-30810000D01*
X78780000Y-39950000D02*
X74410000Y-39950000D01*
X74410000Y-39950000D02*
X74410000Y-33670000D01*
X74410000Y-33670000D02*
X76030000Y-33670000D01*
X76030000Y-33670000D02*
X76030000Y-30810000D01*
X76030000Y-30810000D02*
X78780000Y-30810000D01*
X83500000Y-35560000D02*
X84100000Y-35260000D01*
X84100000Y-35260000D02*
X84100000Y-35860000D01*
X84100000Y-35860000D02*
X83500000Y-35560000D01*
X106720000Y-39950000D02*
X111090000Y-39950000D01*
X111090000Y-39950000D02*
X111090000Y-33670000D01*
X111090000Y-33670000D02*
X109470000Y-33670000D01*
X109470000Y-33670000D02*
X109470000Y-30810000D01*
X109470000Y-30810000D02*
X106720000Y-30810000D01*
X106720000Y-39950000D02*
X102350000Y-39950000D01*
X102350000Y-39950000D02*
X102350000Y-33670000D01*
X102350000Y-33670000D02*
X103970000Y-33670000D01*
X103970000Y-33670000D02*
X103970000Y-30810000D01*
X103970000Y-30810000D02*
X106720000Y-30810000D01*
X111440000Y-35560000D02*
X112040000Y-35260000D01*
X112040000Y-35260000D02*
X112040000Y-35860000D01*
X112040000Y-35860000D02*
X111440000Y-35560000D01*
X86551392Y-85957665D02*
G75*
G03X86394484Y-89190000I1078608J-1672335D01*
G01*
X88708608Y-85957665D02*
G75*
G02X88865516Y-89190000I-1078608J-1672335D01*
G01*
X86550163Y-86588870D02*
G75*
G03X86550000Y-88670961I1079837J-1041130D01*
G01*
X88709837Y-86588870D02*
G75*
G02X88710000Y-88670961I-1079837J-1041130D01*
G01*
X86394000Y-89190000D02*
X86550000Y-89190000D01*
X88710000Y-89190000D02*
X88866000Y-89190000D01*
X81471392Y-85957665D02*
G75*
G03X81314484Y-89190000I1078608J-1672335D01*
G01*
X83628608Y-85957665D02*
G75*
G02X83785516Y-89190000I-1078608J-1672335D01*
G01*
X81470163Y-86588870D02*
G75*
G03X81470000Y-88670961I1079837J-1041130D01*
G01*
X83629837Y-86588870D02*
G75*
G02X83630000Y-88670961I-1079837J-1041130D01*
G01*
X81314000Y-89190000D02*
X81470000Y-89190000D01*
X83630000Y-89190000D02*
X83786000Y-89190000D01*
X76391392Y-85957665D02*
G75*
G03X76234484Y-89190000I1078608J-1672335D01*
G01*
X78548608Y-85957665D02*
G75*
G02X78705516Y-89190000I-1078608J-1672335D01*
G01*
X76390163Y-86588870D02*
G75*
G03X76390000Y-88670961I1079837J-1041130D01*
G01*
X78549837Y-86588870D02*
G75*
G02X78550000Y-88670961I-1079837J-1041130D01*
G01*
X76234000Y-89190000D02*
X76390000Y-89190000D01*
X78550000Y-89190000D02*
X78706000Y-89190000D01*
X138450000Y-39950000D02*
X141570000Y-39950000D01*
X141570000Y-39950000D02*
X141570000Y-33670000D01*
X141570000Y-33670000D02*
X141200000Y-33670000D01*
X141200000Y-33670000D02*
X141200000Y-30810000D01*
X141200000Y-30810000D02*
X138450000Y-30810000D01*
X138450000Y-39950000D02*
X135330000Y-39950000D01*
X135330000Y-39950000D02*
X135330000Y-33670000D01*
X135330000Y-33670000D02*
X135700000Y-33670000D01*
X135700000Y-33670000D02*
X135700000Y-30810000D01*
X135700000Y-30810000D02*
X138450000Y-30810000D01*
X141920000Y-35560000D02*
X142520000Y-35260000D01*
X142520000Y-35260000D02*
X142520000Y-35860000D01*
X142520000Y-35860000D02*
X141920000Y-35560000D01*
X88840000Y-39310000D02*
X88840000Y-44510000D01*
X96520000Y-39310000D02*
X88840000Y-39310000D01*
X99120000Y-44510000D02*
X88840000Y-44510000D01*
X96520000Y-39310000D02*
X96520000Y-41910000D01*
X96520000Y-41910000D02*
X99120000Y-41910000D01*
X99120000Y-41910000D02*
X99120000Y-44510000D01*
X97790000Y-39310000D02*
X99120000Y-39310000D01*
X99120000Y-39310000D02*
X99120000Y-40640000D01*
D15*
X121487143Y-74937857D02*
X121534762Y-74985476D01*
X121582381Y-75128333D01*
X121582381Y-75223571D01*
X121534762Y-75366429D01*
X121439524Y-75461667D01*
X121344286Y-75509286D01*
X121153810Y-75556905D01*
X121010952Y-75556905D01*
X120820476Y-75509286D01*
X120725238Y-75461667D01*
X120630000Y-75366429D01*
X120582381Y-75223571D01*
X120582381Y-75128333D01*
X120630000Y-74985476D01*
X120677619Y-74937857D01*
X121582381Y-73985476D02*
X121582381Y-74556905D01*
X121582381Y-74271191D02*
X120582381Y-74271191D01*
X120725238Y-74366429D01*
X120820476Y-74461667D01*
X120868095Y-74556905D01*
X121582381Y-73033095D02*
X121582381Y-73604524D01*
X121582381Y-73318810D02*
X120582381Y-73318810D01*
X120725238Y-73414048D01*
X120820476Y-73509286D01*
X120868095Y-73604524D01*
X128472143Y-64777857D02*
X128519762Y-64825476D01*
X128567381Y-64968333D01*
X128567381Y-65063571D01*
X128519762Y-65206429D01*
X128424524Y-65301667D01*
X128329286Y-65349286D01*
X128138810Y-65396905D01*
X127995952Y-65396905D01*
X127805476Y-65349286D01*
X127710238Y-65301667D01*
X127615000Y-65206429D01*
X127567381Y-65063571D01*
X127567381Y-64968333D01*
X127615000Y-64825476D01*
X127662619Y-64777857D01*
X128567381Y-63825476D02*
X128567381Y-64396905D01*
X128567381Y-64111191D02*
X127567381Y-64111191D01*
X127710238Y-64206429D01*
X127805476Y-64301667D01*
X127853095Y-64396905D01*
X127662619Y-63444524D02*
X127615000Y-63396905D01*
X127567381Y-63301667D01*
X127567381Y-63063571D01*
X127615000Y-62968333D01*
X127662619Y-62920714D01*
X127757857Y-62873095D01*
X127853095Y-62873095D01*
X127995952Y-62920714D01*
X128567381Y-63492143D01*
X128567381Y-62873095D01*
X109212143Y-68937143D02*
X109164524Y-68984762D01*
X109021667Y-69032381D01*
X108926429Y-69032381D01*
X108783571Y-68984762D01*
X108688333Y-68889524D01*
X108640714Y-68794286D01*
X108593095Y-68603810D01*
X108593095Y-68460952D01*
X108640714Y-68270476D01*
X108688333Y-68175238D01*
X108783571Y-68080000D01*
X108926429Y-68032381D01*
X109021667Y-68032381D01*
X109164524Y-68080000D01*
X109212143Y-68127619D01*
X110164524Y-69032381D02*
X109593095Y-69032381D01*
X109878809Y-69032381D02*
X109878809Y-68032381D01*
X109783571Y-68175238D01*
X109688333Y-68270476D01*
X109593095Y-68318095D01*
X110497857Y-68032381D02*
X111116905Y-68032381D01*
X110783571Y-68413333D01*
X110926429Y-68413333D01*
X111021667Y-68460952D01*
X111069286Y-68508571D01*
X111116905Y-68603810D01*
X111116905Y-68841905D01*
X111069286Y-68937143D01*
X111021667Y-68984762D01*
X110926429Y-69032381D01*
X110640714Y-69032381D01*
X110545476Y-68984762D01*
X110497857Y-68937143D01*
X123547143Y-73667857D02*
X123594762Y-73715476D01*
X123642381Y-73858333D01*
X123642381Y-73953571D01*
X123594762Y-74096429D01*
X123499524Y-74191667D01*
X123404286Y-74239286D01*
X123213810Y-74286905D01*
X123070952Y-74286905D01*
X122880476Y-74239286D01*
X122785238Y-74191667D01*
X122690000Y-74096429D01*
X122642381Y-73953571D01*
X122642381Y-73858333D01*
X122690000Y-73715476D01*
X122737619Y-73667857D01*
X123642381Y-72715476D02*
X123642381Y-73286905D01*
X123642381Y-73001191D02*
X122642381Y-73001191D01*
X122785238Y-73096429D01*
X122880476Y-73191667D01*
X122928095Y-73286905D01*
X122975714Y-71858333D02*
X123642381Y-71858333D01*
X122594762Y-72096429D02*
X123309048Y-72334524D01*
X123309048Y-71715476D01*
X125722143Y-59412143D02*
X125674524Y-59459762D01*
X125531667Y-59507381D01*
X125436429Y-59507381D01*
X125293571Y-59459762D01*
X125198333Y-59364524D01*
X125150714Y-59269286D01*
X125103095Y-59078810D01*
X125103095Y-58935952D01*
X125150714Y-58745476D01*
X125198333Y-58650238D01*
X125293571Y-58555000D01*
X125436429Y-58507381D01*
X125531667Y-58507381D01*
X125674524Y-58555000D01*
X125722143Y-58602619D01*
X126674524Y-59507381D02*
X126103095Y-59507381D01*
X126388809Y-59507381D02*
X126388809Y-58507381D01*
X126293571Y-58650238D01*
X126198333Y-58745476D01*
X126103095Y-58793095D01*
X127579286Y-58507381D02*
X127103095Y-58507381D01*
X127055476Y-58983571D01*
X127103095Y-58935952D01*
X127198333Y-58888333D01*
X127436429Y-58888333D01*
X127531667Y-58935952D01*
X127579286Y-58983571D01*
X127626905Y-59078810D01*
X127626905Y-59316905D01*
X127579286Y-59412143D01*
X127531667Y-59459762D01*
X127436429Y-59507381D01*
X127198333Y-59507381D01*
X127103095Y-59459762D01*
X127055476Y-59412143D01*
X115927143Y-73667857D02*
X115974762Y-73715476D01*
X116022381Y-73858333D01*
X116022381Y-73953571D01*
X115974762Y-74096429D01*
X115879524Y-74191667D01*
X115784286Y-74239286D01*
X115593810Y-74286905D01*
X115450952Y-74286905D01*
X115260476Y-74239286D01*
X115165238Y-74191667D01*
X115070000Y-74096429D01*
X115022381Y-73953571D01*
X115022381Y-73858333D01*
X115070000Y-73715476D01*
X115117619Y-73667857D01*
X116022381Y-72715476D02*
X116022381Y-73286905D01*
X116022381Y-73001191D02*
X115022381Y-73001191D01*
X115165238Y-73096429D01*
X115260476Y-73191667D01*
X115308095Y-73286905D01*
X115022381Y-71858333D02*
X115022381Y-72048810D01*
X115070000Y-72144048D01*
X115117619Y-72191667D01*
X115260476Y-72286905D01*
X115450952Y-72334524D01*
X115831905Y-72334524D01*
X115927143Y-72286905D01*
X115974762Y-72239286D01*
X116022381Y-72144048D01*
X116022381Y-71953571D01*
X115974762Y-71858333D01*
X115927143Y-71810714D01*
X115831905Y-71763095D01*
X115593810Y-71763095D01*
X115498571Y-71810714D01*
X115450952Y-71858333D01*
X115403333Y-71953571D01*
X115403333Y-72144048D01*
X115450952Y-72239286D01*
X115498571Y-72286905D01*
X115593810Y-72334524D01*
X113387143Y-57157857D02*
X113434762Y-57205476D01*
X113482381Y-57348333D01*
X113482381Y-57443571D01*
X113434762Y-57586429D01*
X113339524Y-57681667D01*
X113244286Y-57729286D01*
X113053810Y-57776905D01*
X112910952Y-57776905D01*
X112720476Y-57729286D01*
X112625238Y-57681667D01*
X112530000Y-57586429D01*
X112482381Y-57443571D01*
X112482381Y-57348333D01*
X112530000Y-57205476D01*
X112577619Y-57157857D01*
X113482381Y-56205476D02*
X113482381Y-56776905D01*
X113482381Y-56491191D02*
X112482381Y-56491191D01*
X112625238Y-56586429D01*
X112720476Y-56681667D01*
X112768095Y-56776905D01*
X112482381Y-55872143D02*
X112482381Y-55205476D01*
X113482381Y-55634048D01*
X109212143Y-62587143D02*
X109164524Y-62634762D01*
X109021667Y-62682381D01*
X108926429Y-62682381D01*
X108783571Y-62634762D01*
X108688333Y-62539524D01*
X108640714Y-62444286D01*
X108593095Y-62253810D01*
X108593095Y-62110952D01*
X108640714Y-61920476D01*
X108688333Y-61825238D01*
X108783571Y-61730000D01*
X108926429Y-61682381D01*
X109021667Y-61682381D01*
X109164524Y-61730000D01*
X109212143Y-61777619D01*
X110164524Y-62682381D02*
X109593095Y-62682381D01*
X109878809Y-62682381D02*
X109878809Y-61682381D01*
X109783571Y-61825238D01*
X109688333Y-61920476D01*
X109593095Y-61968095D01*
X110735952Y-62110952D02*
X110640714Y-62063333D01*
X110593095Y-62015714D01*
X110545476Y-61920476D01*
X110545476Y-61872857D01*
X110593095Y-61777619D01*
X110640714Y-61730000D01*
X110735952Y-61682381D01*
X110926429Y-61682381D01*
X111021667Y-61730000D01*
X111069286Y-61777619D01*
X111116905Y-61872857D01*
X111116905Y-61920476D01*
X111069286Y-62015714D01*
X111021667Y-62063333D01*
X110926429Y-62110952D01*
X110735952Y-62110952D01*
X110640714Y-62158571D01*
X110593095Y-62206190D01*
X110545476Y-62301429D01*
X110545476Y-62491905D01*
X110593095Y-62587143D01*
X110640714Y-62634762D01*
X110735952Y-62682381D01*
X110926429Y-62682381D01*
X111021667Y-62634762D01*
X111069286Y-62587143D01*
X111116905Y-62491905D01*
X111116905Y-62301429D01*
X111069286Y-62206190D01*
X111021667Y-62158571D01*
X110926429Y-62110952D01*
X120527143Y-53982857D02*
X120574762Y-54030476D01*
X120622381Y-54173333D01*
X120622381Y-54268571D01*
X120574762Y-54411429D01*
X120479524Y-54506667D01*
X120384286Y-54554286D01*
X120193810Y-54601905D01*
X120050952Y-54601905D01*
X119860476Y-54554286D01*
X119765238Y-54506667D01*
X119670000Y-54411429D01*
X119622381Y-54268571D01*
X119622381Y-54173333D01*
X119670000Y-54030476D01*
X119717619Y-53982857D01*
X120622381Y-53030476D02*
X120622381Y-53601905D01*
X120622381Y-53316191D02*
X119622381Y-53316191D01*
X119765238Y-53411429D01*
X119860476Y-53506667D01*
X119908095Y-53601905D01*
X120622381Y-52554286D02*
X120622381Y-52363810D01*
X120574762Y-52268571D01*
X120527143Y-52220952D01*
X120384286Y-52125714D01*
X120193810Y-52078095D01*
X119812857Y-52078095D01*
X119717619Y-52125714D01*
X119670000Y-52173333D01*
X119622381Y-52268571D01*
X119622381Y-52459048D01*
X119670000Y-52554286D01*
X119717619Y-52601905D01*
X119812857Y-52649524D01*
X120050952Y-52649524D01*
X120146190Y-52601905D01*
X120193810Y-52554286D01*
X120241429Y-52459048D01*
X120241429Y-52268571D01*
X120193810Y-52173333D01*
X120146190Y-52125714D01*
X120050952Y-52078095D01*
X91971905Y-46212381D02*
X91971905Y-45212381D01*
X92210000Y-45212381D01*
X92352858Y-45260000D01*
X92448096Y-45355238D01*
X92495715Y-45450476D01*
X92543334Y-45640952D01*
X92543334Y-45783810D01*
X92495715Y-45974286D01*
X92448096Y-46069524D01*
X92352858Y-46164762D01*
X92210000Y-46212381D01*
X91971905Y-46212381D01*
X93495715Y-46212381D02*
X92924286Y-46212381D01*
X93210000Y-46212381D02*
X93210000Y-45212381D01*
X93114762Y-45355238D01*
X93019524Y-45450476D01*
X92924286Y-45498095D01*
X100861905Y-45258571D02*
X100528571Y-45258571D01*
X100528571Y-45782381D02*
X100528571Y-44782381D01*
X101004762Y-44782381D01*
X101861905Y-45782381D02*
X101385714Y-45782381D01*
X101385714Y-44782381D01*
X102719048Y-45782381D02*
X102147619Y-45782381D01*
X102433333Y-45782381D02*
X102433333Y-44782381D01*
X102338095Y-44925238D01*
X102242857Y-45020476D01*
X102147619Y-45068095D01*
X130643334Y-61412381D02*
X130310000Y-60936190D01*
X130071905Y-61412381D02*
X130071905Y-60412381D01*
X130452858Y-60412381D01*
X130548096Y-60460000D01*
X130595715Y-60507619D01*
X130643334Y-60602857D01*
X130643334Y-60745714D01*
X130595715Y-60840952D01*
X130548096Y-60888571D01*
X130452858Y-60936190D01*
X130071905Y-60936190D01*
X131595715Y-61412381D02*
X131024286Y-61412381D01*
X131310000Y-61412381D02*
X131310000Y-60412381D01*
X131214762Y-60555238D01*
X131119524Y-60650476D01*
X131024286Y-60698095D01*
X135723334Y-61412381D02*
X135390000Y-60936190D01*
X135151905Y-61412381D02*
X135151905Y-60412381D01*
X135532858Y-60412381D01*
X135628096Y-60460000D01*
X135675715Y-60507619D01*
X135723334Y-60602857D01*
X135723334Y-60745714D01*
X135675715Y-60840952D01*
X135628096Y-60888571D01*
X135532858Y-60936190D01*
X135151905Y-60936190D01*
X136104286Y-60507619D02*
X136151905Y-60460000D01*
X136247143Y-60412381D01*
X136485239Y-60412381D01*
X136580477Y-60460000D01*
X136628096Y-60507619D01*
X136675715Y-60602857D01*
X136675715Y-60698095D01*
X136628096Y-60840952D01*
X136056667Y-61412381D01*
X136675715Y-61412381D01*
X151262381Y-75096666D02*
X150786190Y-75430000D01*
X151262381Y-75668095D02*
X150262381Y-75668095D01*
X150262381Y-75287142D01*
X150310000Y-75191904D01*
X150357619Y-75144285D01*
X150452857Y-75096666D01*
X150595714Y-75096666D01*
X150690952Y-75144285D01*
X150738571Y-75191904D01*
X150786190Y-75287142D01*
X150786190Y-75668095D01*
X150262381Y-74763333D02*
X150262381Y-74144285D01*
X150643333Y-74477619D01*
X150643333Y-74334761D01*
X150690952Y-74239523D01*
X150738571Y-74191904D01*
X150833810Y-74144285D01*
X151071905Y-74144285D01*
X151167143Y-74191904D01*
X151214762Y-74239523D01*
X151262381Y-74334761D01*
X151262381Y-74620476D01*
X151214762Y-74715714D01*
X151167143Y-74763333D01*
X163012381Y-75096666D02*
X162536190Y-75430000D01*
X163012381Y-75668095D02*
X162012381Y-75668095D01*
X162012381Y-75287142D01*
X162060000Y-75191904D01*
X162107619Y-75144285D01*
X162202857Y-75096666D01*
X162345714Y-75096666D01*
X162440952Y-75144285D01*
X162488571Y-75191904D01*
X162536190Y-75287142D01*
X162536190Y-75668095D01*
X162345714Y-74239523D02*
X163012381Y-74239523D01*
X161964762Y-74477619D02*
X162679048Y-74715714D01*
X162679048Y-74096666D01*
X144613334Y-61412381D02*
X144280000Y-60936190D01*
X144041905Y-61412381D02*
X144041905Y-60412381D01*
X144422858Y-60412381D01*
X144518096Y-60460000D01*
X144565715Y-60507619D01*
X144613334Y-60602857D01*
X144613334Y-60745714D01*
X144565715Y-60840952D01*
X144518096Y-60888571D01*
X144422858Y-60936190D01*
X144041905Y-60936190D01*
X145518096Y-60412381D02*
X145041905Y-60412381D01*
X144994286Y-60888571D01*
X145041905Y-60840952D01*
X145137143Y-60793333D01*
X145375239Y-60793333D01*
X145470477Y-60840952D01*
X145518096Y-60888571D01*
X145565715Y-60983810D01*
X145565715Y-61221905D01*
X145518096Y-61317143D01*
X145470477Y-61364762D01*
X145375239Y-61412381D01*
X145137143Y-61412381D01*
X145041905Y-61364762D01*
X144994286Y-61317143D01*
X144613334Y-50617381D02*
X144280000Y-50141190D01*
X144041905Y-50617381D02*
X144041905Y-49617381D01*
X144422858Y-49617381D01*
X144518096Y-49665000D01*
X144565715Y-49712619D01*
X144613334Y-49807857D01*
X144613334Y-49950714D01*
X144565715Y-50045952D01*
X144518096Y-50093571D01*
X144422858Y-50141190D01*
X144041905Y-50141190D01*
X145470477Y-49617381D02*
X145280000Y-49617381D01*
X145184762Y-49665000D01*
X145137143Y-49712619D01*
X145041905Y-49855476D01*
X144994286Y-50045952D01*
X144994286Y-50426905D01*
X145041905Y-50522143D01*
X145089524Y-50569762D01*
X145184762Y-50617381D01*
X145375239Y-50617381D01*
X145470477Y-50569762D01*
X145518096Y-50522143D01*
X145565715Y-50426905D01*
X145565715Y-50188810D01*
X145518096Y-50093571D01*
X145470477Y-50045952D01*
X145375239Y-49998333D01*
X145184762Y-49998333D01*
X145089524Y-50045952D01*
X145041905Y-50093571D01*
X144994286Y-50188810D01*
X152233334Y-107132381D02*
X151900000Y-106656190D01*
X151661905Y-107132381D02*
X151661905Y-106132381D01*
X152042858Y-106132381D01*
X152138096Y-106180000D01*
X152185715Y-106227619D01*
X152233334Y-106322857D01*
X152233334Y-106465714D01*
X152185715Y-106560952D01*
X152138096Y-106608571D01*
X152042858Y-106656190D01*
X151661905Y-106656190D01*
X152566667Y-106132381D02*
X153233334Y-106132381D01*
X152804762Y-107132381D01*
X94448334Y-93162381D02*
X94115000Y-92686190D01*
X93876905Y-93162381D02*
X93876905Y-92162381D01*
X94257858Y-92162381D01*
X94353096Y-92210000D01*
X94400715Y-92257619D01*
X94448334Y-92352857D01*
X94448334Y-92495714D01*
X94400715Y-92590952D01*
X94353096Y-92638571D01*
X94257858Y-92686190D01*
X93876905Y-92686190D01*
X95019762Y-92590952D02*
X94924524Y-92543333D01*
X94876905Y-92495714D01*
X94829286Y-92400476D01*
X94829286Y-92352857D01*
X94876905Y-92257619D01*
X94924524Y-92210000D01*
X95019762Y-92162381D01*
X95210239Y-92162381D01*
X95305477Y-92210000D01*
X95353096Y-92257619D01*
X95400715Y-92352857D01*
X95400715Y-92400476D01*
X95353096Y-92495714D01*
X95305477Y-92543333D01*
X95210239Y-92590952D01*
X95019762Y-92590952D01*
X94924524Y-92638571D01*
X94876905Y-92686190D01*
X94829286Y-92781429D01*
X94829286Y-92971905D01*
X94876905Y-93067143D01*
X94924524Y-93114762D01*
X95019762Y-93162381D01*
X95210239Y-93162381D01*
X95305477Y-93114762D01*
X95353096Y-93067143D01*
X95400715Y-92971905D01*
X95400715Y-92781429D01*
X95353096Y-92686190D01*
X95305477Y-92638571D01*
X95210239Y-92590952D01*
X89987381Y-70651666D02*
X89511190Y-70985000D01*
X89987381Y-71223095D02*
X88987381Y-71223095D01*
X88987381Y-70842142D01*
X89035000Y-70746904D01*
X89082619Y-70699285D01*
X89177857Y-70651666D01*
X89320714Y-70651666D01*
X89415952Y-70699285D01*
X89463571Y-70746904D01*
X89511190Y-70842142D01*
X89511190Y-71223095D01*
X89987381Y-70175476D02*
X89987381Y-69985000D01*
X89939762Y-69889761D01*
X89892143Y-69842142D01*
X89749286Y-69746904D01*
X89558810Y-69699285D01*
X89177857Y-69699285D01*
X89082619Y-69746904D01*
X89035000Y-69794523D01*
X88987381Y-69889761D01*
X88987381Y-70080238D01*
X89035000Y-70175476D01*
X89082619Y-70223095D01*
X89177857Y-70270714D01*
X89415952Y-70270714D01*
X89511190Y-70223095D01*
X89558810Y-70175476D01*
X89606429Y-70080238D01*
X89606429Y-69889761D01*
X89558810Y-69794523D01*
X89511190Y-69746904D01*
X89415952Y-69699285D01*
X86987143Y-67762381D02*
X86653809Y-67286190D01*
X86415714Y-67762381D02*
X86415714Y-66762381D01*
X86796667Y-66762381D01*
X86891905Y-66810000D01*
X86939524Y-66857619D01*
X86987143Y-66952857D01*
X86987143Y-67095714D01*
X86939524Y-67190952D01*
X86891905Y-67238571D01*
X86796667Y-67286190D01*
X86415714Y-67286190D01*
X87939524Y-67762381D02*
X87368095Y-67762381D01*
X87653809Y-67762381D02*
X87653809Y-66762381D01*
X87558571Y-66905238D01*
X87463333Y-67000476D01*
X87368095Y-67048095D01*
X88558571Y-66762381D02*
X88653810Y-66762381D01*
X88749048Y-66810000D01*
X88796667Y-66857619D01*
X88844286Y-66952857D01*
X88891905Y-67143333D01*
X88891905Y-67381429D01*
X88844286Y-67571905D01*
X88796667Y-67667143D01*
X88749048Y-67714762D01*
X88653810Y-67762381D01*
X88558571Y-67762381D01*
X88463333Y-67714762D01*
X88415714Y-67667143D01*
X88368095Y-67571905D01*
X88320476Y-67381429D01*
X88320476Y-67143333D01*
X88368095Y-66952857D01*
X88415714Y-66857619D01*
X88463333Y-66810000D01*
X88558571Y-66762381D01*
X81907143Y-67762381D02*
X81573809Y-67286190D01*
X81335714Y-67762381D02*
X81335714Y-66762381D01*
X81716667Y-66762381D01*
X81811905Y-66810000D01*
X81859524Y-66857619D01*
X81907143Y-66952857D01*
X81907143Y-67095714D01*
X81859524Y-67190952D01*
X81811905Y-67238571D01*
X81716667Y-67286190D01*
X81335714Y-67286190D01*
X82859524Y-67762381D02*
X82288095Y-67762381D01*
X82573809Y-67762381D02*
X82573809Y-66762381D01*
X82478571Y-66905238D01*
X82383333Y-67000476D01*
X82288095Y-67048095D01*
X83811905Y-67762381D02*
X83240476Y-67762381D01*
X83526190Y-67762381D02*
X83526190Y-66762381D01*
X83430952Y-66905238D01*
X83335714Y-67000476D01*
X83240476Y-67048095D01*
X76827143Y-67762381D02*
X76493809Y-67286190D01*
X76255714Y-67762381D02*
X76255714Y-66762381D01*
X76636667Y-66762381D01*
X76731905Y-66810000D01*
X76779524Y-66857619D01*
X76827143Y-66952857D01*
X76827143Y-67095714D01*
X76779524Y-67190952D01*
X76731905Y-67238571D01*
X76636667Y-67286190D01*
X76255714Y-67286190D01*
X77779524Y-67762381D02*
X77208095Y-67762381D01*
X77493809Y-67762381D02*
X77493809Y-66762381D01*
X77398571Y-66905238D01*
X77303333Y-67000476D01*
X77208095Y-67048095D01*
X78160476Y-66857619D02*
X78208095Y-66810000D01*
X78303333Y-66762381D01*
X78541429Y-66762381D01*
X78636667Y-66810000D01*
X78684286Y-66857619D01*
X78731905Y-66952857D01*
X78731905Y-67048095D01*
X78684286Y-67190952D01*
X78112857Y-67762381D01*
X78731905Y-67762381D01*
X71747143Y-67762381D02*
X71413809Y-67286190D01*
X71175714Y-67762381D02*
X71175714Y-66762381D01*
X71556667Y-66762381D01*
X71651905Y-66810000D01*
X71699524Y-66857619D01*
X71747143Y-66952857D01*
X71747143Y-67095714D01*
X71699524Y-67190952D01*
X71651905Y-67238571D01*
X71556667Y-67286190D01*
X71175714Y-67286190D01*
X72699524Y-67762381D02*
X72128095Y-67762381D01*
X72413809Y-67762381D02*
X72413809Y-66762381D01*
X72318571Y-66905238D01*
X72223333Y-67000476D01*
X72128095Y-67048095D01*
X73032857Y-66762381D02*
X73651905Y-66762381D01*
X73318571Y-67143333D01*
X73461429Y-67143333D01*
X73556667Y-67190952D01*
X73604286Y-67238571D01*
X73651905Y-67333810D01*
X73651905Y-67571905D01*
X73604286Y-67667143D01*
X73556667Y-67714762D01*
X73461429Y-67762381D01*
X73175714Y-67762381D01*
X73080476Y-67714762D01*
X73032857Y-67667143D01*
X142113095Y-61047381D02*
X142113095Y-61856905D01*
X142160714Y-61952143D01*
X142208333Y-61999762D01*
X142303571Y-62047381D01*
X142494048Y-62047381D01*
X142589286Y-61999762D01*
X142636905Y-61952143D01*
X142684524Y-61856905D01*
X142684524Y-61047381D01*
X143684524Y-62047381D02*
X143113095Y-62047381D01*
X143398809Y-62047381D02*
X143398809Y-61047381D01*
X143303571Y-61190238D01*
X143208333Y-61285476D01*
X143113095Y-61333095D01*
X117348095Y-106132381D02*
X117348095Y-106941905D01*
X117395714Y-107037143D01*
X117443333Y-107084762D01*
X117538571Y-107132381D01*
X117729048Y-107132381D01*
X117824286Y-107084762D01*
X117871905Y-107037143D01*
X117919524Y-106941905D01*
X117919524Y-106132381D01*
X118348095Y-106227619D02*
X118395714Y-106180000D01*
X118490952Y-106132381D01*
X118729048Y-106132381D01*
X118824286Y-106180000D01*
X118871905Y-106227619D01*
X118919524Y-106322857D01*
X118919524Y-106418095D01*
X118871905Y-106560952D01*
X118300476Y-107132381D01*
X118919524Y-107132381D01*
X68032381Y-99821905D02*
X68841905Y-99821905D01*
X68937143Y-99774286D01*
X68984762Y-99726667D01*
X69032381Y-99631429D01*
X69032381Y-99440952D01*
X68984762Y-99345714D01*
X68937143Y-99298095D01*
X68841905Y-99250476D01*
X68032381Y-99250476D01*
X68365714Y-98345714D02*
X69032381Y-98345714D01*
X67984762Y-98583810D02*
X68699048Y-98821905D01*
X68699048Y-98202857D01*
X130048095Y-106132381D02*
X130048095Y-106941905D01*
X130095714Y-107037143D01*
X130143333Y-107084762D01*
X130238571Y-107132381D01*
X130429048Y-107132381D01*
X130524286Y-107084762D01*
X130571905Y-107037143D01*
X130619524Y-106941905D01*
X130619524Y-106132381D01*
X131571905Y-106132381D02*
X131095714Y-106132381D01*
X131048095Y-106608571D01*
X131095714Y-106560952D01*
X131190952Y-106513333D01*
X131429048Y-106513333D01*
X131524286Y-106560952D01*
X131571905Y-106608571D01*
X131619524Y-106703810D01*
X131619524Y-106941905D01*
X131571905Y-107037143D01*
X131524286Y-107084762D01*
X131429048Y-107132381D01*
X131190952Y-107132381D01*
X131095714Y-107084762D01*
X131048095Y-107037143D01*
X104648095Y-72052381D02*
X104648095Y-72861905D01*
X104695714Y-72957143D01*
X104743333Y-73004762D01*
X104838571Y-73052381D01*
X105029048Y-73052381D01*
X105124286Y-73004762D01*
X105171905Y-72957143D01*
X105219524Y-72861905D01*
X105219524Y-72052381D01*
X106124286Y-72052381D02*
X105933809Y-72052381D01*
X105838571Y-72100000D01*
X105790952Y-72147619D01*
X105695714Y-72290476D01*
X105648095Y-72480952D01*
X105648095Y-72861905D01*
X105695714Y-72957143D01*
X105743333Y-73004762D01*
X105838571Y-73052381D01*
X106029048Y-73052381D01*
X106124286Y-73004762D01*
X106171905Y-72957143D01*
X106219524Y-72861905D01*
X106219524Y-72623810D01*
X106171905Y-72528571D01*
X106124286Y-72480952D01*
X106029048Y-72433333D01*
X105838571Y-72433333D01*
X105743333Y-72480952D01*
X105695714Y-72528571D01*
X105648095Y-72623810D01*
X103663809Y-60426190D02*
X103663809Y-60902381D01*
X103330476Y-59902381D02*
X103663809Y-60426190D01*
X103997143Y-59902381D01*
X104854286Y-60902381D02*
X104282857Y-60902381D01*
X104568571Y-60902381D02*
X104568571Y-59902381D01*
X104473333Y-60045238D01*
X104378095Y-60140476D01*
X104282857Y-60188095D01*
X142748095Y-106132381D02*
X142748095Y-106941905D01*
X142795714Y-107037143D01*
X142843333Y-107084762D01*
X142938571Y-107132381D01*
X143129048Y-107132381D01*
X143224286Y-107084762D01*
X143271905Y-107037143D01*
X143319524Y-106941905D01*
X143319524Y-106132381D01*
X143700476Y-106132381D02*
X144319524Y-106132381D01*
X143986190Y-106513333D01*
X144129048Y-106513333D01*
X144224286Y-106560952D01*
X144271905Y-106608571D01*
X144319524Y-106703810D01*
X144319524Y-106941905D01*
X144271905Y-107037143D01*
X144224286Y-107084762D01*
X144129048Y-107132381D01*
X143843333Y-107132381D01*
X143748095Y-107084762D01*
X143700476Y-107037143D01*
X155202381Y-61333333D02*
X155916667Y-61333333D01*
X156059524Y-61380953D01*
X156154762Y-61476191D01*
X156202381Y-61619048D01*
X156202381Y-61714286D01*
X156202381Y-60333333D02*
X156202381Y-60904762D01*
X156202381Y-60619048D02*
X155202381Y-60619048D01*
X155345238Y-60714286D01*
X155440476Y-60809524D01*
X155488095Y-60904762D01*
X94936667Y-38012381D02*
X94936667Y-38726667D01*
X94889047Y-38869524D01*
X94793809Y-38964762D01*
X94650952Y-39012381D01*
X94555714Y-39012381D01*
X95365238Y-38107619D02*
X95412857Y-38060000D01*
X95508095Y-38012381D01*
X95746191Y-38012381D01*
X95841429Y-38060000D01*
X95889048Y-38107619D01*
X95936667Y-38202857D01*
X95936667Y-38298095D01*
X95889048Y-38440952D01*
X95317619Y-39012381D01*
X95936667Y-39012381D01*
X117796667Y-38012381D02*
X117796667Y-38726667D01*
X117749047Y-38869524D01*
X117653809Y-38964762D01*
X117510952Y-39012381D01*
X117415714Y-39012381D01*
X118701429Y-38345714D02*
X118701429Y-39012381D01*
X118463333Y-37964762D02*
X118225238Y-38679048D01*
X118844286Y-38679048D01*
X148276667Y-38012381D02*
X148276667Y-38726667D01*
X148229047Y-38869524D01*
X148133809Y-38964762D01*
X147990952Y-39012381D01*
X147895714Y-39012381D01*
X149181429Y-38012381D02*
X148990952Y-38012381D01*
X148895714Y-38060000D01*
X148848095Y-38107619D01*
X148752857Y-38250476D01*
X148705238Y-38440952D01*
X148705238Y-38821905D01*
X148752857Y-38917143D01*
X148800476Y-38964762D01*
X148895714Y-39012381D01*
X149086191Y-39012381D01*
X149181429Y-38964762D01*
X149229048Y-38917143D01*
X149276667Y-38821905D01*
X149276667Y-38583810D01*
X149229048Y-38488571D01*
X149181429Y-38440952D01*
X149086191Y-38393333D01*
X148895714Y-38393333D01*
X148800476Y-38440952D01*
X148752857Y-38488571D01*
X148705238Y-38583810D01*
X152702381Y-47383333D02*
X153416667Y-47383333D01*
X153559524Y-47430953D01*
X153654762Y-47526191D01*
X153702381Y-47669048D01*
X153702381Y-47764286D01*
X152702381Y-47002381D02*
X152702381Y-46335714D01*
X153702381Y-46764286D01*
X127956667Y-38012381D02*
X127956667Y-38726667D01*
X127909047Y-38869524D01*
X127813809Y-38964762D01*
X127670952Y-39012381D01*
X127575714Y-39012381D01*
X128575714Y-38440952D02*
X128480476Y-38393333D01*
X128432857Y-38345714D01*
X128385238Y-38250476D01*
X128385238Y-38202857D01*
X128432857Y-38107619D01*
X128480476Y-38060000D01*
X128575714Y-38012381D01*
X128766191Y-38012381D01*
X128861429Y-38060000D01*
X128909048Y-38107619D01*
X128956667Y-38202857D01*
X128956667Y-38250476D01*
X128909048Y-38345714D01*
X128861429Y-38393333D01*
X128766191Y-38440952D01*
X128575714Y-38440952D01*
X128480476Y-38488571D01*
X128432857Y-38536190D01*
X128385238Y-38631429D01*
X128385238Y-38821905D01*
X128432857Y-38917143D01*
X128480476Y-38964762D01*
X128575714Y-39012381D01*
X128766191Y-39012381D01*
X128861429Y-38964762D01*
X128909048Y-38917143D01*
X128956667Y-38821905D01*
X128956667Y-38631429D01*
X128909048Y-38536190D01*
X128861429Y-38488571D01*
X128766191Y-38440952D01*
X66912381Y-68913333D02*
X67626667Y-68913333D01*
X67769524Y-68960953D01*
X67864762Y-69056191D01*
X67912381Y-69199048D01*
X67912381Y-69294286D01*
X67912381Y-68389524D02*
X67912381Y-68199048D01*
X67864762Y-68103809D01*
X67817143Y-68056190D01*
X67674286Y-67960952D01*
X67483810Y-67913333D01*
X67102857Y-67913333D01*
X67007619Y-67960952D01*
X66960000Y-68008571D01*
X66912381Y-68103809D01*
X66912381Y-68294286D01*
X66960000Y-68389524D01*
X67007619Y-68437143D01*
X67102857Y-68484762D01*
X67340952Y-68484762D01*
X67436190Y-68437143D01*
X67483810Y-68389524D01*
X67531429Y-68294286D01*
X67531429Y-68103809D01*
X67483810Y-68008571D01*
X67436190Y-67960952D01*
X67340952Y-67913333D01*
X104648095Y-106132381D02*
X104648095Y-106941905D01*
X104695714Y-107037143D01*
X104743333Y-107084762D01*
X104838571Y-107132381D01*
X105029048Y-107132381D01*
X105124286Y-107084762D01*
X105171905Y-107037143D01*
X105219524Y-106941905D01*
X105219524Y-106132381D01*
X105600476Y-106132381D02*
X106267143Y-106132381D01*
X105838571Y-107132381D01*
X135342381Y-52831905D02*
X136151905Y-52831905D01*
X136247143Y-52784286D01*
X136294762Y-52736667D01*
X136342381Y-52641429D01*
X136342381Y-52450952D01*
X136294762Y-52355714D01*
X136247143Y-52308095D01*
X136151905Y-52260476D01*
X135342381Y-52260476D01*
X135770952Y-51641429D02*
X135723333Y-51736667D01*
X135675714Y-51784286D01*
X135580476Y-51831905D01*
X135532857Y-51831905D01*
X135437619Y-51784286D01*
X135390000Y-51736667D01*
X135342381Y-51641429D01*
X135342381Y-51450952D01*
X135390000Y-51355714D01*
X135437619Y-51308095D01*
X135532857Y-51260476D01*
X135580476Y-51260476D01*
X135675714Y-51308095D01*
X135723333Y-51355714D01*
X135770952Y-51450952D01*
X135770952Y-51641429D01*
X135818571Y-51736667D01*
X135866190Y-51784286D01*
X135961429Y-51831905D01*
X136151905Y-51831905D01*
X136247143Y-51784286D01*
X136294762Y-51736667D01*
X136342381Y-51641429D01*
X136342381Y-51450952D01*
X136294762Y-51355714D01*
X136247143Y-51308095D01*
X136151905Y-51260476D01*
X135961429Y-51260476D01*
X135866190Y-51308095D01*
X135818571Y-51355714D01*
X135770952Y-51450952D01*
X130048095Y-40727381D02*
X130048095Y-41536905D01*
X130095714Y-41632143D01*
X130143333Y-41679762D01*
X130238571Y-41727381D01*
X130429048Y-41727381D01*
X130524286Y-41679762D01*
X130571905Y-41632143D01*
X130619524Y-41536905D01*
X130619524Y-40727381D01*
X131143333Y-41727381D02*
X131333809Y-41727381D01*
X131429048Y-41679762D01*
X131476667Y-41632143D01*
X131571905Y-41489286D01*
X131619524Y-41298810D01*
X131619524Y-40917857D01*
X131571905Y-40822619D01*
X131524286Y-40775000D01*
X131429048Y-40727381D01*
X131238571Y-40727381D01*
X131143333Y-40775000D01*
X131095714Y-40822619D01*
X131048095Y-40917857D01*
X131048095Y-41155952D01*
X131095714Y-41251190D01*
X131143333Y-41298810D01*
X131238571Y-41346429D01*
X131429048Y-41346429D01*
X131524286Y-41298810D01*
X131571905Y-41251190D01*
X131619524Y-41155952D01*
X111339381Y-49117095D02*
X112148905Y-49117095D01*
X112244143Y-49069476D01*
X112291762Y-49021857D01*
X112339381Y-48926619D01*
X112339381Y-48736142D01*
X112291762Y-48640904D01*
X112244143Y-48593285D01*
X112148905Y-48545666D01*
X111339381Y-48545666D01*
X112339381Y-47545666D02*
X112339381Y-48117095D01*
X112339381Y-47831381D02*
X111339381Y-47831381D01*
X111482238Y-47926619D01*
X111577476Y-48021857D01*
X111625095Y-48117095D01*
X111339381Y-46926619D02*
X111339381Y-46831380D01*
X111387000Y-46736142D01*
X111434619Y-46688523D01*
X111529857Y-46640904D01*
X111720333Y-46593285D01*
X111958429Y-46593285D01*
X112148905Y-46640904D01*
X112244143Y-46688523D01*
X112291762Y-46736142D01*
X112339381Y-46831380D01*
X112339381Y-46926619D01*
X112291762Y-47021857D01*
X112244143Y-47069476D01*
X112148905Y-47117095D01*
X111958429Y-47164714D01*
X111720333Y-47164714D01*
X111529857Y-47117095D01*
X111434619Y-47069476D01*
X111387000Y-47021857D01*
X111339381Y-46926619D01*
X116871905Y-57022381D02*
X116871905Y-57831905D01*
X116919524Y-57927143D01*
X116967143Y-57974762D01*
X117062381Y-58022381D01*
X117252858Y-58022381D01*
X117348096Y-57974762D01*
X117395715Y-57927143D01*
X117443334Y-57831905D01*
X117443334Y-57022381D01*
X118443334Y-58022381D02*
X117871905Y-58022381D01*
X118157619Y-58022381D02*
X118157619Y-57022381D01*
X118062381Y-57165238D01*
X117967143Y-57260476D01*
X117871905Y-57308095D01*
X119395715Y-58022381D02*
X118824286Y-58022381D01*
X119110000Y-58022381D02*
X119110000Y-57022381D01*
X119014762Y-57165238D01*
X118919524Y-57260476D01*
X118824286Y-57308095D01*
X114113334Y-75717143D02*
X114065715Y-75764762D01*
X113922858Y-75812381D01*
X113827620Y-75812381D01*
X113684762Y-75764762D01*
X113589524Y-75669524D01*
X113541905Y-75574286D01*
X113494286Y-75383810D01*
X113494286Y-75240952D01*
X113541905Y-75050476D01*
X113589524Y-74955238D01*
X113684762Y-74860000D01*
X113827620Y-74812381D01*
X113922858Y-74812381D01*
X114065715Y-74860000D01*
X114113334Y-74907619D01*
X114970477Y-75145714D02*
X114970477Y-75812381D01*
X114732381Y-74764762D02*
X114494286Y-75479048D01*
X115113334Y-75479048D01*
X114657143Y-83986666D02*
X114704762Y-84034285D01*
X114752381Y-84177142D01*
X114752381Y-84272380D01*
X114704762Y-84415238D01*
X114609524Y-84510476D01*
X114514286Y-84558095D01*
X114323810Y-84605714D01*
X114180952Y-84605714D01*
X113990476Y-84558095D01*
X113895238Y-84510476D01*
X113800000Y-84415238D01*
X113752381Y-84272380D01*
X113752381Y-84177142D01*
X113800000Y-84034285D01*
X113847619Y-83986666D01*
X114752381Y-83034285D02*
X114752381Y-83605714D01*
X114752381Y-83320000D02*
X113752381Y-83320000D01*
X113895238Y-83415238D01*
X113990476Y-83510476D01*
X114038095Y-83605714D01*
X127357143Y-81446666D02*
X127404762Y-81494285D01*
X127452381Y-81637142D01*
X127452381Y-81732380D01*
X127404762Y-81875238D01*
X127309524Y-81970476D01*
X127214286Y-82018095D01*
X127023810Y-82065714D01*
X126880952Y-82065714D01*
X126690476Y-82018095D01*
X126595238Y-81970476D01*
X126500000Y-81875238D01*
X126452381Y-81732380D01*
X126452381Y-81637142D01*
X126500000Y-81494285D01*
X126547619Y-81446666D01*
X126547619Y-81065714D02*
X126500000Y-81018095D01*
X126452381Y-80922857D01*
X126452381Y-80684761D01*
X126500000Y-80589523D01*
X126547619Y-80541904D01*
X126642857Y-80494285D01*
X126738095Y-80494285D01*
X126880952Y-80541904D01*
X127452381Y-81113333D01*
X127452381Y-80494285D01*
X156567143Y-86526666D02*
X156614762Y-86574285D01*
X156662381Y-86717142D01*
X156662381Y-86812380D01*
X156614762Y-86955238D01*
X156519524Y-87050476D01*
X156424286Y-87098095D01*
X156233810Y-87145714D01*
X156090952Y-87145714D01*
X155900476Y-87098095D01*
X155805238Y-87050476D01*
X155710000Y-86955238D01*
X155662381Y-86812380D01*
X155662381Y-86717142D01*
X155710000Y-86574285D01*
X155757619Y-86526666D01*
X155662381Y-86193333D02*
X155662381Y-85574285D01*
X156043333Y-85907619D01*
X156043333Y-85764761D01*
X156090952Y-85669523D01*
X156138571Y-85621904D01*
X156233810Y-85574285D01*
X156471905Y-85574285D01*
X156567143Y-85621904D01*
X156614762Y-85669523D01*
X156662381Y-85764761D01*
X156662381Y-86050476D01*
X156614762Y-86145714D01*
X156567143Y-86193333D01*
X93067143Y-64936666D02*
X93114762Y-64984285D01*
X93162381Y-65127142D01*
X93162381Y-65222380D01*
X93114762Y-65365238D01*
X93019524Y-65460476D01*
X92924286Y-65508095D01*
X92733810Y-65555714D01*
X92590952Y-65555714D01*
X92400476Y-65508095D01*
X92305238Y-65460476D01*
X92210000Y-65365238D01*
X92162381Y-65222380D01*
X92162381Y-65127142D01*
X92210000Y-64984285D01*
X92257619Y-64936666D01*
X92162381Y-64031904D02*
X92162381Y-64508095D01*
X92638571Y-64555714D01*
X92590952Y-64508095D01*
X92543333Y-64412857D01*
X92543333Y-64174761D01*
X92590952Y-64079523D01*
X92638571Y-64031904D01*
X92733810Y-63984285D01*
X92971905Y-63984285D01*
X93067143Y-64031904D01*
X93114762Y-64079523D01*
X93162381Y-64174761D01*
X93162381Y-64412857D01*
X93114762Y-64508095D01*
X93067143Y-64555714D01*
X96353334Y-93067143D02*
X96305715Y-93114762D01*
X96162858Y-93162381D01*
X96067620Y-93162381D01*
X95924762Y-93114762D01*
X95829524Y-93019524D01*
X95781905Y-92924286D01*
X95734286Y-92733810D01*
X95734286Y-92590952D01*
X95781905Y-92400476D01*
X95829524Y-92305238D01*
X95924762Y-92210000D01*
X96067620Y-92162381D01*
X96162858Y-92162381D01*
X96305715Y-92210000D01*
X96353334Y-92257619D01*
X97210477Y-92162381D02*
X97020000Y-92162381D01*
X96924762Y-92210000D01*
X96877143Y-92257619D01*
X96781905Y-92400476D01*
X96734286Y-92590952D01*
X96734286Y-92971905D01*
X96781905Y-93067143D01*
X96829524Y-93114762D01*
X96924762Y-93162381D01*
X97115239Y-93162381D01*
X97210477Y-93114762D01*
X97258096Y-93067143D01*
X97305715Y-92971905D01*
X97305715Y-92733810D01*
X97258096Y-92638571D01*
X97210477Y-92590952D01*
X97115239Y-92543333D01*
X96924762Y-92543333D01*
X96829524Y-92590952D01*
X96781905Y-92638571D01*
X96734286Y-92733810D01*
X93067143Y-103056666D02*
X93114762Y-103104285D01*
X93162381Y-103247142D01*
X93162381Y-103342380D01*
X93114762Y-103485238D01*
X93019524Y-103580476D01*
X92924286Y-103628095D01*
X92733810Y-103675714D01*
X92590952Y-103675714D01*
X92400476Y-103628095D01*
X92305238Y-103580476D01*
X92210000Y-103485238D01*
X92162381Y-103342380D01*
X92162381Y-103247142D01*
X92210000Y-103104285D01*
X92257619Y-103056666D01*
X92162381Y-102723333D02*
X92162381Y-102056666D01*
X93162381Y-102485238D01*
X140057143Y-83986666D02*
X140104762Y-84034285D01*
X140152381Y-84177142D01*
X140152381Y-84272380D01*
X140104762Y-84415238D01*
X140009524Y-84510476D01*
X139914286Y-84558095D01*
X139723810Y-84605714D01*
X139580952Y-84605714D01*
X139390476Y-84558095D01*
X139295238Y-84510476D01*
X139200000Y-84415238D01*
X139152381Y-84272380D01*
X139152381Y-84177142D01*
X139200000Y-84034285D01*
X139247619Y-83986666D01*
X139580952Y-83415238D02*
X139533333Y-83510476D01*
X139485714Y-83558095D01*
X139390476Y-83605714D01*
X139342857Y-83605714D01*
X139247619Y-83558095D01*
X139200000Y-83510476D01*
X139152381Y-83415238D01*
X139152381Y-83224761D01*
X139200000Y-83129523D01*
X139247619Y-83081904D01*
X139342857Y-83034285D01*
X139390476Y-83034285D01*
X139485714Y-83081904D01*
X139533333Y-83129523D01*
X139580952Y-83224761D01*
X139580952Y-83415238D01*
X139628571Y-83510476D01*
X139676190Y-83558095D01*
X139771429Y-83605714D01*
X139961905Y-83605714D01*
X140057143Y-83558095D01*
X140104762Y-83510476D01*
X140152381Y-83415238D01*
X140152381Y-83224761D01*
X140104762Y-83129523D01*
X140057143Y-83081904D01*
X139961905Y-83034285D01*
X139771429Y-83034285D01*
X139676190Y-83081904D01*
X139628571Y-83129523D01*
X139580952Y-83224761D01*
X139533334Y-49887143D02*
X139485715Y-49934762D01*
X139342858Y-49982381D01*
X139247620Y-49982381D01*
X139104762Y-49934762D01*
X139009524Y-49839524D01*
X138961905Y-49744286D01*
X138914286Y-49553810D01*
X138914286Y-49410952D01*
X138961905Y-49220476D01*
X139009524Y-49125238D01*
X139104762Y-49030000D01*
X139247620Y-48982381D01*
X139342858Y-48982381D01*
X139485715Y-49030000D01*
X139533334Y-49077619D01*
X140009524Y-49982381D02*
X140200000Y-49982381D01*
X140295239Y-49934762D01*
X140342858Y-49887143D01*
X140438096Y-49744286D01*
X140485715Y-49553810D01*
X140485715Y-49172857D01*
X140438096Y-49077619D01*
X140390477Y-49030000D01*
X140295239Y-48982381D01*
X140104762Y-48982381D01*
X140009524Y-49030000D01*
X139961905Y-49077619D01*
X139914286Y-49172857D01*
X139914286Y-49410952D01*
X139961905Y-49506190D01*
X140009524Y-49553810D01*
X140104762Y-49601429D01*
X140295239Y-49601429D01*
X140390477Y-49553810D01*
X140438096Y-49506190D01*
X140485715Y-49410952D01*
X121277143Y-47347143D02*
X121229524Y-47394762D01*
X121086667Y-47442381D01*
X120991429Y-47442381D01*
X120848571Y-47394762D01*
X120753333Y-47299524D01*
X120705714Y-47204286D01*
X120658095Y-47013810D01*
X120658095Y-46870952D01*
X120705714Y-46680476D01*
X120753333Y-46585238D01*
X120848571Y-46490000D01*
X120991429Y-46442381D01*
X121086667Y-46442381D01*
X121229524Y-46490000D01*
X121277143Y-46537619D01*
X122229524Y-47442381D02*
X121658095Y-47442381D01*
X121943809Y-47442381D02*
X121943809Y-46442381D01*
X121848571Y-46585238D01*
X121753333Y-46680476D01*
X121658095Y-46728095D01*
X122848571Y-46442381D02*
X122943810Y-46442381D01*
X123039048Y-46490000D01*
X123086667Y-46537619D01*
X123134286Y-46632857D01*
X123181905Y-46823333D01*
X123181905Y-47061429D01*
X123134286Y-47251905D01*
X123086667Y-47347143D01*
X123039048Y-47394762D01*
X122943810Y-47442381D01*
X122848571Y-47442381D01*
X122753333Y-47394762D01*
X122705714Y-47347143D01*
X122658095Y-47251905D01*
X122610476Y-47061429D01*
X122610476Y-46823333D01*
X122658095Y-46632857D01*
X122705714Y-46537619D01*
X122753333Y-46490000D01*
X122848571Y-46442381D01*
X159424762Y-95492381D02*
X159091428Y-95016190D01*
X158853333Y-95492381D02*
X158853333Y-94492381D01*
X159234286Y-94492381D01*
X159329524Y-94540000D01*
X159377143Y-94587619D01*
X159424762Y-94682857D01*
X159424762Y-94825714D01*
X159377143Y-94920952D01*
X159329524Y-94968571D01*
X159234286Y-95016190D01*
X158853333Y-95016190D01*
X159710476Y-94492381D02*
X160043809Y-95492381D01*
X160377143Y-94492381D01*
X161234286Y-95492381D02*
X160662857Y-95492381D01*
X160948571Y-95492381D02*
X160948571Y-94492381D01*
X160853333Y-94635238D01*
X160758095Y-94730476D01*
X160662857Y-94778095D01*
X107192381Y-57959523D02*
X107906667Y-57959523D01*
X108049524Y-58007143D01*
X108144762Y-58102381D01*
X108192381Y-58245238D01*
X108192381Y-58340476D01*
X108192381Y-56959523D02*
X108192381Y-57530952D01*
X108192381Y-57245238D02*
X107192381Y-57245238D01*
X107335238Y-57340476D01*
X107430476Y-57435714D01*
X107478095Y-57530952D01*
X107192381Y-56340476D02*
X107192381Y-56245237D01*
X107240000Y-56149999D01*
X107287619Y-56102380D01*
X107382857Y-56054761D01*
X107573333Y-56007142D01*
X107811429Y-56007142D01*
X108001905Y-56054761D01*
X108097143Y-56102380D01*
X108144762Y-56149999D01*
X108192381Y-56245237D01*
X108192381Y-56340476D01*
X108144762Y-56435714D01*
X108097143Y-56483333D01*
X108001905Y-56530952D01*
X107811429Y-56578571D01*
X107573333Y-56578571D01*
X107382857Y-56530952D01*
X107287619Y-56483333D01*
X107240000Y-56435714D01*
X107192381Y-56340476D01*
X78446667Y-40512381D02*
X78446667Y-41226667D01*
X78399047Y-41369524D01*
X78303809Y-41464762D01*
X78160952Y-41512381D01*
X78065714Y-41512381D01*
X78827619Y-40512381D02*
X79446667Y-40512381D01*
X79113333Y-40893333D01*
X79256191Y-40893333D01*
X79351429Y-40940952D01*
X79399048Y-40988571D01*
X79446667Y-41083810D01*
X79446667Y-41321905D01*
X79399048Y-41417143D01*
X79351429Y-41464762D01*
X79256191Y-41512381D01*
X78970476Y-41512381D01*
X78875238Y-41464762D01*
X78827619Y-41417143D01*
X106386667Y-40512381D02*
X106386667Y-41226667D01*
X106339047Y-41369524D01*
X106243809Y-41464762D01*
X106100952Y-41512381D01*
X106005714Y-41512381D01*
X107339048Y-40512381D02*
X106862857Y-40512381D01*
X106815238Y-40988571D01*
X106862857Y-40940952D01*
X106958095Y-40893333D01*
X107196191Y-40893333D01*
X107291429Y-40940952D01*
X107339048Y-40988571D01*
X107386667Y-41083810D01*
X107386667Y-41321905D01*
X107339048Y-41417143D01*
X107291429Y-41464762D01*
X107196191Y-41512381D01*
X106958095Y-41512381D01*
X106862857Y-41464762D01*
X106815238Y-41417143D01*
X159258095Y-96972381D02*
X159258095Y-95972381D01*
X159258095Y-96448571D02*
X159829524Y-96448571D01*
X159829524Y-96972381D02*
X159829524Y-95972381D01*
X160829524Y-96972381D02*
X160258095Y-96972381D01*
X160543809Y-96972381D02*
X160543809Y-95972381D01*
X160448571Y-96115238D01*
X160353333Y-96210476D01*
X160258095Y-96258095D01*
X159258095Y-41092381D02*
X159258095Y-40092381D01*
X159258095Y-40568571D02*
X159829524Y-40568571D01*
X159829524Y-41092381D02*
X159829524Y-40092381D01*
X160258095Y-40187619D02*
X160305714Y-40140000D01*
X160400952Y-40092381D01*
X160639048Y-40092381D01*
X160734286Y-40140000D01*
X160781905Y-40187619D01*
X160829524Y-40282857D01*
X160829524Y-40378095D01*
X160781905Y-40520952D01*
X160210476Y-41092381D01*
X160829524Y-41092381D01*
X86963334Y-91892381D02*
X86487143Y-91892381D01*
X86487143Y-90892381D01*
X87296667Y-91892381D02*
X87296667Y-90892381D01*
X87534762Y-90892381D01*
X87677620Y-90940000D01*
X87772858Y-91035238D01*
X87820477Y-91130476D01*
X87868096Y-91320952D01*
X87868096Y-91463810D01*
X87820477Y-91654286D01*
X87772858Y-91749524D01*
X87677620Y-91844762D01*
X87534762Y-91892381D01*
X87296667Y-91892381D01*
X88820477Y-91892381D02*
X88249048Y-91892381D01*
X88534762Y-91892381D02*
X88534762Y-90892381D01*
X88439524Y-91035238D01*
X88344286Y-91130476D01*
X88249048Y-91178095D01*
X81883334Y-91892381D02*
X81407143Y-91892381D01*
X81407143Y-90892381D01*
X82216667Y-91892381D02*
X82216667Y-90892381D01*
X82454762Y-90892381D01*
X82597620Y-90940000D01*
X82692858Y-91035238D01*
X82740477Y-91130476D01*
X82788096Y-91320952D01*
X82788096Y-91463810D01*
X82740477Y-91654286D01*
X82692858Y-91749524D01*
X82597620Y-91844762D01*
X82454762Y-91892381D01*
X82216667Y-91892381D01*
X83169048Y-90987619D02*
X83216667Y-90940000D01*
X83311905Y-90892381D01*
X83550001Y-90892381D01*
X83645239Y-90940000D01*
X83692858Y-90987619D01*
X83740477Y-91082857D01*
X83740477Y-91178095D01*
X83692858Y-91320952D01*
X83121429Y-91892381D01*
X83740477Y-91892381D01*
X76803334Y-91892381D02*
X76327143Y-91892381D01*
X76327143Y-90892381D01*
X77136667Y-91892381D02*
X77136667Y-90892381D01*
X77374762Y-90892381D01*
X77517620Y-90940000D01*
X77612858Y-91035238D01*
X77660477Y-91130476D01*
X77708096Y-91320952D01*
X77708096Y-91463810D01*
X77660477Y-91654286D01*
X77612858Y-91749524D01*
X77517620Y-91844762D01*
X77374762Y-91892381D01*
X77136667Y-91892381D01*
X78041429Y-90892381D02*
X78660477Y-90892381D01*
X78327143Y-91273333D01*
X78470001Y-91273333D01*
X78565239Y-91320952D01*
X78612858Y-91368571D01*
X78660477Y-91463810D01*
X78660477Y-91701905D01*
X78612858Y-91797143D01*
X78565239Y-91844762D01*
X78470001Y-91892381D01*
X78184286Y-91892381D01*
X78089048Y-91844762D01*
X78041429Y-91797143D01*
X137640477Y-40512381D02*
X137640477Y-41226667D01*
X137592857Y-41369524D01*
X137497619Y-41464762D01*
X137354762Y-41512381D01*
X137259524Y-41512381D01*
X138640477Y-41512381D02*
X138069048Y-41512381D01*
X138354762Y-41512381D02*
X138354762Y-40512381D01*
X138259524Y-40655238D01*
X138164286Y-40750476D01*
X138069048Y-40798095D01*
X138973810Y-40512381D02*
X139592858Y-40512381D01*
X139259524Y-40893333D01*
X139402382Y-40893333D01*
X139497620Y-40940952D01*
X139545239Y-40988571D01*
X139592858Y-41083810D01*
X139592858Y-41321905D01*
X139545239Y-41417143D01*
X139497620Y-41464762D01*
X139402382Y-41512381D01*
X139116667Y-41512381D01*
X139021429Y-41464762D01*
X138973810Y-41417143D01*
X99572381Y-42719523D02*
X100286667Y-42719523D01*
X100429524Y-42767143D01*
X100524762Y-42862381D01*
X100572381Y-43005238D01*
X100572381Y-43100476D01*
X100572381Y-41719523D02*
X100572381Y-42290952D01*
X100572381Y-42005238D02*
X99572381Y-42005238D01*
X99715238Y-42100476D01*
X99810476Y-42195714D01*
X99858095Y-42290952D01*
X99667619Y-41338571D02*
X99620000Y-41290952D01*
X99572381Y-41195714D01*
X99572381Y-40957618D01*
X99620000Y-40862380D01*
X99667619Y-40814761D01*
X99762857Y-40767142D01*
X99858095Y-40767142D01*
X100000952Y-40814761D01*
X100572381Y-41386190D01*
X100572381Y-40767142D01*
M02*
