G04 #@! TF.FileFunction,Paste,Top*
%FSLAX46Y46*%
G04 Gerber Fmt 4.6, Leading zero omitted, Abs format (unit mm)*
G04 Created by KiCad (PCBNEW 4.0.7) date 03/01/18 23:30:02*
%MOMM*%
%LPD*%
G01*
G04 APERTURE LIST*
%ADD10C,0.100000*%
%ADD11R,1.250000X1.500000*%
%ADD12R,0.600000X0.500000*%
%ADD13R,0.500000X0.600000*%
%ADD14R,0.900000X0.800000*%
%ADD15R,2.100000X1.800000*%
%ADD16R,2.200000X1.200000*%
%ADD17R,3.050000X2.750000*%
%ADD18R,2.032000X1.524000*%
%ADD19R,1.000000X0.250000*%
%ADD20R,0.250000X1.000000*%
%ADD21R,2.000000X1.200000*%
%ADD22R,1.500000X1.250000*%
G04 APERTURE END LIST*
D10*
D11*
X121285000Y-73680000D03*
X121285000Y-76180000D03*
D12*
X123275000Y-73025000D03*
X124375000Y-73025000D03*
X126450000Y-60325000D03*
X127550000Y-60325000D03*
X115485000Y-73025000D03*
X114385000Y-73025000D03*
D13*
X114300000Y-56430000D03*
X114300000Y-55330000D03*
X109855000Y-61045000D03*
X109855000Y-62145000D03*
D14*
X94504000Y-42992000D03*
X94504000Y-44892000D03*
X96504000Y-43942000D03*
D15*
X104595000Y-65285000D03*
X107495000Y-65285000D03*
X107495000Y-62985000D03*
X104595000Y-62985000D03*
D16*
X127880000Y-48520000D03*
X127880000Y-50800000D03*
X127880000Y-53080000D03*
D17*
X135855000Y-52325000D03*
X132505000Y-49275000D03*
X135855000Y-49275000D03*
X132505000Y-52325000D03*
D18*
X119380000Y-52070000D03*
X119380000Y-49530000D03*
X119380000Y-46990000D03*
X119380000Y-44450000D03*
X111760000Y-44450000D03*
X111760000Y-46990000D03*
X111760000Y-49530000D03*
X111760000Y-52070000D03*
D19*
X112410000Y-61020000D03*
X112410000Y-61520000D03*
X112410000Y-62020000D03*
X112410000Y-62520000D03*
X112410000Y-63020000D03*
X112410000Y-63520000D03*
X112410000Y-64020000D03*
X112410000Y-64520000D03*
X112410000Y-65020000D03*
X112410000Y-65520000D03*
X112410000Y-66020000D03*
X112410000Y-66520000D03*
X112410000Y-67020000D03*
X112410000Y-67520000D03*
X112410000Y-68020000D03*
X112410000Y-68520000D03*
D20*
X114360000Y-70470000D03*
X114860000Y-70470000D03*
X115360000Y-70470000D03*
X115860000Y-70470000D03*
X116360000Y-70470000D03*
X116860000Y-70470000D03*
X117360000Y-70470000D03*
X117860000Y-70470000D03*
X118360000Y-70470000D03*
X118860000Y-70470000D03*
X119360000Y-70470000D03*
X119860000Y-70470000D03*
X120360000Y-70470000D03*
X120860000Y-70470000D03*
X121360000Y-70470000D03*
X121860000Y-70470000D03*
D19*
X123810000Y-68520000D03*
X123810000Y-68020000D03*
X123810000Y-67520000D03*
X123810000Y-67020000D03*
X123810000Y-66520000D03*
X123810000Y-66020000D03*
X123810000Y-65520000D03*
X123810000Y-65020000D03*
X123810000Y-64520000D03*
X123810000Y-64020000D03*
X123810000Y-63520000D03*
X123810000Y-63020000D03*
X123810000Y-62520000D03*
X123810000Y-62020000D03*
X123810000Y-61520000D03*
X123810000Y-61020000D03*
D20*
X121860000Y-59070000D03*
X121360000Y-59070000D03*
X120860000Y-59070000D03*
X120360000Y-59070000D03*
X119860000Y-59070000D03*
X119360000Y-59070000D03*
X118860000Y-59070000D03*
X118360000Y-59070000D03*
X117860000Y-59070000D03*
X117360000Y-59070000D03*
X116860000Y-59070000D03*
X116360000Y-59070000D03*
X115860000Y-59070000D03*
X115360000Y-59070000D03*
X114860000Y-59070000D03*
X114360000Y-59070000D03*
D21*
X107890000Y-45720000D03*
X107890000Y-43180000D03*
X100390000Y-43180000D03*
X100390000Y-45720000D03*
D22*
X127020000Y-62230000D03*
X129520000Y-62230000D03*
D13*
X109855000Y-66590000D03*
X109855000Y-65490000D03*
D11*
X124460000Y-53320000D03*
X124460000Y-50820000D03*
M02*
