G04 #@! TF.FileFunction,Soldermask,Bot*
%FSLAX46Y46*%
G04 Gerber Fmt 4.6, Leading zero omitted, Abs format (unit mm)*
G04 Created by KiCad (PCBNEW 4.0.7) date 02/11/18 18:38:28*
%MOMM*%
%LPD*%
G01*
G04 APERTURE LIST*
%ADD10C,0.100000*%
%ADD11C,2.000000*%
%ADD12R,1.600000X1.600000*%
%ADD13O,1.600000X1.600000*%
%ADD14C,1.524000*%
%ADD15C,4.572000*%
%ADD16C,4.762500*%
%ADD17C,1.600000*%
%ADD18R,2.800000X2.800000*%
%ADD19C,2.800000*%
%ADD20R,1.900000X1.900000*%
%ADD21C,1.900000*%
%ADD22C,1.300000*%
%ADD23R,2.400000X2.400000*%
%ADD24O,2.400000X2.400000*%
%ADD25C,2.400000*%
%ADD26C,1.400000*%
%ADD27O,1.400000X1.400000*%
G04 APERTURE END LIST*
D10*
D11*
X71561000Y-61957000D03*
X79061000Y-61957000D03*
X71561000Y-56957000D03*
X79061000Y-56957000D03*
X71561000Y-36957000D03*
X79061000Y-36957000D03*
X45399000Y-61957000D03*
X52899000Y-61957000D03*
X45399000Y-56957000D03*
X52899000Y-56957000D03*
X45399000Y-36957000D03*
X52899000Y-36957000D03*
D12*
X183007000Y-76200000D03*
D13*
X175387000Y-58420000D03*
X183007000Y-73660000D03*
X175387000Y-60960000D03*
X183007000Y-71120000D03*
X175387000Y-63500000D03*
X183007000Y-68580000D03*
X175387000Y-66040000D03*
X183007000Y-66040000D03*
X175387000Y-68580000D03*
X183007000Y-63500000D03*
X175387000Y-71120000D03*
X183007000Y-60960000D03*
X175387000Y-73660000D03*
X183007000Y-58420000D03*
X175387000Y-76200000D03*
X90297000Y-96520000D03*
X92837000Y-96520000D03*
X95377000Y-96520000D03*
X115697000Y-96520000D03*
X115697000Y-81280000D03*
X110617000Y-81280000D03*
X95377000Y-81280000D03*
X92837000Y-81280000D03*
D14*
X27559000Y-41783000D03*
X27559000Y-51943000D03*
X27559000Y-59563000D03*
X37719000Y-41783000D03*
X37719000Y-51943000D03*
X37719000Y-59563000D03*
D15*
X96647000Y-69469000D03*
X96647000Y-62484000D03*
X96647000Y-56134000D03*
X96647000Y-49149000D03*
X147447000Y-69469000D03*
X147447000Y-59309000D03*
X147447000Y-49149000D03*
D16*
X105537000Y-43180000D03*
X122047000Y-75438000D03*
X105537000Y-75438000D03*
X138557000Y-75438000D03*
X122047000Y-43180000D03*
X138557000Y-43180000D03*
D17*
X198247000Y-96520000D03*
D13*
X198247000Y-86360000D03*
D17*
X167767000Y-90170000D03*
D13*
X177927000Y-90170000D03*
D17*
X161417000Y-95250000D03*
D13*
X151257000Y-95250000D03*
D17*
X191897000Y-90170000D03*
D13*
X181737000Y-90170000D03*
D17*
X188087000Y-67310000D03*
D13*
X188087000Y-57150000D03*
D17*
X188087000Y-52070000D03*
D13*
X188087000Y-41910000D03*
D17*
X198882000Y-55245000D03*
D13*
X198882000Y-65405000D03*
D17*
X193167000Y-52070000D03*
D13*
X193167000Y-41910000D03*
D18*
X72009000Y-72263000D03*
D19*
X77509000Y-72263000D03*
D20*
X169037000Y-68580000D03*
D21*
X169037000Y-66080000D03*
D22*
X170377000Y-67330000D03*
D20*
X169037000Y-59690000D03*
D21*
X169037000Y-57190000D03*
D22*
X170377000Y-58440000D03*
D20*
X145288000Y-86995000D03*
D21*
X145288000Y-84495000D03*
D22*
X146628000Y-85745000D03*
D20*
X28956000Y-90297000D03*
D21*
X28956000Y-92797000D03*
D22*
X27616000Y-91547000D03*
D18*
X30480000Y-70358000D03*
D19*
X24980000Y-70358000D03*
D20*
X169037000Y-50800000D03*
D21*
X169037000Y-48300000D03*
X169037000Y-45800000D03*
X169037000Y-43300000D03*
D22*
X170377000Y-47050000D03*
D18*
X30353000Y-80137000D03*
D19*
X24853000Y-80137000D03*
D23*
X181737000Y-95250000D03*
D24*
X194437000Y-95250000D03*
D23*
X165227000Y-95250000D03*
D24*
X177927000Y-95250000D03*
D23*
X193167000Y-55880000D03*
D24*
X193167000Y-68580000D03*
D23*
X198882000Y-51435000D03*
D24*
X198882000Y-38735000D03*
D12*
X128397000Y-91440000D03*
D17*
X128397000Y-93940000D03*
D23*
X77597000Y-86360000D03*
D25*
X77597000Y-93860000D03*
D23*
X58547000Y-86360000D03*
D25*
X58547000Y-93860000D03*
D12*
X156337000Y-60960000D03*
D17*
X156337000Y-63460000D03*
D12*
X88011000Y-53086000D03*
D17*
X88011000Y-55586000D03*
X90297000Y-43180000D03*
X90297000Y-48180000D03*
X153797000Y-43180000D03*
X153797000Y-48180000D03*
X90297000Y-71120000D03*
X90297000Y-76120000D03*
X153797000Y-71120000D03*
X153797000Y-76120000D03*
D20*
X190627000Y-78740000D03*
D21*
X188127000Y-78740000D03*
D22*
X189377000Y-77400000D03*
D18*
X61849000Y-62738000D03*
D19*
X61849000Y-57238000D03*
D26*
X61722000Y-50165000D03*
D27*
X61722000Y-52065000D03*
M02*
