M48
;DRILL file {KiCad 4.0.7} date 02/11/18 18:38:30
;FORMAT={-:-/ absolute / metric / decimal}
FMAT,2
METRIC,TZ
T1C0.700
T2C0.762
T3C0.800
T4C1.200
T5C1.300
T6C1.400
T7C2.032
T8C3.264
%
G90
G05
M71
T1
X61.722Y-50.165
X61.722Y-52.065
T2
X27.559Y-41.783
X27.559Y-51.943
X27.559Y-59.563
X37.719Y-41.783
X37.719Y-51.943
X37.719Y-59.563
T3
X88.011Y-53.086
X88.011Y-55.586
X90.297Y-43.18
X90.297Y-48.18
X90.297Y-71.12
X90.297Y-76.12
X90.297Y-96.52
X92.837Y-81.28
X92.837Y-96.52
X95.377Y-81.28
X95.377Y-96.52
X110.617Y-81.28
X115.697Y-81.28
X115.697Y-96.52
X128.397Y-91.44
X128.397Y-93.94
X151.257Y-95.25
X153.797Y-43.18
X153.797Y-48.18
X153.797Y-71.12
X153.797Y-76.12
X156.337Y-60.96
X156.337Y-63.46
X161.417Y-95.25
X167.767Y-90.17
X175.387Y-58.42
X175.387Y-60.96
X175.387Y-63.5
X175.387Y-66.04
X175.387Y-68.58
X175.387Y-71.12
X175.387Y-73.66
X175.387Y-76.2
X177.927Y-90.17
X181.737Y-90.17
X183.007Y-58.42
X183.007Y-60.96
X183.007Y-63.5
X183.007Y-66.04
X183.007Y-68.58
X183.007Y-71.12
X183.007Y-73.66
X183.007Y-76.2
X188.087Y-41.91
X188.087Y-52.07
X188.087Y-57.15
X188.087Y-67.31
X191.897Y-90.17
X193.167Y-41.91
X193.167Y-52.07
X198.247Y-86.36
X198.247Y-96.52
X198.882Y-55.245
X198.882Y-65.405
T4
X28.956Y-90.297
X28.956Y-92.797
X58.547Y-86.36
X58.547Y-93.86
X77.597Y-86.36
X77.597Y-93.86
X145.288Y-84.495
X145.288Y-86.995
X165.227Y-95.25
X169.037Y-43.3
X169.037Y-45.8
X169.037Y-48.3
X169.037Y-50.8
X169.037Y-57.19
X169.037Y-59.69
X169.037Y-66.08
X169.037Y-68.58
X177.927Y-95.25
X181.737Y-95.25
X188.127Y-78.74
X190.627Y-78.74
X193.167Y-55.88
X193.167Y-68.58
X194.437Y-95.25
X198.882Y-38.735
X198.882Y-51.435
T5
X45.399Y-36.957
X45.399Y-56.957
X45.399Y-61.957
X52.899Y-36.957
X52.899Y-56.957
X52.899Y-61.957
X71.561Y-36.957
X71.561Y-56.957
X71.561Y-61.957
X79.061Y-36.957
X79.061Y-56.957
X79.061Y-61.957
T6
X24.853Y-80.137
X24.98Y-70.358
X30.353Y-80.137
X30.48Y-70.358
X61.849Y-57.238
X61.849Y-62.738
X72.009Y-72.263
X77.509Y-72.263
T7
X96.647Y-49.149
X96.647Y-56.134
X96.647Y-62.484
X96.647Y-69.469
X147.447Y-49.149
X147.447Y-59.309
X147.447Y-69.469
T8
X105.537Y-43.18
X105.537Y-75.438
X122.047Y-43.18
X122.047Y-75.438
X138.557Y-43.18
X138.557Y-75.438
T0
M30
