M48
;DRILL file {KiCad 4.0.7} date 03/04/18 13:02:18
;FORMAT={-:-/ absolute / inch / decimal}
FMAT,2
INCH,TZ
T1C0.016
T2C0.030
T3C0.031
T4C0.035
T5C0.039
T6C0.047
T7C0.061
T8C0.098
%
G90
G05
M72
T1
X4.835Y-3.507
X4.907Y-3.433
X4.91Y-4.459
X5.005Y-4.521
X5.034Y-3.2
X5.099Y-3.434
X5.148Y-3.076
X5.178Y-3.357
X5.2358Y-2.5079
X5.6194Y-2.4366
X6.6331Y-2.3439
X6.6331Y-2.6439
X6.7061Y-2.4453
X6.925Y-3.413
X7.281Y-2.15
X7.761Y-2.363
X7.845Y-2.444
T2
X5.22Y-3.48
X5.22Y-3.88
X5.22Y-4.125
X5.22Y-4.525
X5.62Y-3.48
X5.62Y-3.88
X5.62Y-4.125
X5.62Y-4.525
X5.92Y-3.48
X5.92Y-3.88
X5.92Y-4.125
X5.92Y-4.525
T3
X4.95Y-2.55
X4.9516Y-3.35
X5.0484Y-2.55
X5.05Y-3.35
X5.255Y-2.58
X5.255Y-2.68
X5.255Y-2.78
X5.255Y-2.88
X5.255Y-2.98
X5.255Y-3.08
X5.255Y-3.18
X5.255Y-3.28
X5.555Y-2.58
X5.555Y-2.68
X5.555Y-2.78
X5.555Y-2.88
X5.555Y-2.98
X5.555Y-3.08
X5.555Y-3.18
X5.555Y-3.28
X5.69Y-2.12
X5.69Y-2.52
X5.8Y-2.8
X5.8Y-3.
X5.8Y-3.2
X5.95Y-2.195
X5.95Y-2.2934
X6.2Y-2.8
X6.2Y-3.
X6.2Y-3.2
X6.25Y-3.475
X6.4Y-2.8
X6.4Y-3.
X6.55Y-3.2
X6.55Y-3.2984
X6.65Y-3.475
X6.8Y-2.8
X6.8Y-3.
X7.2Y-3.475
X7.3Y-3.2
X7.3Y-3.2984
X7.6Y-3.475
X8.225Y-2.8
X8.225Y-2.975
X8.29Y-2.22
X8.29Y-2.62
X8.44Y-2.22
X8.44Y-2.62
X8.625Y-2.8
X8.625Y-2.975
T4
X7.075Y-2.675
X7.075Y-2.85
X7.075Y-3.025
X7.475Y-2.675
X7.475Y-2.85
X7.475Y-3.025
X7.65Y-2.625
X7.65Y-2.8
X7.65Y-2.975
X8.05Y-2.625
X8.05Y-2.8
X8.05Y-2.975
T5
X6.125Y-3.65
X6.125Y-3.85
X6.125Y-4.3
X6.125Y-4.5
X6.825Y-3.15
X6.925Y-3.15
X7.025Y-3.15
T6
X4.95Y-2.8
X4.95Y-2.8984
X4.95Y-2.9969
X4.95Y-3.0953
X4.95Y-3.6
X4.95Y-3.6984
X5.0484Y-2.8
X5.0484Y-2.8984
X5.0484Y-2.9969
X5.0484Y-3.0953
X5.0484Y-3.6
X5.0484Y-3.6984
X6.2047Y-2.25
X6.2047Y-2.3484
X6.3031Y-2.25
X6.3031Y-2.3484
X6.4016Y-2.25
X6.4016Y-2.3484
X6.5Y-2.25
X6.5Y-2.3484
X6.7531Y-2.25
X6.7531Y-2.3484
X6.8516Y-2.25
X6.8516Y-2.3484
X6.95Y-2.25
X6.95Y-2.3484
X7.2031Y-2.25
X7.3016Y-2.25
X7.4Y-2.25
X7.6516Y-2.25
X7.75Y-2.25
X8.0016Y-2.25
X8.1Y-2.25
T7
X6.8281Y-4.0587
X7.0427Y-4.0587
X8.1198Y-4.0674
X8.1198Y-4.2426
X8.3698Y-4.0674
X8.3698Y-4.2426
T8
X6.925Y-3.8059
T0
M30
