G04 #@! TF.FileFunction,Soldermask,Bot*
%FSLAX46Y46*%
G04 Gerber Fmt 4.6, Leading zero omitted, Abs format (unit mm)*
G04 Created by KiCad (PCBNEW 4.0.7) date 03/04/18 13:02:16*
%MOMM*%
%LPD*%
G01*
G04 APERTURE LIST*
%ADD10C,0.100000*%
%ADD11C,4.500000*%
%ADD12C,1.600000*%
%ADD13O,1.600000X1.600000*%
%ADD14R,1.800000X1.800000*%
%ADD15O,1.800000X1.800000*%
%ADD16R,1.900000X1.900000*%
%ADD17C,1.900000*%
%ADD18C,1.300000*%
%ADD19R,1.600000X1.600000*%
%ADD20C,2.790000*%
%ADD21C,3.120000*%
%ADD22R,10.000000X7.000000*%
%ADD23C,1.524000*%
G04 APERTURE END LIST*
D10*
D11*
X221996000Y-56388000D03*
D12*
X157480000Y-71120000D03*
D13*
X147320000Y-71120000D03*
D12*
X172720000Y-71120000D03*
D13*
X162560000Y-71120000D03*
D12*
X193040000Y-88265000D03*
D13*
X182880000Y-88265000D03*
D12*
X219075000Y-71120000D03*
D13*
X208915000Y-71120000D03*
D12*
X168910000Y-88265000D03*
D13*
X158750000Y-88265000D03*
D12*
X157480000Y-76200000D03*
D13*
X147320000Y-76200000D03*
D12*
X172720000Y-76200000D03*
D13*
X162560000Y-76200000D03*
D12*
X214376000Y-56388000D03*
D13*
X214376000Y-66548000D03*
D12*
X157480000Y-81280000D03*
D13*
X147320000Y-81280000D03*
D12*
X208915000Y-75565000D03*
D13*
X219075000Y-75565000D03*
D12*
X210566000Y-56388000D03*
D13*
X210566000Y-66548000D03*
D12*
X144526000Y-53848000D03*
D13*
X144526000Y-64008000D03*
D14*
X189865000Y-67945000D03*
D15*
X179705000Y-67945000D03*
D14*
X204470000Y-66675000D03*
D15*
X194310000Y-66675000D03*
D14*
X189865000Y-72390000D03*
D15*
X179705000Y-72390000D03*
D14*
X204470000Y-71120000D03*
D15*
X194310000Y-71120000D03*
D14*
X189865000Y-76835000D03*
D15*
X179705000Y-76835000D03*
D14*
X204470000Y-75565000D03*
D15*
X194310000Y-75565000D03*
D16*
X125730000Y-91440000D03*
D17*
X125730000Y-93940000D03*
X128230000Y-91440000D03*
X128230000Y-93940000D03*
D18*
X124390000Y-92690000D03*
D19*
X166370000Y-81280000D03*
D12*
X166370000Y-83780000D03*
D19*
X185420000Y-81280000D03*
D12*
X185420000Y-83780000D03*
D19*
X125730000Y-64770000D03*
D12*
X128230000Y-64770000D03*
D19*
X128270000Y-85090000D03*
D12*
X125770000Y-85090000D03*
D19*
X151130000Y-55753000D03*
D12*
X151130000Y-58253000D03*
D11*
X125476000Y-122428000D03*
X125476000Y-56388000D03*
D20*
X185315000Y-96980000D03*
X185315000Y-110490000D03*
X167005000Y-96980000D03*
D21*
X173435000Y-103090000D03*
X178885000Y-103090000D03*
D20*
X167005000Y-110490000D03*
D22*
X175895000Y-96670000D03*
D14*
X178435000Y-80010000D03*
D15*
X175895000Y-80010000D03*
X173355000Y-80010000D03*
D20*
X207264000Y-114187000D03*
X207264000Y-96887000D03*
D21*
X212594000Y-103312000D03*
X212594000Y-107762000D03*
X206244000Y-103312000D03*
X206244000Y-107762000D03*
D20*
X218694000Y-105537000D03*
D23*
X132588000Y-114935000D03*
X142748000Y-114935000D03*
X150368000Y-114935000D03*
X132588000Y-104775000D03*
X142748000Y-104775000D03*
X150368000Y-104775000D03*
X132588000Y-98552000D03*
X142748000Y-98552000D03*
X150368000Y-98552000D03*
X132588000Y-88392000D03*
X142748000Y-88392000D03*
X150368000Y-88392000D03*
D19*
X141097000Y-83312000D03*
D13*
X133477000Y-65532000D03*
X141097000Y-80772000D03*
X133477000Y-68072000D03*
X141097000Y-78232000D03*
X133477000Y-70612000D03*
X141097000Y-75692000D03*
X133477000Y-73152000D03*
X141097000Y-73152000D03*
X133477000Y-75692000D03*
X141097000Y-70612000D03*
X133477000Y-78232000D03*
X141097000Y-68072000D03*
X133477000Y-80772000D03*
X141097000Y-65532000D03*
X133477000Y-83312000D03*
D16*
X205740000Y-57150000D03*
D17*
X203240000Y-57150000D03*
D18*
X204490000Y-55810000D03*
D16*
X187960000Y-57150000D03*
D17*
X185460000Y-57150000D03*
X182960000Y-57150000D03*
D18*
X186710000Y-55810000D03*
D16*
X176530000Y-57150000D03*
D17*
X174030000Y-57150000D03*
X171530000Y-57150000D03*
X176530000Y-59650000D03*
X174030000Y-59650000D03*
X171530000Y-59650000D03*
D18*
X175280000Y-55810000D03*
D16*
X165100000Y-57150000D03*
D17*
X162600000Y-57150000D03*
X160100000Y-57150000D03*
X157600000Y-57150000D03*
X165100000Y-59650000D03*
X162600000Y-59650000D03*
X160100000Y-59650000D03*
X157600000Y-59650000D03*
D18*
X161350000Y-55810000D03*
D16*
X125730000Y-71120000D03*
D17*
X125730000Y-73620000D03*
X125730000Y-76120000D03*
X125730000Y-78620000D03*
X128230000Y-71120000D03*
X128230000Y-73620000D03*
X128230000Y-76120000D03*
X128230000Y-78620000D03*
D18*
X124390000Y-74870000D03*
D14*
X155575000Y-97790000D03*
D15*
X155575000Y-92710000D03*
D14*
X155575000Y-114300000D03*
D15*
X155575000Y-109220000D03*
D16*
X196850000Y-57150000D03*
D17*
X194350000Y-57150000D03*
D18*
X195600000Y-55810000D03*
M02*
