G04 #@! TF.FileFunction,Legend,Top*
%FSLAX46Y46*%
G04 Gerber Fmt 4.6, Leading zero omitted, Abs format (unit mm)*
G04 Created by KiCad (PCBNEW 4.0.7) date 03/04/18 13:02:16*
%MOMM*%
%LPD*%
G01*
G04 APERTURE LIST*
%ADD10C,0.100000*%
%ADD11C,0.200000*%
%ADD12C,0.120000*%
%ADD13C,0.150000*%
G04 APERTURE END LIST*
D10*
D11*
X140500000Y-51943000D02*
X134100000Y-51943000D01*
X134100000Y-124383000D02*
X134100000Y-51943000D01*
X200837000Y-124383000D02*
X134100000Y-124383000D01*
X200837000Y-84759000D02*
X200837000Y-124383000D01*
X226949000Y-84759000D02*
X200837000Y-84759000D01*
X226949000Y-78359000D02*
X226949000Y-84759000D01*
X194437000Y-78359000D02*
X226949000Y-78359000D01*
X194437000Y-117983000D02*
X194437000Y-78359000D01*
X140500000Y-117983000D02*
X194437000Y-117983000D01*
X140500000Y-51943000D02*
X140500000Y-117983000D01*
D12*
X155610000Y-72430000D02*
X155610000Y-69810000D01*
X155610000Y-69810000D02*
X149190000Y-69810000D01*
X149190000Y-69810000D02*
X149190000Y-72430000D01*
X149190000Y-72430000D02*
X155610000Y-72430000D01*
X156500000Y-71120000D02*
X155610000Y-71120000D01*
X148300000Y-71120000D02*
X149190000Y-71120000D01*
X170850000Y-72430000D02*
X170850000Y-69810000D01*
X170850000Y-69810000D02*
X164430000Y-69810000D01*
X164430000Y-69810000D02*
X164430000Y-72430000D01*
X164430000Y-72430000D02*
X170850000Y-72430000D01*
X171740000Y-71120000D02*
X170850000Y-71120000D01*
X163540000Y-71120000D02*
X164430000Y-71120000D01*
X191170000Y-89575000D02*
X191170000Y-86955000D01*
X191170000Y-86955000D02*
X184750000Y-86955000D01*
X184750000Y-86955000D02*
X184750000Y-89575000D01*
X184750000Y-89575000D02*
X191170000Y-89575000D01*
X192060000Y-88265000D02*
X191170000Y-88265000D01*
X183860000Y-88265000D02*
X184750000Y-88265000D01*
X217205000Y-72430000D02*
X217205000Y-69810000D01*
X217205000Y-69810000D02*
X210785000Y-69810000D01*
X210785000Y-69810000D02*
X210785000Y-72430000D01*
X210785000Y-72430000D02*
X217205000Y-72430000D01*
X218095000Y-71120000D02*
X217205000Y-71120000D01*
X209895000Y-71120000D02*
X210785000Y-71120000D01*
X167040000Y-89575000D02*
X167040000Y-86955000D01*
X167040000Y-86955000D02*
X160620000Y-86955000D01*
X160620000Y-86955000D02*
X160620000Y-89575000D01*
X160620000Y-89575000D02*
X167040000Y-89575000D01*
X167930000Y-88265000D02*
X167040000Y-88265000D01*
X159730000Y-88265000D02*
X160620000Y-88265000D01*
X155610000Y-77510000D02*
X155610000Y-74890000D01*
X155610000Y-74890000D02*
X149190000Y-74890000D01*
X149190000Y-74890000D02*
X149190000Y-77510000D01*
X149190000Y-77510000D02*
X155610000Y-77510000D01*
X156500000Y-76200000D02*
X155610000Y-76200000D01*
X148300000Y-76200000D02*
X149190000Y-76200000D01*
X170850000Y-77510000D02*
X170850000Y-74890000D01*
X170850000Y-74890000D02*
X164430000Y-74890000D01*
X164430000Y-74890000D02*
X164430000Y-77510000D01*
X164430000Y-77510000D02*
X170850000Y-77510000D01*
X171740000Y-76200000D02*
X170850000Y-76200000D01*
X163540000Y-76200000D02*
X164430000Y-76200000D01*
X215686000Y-58258000D02*
X213066000Y-58258000D01*
X213066000Y-58258000D02*
X213066000Y-64678000D01*
X213066000Y-64678000D02*
X215686000Y-64678000D01*
X215686000Y-64678000D02*
X215686000Y-58258000D01*
X214376000Y-57368000D02*
X214376000Y-58258000D01*
X214376000Y-65568000D02*
X214376000Y-64678000D01*
X155610000Y-82590000D02*
X155610000Y-79970000D01*
X155610000Y-79970000D02*
X149190000Y-79970000D01*
X149190000Y-79970000D02*
X149190000Y-82590000D01*
X149190000Y-82590000D02*
X155610000Y-82590000D01*
X156500000Y-81280000D02*
X155610000Y-81280000D01*
X148300000Y-81280000D02*
X149190000Y-81280000D01*
X210785000Y-74255000D02*
X210785000Y-76875000D01*
X210785000Y-76875000D02*
X217205000Y-76875000D01*
X217205000Y-76875000D02*
X217205000Y-74255000D01*
X217205000Y-74255000D02*
X210785000Y-74255000D01*
X209895000Y-75565000D02*
X210785000Y-75565000D01*
X218095000Y-75565000D02*
X217205000Y-75565000D01*
X211876000Y-58258000D02*
X209256000Y-58258000D01*
X209256000Y-58258000D02*
X209256000Y-64678000D01*
X209256000Y-64678000D02*
X211876000Y-64678000D01*
X211876000Y-64678000D02*
X211876000Y-58258000D01*
X210566000Y-57368000D02*
X210566000Y-58258000D01*
X210566000Y-65568000D02*
X210566000Y-64678000D01*
X145836000Y-55718000D02*
X143216000Y-55718000D01*
X143216000Y-55718000D02*
X143216000Y-62138000D01*
X143216000Y-62138000D02*
X145836000Y-62138000D01*
X145836000Y-62138000D02*
X145836000Y-55718000D01*
X144526000Y-54828000D02*
X144526000Y-55718000D01*
X144526000Y-63028000D02*
X144526000Y-62138000D01*
X187445000Y-69355000D02*
X187445000Y-66535000D01*
X187445000Y-66535000D02*
X182125000Y-66535000D01*
X182125000Y-66535000D02*
X182125000Y-69355000D01*
X182125000Y-69355000D02*
X187445000Y-69355000D01*
X188785000Y-67945000D02*
X187445000Y-67945000D01*
X180785000Y-67945000D02*
X182125000Y-67945000D01*
X186605000Y-69355000D02*
X186605000Y-66535000D01*
X202050000Y-68085000D02*
X202050000Y-65265000D01*
X202050000Y-65265000D02*
X196730000Y-65265000D01*
X196730000Y-65265000D02*
X196730000Y-68085000D01*
X196730000Y-68085000D02*
X202050000Y-68085000D01*
X203390000Y-66675000D02*
X202050000Y-66675000D01*
X195390000Y-66675000D02*
X196730000Y-66675000D01*
X201210000Y-68085000D02*
X201210000Y-65265000D01*
X187445000Y-73800000D02*
X187445000Y-70980000D01*
X187445000Y-70980000D02*
X182125000Y-70980000D01*
X182125000Y-70980000D02*
X182125000Y-73800000D01*
X182125000Y-73800000D02*
X187445000Y-73800000D01*
X188785000Y-72390000D02*
X187445000Y-72390000D01*
X180785000Y-72390000D02*
X182125000Y-72390000D01*
X186605000Y-73800000D02*
X186605000Y-70980000D01*
X202050000Y-72530000D02*
X202050000Y-69710000D01*
X202050000Y-69710000D02*
X196730000Y-69710000D01*
X196730000Y-69710000D02*
X196730000Y-72530000D01*
X196730000Y-72530000D02*
X202050000Y-72530000D01*
X203390000Y-71120000D02*
X202050000Y-71120000D01*
X195390000Y-71120000D02*
X196730000Y-71120000D01*
X201210000Y-72530000D02*
X201210000Y-69710000D01*
X187445000Y-78245000D02*
X187445000Y-75425000D01*
X187445000Y-75425000D02*
X182125000Y-75425000D01*
X182125000Y-75425000D02*
X182125000Y-78245000D01*
X182125000Y-78245000D02*
X187445000Y-78245000D01*
X188785000Y-76835000D02*
X187445000Y-76835000D01*
X180785000Y-76835000D02*
X182125000Y-76835000D01*
X186605000Y-78245000D02*
X186605000Y-75425000D01*
X202050000Y-76975000D02*
X202050000Y-74155000D01*
X202050000Y-74155000D02*
X196730000Y-74155000D01*
X196730000Y-74155000D02*
X196730000Y-76975000D01*
X196730000Y-76975000D02*
X202050000Y-76975000D01*
X203390000Y-75565000D02*
X202050000Y-75565000D01*
X195390000Y-75565000D02*
X196730000Y-75565000D01*
X201210000Y-76975000D02*
X201210000Y-74155000D01*
X130120000Y-92690000D02*
X130120000Y-89570000D01*
X130120000Y-89570000D02*
X123840000Y-89570000D01*
X123840000Y-89570000D02*
X123840000Y-89940000D01*
X123840000Y-89940000D02*
X120980000Y-89940000D01*
X120980000Y-89940000D02*
X120980000Y-92690000D01*
X130120000Y-92690000D02*
X130120000Y-95810000D01*
X130120000Y-95810000D02*
X123840000Y-95810000D01*
X123840000Y-95810000D02*
X123840000Y-95440000D01*
X123840000Y-95440000D02*
X120980000Y-95440000D01*
X120980000Y-95440000D02*
X120980000Y-92690000D01*
X125730000Y-89220000D02*
X125430000Y-88620000D01*
X125430000Y-88620000D02*
X126030000Y-88620000D01*
X126030000Y-88620000D02*
X125730000Y-89220000D01*
X167549723Y-84835722D02*
G75*
G03X167550000Y-80224420I-1179723J2305722D01*
G01*
X165190277Y-84835722D02*
G75*
G02X165190000Y-80224420I1179723J2305722D01*
G01*
X165190277Y-84835722D02*
G75*
G03X167550000Y-84835580I1179723J2305722D01*
G01*
X168920000Y-82530000D02*
X163820000Y-82530000D01*
X168920000Y-82570000D02*
X163820000Y-82570000D01*
X168919000Y-82610000D02*
X163821000Y-82610000D01*
X168918000Y-82650000D02*
X163822000Y-82650000D01*
X168916000Y-82690000D02*
X163824000Y-82690000D01*
X168913000Y-82730000D02*
X163827000Y-82730000D01*
X168909000Y-82770000D02*
X163831000Y-82770000D01*
X168905000Y-82810000D02*
X167350000Y-82810000D01*
X165390000Y-82810000D02*
X163835000Y-82810000D01*
X168901000Y-82850000D02*
X167350000Y-82850000D01*
X165390000Y-82850000D02*
X163839000Y-82850000D01*
X168895000Y-82890000D02*
X167350000Y-82890000D01*
X165390000Y-82890000D02*
X163845000Y-82890000D01*
X168889000Y-82930000D02*
X167350000Y-82930000D01*
X165390000Y-82930000D02*
X163851000Y-82930000D01*
X168883000Y-82970000D02*
X167350000Y-82970000D01*
X165390000Y-82970000D02*
X163857000Y-82970000D01*
X168876000Y-83010000D02*
X167350000Y-83010000D01*
X165390000Y-83010000D02*
X163864000Y-83010000D01*
X168868000Y-83050000D02*
X167350000Y-83050000D01*
X165390000Y-83050000D02*
X163872000Y-83050000D01*
X168859000Y-83090000D02*
X167350000Y-83090000D01*
X165390000Y-83090000D02*
X163881000Y-83090000D01*
X168850000Y-83130000D02*
X167350000Y-83130000D01*
X165390000Y-83130000D02*
X163890000Y-83130000D01*
X168840000Y-83170000D02*
X167350000Y-83170000D01*
X165390000Y-83170000D02*
X163900000Y-83170000D01*
X168830000Y-83210000D02*
X167350000Y-83210000D01*
X165390000Y-83210000D02*
X163910000Y-83210000D01*
X168818000Y-83251000D02*
X167350000Y-83251000D01*
X165390000Y-83251000D02*
X163922000Y-83251000D01*
X168806000Y-83291000D02*
X167350000Y-83291000D01*
X165390000Y-83291000D02*
X163934000Y-83291000D01*
X168794000Y-83331000D02*
X167350000Y-83331000D01*
X165390000Y-83331000D02*
X163946000Y-83331000D01*
X168780000Y-83371000D02*
X167350000Y-83371000D01*
X165390000Y-83371000D02*
X163960000Y-83371000D01*
X168766000Y-83411000D02*
X167350000Y-83411000D01*
X165390000Y-83411000D02*
X163974000Y-83411000D01*
X168752000Y-83451000D02*
X167350000Y-83451000D01*
X165390000Y-83451000D02*
X163988000Y-83451000D01*
X168736000Y-83491000D02*
X167350000Y-83491000D01*
X165390000Y-83491000D02*
X164004000Y-83491000D01*
X168720000Y-83531000D02*
X167350000Y-83531000D01*
X165390000Y-83531000D02*
X164020000Y-83531000D01*
X168703000Y-83571000D02*
X167350000Y-83571000D01*
X165390000Y-83571000D02*
X164037000Y-83571000D01*
X168685000Y-83611000D02*
X167350000Y-83611000D01*
X165390000Y-83611000D02*
X164055000Y-83611000D01*
X168666000Y-83651000D02*
X167350000Y-83651000D01*
X165390000Y-83651000D02*
X164074000Y-83651000D01*
X168646000Y-83691000D02*
X167350000Y-83691000D01*
X165390000Y-83691000D02*
X164094000Y-83691000D01*
X168626000Y-83731000D02*
X167350000Y-83731000D01*
X165390000Y-83731000D02*
X164114000Y-83731000D01*
X168604000Y-83771000D02*
X167350000Y-83771000D01*
X165390000Y-83771000D02*
X164136000Y-83771000D01*
X168582000Y-83811000D02*
X167350000Y-83811000D01*
X165390000Y-83811000D02*
X164158000Y-83811000D01*
X168559000Y-83851000D02*
X167350000Y-83851000D01*
X165390000Y-83851000D02*
X164181000Y-83851000D01*
X168535000Y-83891000D02*
X167350000Y-83891000D01*
X165390000Y-83891000D02*
X164205000Y-83891000D01*
X168510000Y-83931000D02*
X167350000Y-83931000D01*
X165390000Y-83931000D02*
X164230000Y-83931000D01*
X168483000Y-83971000D02*
X167350000Y-83971000D01*
X165390000Y-83971000D02*
X164257000Y-83971000D01*
X168456000Y-84011000D02*
X167350000Y-84011000D01*
X165390000Y-84011000D02*
X164284000Y-84011000D01*
X168428000Y-84051000D02*
X167350000Y-84051000D01*
X165390000Y-84051000D02*
X164312000Y-84051000D01*
X168398000Y-84091000D02*
X167350000Y-84091000D01*
X165390000Y-84091000D02*
X164342000Y-84091000D01*
X168367000Y-84131000D02*
X167350000Y-84131000D01*
X165390000Y-84131000D02*
X164373000Y-84131000D01*
X168335000Y-84171000D02*
X167350000Y-84171000D01*
X165390000Y-84171000D02*
X164405000Y-84171000D01*
X168302000Y-84211000D02*
X167350000Y-84211000D01*
X165390000Y-84211000D02*
X164438000Y-84211000D01*
X168267000Y-84251000D02*
X167350000Y-84251000D01*
X165390000Y-84251000D02*
X164473000Y-84251000D01*
X168231000Y-84291000D02*
X167350000Y-84291000D01*
X165390000Y-84291000D02*
X164509000Y-84291000D01*
X168193000Y-84331000D02*
X167350000Y-84331000D01*
X165390000Y-84331000D02*
X164547000Y-84331000D01*
X168153000Y-84371000D02*
X167350000Y-84371000D01*
X165390000Y-84371000D02*
X164587000Y-84371000D01*
X168112000Y-84411000D02*
X167350000Y-84411000D01*
X165390000Y-84411000D02*
X164628000Y-84411000D01*
X168069000Y-84451000D02*
X167350000Y-84451000D01*
X165390000Y-84451000D02*
X164671000Y-84451000D01*
X168024000Y-84491000D02*
X167350000Y-84491000D01*
X165390000Y-84491000D02*
X164716000Y-84491000D01*
X167976000Y-84531000D02*
X167350000Y-84531000D01*
X165390000Y-84531000D02*
X164764000Y-84531000D01*
X167926000Y-84571000D02*
X167350000Y-84571000D01*
X165390000Y-84571000D02*
X164814000Y-84571000D01*
X167874000Y-84611000D02*
X167350000Y-84611000D01*
X165390000Y-84611000D02*
X164866000Y-84611000D01*
X167818000Y-84651000D02*
X167350000Y-84651000D01*
X165390000Y-84651000D02*
X164922000Y-84651000D01*
X167760000Y-84691000D02*
X167350000Y-84691000D01*
X165390000Y-84691000D02*
X164980000Y-84691000D01*
X167697000Y-84731000D02*
X167350000Y-84731000D01*
X165390000Y-84731000D02*
X165043000Y-84731000D01*
X167631000Y-84771000D02*
X165109000Y-84771000D01*
X167559000Y-84811000D02*
X165181000Y-84811000D01*
X167482000Y-84851000D02*
X165258000Y-84851000D01*
X167398000Y-84891000D02*
X165342000Y-84891000D01*
X167304000Y-84931000D02*
X165436000Y-84931000D01*
X167199000Y-84971000D02*
X165541000Y-84971000D01*
X167077000Y-85011000D02*
X165663000Y-85011000D01*
X166929000Y-85051000D02*
X165811000Y-85051000D01*
X166724000Y-85091000D02*
X166016000Y-85091000D01*
X166370000Y-79080000D02*
X166370000Y-80280000D01*
X167020000Y-79680000D02*
X165720000Y-79680000D01*
X186599723Y-84835722D02*
G75*
G03X186600000Y-80224420I-1179723J2305722D01*
G01*
X184240277Y-84835722D02*
G75*
G02X184240000Y-80224420I1179723J2305722D01*
G01*
X184240277Y-84835722D02*
G75*
G03X186600000Y-84835580I1179723J2305722D01*
G01*
X187970000Y-82530000D02*
X182870000Y-82530000D01*
X187970000Y-82570000D02*
X182870000Y-82570000D01*
X187969000Y-82610000D02*
X182871000Y-82610000D01*
X187968000Y-82650000D02*
X182872000Y-82650000D01*
X187966000Y-82690000D02*
X182874000Y-82690000D01*
X187963000Y-82730000D02*
X182877000Y-82730000D01*
X187959000Y-82770000D02*
X182881000Y-82770000D01*
X187955000Y-82810000D02*
X186400000Y-82810000D01*
X184440000Y-82810000D02*
X182885000Y-82810000D01*
X187951000Y-82850000D02*
X186400000Y-82850000D01*
X184440000Y-82850000D02*
X182889000Y-82850000D01*
X187945000Y-82890000D02*
X186400000Y-82890000D01*
X184440000Y-82890000D02*
X182895000Y-82890000D01*
X187939000Y-82930000D02*
X186400000Y-82930000D01*
X184440000Y-82930000D02*
X182901000Y-82930000D01*
X187933000Y-82970000D02*
X186400000Y-82970000D01*
X184440000Y-82970000D02*
X182907000Y-82970000D01*
X187926000Y-83010000D02*
X186400000Y-83010000D01*
X184440000Y-83010000D02*
X182914000Y-83010000D01*
X187918000Y-83050000D02*
X186400000Y-83050000D01*
X184440000Y-83050000D02*
X182922000Y-83050000D01*
X187909000Y-83090000D02*
X186400000Y-83090000D01*
X184440000Y-83090000D02*
X182931000Y-83090000D01*
X187900000Y-83130000D02*
X186400000Y-83130000D01*
X184440000Y-83130000D02*
X182940000Y-83130000D01*
X187890000Y-83170000D02*
X186400000Y-83170000D01*
X184440000Y-83170000D02*
X182950000Y-83170000D01*
X187880000Y-83210000D02*
X186400000Y-83210000D01*
X184440000Y-83210000D02*
X182960000Y-83210000D01*
X187868000Y-83251000D02*
X186400000Y-83251000D01*
X184440000Y-83251000D02*
X182972000Y-83251000D01*
X187856000Y-83291000D02*
X186400000Y-83291000D01*
X184440000Y-83291000D02*
X182984000Y-83291000D01*
X187844000Y-83331000D02*
X186400000Y-83331000D01*
X184440000Y-83331000D02*
X182996000Y-83331000D01*
X187830000Y-83371000D02*
X186400000Y-83371000D01*
X184440000Y-83371000D02*
X183010000Y-83371000D01*
X187816000Y-83411000D02*
X186400000Y-83411000D01*
X184440000Y-83411000D02*
X183024000Y-83411000D01*
X187802000Y-83451000D02*
X186400000Y-83451000D01*
X184440000Y-83451000D02*
X183038000Y-83451000D01*
X187786000Y-83491000D02*
X186400000Y-83491000D01*
X184440000Y-83491000D02*
X183054000Y-83491000D01*
X187770000Y-83531000D02*
X186400000Y-83531000D01*
X184440000Y-83531000D02*
X183070000Y-83531000D01*
X187753000Y-83571000D02*
X186400000Y-83571000D01*
X184440000Y-83571000D02*
X183087000Y-83571000D01*
X187735000Y-83611000D02*
X186400000Y-83611000D01*
X184440000Y-83611000D02*
X183105000Y-83611000D01*
X187716000Y-83651000D02*
X186400000Y-83651000D01*
X184440000Y-83651000D02*
X183124000Y-83651000D01*
X187696000Y-83691000D02*
X186400000Y-83691000D01*
X184440000Y-83691000D02*
X183144000Y-83691000D01*
X187676000Y-83731000D02*
X186400000Y-83731000D01*
X184440000Y-83731000D02*
X183164000Y-83731000D01*
X187654000Y-83771000D02*
X186400000Y-83771000D01*
X184440000Y-83771000D02*
X183186000Y-83771000D01*
X187632000Y-83811000D02*
X186400000Y-83811000D01*
X184440000Y-83811000D02*
X183208000Y-83811000D01*
X187609000Y-83851000D02*
X186400000Y-83851000D01*
X184440000Y-83851000D02*
X183231000Y-83851000D01*
X187585000Y-83891000D02*
X186400000Y-83891000D01*
X184440000Y-83891000D02*
X183255000Y-83891000D01*
X187560000Y-83931000D02*
X186400000Y-83931000D01*
X184440000Y-83931000D02*
X183280000Y-83931000D01*
X187533000Y-83971000D02*
X186400000Y-83971000D01*
X184440000Y-83971000D02*
X183307000Y-83971000D01*
X187506000Y-84011000D02*
X186400000Y-84011000D01*
X184440000Y-84011000D02*
X183334000Y-84011000D01*
X187478000Y-84051000D02*
X186400000Y-84051000D01*
X184440000Y-84051000D02*
X183362000Y-84051000D01*
X187448000Y-84091000D02*
X186400000Y-84091000D01*
X184440000Y-84091000D02*
X183392000Y-84091000D01*
X187417000Y-84131000D02*
X186400000Y-84131000D01*
X184440000Y-84131000D02*
X183423000Y-84131000D01*
X187385000Y-84171000D02*
X186400000Y-84171000D01*
X184440000Y-84171000D02*
X183455000Y-84171000D01*
X187352000Y-84211000D02*
X186400000Y-84211000D01*
X184440000Y-84211000D02*
X183488000Y-84211000D01*
X187317000Y-84251000D02*
X186400000Y-84251000D01*
X184440000Y-84251000D02*
X183523000Y-84251000D01*
X187281000Y-84291000D02*
X186400000Y-84291000D01*
X184440000Y-84291000D02*
X183559000Y-84291000D01*
X187243000Y-84331000D02*
X186400000Y-84331000D01*
X184440000Y-84331000D02*
X183597000Y-84331000D01*
X187203000Y-84371000D02*
X186400000Y-84371000D01*
X184440000Y-84371000D02*
X183637000Y-84371000D01*
X187162000Y-84411000D02*
X186400000Y-84411000D01*
X184440000Y-84411000D02*
X183678000Y-84411000D01*
X187119000Y-84451000D02*
X186400000Y-84451000D01*
X184440000Y-84451000D02*
X183721000Y-84451000D01*
X187074000Y-84491000D02*
X186400000Y-84491000D01*
X184440000Y-84491000D02*
X183766000Y-84491000D01*
X187026000Y-84531000D02*
X186400000Y-84531000D01*
X184440000Y-84531000D02*
X183814000Y-84531000D01*
X186976000Y-84571000D02*
X186400000Y-84571000D01*
X184440000Y-84571000D02*
X183864000Y-84571000D01*
X186924000Y-84611000D02*
X186400000Y-84611000D01*
X184440000Y-84611000D02*
X183916000Y-84611000D01*
X186868000Y-84651000D02*
X186400000Y-84651000D01*
X184440000Y-84651000D02*
X183972000Y-84651000D01*
X186810000Y-84691000D02*
X186400000Y-84691000D01*
X184440000Y-84691000D02*
X184030000Y-84691000D01*
X186747000Y-84731000D02*
X186400000Y-84731000D01*
X184440000Y-84731000D02*
X184093000Y-84731000D01*
X186681000Y-84771000D02*
X184159000Y-84771000D01*
X186609000Y-84811000D02*
X184231000Y-84811000D01*
X186532000Y-84851000D02*
X184308000Y-84851000D01*
X186448000Y-84891000D02*
X184392000Y-84891000D01*
X186354000Y-84931000D02*
X184486000Y-84931000D01*
X186249000Y-84971000D02*
X184591000Y-84971000D01*
X186127000Y-85011000D02*
X184713000Y-85011000D01*
X185979000Y-85051000D02*
X184861000Y-85051000D01*
X185774000Y-85091000D02*
X185066000Y-85091000D01*
X185420000Y-79080000D02*
X185420000Y-80280000D01*
X186070000Y-79680000D02*
X184770000Y-79680000D01*
X129285722Y-63590277D02*
G75*
G03X124674420Y-63590000I-2305722J-1179723D01*
G01*
X129285722Y-65949723D02*
G75*
G02X124674420Y-65950000I-2305722J1179723D01*
G01*
X129285722Y-65949723D02*
G75*
G03X129285580Y-63590000I-2305722J1179723D01*
G01*
X126980000Y-62220000D02*
X126980000Y-67320000D01*
X127020000Y-62220000D02*
X127020000Y-67320000D01*
X127060000Y-62221000D02*
X127060000Y-67319000D01*
X127100000Y-62222000D02*
X127100000Y-67318000D01*
X127140000Y-62224000D02*
X127140000Y-67316000D01*
X127180000Y-62227000D02*
X127180000Y-67313000D01*
X127220000Y-62231000D02*
X127220000Y-67309000D01*
X127260000Y-62235000D02*
X127260000Y-63790000D01*
X127260000Y-65750000D02*
X127260000Y-67305000D01*
X127300000Y-62239000D02*
X127300000Y-63790000D01*
X127300000Y-65750000D02*
X127300000Y-67301000D01*
X127340000Y-62245000D02*
X127340000Y-63790000D01*
X127340000Y-65750000D02*
X127340000Y-67295000D01*
X127380000Y-62251000D02*
X127380000Y-63790000D01*
X127380000Y-65750000D02*
X127380000Y-67289000D01*
X127420000Y-62257000D02*
X127420000Y-63790000D01*
X127420000Y-65750000D02*
X127420000Y-67283000D01*
X127460000Y-62264000D02*
X127460000Y-63790000D01*
X127460000Y-65750000D02*
X127460000Y-67276000D01*
X127500000Y-62272000D02*
X127500000Y-63790000D01*
X127500000Y-65750000D02*
X127500000Y-67268000D01*
X127540000Y-62281000D02*
X127540000Y-63790000D01*
X127540000Y-65750000D02*
X127540000Y-67259000D01*
X127580000Y-62290000D02*
X127580000Y-63790000D01*
X127580000Y-65750000D02*
X127580000Y-67250000D01*
X127620000Y-62300000D02*
X127620000Y-63790000D01*
X127620000Y-65750000D02*
X127620000Y-67240000D01*
X127660000Y-62310000D02*
X127660000Y-63790000D01*
X127660000Y-65750000D02*
X127660000Y-67230000D01*
X127701000Y-62322000D02*
X127701000Y-63790000D01*
X127701000Y-65750000D02*
X127701000Y-67218000D01*
X127741000Y-62334000D02*
X127741000Y-63790000D01*
X127741000Y-65750000D02*
X127741000Y-67206000D01*
X127781000Y-62346000D02*
X127781000Y-63790000D01*
X127781000Y-65750000D02*
X127781000Y-67194000D01*
X127821000Y-62360000D02*
X127821000Y-63790000D01*
X127821000Y-65750000D02*
X127821000Y-67180000D01*
X127861000Y-62374000D02*
X127861000Y-63790000D01*
X127861000Y-65750000D02*
X127861000Y-67166000D01*
X127901000Y-62388000D02*
X127901000Y-63790000D01*
X127901000Y-65750000D02*
X127901000Y-67152000D01*
X127941000Y-62404000D02*
X127941000Y-63790000D01*
X127941000Y-65750000D02*
X127941000Y-67136000D01*
X127981000Y-62420000D02*
X127981000Y-63790000D01*
X127981000Y-65750000D02*
X127981000Y-67120000D01*
X128021000Y-62437000D02*
X128021000Y-63790000D01*
X128021000Y-65750000D02*
X128021000Y-67103000D01*
X128061000Y-62455000D02*
X128061000Y-63790000D01*
X128061000Y-65750000D02*
X128061000Y-67085000D01*
X128101000Y-62474000D02*
X128101000Y-63790000D01*
X128101000Y-65750000D02*
X128101000Y-67066000D01*
X128141000Y-62494000D02*
X128141000Y-63790000D01*
X128141000Y-65750000D02*
X128141000Y-67046000D01*
X128181000Y-62514000D02*
X128181000Y-63790000D01*
X128181000Y-65750000D02*
X128181000Y-67026000D01*
X128221000Y-62536000D02*
X128221000Y-63790000D01*
X128221000Y-65750000D02*
X128221000Y-67004000D01*
X128261000Y-62558000D02*
X128261000Y-63790000D01*
X128261000Y-65750000D02*
X128261000Y-66982000D01*
X128301000Y-62581000D02*
X128301000Y-63790000D01*
X128301000Y-65750000D02*
X128301000Y-66959000D01*
X128341000Y-62605000D02*
X128341000Y-63790000D01*
X128341000Y-65750000D02*
X128341000Y-66935000D01*
X128381000Y-62630000D02*
X128381000Y-63790000D01*
X128381000Y-65750000D02*
X128381000Y-66910000D01*
X128421000Y-62657000D02*
X128421000Y-63790000D01*
X128421000Y-65750000D02*
X128421000Y-66883000D01*
X128461000Y-62684000D02*
X128461000Y-63790000D01*
X128461000Y-65750000D02*
X128461000Y-66856000D01*
X128501000Y-62712000D02*
X128501000Y-63790000D01*
X128501000Y-65750000D02*
X128501000Y-66828000D01*
X128541000Y-62742000D02*
X128541000Y-63790000D01*
X128541000Y-65750000D02*
X128541000Y-66798000D01*
X128581000Y-62773000D02*
X128581000Y-63790000D01*
X128581000Y-65750000D02*
X128581000Y-66767000D01*
X128621000Y-62805000D02*
X128621000Y-63790000D01*
X128621000Y-65750000D02*
X128621000Y-66735000D01*
X128661000Y-62838000D02*
X128661000Y-63790000D01*
X128661000Y-65750000D02*
X128661000Y-66702000D01*
X128701000Y-62873000D02*
X128701000Y-63790000D01*
X128701000Y-65750000D02*
X128701000Y-66667000D01*
X128741000Y-62909000D02*
X128741000Y-63790000D01*
X128741000Y-65750000D02*
X128741000Y-66631000D01*
X128781000Y-62947000D02*
X128781000Y-63790000D01*
X128781000Y-65750000D02*
X128781000Y-66593000D01*
X128821000Y-62987000D02*
X128821000Y-63790000D01*
X128821000Y-65750000D02*
X128821000Y-66553000D01*
X128861000Y-63028000D02*
X128861000Y-63790000D01*
X128861000Y-65750000D02*
X128861000Y-66512000D01*
X128901000Y-63071000D02*
X128901000Y-63790000D01*
X128901000Y-65750000D02*
X128901000Y-66469000D01*
X128941000Y-63116000D02*
X128941000Y-63790000D01*
X128941000Y-65750000D02*
X128941000Y-66424000D01*
X128981000Y-63164000D02*
X128981000Y-63790000D01*
X128981000Y-65750000D02*
X128981000Y-66376000D01*
X129021000Y-63214000D02*
X129021000Y-63790000D01*
X129021000Y-65750000D02*
X129021000Y-66326000D01*
X129061000Y-63266000D02*
X129061000Y-63790000D01*
X129061000Y-65750000D02*
X129061000Y-66274000D01*
X129101000Y-63322000D02*
X129101000Y-63790000D01*
X129101000Y-65750000D02*
X129101000Y-66218000D01*
X129141000Y-63380000D02*
X129141000Y-63790000D01*
X129141000Y-65750000D02*
X129141000Y-66160000D01*
X129181000Y-63443000D02*
X129181000Y-63790000D01*
X129181000Y-65750000D02*
X129181000Y-66097000D01*
X129221000Y-63509000D02*
X129221000Y-66031000D01*
X129261000Y-63581000D02*
X129261000Y-65959000D01*
X129301000Y-63658000D02*
X129301000Y-65882000D01*
X129341000Y-63742000D02*
X129341000Y-65798000D01*
X129381000Y-63836000D02*
X129381000Y-65704000D01*
X129421000Y-63941000D02*
X129421000Y-65599000D01*
X129461000Y-64063000D02*
X129461000Y-65477000D01*
X129501000Y-64211000D02*
X129501000Y-65329000D01*
X129541000Y-64416000D02*
X129541000Y-65124000D01*
X123530000Y-64770000D02*
X124730000Y-64770000D01*
X124130000Y-64120000D02*
X124130000Y-65420000D01*
X124714278Y-86269723D02*
G75*
G03X129325580Y-86270000I2305722J1179723D01*
G01*
X124714278Y-83910277D02*
G75*
G02X129325580Y-83910000I2305722J-1179723D01*
G01*
X124714278Y-83910277D02*
G75*
G03X124714420Y-86270000I2305722J-1179723D01*
G01*
X127020000Y-87640000D02*
X127020000Y-82540000D01*
X126980000Y-87640000D02*
X126980000Y-82540000D01*
X126940000Y-87639000D02*
X126940000Y-82541000D01*
X126900000Y-87638000D02*
X126900000Y-82542000D01*
X126860000Y-87636000D02*
X126860000Y-82544000D01*
X126820000Y-87633000D02*
X126820000Y-82547000D01*
X126780000Y-87629000D02*
X126780000Y-82551000D01*
X126740000Y-87625000D02*
X126740000Y-86070000D01*
X126740000Y-84110000D02*
X126740000Y-82555000D01*
X126700000Y-87621000D02*
X126700000Y-86070000D01*
X126700000Y-84110000D02*
X126700000Y-82559000D01*
X126660000Y-87615000D02*
X126660000Y-86070000D01*
X126660000Y-84110000D02*
X126660000Y-82565000D01*
X126620000Y-87609000D02*
X126620000Y-86070000D01*
X126620000Y-84110000D02*
X126620000Y-82571000D01*
X126580000Y-87603000D02*
X126580000Y-86070000D01*
X126580000Y-84110000D02*
X126580000Y-82577000D01*
X126540000Y-87596000D02*
X126540000Y-86070000D01*
X126540000Y-84110000D02*
X126540000Y-82584000D01*
X126500000Y-87588000D02*
X126500000Y-86070000D01*
X126500000Y-84110000D02*
X126500000Y-82592000D01*
X126460000Y-87579000D02*
X126460000Y-86070000D01*
X126460000Y-84110000D02*
X126460000Y-82601000D01*
X126420000Y-87570000D02*
X126420000Y-86070000D01*
X126420000Y-84110000D02*
X126420000Y-82610000D01*
X126380000Y-87560000D02*
X126380000Y-86070000D01*
X126380000Y-84110000D02*
X126380000Y-82620000D01*
X126340000Y-87550000D02*
X126340000Y-86070000D01*
X126340000Y-84110000D02*
X126340000Y-82630000D01*
X126299000Y-87538000D02*
X126299000Y-86070000D01*
X126299000Y-84110000D02*
X126299000Y-82642000D01*
X126259000Y-87526000D02*
X126259000Y-86070000D01*
X126259000Y-84110000D02*
X126259000Y-82654000D01*
X126219000Y-87514000D02*
X126219000Y-86070000D01*
X126219000Y-84110000D02*
X126219000Y-82666000D01*
X126179000Y-87500000D02*
X126179000Y-86070000D01*
X126179000Y-84110000D02*
X126179000Y-82680000D01*
X126139000Y-87486000D02*
X126139000Y-86070000D01*
X126139000Y-84110000D02*
X126139000Y-82694000D01*
X126099000Y-87472000D02*
X126099000Y-86070000D01*
X126099000Y-84110000D02*
X126099000Y-82708000D01*
X126059000Y-87456000D02*
X126059000Y-86070000D01*
X126059000Y-84110000D02*
X126059000Y-82724000D01*
X126019000Y-87440000D02*
X126019000Y-86070000D01*
X126019000Y-84110000D02*
X126019000Y-82740000D01*
X125979000Y-87423000D02*
X125979000Y-86070000D01*
X125979000Y-84110000D02*
X125979000Y-82757000D01*
X125939000Y-87405000D02*
X125939000Y-86070000D01*
X125939000Y-84110000D02*
X125939000Y-82775000D01*
X125899000Y-87386000D02*
X125899000Y-86070000D01*
X125899000Y-84110000D02*
X125899000Y-82794000D01*
X125859000Y-87366000D02*
X125859000Y-86070000D01*
X125859000Y-84110000D02*
X125859000Y-82814000D01*
X125819000Y-87346000D02*
X125819000Y-86070000D01*
X125819000Y-84110000D02*
X125819000Y-82834000D01*
X125779000Y-87324000D02*
X125779000Y-86070000D01*
X125779000Y-84110000D02*
X125779000Y-82856000D01*
X125739000Y-87302000D02*
X125739000Y-86070000D01*
X125739000Y-84110000D02*
X125739000Y-82878000D01*
X125699000Y-87279000D02*
X125699000Y-86070000D01*
X125699000Y-84110000D02*
X125699000Y-82901000D01*
X125659000Y-87255000D02*
X125659000Y-86070000D01*
X125659000Y-84110000D02*
X125659000Y-82925000D01*
X125619000Y-87230000D02*
X125619000Y-86070000D01*
X125619000Y-84110000D02*
X125619000Y-82950000D01*
X125579000Y-87203000D02*
X125579000Y-86070000D01*
X125579000Y-84110000D02*
X125579000Y-82977000D01*
X125539000Y-87176000D02*
X125539000Y-86070000D01*
X125539000Y-84110000D02*
X125539000Y-83004000D01*
X125499000Y-87148000D02*
X125499000Y-86070000D01*
X125499000Y-84110000D02*
X125499000Y-83032000D01*
X125459000Y-87118000D02*
X125459000Y-86070000D01*
X125459000Y-84110000D02*
X125459000Y-83062000D01*
X125419000Y-87087000D02*
X125419000Y-86070000D01*
X125419000Y-84110000D02*
X125419000Y-83093000D01*
X125379000Y-87055000D02*
X125379000Y-86070000D01*
X125379000Y-84110000D02*
X125379000Y-83125000D01*
X125339000Y-87022000D02*
X125339000Y-86070000D01*
X125339000Y-84110000D02*
X125339000Y-83158000D01*
X125299000Y-86987000D02*
X125299000Y-86070000D01*
X125299000Y-84110000D02*
X125299000Y-83193000D01*
X125259000Y-86951000D02*
X125259000Y-86070000D01*
X125259000Y-84110000D02*
X125259000Y-83229000D01*
X125219000Y-86913000D02*
X125219000Y-86070000D01*
X125219000Y-84110000D02*
X125219000Y-83267000D01*
X125179000Y-86873000D02*
X125179000Y-86070000D01*
X125179000Y-84110000D02*
X125179000Y-83307000D01*
X125139000Y-86832000D02*
X125139000Y-86070000D01*
X125139000Y-84110000D02*
X125139000Y-83348000D01*
X125099000Y-86789000D02*
X125099000Y-86070000D01*
X125099000Y-84110000D02*
X125099000Y-83391000D01*
X125059000Y-86744000D02*
X125059000Y-86070000D01*
X125059000Y-84110000D02*
X125059000Y-83436000D01*
X125019000Y-86696000D02*
X125019000Y-86070000D01*
X125019000Y-84110000D02*
X125019000Y-83484000D01*
X124979000Y-86646000D02*
X124979000Y-86070000D01*
X124979000Y-84110000D02*
X124979000Y-83534000D01*
X124939000Y-86594000D02*
X124939000Y-86070000D01*
X124939000Y-84110000D02*
X124939000Y-83586000D01*
X124899000Y-86538000D02*
X124899000Y-86070000D01*
X124899000Y-84110000D02*
X124899000Y-83642000D01*
X124859000Y-86480000D02*
X124859000Y-86070000D01*
X124859000Y-84110000D02*
X124859000Y-83700000D01*
X124819000Y-86417000D02*
X124819000Y-86070000D01*
X124819000Y-84110000D02*
X124819000Y-83763000D01*
X124779000Y-86351000D02*
X124779000Y-83829000D01*
X124739000Y-86279000D02*
X124739000Y-83901000D01*
X124699000Y-86202000D02*
X124699000Y-83978000D01*
X124659000Y-86118000D02*
X124659000Y-84062000D01*
X124619000Y-86024000D02*
X124619000Y-84156000D01*
X124579000Y-85919000D02*
X124579000Y-84261000D01*
X124539000Y-85797000D02*
X124539000Y-84383000D01*
X124499000Y-85649000D02*
X124499000Y-84531000D01*
X124459000Y-85444000D02*
X124459000Y-84736000D01*
X130470000Y-85090000D02*
X129270000Y-85090000D01*
X129870000Y-85740000D02*
X129870000Y-84440000D01*
X152309723Y-59308722D02*
G75*
G03X152310000Y-54697420I-1179723J2305722D01*
G01*
X149950277Y-59308722D02*
G75*
G02X149950000Y-54697420I1179723J2305722D01*
G01*
X149950277Y-59308722D02*
G75*
G03X152310000Y-59308580I1179723J2305722D01*
G01*
X153680000Y-57003000D02*
X148580000Y-57003000D01*
X153680000Y-57043000D02*
X148580000Y-57043000D01*
X153679000Y-57083000D02*
X148581000Y-57083000D01*
X153678000Y-57123000D02*
X148582000Y-57123000D01*
X153676000Y-57163000D02*
X148584000Y-57163000D01*
X153673000Y-57203000D02*
X148587000Y-57203000D01*
X153669000Y-57243000D02*
X148591000Y-57243000D01*
X153665000Y-57283000D02*
X152110000Y-57283000D01*
X150150000Y-57283000D02*
X148595000Y-57283000D01*
X153661000Y-57323000D02*
X152110000Y-57323000D01*
X150150000Y-57323000D02*
X148599000Y-57323000D01*
X153655000Y-57363000D02*
X152110000Y-57363000D01*
X150150000Y-57363000D02*
X148605000Y-57363000D01*
X153649000Y-57403000D02*
X152110000Y-57403000D01*
X150150000Y-57403000D02*
X148611000Y-57403000D01*
X153643000Y-57443000D02*
X152110000Y-57443000D01*
X150150000Y-57443000D02*
X148617000Y-57443000D01*
X153636000Y-57483000D02*
X152110000Y-57483000D01*
X150150000Y-57483000D02*
X148624000Y-57483000D01*
X153628000Y-57523000D02*
X152110000Y-57523000D01*
X150150000Y-57523000D02*
X148632000Y-57523000D01*
X153619000Y-57563000D02*
X152110000Y-57563000D01*
X150150000Y-57563000D02*
X148641000Y-57563000D01*
X153610000Y-57603000D02*
X152110000Y-57603000D01*
X150150000Y-57603000D02*
X148650000Y-57603000D01*
X153600000Y-57643000D02*
X152110000Y-57643000D01*
X150150000Y-57643000D02*
X148660000Y-57643000D01*
X153590000Y-57683000D02*
X152110000Y-57683000D01*
X150150000Y-57683000D02*
X148670000Y-57683000D01*
X153578000Y-57724000D02*
X152110000Y-57724000D01*
X150150000Y-57724000D02*
X148682000Y-57724000D01*
X153566000Y-57764000D02*
X152110000Y-57764000D01*
X150150000Y-57764000D02*
X148694000Y-57764000D01*
X153554000Y-57804000D02*
X152110000Y-57804000D01*
X150150000Y-57804000D02*
X148706000Y-57804000D01*
X153540000Y-57844000D02*
X152110000Y-57844000D01*
X150150000Y-57844000D02*
X148720000Y-57844000D01*
X153526000Y-57884000D02*
X152110000Y-57884000D01*
X150150000Y-57884000D02*
X148734000Y-57884000D01*
X153512000Y-57924000D02*
X152110000Y-57924000D01*
X150150000Y-57924000D02*
X148748000Y-57924000D01*
X153496000Y-57964000D02*
X152110000Y-57964000D01*
X150150000Y-57964000D02*
X148764000Y-57964000D01*
X153480000Y-58004000D02*
X152110000Y-58004000D01*
X150150000Y-58004000D02*
X148780000Y-58004000D01*
X153463000Y-58044000D02*
X152110000Y-58044000D01*
X150150000Y-58044000D02*
X148797000Y-58044000D01*
X153445000Y-58084000D02*
X152110000Y-58084000D01*
X150150000Y-58084000D02*
X148815000Y-58084000D01*
X153426000Y-58124000D02*
X152110000Y-58124000D01*
X150150000Y-58124000D02*
X148834000Y-58124000D01*
X153406000Y-58164000D02*
X152110000Y-58164000D01*
X150150000Y-58164000D02*
X148854000Y-58164000D01*
X153386000Y-58204000D02*
X152110000Y-58204000D01*
X150150000Y-58204000D02*
X148874000Y-58204000D01*
X153364000Y-58244000D02*
X152110000Y-58244000D01*
X150150000Y-58244000D02*
X148896000Y-58244000D01*
X153342000Y-58284000D02*
X152110000Y-58284000D01*
X150150000Y-58284000D02*
X148918000Y-58284000D01*
X153319000Y-58324000D02*
X152110000Y-58324000D01*
X150150000Y-58324000D02*
X148941000Y-58324000D01*
X153295000Y-58364000D02*
X152110000Y-58364000D01*
X150150000Y-58364000D02*
X148965000Y-58364000D01*
X153270000Y-58404000D02*
X152110000Y-58404000D01*
X150150000Y-58404000D02*
X148990000Y-58404000D01*
X153243000Y-58444000D02*
X152110000Y-58444000D01*
X150150000Y-58444000D02*
X149017000Y-58444000D01*
X153216000Y-58484000D02*
X152110000Y-58484000D01*
X150150000Y-58484000D02*
X149044000Y-58484000D01*
X153188000Y-58524000D02*
X152110000Y-58524000D01*
X150150000Y-58524000D02*
X149072000Y-58524000D01*
X153158000Y-58564000D02*
X152110000Y-58564000D01*
X150150000Y-58564000D02*
X149102000Y-58564000D01*
X153127000Y-58604000D02*
X152110000Y-58604000D01*
X150150000Y-58604000D02*
X149133000Y-58604000D01*
X153095000Y-58644000D02*
X152110000Y-58644000D01*
X150150000Y-58644000D02*
X149165000Y-58644000D01*
X153062000Y-58684000D02*
X152110000Y-58684000D01*
X150150000Y-58684000D02*
X149198000Y-58684000D01*
X153027000Y-58724000D02*
X152110000Y-58724000D01*
X150150000Y-58724000D02*
X149233000Y-58724000D01*
X152991000Y-58764000D02*
X152110000Y-58764000D01*
X150150000Y-58764000D02*
X149269000Y-58764000D01*
X152953000Y-58804000D02*
X152110000Y-58804000D01*
X150150000Y-58804000D02*
X149307000Y-58804000D01*
X152913000Y-58844000D02*
X152110000Y-58844000D01*
X150150000Y-58844000D02*
X149347000Y-58844000D01*
X152872000Y-58884000D02*
X152110000Y-58884000D01*
X150150000Y-58884000D02*
X149388000Y-58884000D01*
X152829000Y-58924000D02*
X152110000Y-58924000D01*
X150150000Y-58924000D02*
X149431000Y-58924000D01*
X152784000Y-58964000D02*
X152110000Y-58964000D01*
X150150000Y-58964000D02*
X149476000Y-58964000D01*
X152736000Y-59004000D02*
X152110000Y-59004000D01*
X150150000Y-59004000D02*
X149524000Y-59004000D01*
X152686000Y-59044000D02*
X152110000Y-59044000D01*
X150150000Y-59044000D02*
X149574000Y-59044000D01*
X152634000Y-59084000D02*
X152110000Y-59084000D01*
X150150000Y-59084000D02*
X149626000Y-59084000D01*
X152578000Y-59124000D02*
X152110000Y-59124000D01*
X150150000Y-59124000D02*
X149682000Y-59124000D01*
X152520000Y-59164000D02*
X152110000Y-59164000D01*
X150150000Y-59164000D02*
X149740000Y-59164000D01*
X152457000Y-59204000D02*
X152110000Y-59204000D01*
X150150000Y-59204000D02*
X149803000Y-59204000D01*
X152391000Y-59244000D02*
X149869000Y-59244000D01*
X152319000Y-59284000D02*
X149941000Y-59284000D01*
X152242000Y-59324000D02*
X150018000Y-59324000D01*
X152158000Y-59364000D02*
X150102000Y-59364000D01*
X152064000Y-59404000D02*
X150196000Y-59404000D01*
X151959000Y-59444000D02*
X150301000Y-59444000D01*
X151837000Y-59484000D02*
X150423000Y-59484000D01*
X151689000Y-59524000D02*
X150571000Y-59524000D01*
X151484000Y-59564000D02*
X150776000Y-59564000D01*
X151130000Y-53553000D02*
X151130000Y-54753000D01*
X151780000Y-54153000D02*
X150480000Y-54153000D01*
X181015000Y-83700000D02*
X170775000Y-83700000D01*
X181015000Y-99590000D02*
X170775000Y-99590000D01*
X181015000Y-99590000D02*
X181015000Y-83700000D01*
X170775000Y-99590000D02*
X170775000Y-83700000D01*
X178435000Y-83700000D02*
X178435000Y-81060000D01*
X175895000Y-83700000D02*
X175895000Y-81076000D01*
X173355000Y-83700000D02*
X173355000Y-81076000D01*
D13*
X130978000Y-102355000D02*
X151978000Y-102355000D01*
X151978000Y-102355000D02*
X151978000Y-117355000D01*
X151978000Y-117355000D02*
X130978000Y-117355000D01*
X130978000Y-117355000D02*
X130978000Y-102355000D01*
X130978000Y-85972000D02*
X151978000Y-85972000D01*
X151978000Y-85972000D02*
X151978000Y-100972000D01*
X151978000Y-100972000D02*
X130978000Y-100972000D01*
X130978000Y-100972000D02*
X130978000Y-85972000D01*
D12*
X136287000Y-84642000D02*
G75*
G02X138287000Y-84642000I1000000J0D01*
G01*
X138287000Y-84642000D02*
X139937000Y-84642000D01*
X139937000Y-84642000D02*
X139937000Y-64202000D01*
X139937000Y-64202000D02*
X134637000Y-64202000D01*
X134637000Y-64202000D02*
X134637000Y-84642000D01*
X134637000Y-84642000D02*
X136287000Y-84642000D01*
D13*
X139827000Y-52705000D02*
X134747000Y-52705000D01*
X134747000Y-52705000D02*
X134747000Y-62865000D01*
X134747000Y-62865000D02*
X139827000Y-62865000D01*
X139827000Y-62865000D02*
X139827000Y-52705000D01*
X138557000Y-52705000D02*
X138557000Y-53975000D01*
X138557000Y-53975000D02*
X136017000Y-53975000D01*
X136017000Y-53975000D02*
X136017000Y-52705000D01*
D12*
X204490000Y-59040000D02*
X207610000Y-59040000D01*
X207610000Y-59040000D02*
X207610000Y-55260000D01*
X207610000Y-55260000D02*
X207240000Y-55260000D01*
X207240000Y-55260000D02*
X207240000Y-52400000D01*
X207240000Y-52400000D02*
X204490000Y-52400000D01*
X204490000Y-59040000D02*
X201370000Y-59040000D01*
X201370000Y-59040000D02*
X201370000Y-55260000D01*
X201370000Y-55260000D02*
X201740000Y-55260000D01*
X201740000Y-55260000D02*
X201740000Y-52400000D01*
X201740000Y-52400000D02*
X204490000Y-52400000D01*
X207960000Y-57150000D02*
X208560000Y-56850000D01*
X208560000Y-56850000D02*
X208560000Y-57450000D01*
X208560000Y-57450000D02*
X207960000Y-57150000D01*
X185460000Y-59040000D02*
X189830000Y-59040000D01*
X189830000Y-59040000D02*
X189830000Y-55260000D01*
X189830000Y-55260000D02*
X188210000Y-55260000D01*
X188210000Y-55260000D02*
X188210000Y-52400000D01*
X188210000Y-52400000D02*
X185460000Y-52400000D01*
X185460000Y-59040000D02*
X181090000Y-59040000D01*
X181090000Y-59040000D02*
X181090000Y-55260000D01*
X181090000Y-55260000D02*
X182710000Y-55260000D01*
X182710000Y-55260000D02*
X182710000Y-52400000D01*
X182710000Y-52400000D02*
X185460000Y-52400000D01*
X190180000Y-57150000D02*
X190780000Y-56850000D01*
X190780000Y-56850000D02*
X190780000Y-57450000D01*
X190780000Y-57450000D02*
X190180000Y-57150000D01*
X174030000Y-61540000D02*
X178400000Y-61540000D01*
X178400000Y-61540000D02*
X178400000Y-55260000D01*
X178400000Y-55260000D02*
X176780000Y-55260000D01*
X176780000Y-55260000D02*
X176780000Y-52400000D01*
X176780000Y-52400000D02*
X174030000Y-52400000D01*
X174030000Y-61540000D02*
X169660000Y-61540000D01*
X169660000Y-61540000D02*
X169660000Y-55260000D01*
X169660000Y-55260000D02*
X171280000Y-55260000D01*
X171280000Y-55260000D02*
X171280000Y-52400000D01*
X171280000Y-52400000D02*
X174030000Y-52400000D01*
X178750000Y-57150000D02*
X179350000Y-56850000D01*
X179350000Y-56850000D02*
X179350000Y-57450000D01*
X179350000Y-57450000D02*
X178750000Y-57150000D01*
X161350000Y-61540000D02*
X166970000Y-61540000D01*
X166970000Y-61540000D02*
X166970000Y-55260000D01*
X166970000Y-55260000D02*
X164100000Y-55260000D01*
X164100000Y-55260000D02*
X164100000Y-52400000D01*
X164100000Y-52400000D02*
X161350000Y-52400000D01*
X161350000Y-61540000D02*
X155730000Y-61540000D01*
X155730000Y-61540000D02*
X155730000Y-55260000D01*
X155730000Y-55260000D02*
X158600000Y-55260000D01*
X158600000Y-55260000D02*
X158600000Y-52400000D01*
X158600000Y-52400000D02*
X161350000Y-52400000D01*
X167320000Y-57150000D02*
X167920000Y-56850000D01*
X167920000Y-56850000D02*
X167920000Y-57450000D01*
X167920000Y-57450000D02*
X167320000Y-57150000D01*
X130120000Y-74870000D02*
X130120000Y-69250000D01*
X130120000Y-69250000D02*
X123840000Y-69250000D01*
X123840000Y-69250000D02*
X123840000Y-72120000D01*
X123840000Y-72120000D02*
X120980000Y-72120000D01*
X120980000Y-72120000D02*
X120980000Y-74870000D01*
X130120000Y-74870000D02*
X130120000Y-80490000D01*
X130120000Y-80490000D02*
X123840000Y-80490000D01*
X123840000Y-80490000D02*
X123840000Y-77620000D01*
X123840000Y-77620000D02*
X120980000Y-77620000D01*
X120980000Y-77620000D02*
X120980000Y-74870000D01*
X125730000Y-68900000D02*
X125430000Y-68300000D01*
X125430000Y-68300000D02*
X126030000Y-68300000D01*
X126030000Y-68300000D02*
X125730000Y-68900000D01*
X152955000Y-100370000D02*
X152955000Y-90130000D01*
X157596000Y-100370000D02*
X157596000Y-90130000D01*
X152955000Y-100370000D02*
X157596000Y-100370000D01*
X152955000Y-90130000D02*
X157596000Y-90130000D01*
X154465000Y-100370000D02*
X154465000Y-90130000D01*
X152955000Y-97100000D02*
X154465000Y-97100000D01*
X152955000Y-93399000D02*
X154465000Y-93399000D01*
X152955000Y-116880000D02*
X152955000Y-106640000D01*
X157596000Y-116880000D02*
X157596000Y-106640000D01*
X152955000Y-116880000D02*
X157596000Y-116880000D01*
X152955000Y-106640000D02*
X157596000Y-106640000D01*
X154465000Y-116880000D02*
X154465000Y-106640000D01*
X152955000Y-113610000D02*
X154465000Y-113610000D01*
X152955000Y-109909000D02*
X154465000Y-109909000D01*
X195600000Y-59040000D02*
X198720000Y-59040000D01*
X198720000Y-59040000D02*
X198720000Y-55260000D01*
X198720000Y-55260000D02*
X198350000Y-55260000D01*
X198350000Y-55260000D02*
X198350000Y-52400000D01*
X198350000Y-52400000D02*
X195600000Y-52400000D01*
X195600000Y-59040000D02*
X192480000Y-59040000D01*
X192480000Y-59040000D02*
X192480000Y-55260000D01*
X192480000Y-55260000D02*
X192850000Y-55260000D01*
X192850000Y-55260000D02*
X192850000Y-52400000D01*
X192850000Y-52400000D02*
X195600000Y-52400000D01*
X199070000Y-57150000D02*
X199670000Y-56850000D01*
X199670000Y-56850000D02*
X199670000Y-57450000D01*
X199670000Y-57450000D02*
X199070000Y-57150000D01*
D13*
X221234095Y-51340381D02*
X221234095Y-50340381D01*
X221234095Y-50816571D02*
X221805524Y-50816571D01*
X221805524Y-51340381D02*
X221805524Y-50340381D01*
X222186476Y-50340381D02*
X222805524Y-50340381D01*
X222472190Y-50721333D01*
X222615048Y-50721333D01*
X222710286Y-50768952D01*
X222757905Y-50816571D01*
X222805524Y-50911810D01*
X222805524Y-51149905D01*
X222757905Y-51245143D01*
X222710286Y-51292762D01*
X222615048Y-51340381D01*
X222329333Y-51340381D01*
X222234095Y-51292762D01*
X222186476Y-51245143D01*
X151757143Y-73882381D02*
X151423809Y-73406190D01*
X151185714Y-73882381D02*
X151185714Y-72882381D01*
X151566667Y-72882381D01*
X151661905Y-72930000D01*
X151709524Y-72977619D01*
X151757143Y-73072857D01*
X151757143Y-73215714D01*
X151709524Y-73310952D01*
X151661905Y-73358571D01*
X151566667Y-73406190D01*
X151185714Y-73406190D01*
X152709524Y-73882381D02*
X152138095Y-73882381D01*
X152423809Y-73882381D02*
X152423809Y-72882381D01*
X152328571Y-73025238D01*
X152233333Y-73120476D01*
X152138095Y-73168095D01*
X153090476Y-72977619D02*
X153138095Y-72930000D01*
X153233333Y-72882381D01*
X153471429Y-72882381D01*
X153566667Y-72930000D01*
X153614286Y-72977619D01*
X153661905Y-73072857D01*
X153661905Y-73168095D01*
X153614286Y-73310952D01*
X153042857Y-73882381D01*
X153661905Y-73882381D01*
X166997143Y-73882381D02*
X166663809Y-73406190D01*
X166425714Y-73882381D02*
X166425714Y-72882381D01*
X166806667Y-72882381D01*
X166901905Y-72930000D01*
X166949524Y-72977619D01*
X166997143Y-73072857D01*
X166997143Y-73215714D01*
X166949524Y-73310952D01*
X166901905Y-73358571D01*
X166806667Y-73406190D01*
X166425714Y-73406190D01*
X167949524Y-73882381D02*
X167378095Y-73882381D01*
X167663809Y-73882381D02*
X167663809Y-72882381D01*
X167568571Y-73025238D01*
X167473333Y-73120476D01*
X167378095Y-73168095D01*
X168901905Y-73882381D02*
X168330476Y-73882381D01*
X168616190Y-73882381D02*
X168616190Y-72882381D01*
X168520952Y-73025238D01*
X168425714Y-73120476D01*
X168330476Y-73168095D01*
X187317143Y-91027381D02*
X186983809Y-90551190D01*
X186745714Y-91027381D02*
X186745714Y-90027381D01*
X187126667Y-90027381D01*
X187221905Y-90075000D01*
X187269524Y-90122619D01*
X187317143Y-90217857D01*
X187317143Y-90360714D01*
X187269524Y-90455952D01*
X187221905Y-90503571D01*
X187126667Y-90551190D01*
X186745714Y-90551190D01*
X188269524Y-91027381D02*
X187698095Y-91027381D01*
X187983809Y-91027381D02*
X187983809Y-90027381D01*
X187888571Y-90170238D01*
X187793333Y-90265476D01*
X187698095Y-90313095D01*
X188888571Y-90027381D02*
X188983810Y-90027381D01*
X189079048Y-90075000D01*
X189126667Y-90122619D01*
X189174286Y-90217857D01*
X189221905Y-90408333D01*
X189221905Y-90646429D01*
X189174286Y-90836905D01*
X189126667Y-90932143D01*
X189079048Y-90979762D01*
X188983810Y-91027381D01*
X188888571Y-91027381D01*
X188793333Y-90979762D01*
X188745714Y-90932143D01*
X188698095Y-90836905D01*
X188650476Y-90646429D01*
X188650476Y-90408333D01*
X188698095Y-90217857D01*
X188745714Y-90122619D01*
X188793333Y-90075000D01*
X188888571Y-90027381D01*
X213828334Y-73882381D02*
X213495000Y-73406190D01*
X213256905Y-73882381D02*
X213256905Y-72882381D01*
X213637858Y-72882381D01*
X213733096Y-72930000D01*
X213780715Y-72977619D01*
X213828334Y-73072857D01*
X213828334Y-73215714D01*
X213780715Y-73310952D01*
X213733096Y-73358571D01*
X213637858Y-73406190D01*
X213256905Y-73406190D01*
X214304524Y-73882381D02*
X214495000Y-73882381D01*
X214590239Y-73834762D01*
X214637858Y-73787143D01*
X214733096Y-73644286D01*
X214780715Y-73453810D01*
X214780715Y-73072857D01*
X214733096Y-72977619D01*
X214685477Y-72930000D01*
X214590239Y-72882381D01*
X214399762Y-72882381D01*
X214304524Y-72930000D01*
X214256905Y-72977619D01*
X214209286Y-73072857D01*
X214209286Y-73310952D01*
X214256905Y-73406190D01*
X214304524Y-73453810D01*
X214399762Y-73501429D01*
X214590239Y-73501429D01*
X214685477Y-73453810D01*
X214733096Y-73406190D01*
X214780715Y-73310952D01*
X163663334Y-91027381D02*
X163330000Y-90551190D01*
X163091905Y-91027381D02*
X163091905Y-90027381D01*
X163472858Y-90027381D01*
X163568096Y-90075000D01*
X163615715Y-90122619D01*
X163663334Y-90217857D01*
X163663334Y-90360714D01*
X163615715Y-90455952D01*
X163568096Y-90503571D01*
X163472858Y-90551190D01*
X163091905Y-90551190D01*
X164234762Y-90455952D02*
X164139524Y-90408333D01*
X164091905Y-90360714D01*
X164044286Y-90265476D01*
X164044286Y-90217857D01*
X164091905Y-90122619D01*
X164139524Y-90075000D01*
X164234762Y-90027381D01*
X164425239Y-90027381D01*
X164520477Y-90075000D01*
X164568096Y-90122619D01*
X164615715Y-90217857D01*
X164615715Y-90265476D01*
X164568096Y-90360714D01*
X164520477Y-90408333D01*
X164425239Y-90455952D01*
X164234762Y-90455952D01*
X164139524Y-90503571D01*
X164091905Y-90551190D01*
X164044286Y-90646429D01*
X164044286Y-90836905D01*
X164091905Y-90932143D01*
X164139524Y-90979762D01*
X164234762Y-91027381D01*
X164425239Y-91027381D01*
X164520477Y-90979762D01*
X164568096Y-90932143D01*
X164615715Y-90836905D01*
X164615715Y-90646429D01*
X164568096Y-90551190D01*
X164520477Y-90503571D01*
X164425239Y-90455952D01*
X152233334Y-78962381D02*
X151900000Y-78486190D01*
X151661905Y-78962381D02*
X151661905Y-77962381D01*
X152042858Y-77962381D01*
X152138096Y-78010000D01*
X152185715Y-78057619D01*
X152233334Y-78152857D01*
X152233334Y-78295714D01*
X152185715Y-78390952D01*
X152138096Y-78438571D01*
X152042858Y-78486190D01*
X151661905Y-78486190D01*
X152566667Y-77962381D02*
X153233334Y-77962381D01*
X152804762Y-78962381D01*
X167473334Y-78962381D02*
X167140000Y-78486190D01*
X166901905Y-78962381D02*
X166901905Y-77962381D01*
X167282858Y-77962381D01*
X167378096Y-78010000D01*
X167425715Y-78057619D01*
X167473334Y-78152857D01*
X167473334Y-78295714D01*
X167425715Y-78390952D01*
X167378096Y-78438571D01*
X167282858Y-78486190D01*
X166901905Y-78486190D01*
X168330477Y-77962381D02*
X168140000Y-77962381D01*
X168044762Y-78010000D01*
X167997143Y-78057619D01*
X167901905Y-78200476D01*
X167854286Y-78390952D01*
X167854286Y-78771905D01*
X167901905Y-78867143D01*
X167949524Y-78914762D01*
X168044762Y-78962381D01*
X168235239Y-78962381D01*
X168330477Y-78914762D01*
X168378096Y-78867143D01*
X168425715Y-78771905D01*
X168425715Y-78533810D01*
X168378096Y-78438571D01*
X168330477Y-78390952D01*
X168235239Y-78343333D01*
X168044762Y-78343333D01*
X167949524Y-78390952D01*
X167901905Y-78438571D01*
X167854286Y-78533810D01*
X217138381Y-61634666D02*
X216662190Y-61968000D01*
X217138381Y-62206095D02*
X216138381Y-62206095D01*
X216138381Y-61825142D01*
X216186000Y-61729904D01*
X216233619Y-61682285D01*
X216328857Y-61634666D01*
X216471714Y-61634666D01*
X216566952Y-61682285D01*
X216614571Y-61729904D01*
X216662190Y-61825142D01*
X216662190Y-62206095D01*
X216138381Y-60729904D02*
X216138381Y-61206095D01*
X216614571Y-61253714D01*
X216566952Y-61206095D01*
X216519333Y-61110857D01*
X216519333Y-60872761D01*
X216566952Y-60777523D01*
X216614571Y-60729904D01*
X216709810Y-60682285D01*
X216947905Y-60682285D01*
X217043143Y-60729904D01*
X217090762Y-60777523D01*
X217138381Y-60872761D01*
X217138381Y-61110857D01*
X217090762Y-61206095D01*
X217043143Y-61253714D01*
X152233334Y-84042381D02*
X151900000Y-83566190D01*
X151661905Y-84042381D02*
X151661905Y-83042381D01*
X152042858Y-83042381D01*
X152138096Y-83090000D01*
X152185715Y-83137619D01*
X152233334Y-83232857D01*
X152233334Y-83375714D01*
X152185715Y-83470952D01*
X152138096Y-83518571D01*
X152042858Y-83566190D01*
X151661905Y-83566190D01*
X153090477Y-83375714D02*
X153090477Y-84042381D01*
X152852381Y-82994762D02*
X152614286Y-83709048D01*
X153233334Y-83709048D01*
X213828334Y-73707381D02*
X213495000Y-73231190D01*
X213256905Y-73707381D02*
X213256905Y-72707381D01*
X213637858Y-72707381D01*
X213733096Y-72755000D01*
X213780715Y-72802619D01*
X213828334Y-72897857D01*
X213828334Y-73040714D01*
X213780715Y-73135952D01*
X213733096Y-73183571D01*
X213637858Y-73231190D01*
X213256905Y-73231190D01*
X214161667Y-72707381D02*
X214780715Y-72707381D01*
X214447381Y-73088333D01*
X214590239Y-73088333D01*
X214685477Y-73135952D01*
X214733096Y-73183571D01*
X214780715Y-73278810D01*
X214780715Y-73516905D01*
X214733096Y-73612143D01*
X214685477Y-73659762D01*
X214590239Y-73707381D01*
X214304524Y-73707381D01*
X214209286Y-73659762D01*
X214161667Y-73612143D01*
X213328381Y-61634666D02*
X212852190Y-61968000D01*
X213328381Y-62206095D02*
X212328381Y-62206095D01*
X212328381Y-61825142D01*
X212376000Y-61729904D01*
X212423619Y-61682285D01*
X212518857Y-61634666D01*
X212661714Y-61634666D01*
X212756952Y-61682285D01*
X212804571Y-61729904D01*
X212852190Y-61825142D01*
X212852190Y-62206095D01*
X212423619Y-61253714D02*
X212376000Y-61206095D01*
X212328381Y-61110857D01*
X212328381Y-60872761D01*
X212376000Y-60777523D01*
X212423619Y-60729904D01*
X212518857Y-60682285D01*
X212614095Y-60682285D01*
X212756952Y-60729904D01*
X213328381Y-61301333D01*
X213328381Y-60682285D01*
X147288381Y-59094666D02*
X146812190Y-59428000D01*
X147288381Y-59666095D02*
X146288381Y-59666095D01*
X146288381Y-59285142D01*
X146336000Y-59189904D01*
X146383619Y-59142285D01*
X146478857Y-59094666D01*
X146621714Y-59094666D01*
X146716952Y-59142285D01*
X146764571Y-59189904D01*
X146812190Y-59285142D01*
X146812190Y-59666095D01*
X147288381Y-58142285D02*
X147288381Y-58713714D01*
X147288381Y-58428000D02*
X146288381Y-58428000D01*
X146431238Y-58523238D01*
X146526476Y-58618476D01*
X146574095Y-58713714D01*
X184046905Y-70807381D02*
X184046905Y-69807381D01*
X184285000Y-69807381D01*
X184427858Y-69855000D01*
X184523096Y-69950238D01*
X184570715Y-70045476D01*
X184618334Y-70235952D01*
X184618334Y-70378810D01*
X184570715Y-70569286D01*
X184523096Y-70664524D01*
X184427858Y-70759762D01*
X184285000Y-70807381D01*
X184046905Y-70807381D01*
X185475477Y-69807381D02*
X185285000Y-69807381D01*
X185189762Y-69855000D01*
X185142143Y-69902619D01*
X185046905Y-70045476D01*
X184999286Y-70235952D01*
X184999286Y-70616905D01*
X185046905Y-70712143D01*
X185094524Y-70759762D01*
X185189762Y-70807381D01*
X185380239Y-70807381D01*
X185475477Y-70759762D01*
X185523096Y-70712143D01*
X185570715Y-70616905D01*
X185570715Y-70378810D01*
X185523096Y-70283571D01*
X185475477Y-70235952D01*
X185380239Y-70188333D01*
X185189762Y-70188333D01*
X185094524Y-70235952D01*
X185046905Y-70283571D01*
X184999286Y-70378810D01*
X198651905Y-69537381D02*
X198651905Y-68537381D01*
X198890000Y-68537381D01*
X199032858Y-68585000D01*
X199128096Y-68680238D01*
X199175715Y-68775476D01*
X199223334Y-68965952D01*
X199223334Y-69108810D01*
X199175715Y-69299286D01*
X199128096Y-69394524D01*
X199032858Y-69489762D01*
X198890000Y-69537381D01*
X198651905Y-69537381D01*
X200128096Y-68537381D02*
X199651905Y-68537381D01*
X199604286Y-69013571D01*
X199651905Y-68965952D01*
X199747143Y-68918333D01*
X199985239Y-68918333D01*
X200080477Y-68965952D01*
X200128096Y-69013571D01*
X200175715Y-69108810D01*
X200175715Y-69346905D01*
X200128096Y-69442143D01*
X200080477Y-69489762D01*
X199985239Y-69537381D01*
X199747143Y-69537381D01*
X199651905Y-69489762D01*
X199604286Y-69442143D01*
X184046905Y-75252381D02*
X184046905Y-74252381D01*
X184285000Y-74252381D01*
X184427858Y-74300000D01*
X184523096Y-74395238D01*
X184570715Y-74490476D01*
X184618334Y-74680952D01*
X184618334Y-74823810D01*
X184570715Y-75014286D01*
X184523096Y-75109524D01*
X184427858Y-75204762D01*
X184285000Y-75252381D01*
X184046905Y-75252381D01*
X185475477Y-74585714D02*
X185475477Y-75252381D01*
X185237381Y-74204762D02*
X184999286Y-74919048D01*
X185618334Y-74919048D01*
X198651905Y-73982381D02*
X198651905Y-72982381D01*
X198890000Y-72982381D01*
X199032858Y-73030000D01*
X199128096Y-73125238D01*
X199175715Y-73220476D01*
X199223334Y-73410952D01*
X199223334Y-73553810D01*
X199175715Y-73744286D01*
X199128096Y-73839524D01*
X199032858Y-73934762D01*
X198890000Y-73982381D01*
X198651905Y-73982381D01*
X199556667Y-72982381D02*
X200175715Y-72982381D01*
X199842381Y-73363333D01*
X199985239Y-73363333D01*
X200080477Y-73410952D01*
X200128096Y-73458571D01*
X200175715Y-73553810D01*
X200175715Y-73791905D01*
X200128096Y-73887143D01*
X200080477Y-73934762D01*
X199985239Y-73982381D01*
X199699524Y-73982381D01*
X199604286Y-73934762D01*
X199556667Y-73887143D01*
X184046905Y-79697381D02*
X184046905Y-78697381D01*
X184285000Y-78697381D01*
X184427858Y-78745000D01*
X184523096Y-78840238D01*
X184570715Y-78935476D01*
X184618334Y-79125952D01*
X184618334Y-79268810D01*
X184570715Y-79459286D01*
X184523096Y-79554524D01*
X184427858Y-79649762D01*
X184285000Y-79697381D01*
X184046905Y-79697381D01*
X184999286Y-78792619D02*
X185046905Y-78745000D01*
X185142143Y-78697381D01*
X185380239Y-78697381D01*
X185475477Y-78745000D01*
X185523096Y-78792619D01*
X185570715Y-78887857D01*
X185570715Y-78983095D01*
X185523096Y-79125952D01*
X184951667Y-79697381D01*
X185570715Y-79697381D01*
X198651905Y-78427381D02*
X198651905Y-77427381D01*
X198890000Y-77427381D01*
X199032858Y-77475000D01*
X199128096Y-77570238D01*
X199175715Y-77665476D01*
X199223334Y-77855952D01*
X199223334Y-77998810D01*
X199175715Y-78189286D01*
X199128096Y-78284524D01*
X199032858Y-78379762D01*
X198890000Y-78427381D01*
X198651905Y-78427381D01*
X200175715Y-78427381D02*
X199604286Y-78427381D01*
X199890000Y-78427381D02*
X199890000Y-77427381D01*
X199794762Y-77570238D01*
X199699524Y-77665476D01*
X199604286Y-77713095D01*
X130682381Y-93023333D02*
X131396667Y-93023333D01*
X131539524Y-93070953D01*
X131634762Y-93166191D01*
X131682381Y-93309048D01*
X131682381Y-93404286D01*
X130682381Y-92642381D02*
X130682381Y-92023333D01*
X131063333Y-92356667D01*
X131063333Y-92213809D01*
X131110952Y-92118571D01*
X131158571Y-92070952D01*
X131253810Y-92023333D01*
X131491905Y-92023333D01*
X131587143Y-92070952D01*
X131634762Y-92118571D01*
X131682381Y-92213809D01*
X131682381Y-92499524D01*
X131634762Y-92594762D01*
X131587143Y-92642381D01*
X170537143Y-82696666D02*
X170584762Y-82744285D01*
X170632381Y-82887142D01*
X170632381Y-82982380D01*
X170584762Y-83125238D01*
X170489524Y-83220476D01*
X170394286Y-83268095D01*
X170203810Y-83315714D01*
X170060952Y-83315714D01*
X169870476Y-83268095D01*
X169775238Y-83220476D01*
X169680000Y-83125238D01*
X169632381Y-82982380D01*
X169632381Y-82887142D01*
X169680000Y-82744285D01*
X169727619Y-82696666D01*
X169632381Y-81791904D02*
X169632381Y-82268095D01*
X170108571Y-82315714D01*
X170060952Y-82268095D01*
X170013333Y-82172857D01*
X170013333Y-81934761D01*
X170060952Y-81839523D01*
X170108571Y-81791904D01*
X170203810Y-81744285D01*
X170441905Y-81744285D01*
X170537143Y-81791904D01*
X170584762Y-81839523D01*
X170632381Y-81934761D01*
X170632381Y-82172857D01*
X170584762Y-82268095D01*
X170537143Y-82315714D01*
X189587143Y-82696666D02*
X189634762Y-82744285D01*
X189682381Y-82887142D01*
X189682381Y-82982380D01*
X189634762Y-83125238D01*
X189539524Y-83220476D01*
X189444286Y-83268095D01*
X189253810Y-83315714D01*
X189110952Y-83315714D01*
X188920476Y-83268095D01*
X188825238Y-83220476D01*
X188730000Y-83125238D01*
X188682381Y-82982380D01*
X188682381Y-82887142D01*
X188730000Y-82744285D01*
X188777619Y-82696666D01*
X189015714Y-81839523D02*
X189682381Y-81839523D01*
X188634762Y-82077619D02*
X189349048Y-82315714D01*
X189349048Y-81696666D01*
X126813334Y-61317143D02*
X126765715Y-61364762D01*
X126622858Y-61412381D01*
X126527620Y-61412381D01*
X126384762Y-61364762D01*
X126289524Y-61269524D01*
X126241905Y-61174286D01*
X126194286Y-60983810D01*
X126194286Y-60840952D01*
X126241905Y-60650476D01*
X126289524Y-60555238D01*
X126384762Y-60460000D01*
X126527620Y-60412381D01*
X126622858Y-60412381D01*
X126765715Y-60460000D01*
X126813334Y-60507619D01*
X127146667Y-60412381D02*
X127765715Y-60412381D01*
X127432381Y-60793333D01*
X127575239Y-60793333D01*
X127670477Y-60840952D01*
X127718096Y-60888571D01*
X127765715Y-60983810D01*
X127765715Y-61221905D01*
X127718096Y-61317143D01*
X127670477Y-61364762D01*
X127575239Y-61412381D01*
X127289524Y-61412381D01*
X127194286Y-61364762D01*
X127146667Y-61317143D01*
X126853334Y-89257143D02*
X126805715Y-89304762D01*
X126662858Y-89352381D01*
X126567620Y-89352381D01*
X126424762Y-89304762D01*
X126329524Y-89209524D01*
X126281905Y-89114286D01*
X126234286Y-88923810D01*
X126234286Y-88780952D01*
X126281905Y-88590476D01*
X126329524Y-88495238D01*
X126424762Y-88400000D01*
X126567620Y-88352381D01*
X126662858Y-88352381D01*
X126805715Y-88400000D01*
X126853334Y-88447619D01*
X127234286Y-88447619D02*
X127281905Y-88400000D01*
X127377143Y-88352381D01*
X127615239Y-88352381D01*
X127710477Y-88400000D01*
X127758096Y-88447619D01*
X127805715Y-88542857D01*
X127805715Y-88638095D01*
X127758096Y-88780952D01*
X127186667Y-89352381D01*
X127805715Y-89352381D01*
X155297143Y-57169666D02*
X155344762Y-57217285D01*
X155392381Y-57360142D01*
X155392381Y-57455380D01*
X155344762Y-57598238D01*
X155249524Y-57693476D01*
X155154286Y-57741095D01*
X154963810Y-57788714D01*
X154820952Y-57788714D01*
X154630476Y-57741095D01*
X154535238Y-57693476D01*
X154440000Y-57598238D01*
X154392381Y-57455380D01*
X154392381Y-57360142D01*
X154440000Y-57217285D01*
X154487619Y-57169666D01*
X155392381Y-56217285D02*
X155392381Y-56788714D01*
X155392381Y-56503000D02*
X154392381Y-56503000D01*
X154535238Y-56598238D01*
X154630476Y-56693476D01*
X154678095Y-56788714D01*
X124714095Y-117380381D02*
X124714095Y-116380381D01*
X124714095Y-116856571D02*
X125285524Y-116856571D01*
X125285524Y-117380381D02*
X125285524Y-116380381D01*
X125714095Y-116475619D02*
X125761714Y-116428000D01*
X125856952Y-116380381D01*
X126095048Y-116380381D01*
X126190286Y-116428000D01*
X126237905Y-116475619D01*
X126285524Y-116570857D01*
X126285524Y-116666095D01*
X126237905Y-116808952D01*
X125666476Y-117380381D01*
X126285524Y-117380381D01*
X124714095Y-62340381D02*
X124714095Y-61340381D01*
X124714095Y-61816571D02*
X125285524Y-61816571D01*
X125285524Y-62340381D02*
X125285524Y-61340381D01*
X126285524Y-62340381D02*
X125714095Y-62340381D01*
X125999809Y-62340381D02*
X125999809Y-61340381D01*
X125904571Y-61483238D01*
X125809333Y-61578476D01*
X125714095Y-61626095D01*
X175133095Y-100042381D02*
X175133095Y-100851905D01*
X175180714Y-100947143D01*
X175228333Y-100994762D01*
X175323571Y-101042381D01*
X175514048Y-101042381D01*
X175609286Y-100994762D01*
X175656905Y-100947143D01*
X175704524Y-100851905D01*
X175704524Y-100042381D01*
X176704524Y-101042381D02*
X176133095Y-101042381D01*
X176418809Y-101042381D02*
X176418809Y-100042381D01*
X176323571Y-100185238D01*
X176228333Y-100280476D01*
X176133095Y-100328095D01*
X200366381Y-105870333D02*
X201080667Y-105870333D01*
X201223524Y-105917953D01*
X201318762Y-106013191D01*
X201366381Y-106156048D01*
X201366381Y-106251286D01*
X200366381Y-104917952D02*
X200366381Y-105394143D01*
X200842571Y-105441762D01*
X200794952Y-105394143D01*
X200747333Y-105298905D01*
X200747333Y-105060809D01*
X200794952Y-104965571D01*
X200842571Y-104917952D01*
X200937810Y-104870333D01*
X201175905Y-104870333D01*
X201271143Y-104917952D01*
X201318762Y-104965571D01*
X201366381Y-105060809D01*
X201366381Y-105298905D01*
X201318762Y-105394143D01*
X201271143Y-105441762D01*
X152360381Y-110616905D02*
X153169905Y-110616905D01*
X153265143Y-110569286D01*
X153312762Y-110521667D01*
X153360381Y-110426429D01*
X153360381Y-110235952D01*
X153312762Y-110140714D01*
X153265143Y-110093095D01*
X153169905Y-110045476D01*
X152360381Y-110045476D01*
X152360381Y-109093095D02*
X152360381Y-109569286D01*
X152836571Y-109616905D01*
X152788952Y-109569286D01*
X152741333Y-109474048D01*
X152741333Y-109235952D01*
X152788952Y-109140714D01*
X152836571Y-109093095D01*
X152931810Y-109045476D01*
X153169905Y-109045476D01*
X153265143Y-109093095D01*
X153312762Y-109140714D01*
X153360381Y-109235952D01*
X153360381Y-109474048D01*
X153312762Y-109569286D01*
X153265143Y-109616905D01*
X152360381Y-94233905D02*
X153169905Y-94233905D01*
X153265143Y-94186286D01*
X153312762Y-94138667D01*
X153360381Y-94043429D01*
X153360381Y-93852952D01*
X153312762Y-93757714D01*
X153265143Y-93710095D01*
X153169905Y-93662476D01*
X152360381Y-93662476D01*
X152693714Y-92757714D02*
X153360381Y-92757714D01*
X152312762Y-92995810D02*
X153027048Y-93233905D01*
X153027048Y-92614857D01*
X136525095Y-85094381D02*
X136525095Y-85903905D01*
X136572714Y-85999143D01*
X136620333Y-86046762D01*
X136715571Y-86094381D01*
X136906048Y-86094381D01*
X137001286Y-86046762D01*
X137048905Y-85999143D01*
X137096524Y-85903905D01*
X137096524Y-85094381D01*
X137477476Y-85094381D02*
X138096524Y-85094381D01*
X137763190Y-85475333D01*
X137906048Y-85475333D01*
X138001286Y-85522952D01*
X138048905Y-85570571D01*
X138096524Y-85665810D01*
X138096524Y-85903905D01*
X138048905Y-85999143D01*
X138001286Y-86046762D01*
X137906048Y-86094381D01*
X137620333Y-86094381D01*
X137525095Y-86046762D01*
X137477476Y-85999143D01*
X137882381Y-58927905D02*
X138691905Y-58927905D01*
X138787143Y-58880286D01*
X138834762Y-58832667D01*
X138882381Y-58737429D01*
X138882381Y-58546952D01*
X138834762Y-58451714D01*
X138787143Y-58404095D01*
X138691905Y-58356476D01*
X137882381Y-58356476D01*
X137977619Y-57927905D02*
X137930000Y-57880286D01*
X137882381Y-57785048D01*
X137882381Y-57546952D01*
X137930000Y-57451714D01*
X137977619Y-57404095D01*
X138072857Y-57356476D01*
X138168095Y-57356476D01*
X138310952Y-57404095D01*
X138882381Y-57975524D01*
X138882381Y-57356476D01*
X204156667Y-59602381D02*
X204156667Y-60316667D01*
X204109047Y-60459524D01*
X204013809Y-60554762D01*
X203870952Y-60602381D01*
X203775714Y-60602381D01*
X204680476Y-60602381D02*
X204870952Y-60602381D01*
X204966191Y-60554762D01*
X205013810Y-60507143D01*
X205109048Y-60364286D01*
X205156667Y-60173810D01*
X205156667Y-59792857D01*
X205109048Y-59697619D01*
X205061429Y-59650000D01*
X204966191Y-59602381D01*
X204775714Y-59602381D01*
X204680476Y-59650000D01*
X204632857Y-59697619D01*
X204585238Y-59792857D01*
X204585238Y-60030952D01*
X204632857Y-60126190D01*
X204680476Y-60173810D01*
X204775714Y-60221429D01*
X204966191Y-60221429D01*
X205061429Y-60173810D01*
X205109048Y-60126190D01*
X205156667Y-60030952D01*
X185126667Y-59602381D02*
X185126667Y-60316667D01*
X185079047Y-60459524D01*
X184983809Y-60554762D01*
X184840952Y-60602381D01*
X184745714Y-60602381D01*
X185745714Y-60030952D02*
X185650476Y-59983333D01*
X185602857Y-59935714D01*
X185555238Y-59840476D01*
X185555238Y-59792857D01*
X185602857Y-59697619D01*
X185650476Y-59650000D01*
X185745714Y-59602381D01*
X185936191Y-59602381D01*
X186031429Y-59650000D01*
X186079048Y-59697619D01*
X186126667Y-59792857D01*
X186126667Y-59840476D01*
X186079048Y-59935714D01*
X186031429Y-59983333D01*
X185936191Y-60030952D01*
X185745714Y-60030952D01*
X185650476Y-60078571D01*
X185602857Y-60126190D01*
X185555238Y-60221429D01*
X185555238Y-60411905D01*
X185602857Y-60507143D01*
X185650476Y-60554762D01*
X185745714Y-60602381D01*
X185936191Y-60602381D01*
X186031429Y-60554762D01*
X186079048Y-60507143D01*
X186126667Y-60411905D01*
X186126667Y-60221429D01*
X186079048Y-60126190D01*
X186031429Y-60078571D01*
X185936191Y-60030952D01*
X173696667Y-62102381D02*
X173696667Y-62816667D01*
X173649047Y-62959524D01*
X173553809Y-63054762D01*
X173410952Y-63102381D01*
X173315714Y-63102381D01*
X174601429Y-62435714D02*
X174601429Y-63102381D01*
X174363333Y-62054762D02*
X174125238Y-62769048D01*
X174744286Y-62769048D01*
X161016667Y-62102381D02*
X161016667Y-62816667D01*
X160969047Y-62959524D01*
X160873809Y-63054762D01*
X160730952Y-63102381D01*
X160635714Y-63102381D01*
X161445238Y-62197619D02*
X161492857Y-62150000D01*
X161588095Y-62102381D01*
X161826191Y-62102381D01*
X161921429Y-62150000D01*
X161969048Y-62197619D01*
X162016667Y-62292857D01*
X162016667Y-62388095D01*
X161969048Y-62530952D01*
X161397619Y-63102381D01*
X162016667Y-63102381D01*
X130682381Y-75203333D02*
X131396667Y-75203333D01*
X131539524Y-75250953D01*
X131634762Y-75346191D01*
X131682381Y-75489048D01*
X131682381Y-75584286D01*
X131682381Y-74203333D02*
X131682381Y-74774762D01*
X131682381Y-74489048D02*
X130682381Y-74489048D01*
X130825238Y-74584286D01*
X130920476Y-74679524D01*
X130968095Y-74774762D01*
X185721667Y-63293571D02*
X185388333Y-63293571D01*
X185388333Y-63817381D02*
X185388333Y-62817381D01*
X185864524Y-62817381D01*
X186150238Y-62817381D02*
X186769286Y-62817381D01*
X186435952Y-63198333D01*
X186578810Y-63198333D01*
X186674048Y-63245952D01*
X186721667Y-63293571D01*
X186769286Y-63388810D01*
X186769286Y-63626905D01*
X186721667Y-63722143D01*
X186674048Y-63769762D01*
X186578810Y-63817381D01*
X186293095Y-63817381D01*
X186197857Y-63769762D01*
X186150238Y-63722143D01*
X168703667Y-65833571D02*
X168370333Y-65833571D01*
X168370333Y-66357381D02*
X168370333Y-65357381D01*
X168846524Y-65357381D01*
X169179857Y-65452619D02*
X169227476Y-65405000D01*
X169322714Y-65357381D01*
X169560810Y-65357381D01*
X169656048Y-65405000D01*
X169703667Y-65452619D01*
X169751286Y-65547857D01*
X169751286Y-65643095D01*
X169703667Y-65785952D01*
X169132238Y-66357381D01*
X169751286Y-66357381D01*
X153844667Y-65833571D02*
X153511333Y-65833571D01*
X153511333Y-66357381D02*
X153511333Y-65357381D01*
X153987524Y-65357381D01*
X154892286Y-66357381D02*
X154320857Y-66357381D01*
X154606571Y-66357381D02*
X154606571Y-65357381D01*
X154511333Y-65500238D01*
X154416095Y-65595476D01*
X154320857Y-65643095D01*
X152407381Y-95892857D02*
X151931190Y-96226191D01*
X152407381Y-96464286D02*
X151407381Y-96464286D01*
X151407381Y-96083333D01*
X151455000Y-95988095D01*
X151502619Y-95940476D01*
X151597857Y-95892857D01*
X151740714Y-95892857D01*
X151835952Y-95940476D01*
X151883571Y-95988095D01*
X151931190Y-96083333D01*
X151931190Y-96464286D01*
X152407381Y-94940476D02*
X152407381Y-95511905D01*
X152407381Y-95226191D02*
X151407381Y-95226191D01*
X151550238Y-95321429D01*
X151645476Y-95416667D01*
X151693095Y-95511905D01*
X151407381Y-94607143D02*
X151407381Y-93988095D01*
X151788333Y-94321429D01*
X151788333Y-94178571D01*
X151835952Y-94083333D01*
X151883571Y-94035714D01*
X151978810Y-93988095D01*
X152216905Y-93988095D01*
X152312143Y-94035714D01*
X152359762Y-94083333D01*
X152407381Y-94178571D01*
X152407381Y-94464286D01*
X152359762Y-94559524D01*
X152312143Y-94607143D01*
X152407381Y-112402857D02*
X151931190Y-112736191D01*
X152407381Y-112974286D02*
X151407381Y-112974286D01*
X151407381Y-112593333D01*
X151455000Y-112498095D01*
X151502619Y-112450476D01*
X151597857Y-112402857D01*
X151740714Y-112402857D01*
X151835952Y-112450476D01*
X151883571Y-112498095D01*
X151931190Y-112593333D01*
X151931190Y-112974286D01*
X152407381Y-111450476D02*
X152407381Y-112021905D01*
X152407381Y-111736191D02*
X151407381Y-111736191D01*
X151550238Y-111831429D01*
X151645476Y-111926667D01*
X151693095Y-112021905D01*
X151740714Y-110593333D02*
X152407381Y-110593333D01*
X151359762Y-110831429D02*
X152074048Y-111069524D01*
X152074048Y-110450476D01*
X195266667Y-59602381D02*
X195266667Y-60316667D01*
X195219047Y-60459524D01*
X195123809Y-60554762D01*
X194980952Y-60602381D01*
X194885714Y-60602381D01*
X196171429Y-59602381D02*
X195980952Y-59602381D01*
X195885714Y-59650000D01*
X195838095Y-59697619D01*
X195742857Y-59840476D01*
X195695238Y-60030952D01*
X195695238Y-60411905D01*
X195742857Y-60507143D01*
X195790476Y-60554762D01*
X195885714Y-60602381D01*
X196076191Y-60602381D01*
X196171429Y-60554762D01*
X196219048Y-60507143D01*
X196266667Y-60411905D01*
X196266667Y-60173810D01*
X196219048Y-60078571D01*
X196171429Y-60030952D01*
X196076191Y-59983333D01*
X195885714Y-59983333D01*
X195790476Y-60030952D01*
X195742857Y-60078571D01*
X195695238Y-60173810D01*
M02*
