G04 #@! TF.FileFunction,Copper,L2,Bot,Signal*
%FSLAX46Y46*%
G04 Gerber Fmt 4.6, Leading zero omitted, Abs format (unit mm)*
G04 Created by KiCad (PCBNEW 4.0.7) date 03/04/18 13:02:16*
%MOMM*%
%LPD*%
G01*
G04 APERTURE LIST*
%ADD10C,0.100000*%
%ADD11C,1.600000*%
%ADD12O,1.600000X1.600000*%
%ADD13R,1.800000X1.800000*%
%ADD14O,1.800000X1.800000*%
%ADD15R,1.900000X1.900000*%
%ADD16C,1.900000*%
%ADD17R,1.600000X1.600000*%
%ADD18C,3.120000*%
%ADD19R,10.000000X7.000000*%
%ADD20C,1.524000*%
%ADD21C,0.800000*%
%ADD22C,0.250000*%
%ADD23C,0.254000*%
G04 APERTURE END LIST*
D10*
D11*
X157480000Y-71120000D03*
D12*
X147320000Y-71120000D03*
D11*
X172720000Y-71120000D03*
D12*
X162560000Y-71120000D03*
D11*
X193040000Y-88265000D03*
D12*
X182880000Y-88265000D03*
D11*
X219075000Y-71120000D03*
D12*
X208915000Y-71120000D03*
D11*
X168910000Y-88265000D03*
D12*
X158750000Y-88265000D03*
D11*
X157480000Y-76200000D03*
D12*
X147320000Y-76200000D03*
D11*
X172720000Y-76200000D03*
D12*
X162560000Y-76200000D03*
D11*
X214376000Y-56388000D03*
D12*
X214376000Y-66548000D03*
D11*
X157480000Y-81280000D03*
D12*
X147320000Y-81280000D03*
D11*
X208915000Y-75565000D03*
D12*
X219075000Y-75565000D03*
D11*
X210566000Y-56388000D03*
D12*
X210566000Y-66548000D03*
D11*
X144526000Y-53848000D03*
D12*
X144526000Y-64008000D03*
D13*
X189865000Y-67945000D03*
D14*
X179705000Y-67945000D03*
D13*
X204470000Y-66675000D03*
D14*
X194310000Y-66675000D03*
D13*
X189865000Y-72390000D03*
D14*
X179705000Y-72390000D03*
D13*
X204470000Y-71120000D03*
D14*
X194310000Y-71120000D03*
D13*
X189865000Y-76835000D03*
D14*
X179705000Y-76835000D03*
D13*
X204470000Y-75565000D03*
D14*
X194310000Y-75565000D03*
D15*
X125730000Y-91440000D03*
D16*
X125730000Y-93940000D03*
X128230000Y-91440000D03*
X128230000Y-93940000D03*
D17*
X166370000Y-81280000D03*
D11*
X166370000Y-83780000D03*
D17*
X185420000Y-81280000D03*
D11*
X185420000Y-83780000D03*
D17*
X125730000Y-64770000D03*
D11*
X128230000Y-64770000D03*
D17*
X128270000Y-85090000D03*
D11*
X125770000Y-85090000D03*
D17*
X151130000Y-55753000D03*
D11*
X151130000Y-58253000D03*
D18*
X173435000Y-103090000D03*
X178885000Y-103090000D03*
D19*
X175895000Y-96670000D03*
D13*
X178435000Y-80010000D03*
D14*
X175895000Y-80010000D03*
X173355000Y-80010000D03*
D18*
X212594000Y-103312000D03*
X212594000Y-107762000D03*
X206244000Y-103312000D03*
X206244000Y-107762000D03*
D20*
X132588000Y-114935000D03*
X142748000Y-114935000D03*
X150368000Y-114935000D03*
X132588000Y-104775000D03*
X142748000Y-104775000D03*
X150368000Y-104775000D03*
X132588000Y-98552000D03*
X142748000Y-98552000D03*
X150368000Y-98552000D03*
X132588000Y-88392000D03*
X142748000Y-88392000D03*
X150368000Y-88392000D03*
D17*
X141097000Y-83312000D03*
D12*
X133477000Y-65532000D03*
X141097000Y-80772000D03*
X133477000Y-68072000D03*
X141097000Y-78232000D03*
X133477000Y-70612000D03*
X141097000Y-75692000D03*
X133477000Y-73152000D03*
X141097000Y-73152000D03*
X133477000Y-75692000D03*
X141097000Y-70612000D03*
X133477000Y-78232000D03*
X141097000Y-68072000D03*
X133477000Y-80772000D03*
X141097000Y-65532000D03*
X133477000Y-83312000D03*
D15*
X205740000Y-57150000D03*
D16*
X203240000Y-57150000D03*
D15*
X187960000Y-57150000D03*
D16*
X185460000Y-57150000D03*
X182960000Y-57150000D03*
D15*
X176530000Y-57150000D03*
D16*
X174030000Y-57150000D03*
X171530000Y-57150000D03*
X176530000Y-59650000D03*
X174030000Y-59650000D03*
X171530000Y-59650000D03*
D15*
X165100000Y-57150000D03*
D16*
X162600000Y-57150000D03*
X160100000Y-57150000D03*
X157600000Y-57150000D03*
X165100000Y-59650000D03*
X162600000Y-59650000D03*
X160100000Y-59650000D03*
X157600000Y-59650000D03*
D15*
X125730000Y-71120000D03*
D16*
X125730000Y-73620000D03*
X125730000Y-76120000D03*
X125730000Y-78620000D03*
X128230000Y-71120000D03*
X128230000Y-73620000D03*
X128230000Y-76120000D03*
X128230000Y-78620000D03*
D13*
X155575000Y-97790000D03*
D14*
X155575000Y-92710000D03*
D13*
X155575000Y-114300000D03*
D14*
X155575000Y-109220000D03*
D15*
X196850000Y-57150000D03*
D16*
X194350000Y-57150000D03*
D21*
X130759200Y-78130400D03*
X131521200Y-85267800D03*
X129514600Y-87223600D03*
X127863600Y-81280000D03*
X124637800Y-87198200D03*
X122809000Y-89077800D03*
X124714000Y-113258600D03*
X127127000Y-114833400D03*
X132990100Y-63700000D03*
X170335700Y-62110200D03*
X199263000Y-62077600D03*
X197129400Y-60020200D03*
X184937400Y-54610000D03*
X175895000Y-86690200D03*
X142731900Y-61888600D03*
X168481700Y-67154000D03*
X168481700Y-59535100D03*
D22*
X123409200Y-79103900D02*
X128270000Y-83964700D01*
X123409200Y-74459400D02*
X123409200Y-79103900D01*
X124248600Y-73620000D02*
X123409200Y-74459400D01*
X125730000Y-73620000D02*
X124248600Y-73620000D01*
X128270000Y-85090000D02*
X128270000Y-83964700D01*
X133195600Y-74277300D02*
X133477000Y-74277300D01*
X132351700Y-75121200D02*
X133195600Y-74277300D01*
X132351700Y-76262800D02*
X132351700Y-75121200D01*
X133195600Y-77106700D02*
X132351700Y-76262800D01*
X133477000Y-77106700D02*
X133195600Y-77106700D01*
X133477000Y-73152000D02*
X133477000Y-74277300D01*
X133477000Y-78232000D02*
X133477000Y-77106700D01*
X133195600Y-79357300D02*
X133477000Y-79357300D01*
X132351700Y-80201200D02*
X133195600Y-79357300D01*
X132351700Y-81342700D02*
X132351700Y-80201200D01*
X133195700Y-82186700D02*
X132351700Y-81342700D01*
X133477000Y-82186700D02*
X133195700Y-82186700D01*
X133477000Y-83312000D02*
X133477000Y-82186700D01*
X133477000Y-78232000D02*
X133477000Y-79357300D01*
X125770000Y-85090000D02*
X125770000Y-85384000D01*
X125770000Y-85384000D02*
X127609600Y-87223600D01*
X130911600Y-78282800D02*
X130759200Y-78130400D01*
X130911600Y-84658200D02*
X130911600Y-78282800D01*
X131521200Y-85267800D02*
X130911600Y-84658200D01*
X127609600Y-87223600D02*
X129514600Y-87223600D01*
X128230000Y-80913600D02*
X128230000Y-78620000D01*
X127863600Y-81280000D02*
X128230000Y-80913600D01*
X132588000Y-114935000D02*
X127228600Y-114935000D01*
X125770000Y-86066000D02*
X125770000Y-85090000D01*
X124637800Y-87198200D02*
X125770000Y-86066000D01*
X122351800Y-89535000D02*
X122809000Y-89077800D01*
X122351800Y-110896400D02*
X122351800Y-89535000D01*
X124714000Y-113258600D02*
X122351800Y-110896400D01*
X127228600Y-114935000D02*
X127127000Y-114833400D01*
X178435000Y-70209500D02*
X178435000Y-80010000D01*
X170335700Y-62110200D02*
X178435000Y-70209500D01*
X194350000Y-57150000D02*
X194350000Y-57211600D01*
X194350000Y-57211600D02*
X193522600Y-58039000D01*
X189854200Y-83780000D02*
X185420000Y-83780000D01*
X191922400Y-81711800D02*
X189854200Y-83780000D01*
X191922400Y-74574400D02*
X191922400Y-81711800D01*
X193217800Y-73279000D02*
X191922400Y-74574400D01*
X197637400Y-73279000D02*
X193217800Y-73279000D01*
X197739000Y-73177400D02*
X197637400Y-73279000D01*
X197739000Y-63601600D02*
X197739000Y-73177400D01*
X199263000Y-62077600D02*
X197739000Y-63601600D01*
X196926200Y-60223400D02*
X197129400Y-60020200D01*
X194005200Y-60223400D02*
X196926200Y-60223400D01*
X193522600Y-59740800D02*
X194005200Y-60223400D01*
X193522600Y-58039000D02*
X193522600Y-59740800D01*
X184937400Y-54610000D02*
X186004200Y-53543200D01*
X186004200Y-53543200D02*
X190743200Y-53543200D01*
X190743200Y-53543200D02*
X194350000Y-57150000D01*
X175895000Y-96670000D02*
X175895000Y-86690200D01*
X151130000Y-55753000D02*
X152255300Y-55753000D01*
X173355000Y-80010000D02*
X173355000Y-78784700D01*
X166370000Y-81280000D02*
X167495300Y-81280000D01*
X169249400Y-76358900D02*
X170832900Y-77942400D01*
X169249400Y-58253800D02*
X169249400Y-76358900D01*
X165821400Y-54825800D02*
X169249400Y-58253800D01*
X153182500Y-54825800D02*
X165821400Y-54825800D01*
X152255300Y-55753000D02*
X153182500Y-54825800D01*
X172512700Y-77942400D02*
X170832900Y-77942400D01*
X173355000Y-78784700D02*
X172512700Y-77942400D01*
X170832900Y-77942400D02*
X167495300Y-81280000D01*
X206116000Y-75565000D02*
X204470000Y-75565000D01*
X210566000Y-71115000D02*
X206116000Y-75565000D01*
X210566000Y-66548000D02*
X210566000Y-71115000D01*
X205695300Y-66775000D02*
X208915000Y-69994700D01*
X205695300Y-66675000D02*
X205695300Y-66775000D01*
X204470000Y-66675000D02*
X205695300Y-66675000D01*
X208915000Y-71120000D02*
X208915000Y-69994700D01*
X150368000Y-84951500D02*
X150368000Y-88392000D01*
X166393900Y-68925600D02*
X150368000Y-84951500D01*
X166393900Y-56049400D02*
X166393900Y-68925600D01*
X166219100Y-55874600D02*
X166393900Y-56049400D01*
X163875400Y-55874600D02*
X166219100Y-55874600D01*
X162600000Y-57150000D02*
X163875400Y-55874600D01*
X168481700Y-67474800D02*
X168481700Y-67154000D01*
X152902500Y-83054000D02*
X168481700Y-67474800D01*
X152902500Y-102240500D02*
X152902500Y-83054000D01*
X150368000Y-104775000D02*
X152902500Y-102240500D01*
X168481700Y-67154000D02*
X168481700Y-59535100D01*
X202093000Y-57150000D02*
X203240000Y-57150000D01*
X158750000Y-88265000D02*
X159875300Y-88265000D01*
X159875300Y-88265000D02*
X161000600Y-87139700D01*
X161000600Y-87139700D02*
X173584100Y-87139700D01*
X173584100Y-87139700D02*
X188639700Y-72084100D01*
X188639700Y-72084100D02*
X188639700Y-71355200D01*
X188639700Y-71355200D02*
X190146000Y-69848900D01*
X190146000Y-69848900D02*
X190225100Y-69848900D01*
X190225100Y-69848900D02*
X191768600Y-68305400D01*
X191768600Y-68305400D02*
X191768600Y-67474400D01*
X191768600Y-67474400D02*
X202093000Y-57150000D01*
X219075000Y-69209700D02*
X219075000Y-71120000D01*
X207015300Y-57150000D02*
X219075000Y-69209700D01*
X205740000Y-57150000D02*
X207015300Y-57150000D01*
X122943100Y-87377800D02*
X125730000Y-90164700D01*
X122943100Y-73906900D02*
X122943100Y-87377800D01*
X125730000Y-71120000D02*
X122943100Y-73906900D01*
X125730000Y-91440000D02*
X125730000Y-90164700D01*
X129505400Y-85309400D02*
X132588000Y-88392000D01*
X129505400Y-77395400D02*
X129505400Y-85309400D01*
X128230000Y-76120000D02*
X129505400Y-77395400D01*
X157328400Y-56878400D02*
X157600000Y-57150000D01*
X147556400Y-56878400D02*
X157328400Y-56878400D01*
X144526000Y-53848000D02*
X147556400Y-56878400D01*
X160742000Y-64008000D02*
X144526000Y-64008000D01*
X165100000Y-59650000D02*
X160742000Y-64008000D01*
X201556000Y-108000000D02*
X206244000Y-103312000D01*
X201556000Y-124280900D02*
X201556000Y-108000000D01*
X201030100Y-124806800D02*
X201556000Y-124280900D01*
X133988800Y-124806800D02*
X201030100Y-124806800D01*
X125730000Y-116548000D02*
X133988800Y-124806800D01*
X125730000Y-93940000D02*
X125730000Y-116548000D01*
X175315600Y-60935600D02*
X174030000Y-59650000D01*
X184174400Y-60935600D02*
X175315600Y-60935600D01*
X187960000Y-57150000D02*
X184174400Y-60935600D01*
X183101300Y-54791300D02*
X185460000Y-57150000D01*
X172028900Y-54791300D02*
X183101300Y-54791300D01*
X170176400Y-56643800D02*
X172028900Y-54791300D01*
X170176400Y-58296400D02*
X170176400Y-56643800D01*
X171530000Y-59650000D02*
X170176400Y-58296400D01*
X168910000Y-98716100D02*
X168910000Y-88265000D01*
X173283900Y-103090000D02*
X168910000Y-98716100D01*
X173435000Y-103090000D02*
X173283900Y-103090000D01*
X182880000Y-99095000D02*
X182880000Y-88265000D01*
X178885000Y-103090000D02*
X182880000Y-99095000D01*
D23*
G36*
X133223000Y-64141932D02*
X132899736Y-64206233D01*
X132434189Y-64517302D01*
X132123120Y-64982849D01*
X132013887Y-65532000D01*
X132123120Y-66081151D01*
X132434189Y-66546698D01*
X132816275Y-66802000D01*
X132434189Y-67057302D01*
X132123120Y-67522849D01*
X132013887Y-68072000D01*
X132123120Y-68621151D01*
X132434189Y-69086698D01*
X132816275Y-69342000D01*
X132434189Y-69597302D01*
X132123120Y-70062849D01*
X132013887Y-70612000D01*
X132123120Y-71161151D01*
X132434189Y-71626698D01*
X132816275Y-71882000D01*
X132434189Y-72137302D01*
X132123120Y-72602849D01*
X132013887Y-73152000D01*
X132123120Y-73701151D01*
X132352963Y-74045135D01*
X131814299Y-74583799D01*
X131649552Y-74830361D01*
X131591700Y-75121200D01*
X131591700Y-76262800D01*
X131649552Y-76553639D01*
X131814299Y-76800201D01*
X132352963Y-77338865D01*
X132123120Y-77682849D01*
X132013887Y-78232000D01*
X132123120Y-78781151D01*
X132352963Y-79125135D01*
X131814299Y-79663799D01*
X131649552Y-79910361D01*
X131591700Y-80201200D01*
X131591700Y-81342700D01*
X131649552Y-81633539D01*
X131814299Y-81880101D01*
X132353003Y-82418805D01*
X132123120Y-82762849D01*
X132013887Y-83312000D01*
X132123120Y-83861151D01*
X132434189Y-84326698D01*
X132899736Y-84637767D01*
X133223000Y-84702068D01*
X133223000Y-87143025D01*
X132867100Y-86995243D01*
X132311339Y-86994758D01*
X132278945Y-87008143D01*
X130265400Y-84994598D01*
X130265400Y-77395400D01*
X130207548Y-77104561D01*
X130042801Y-76857999D01*
X129758020Y-76573218D01*
X129814724Y-76436659D01*
X129815275Y-75806107D01*
X129574481Y-75223343D01*
X129221529Y-74869774D01*
X129572914Y-74519003D01*
X129814724Y-73936659D01*
X129815275Y-73306107D01*
X129574481Y-72723343D01*
X129221529Y-72369774D01*
X129572914Y-72019003D01*
X129814724Y-71436659D01*
X129815275Y-70806107D01*
X129574481Y-70223343D01*
X129129003Y-69777086D01*
X128546659Y-69535276D01*
X127916107Y-69534725D01*
X127333343Y-69775519D01*
X127240428Y-69868272D01*
X127144090Y-69718559D01*
X126931890Y-69573569D01*
X126680000Y-69522560D01*
X124780000Y-69522560D01*
X124544683Y-69566838D01*
X124328559Y-69705910D01*
X124183569Y-69918110D01*
X124132560Y-70170000D01*
X124132560Y-71642638D01*
X122405699Y-73369499D01*
X122240952Y-73616061D01*
X122183100Y-73906900D01*
X122183100Y-87377800D01*
X122240952Y-87668639D01*
X122405699Y-87915201D01*
X124442858Y-89952360D01*
X124328559Y-90025910D01*
X124183569Y-90238110D01*
X124132560Y-90490000D01*
X124132560Y-91406000D01*
X123663057Y-91599995D01*
X123301265Y-91961155D01*
X123105223Y-92433276D01*
X123104777Y-92944481D01*
X123299995Y-93416943D01*
X123661155Y-93778735D01*
X124133276Y-93974777D01*
X124144969Y-93974787D01*
X124144725Y-94253893D01*
X124385519Y-94836657D01*
X124830997Y-95282914D01*
X124970000Y-95340633D01*
X124970000Y-116548000D01*
X125027852Y-116838839D01*
X125192599Y-117085401D01*
X133228282Y-125121084D01*
X133233006Y-125144410D01*
X133261447Y-125186035D01*
X133303841Y-125213315D01*
X133324377Y-125217179D01*
X133451399Y-125344201D01*
X133697961Y-125508948D01*
X133988800Y-125566800D01*
X201030100Y-125566800D01*
X201320939Y-125508948D01*
X201567501Y-125344201D01*
X202093401Y-124818301D01*
X202258148Y-124571739D01*
X202316000Y-124280900D01*
X202316000Y-114589020D01*
X205233648Y-114589020D01*
X205542046Y-115335400D01*
X206112596Y-115906947D01*
X206858437Y-116216647D01*
X207666020Y-116217352D01*
X208412400Y-115908954D01*
X208983947Y-115338404D01*
X209293647Y-114592563D01*
X209294352Y-113784980D01*
X208985954Y-113038600D01*
X208415404Y-112467053D01*
X207669563Y-112157353D01*
X206861980Y-112156648D01*
X206115600Y-112465046D01*
X205544053Y-113035596D01*
X205234353Y-113781437D01*
X205233648Y-114589020D01*
X202316000Y-114589020D01*
X202316000Y-108314802D01*
X202434105Y-108196697D01*
X204048619Y-108196697D01*
X204382084Y-109003743D01*
X204999009Y-109621746D01*
X205805472Y-109956619D01*
X206678697Y-109957381D01*
X207485743Y-109623916D01*
X207790880Y-109319311D01*
X211216294Y-109319311D01*
X211383399Y-109644314D01*
X212195881Y-109964309D01*
X213068974Y-109949022D01*
X213804601Y-109644314D01*
X213971706Y-109319311D01*
X212594000Y-107941605D01*
X211216294Y-109319311D01*
X207790880Y-109319311D01*
X208103746Y-109006991D01*
X208438619Y-108200528D01*
X208439349Y-107363881D01*
X210391691Y-107363881D01*
X210406978Y-108236974D01*
X210711686Y-108972601D01*
X211036689Y-109139706D01*
X212414395Y-107762000D01*
X212773605Y-107762000D01*
X214151311Y-109139706D01*
X214476314Y-108972601D01*
X214796309Y-108160119D01*
X214781022Y-107287026D01*
X214476314Y-106551399D01*
X214151311Y-106384294D01*
X212773605Y-107762000D01*
X212414395Y-107762000D01*
X211036689Y-106384294D01*
X210711686Y-106551399D01*
X210391691Y-107363881D01*
X208439349Y-107363881D01*
X208439381Y-107327303D01*
X208105916Y-106520257D01*
X207790899Y-106204689D01*
X211216294Y-106204689D01*
X212594000Y-107582395D01*
X213971706Y-106204689D01*
X213835109Y-105939020D01*
X216663648Y-105939020D01*
X216972046Y-106685400D01*
X217542596Y-107256947D01*
X218288437Y-107566647D01*
X219096020Y-107567352D01*
X219842400Y-107258954D01*
X220413947Y-106688404D01*
X220723647Y-105942563D01*
X220724352Y-105134980D01*
X220415954Y-104388600D01*
X219845404Y-103817053D01*
X219099563Y-103507353D01*
X218291980Y-103506648D01*
X217545600Y-103815046D01*
X216974053Y-104385596D01*
X216664353Y-105131437D01*
X216663648Y-105939020D01*
X213835109Y-105939020D01*
X213804601Y-105879686D01*
X212992119Y-105559691D01*
X212119026Y-105574978D01*
X211383399Y-105879686D01*
X211216294Y-106204689D01*
X207790899Y-106204689D01*
X207488991Y-105902254D01*
X206682528Y-105567381D01*
X205809303Y-105566619D01*
X205002257Y-105900084D01*
X204384254Y-106517009D01*
X204049381Y-107323472D01*
X204048619Y-108196697D01*
X202434105Y-108196697D01*
X205324076Y-105306726D01*
X205805472Y-105506619D01*
X206678697Y-105507381D01*
X207485743Y-105173916D01*
X208103746Y-104556991D01*
X208438619Y-103750528D01*
X208438622Y-103746697D01*
X210398619Y-103746697D01*
X210732084Y-104553743D01*
X211349009Y-105171746D01*
X212155472Y-105506619D01*
X213028697Y-105507381D01*
X213835743Y-105173916D01*
X214453746Y-104556991D01*
X214788619Y-103750528D01*
X214789381Y-102877303D01*
X214455916Y-102070257D01*
X213838991Y-101452254D01*
X213032528Y-101117381D01*
X212159303Y-101116619D01*
X211352257Y-101450084D01*
X210734254Y-102067009D01*
X210399381Y-102873472D01*
X210398619Y-103746697D01*
X208438622Y-103746697D01*
X208439381Y-102877303D01*
X208105916Y-102070257D01*
X207488991Y-101452254D01*
X206682528Y-101117381D01*
X205809303Y-101116619D01*
X205002257Y-101450084D01*
X204384254Y-102067009D01*
X204049381Y-102873472D01*
X204048619Y-103746697D01*
X204249159Y-104232039D01*
X201422000Y-107059198D01*
X201422000Y-97289020D01*
X205233648Y-97289020D01*
X205542046Y-98035400D01*
X206112596Y-98606947D01*
X206858437Y-98916647D01*
X207666020Y-98917352D01*
X208412400Y-98608954D01*
X208983947Y-98038404D01*
X209293647Y-97292563D01*
X209294352Y-96484980D01*
X208985954Y-95738600D01*
X208415404Y-95167053D01*
X207669563Y-94857353D01*
X206861980Y-94856648D01*
X206115600Y-95165046D01*
X205544053Y-95735596D01*
X205234353Y-96481437D01*
X205233648Y-97289020D01*
X201422000Y-97289020D01*
X201422000Y-85852000D01*
X226391000Y-85852000D01*
X226391000Y-126823000D01*
X121412000Y-126823000D01*
X121412000Y-122999344D01*
X122590501Y-122999344D01*
X123028790Y-124060086D01*
X123839645Y-124872357D01*
X124899620Y-125312498D01*
X126047344Y-125313499D01*
X127108086Y-124875210D01*
X127920357Y-124064355D01*
X128360498Y-123004380D01*
X128361499Y-121856656D01*
X127923210Y-120795914D01*
X127112355Y-119983643D01*
X126052380Y-119543502D01*
X124904656Y-119542501D01*
X123843914Y-119980790D01*
X123031643Y-120791645D01*
X122591502Y-121851620D01*
X122590501Y-122999344D01*
X121412000Y-122999344D01*
X121412000Y-63970000D01*
X124282560Y-63970000D01*
X124282560Y-65570000D01*
X124326838Y-65805317D01*
X124465910Y-66021441D01*
X124678110Y-66166431D01*
X124930000Y-66217440D01*
X126530000Y-66217440D01*
X126765317Y-66173162D01*
X126981441Y-66034090D01*
X127126431Y-65821890D01*
X127135370Y-65777745D01*
X127401861Y-65777745D01*
X127475995Y-66023864D01*
X128013223Y-66216965D01*
X128583454Y-66189778D01*
X128984005Y-66023864D01*
X129058139Y-65777745D01*
X128230000Y-64949605D01*
X127401861Y-65777745D01*
X127135370Y-65777745D01*
X127174646Y-65583799D01*
X127222255Y-65598139D01*
X128050395Y-64770000D01*
X128409605Y-64770000D01*
X129237745Y-65598139D01*
X129483864Y-65524005D01*
X129676965Y-64986777D01*
X129649778Y-64416546D01*
X129483864Y-64015995D01*
X129237745Y-63941861D01*
X128409605Y-64770000D01*
X128050395Y-64770000D01*
X127222255Y-63941861D01*
X127174833Y-63956145D01*
X127138351Y-63762255D01*
X127401861Y-63762255D01*
X128230000Y-64590395D01*
X129058139Y-63762255D01*
X128984005Y-63516136D01*
X128446777Y-63323035D01*
X127876546Y-63350222D01*
X127475995Y-63516136D01*
X127401861Y-63762255D01*
X127138351Y-63762255D01*
X127133162Y-63734683D01*
X126994090Y-63518559D01*
X126781890Y-63373569D01*
X126530000Y-63322560D01*
X124930000Y-63322560D01*
X124694683Y-63366838D01*
X124478559Y-63505910D01*
X124333569Y-63718110D01*
X124282560Y-63970000D01*
X121412000Y-63970000D01*
X121412000Y-56959344D01*
X122590501Y-56959344D01*
X123028790Y-58020086D01*
X123839645Y-58832357D01*
X124899620Y-59272498D01*
X126047344Y-59273499D01*
X127108086Y-58835210D01*
X127920357Y-58024355D01*
X128360498Y-56964380D01*
X128361499Y-55816656D01*
X127923210Y-54755914D01*
X127112355Y-53943643D01*
X126052380Y-53503502D01*
X124904656Y-53502501D01*
X123843914Y-53940790D01*
X123031643Y-54751645D01*
X122591502Y-55811620D01*
X122590501Y-56959344D01*
X121412000Y-56959344D01*
X121412000Y-52197000D01*
X133223000Y-52197000D01*
X133223000Y-64141932D01*
X133223000Y-64141932D01*
G37*
X133223000Y-64141932D02*
X132899736Y-64206233D01*
X132434189Y-64517302D01*
X132123120Y-64982849D01*
X132013887Y-65532000D01*
X132123120Y-66081151D01*
X132434189Y-66546698D01*
X132816275Y-66802000D01*
X132434189Y-67057302D01*
X132123120Y-67522849D01*
X132013887Y-68072000D01*
X132123120Y-68621151D01*
X132434189Y-69086698D01*
X132816275Y-69342000D01*
X132434189Y-69597302D01*
X132123120Y-70062849D01*
X132013887Y-70612000D01*
X132123120Y-71161151D01*
X132434189Y-71626698D01*
X132816275Y-71882000D01*
X132434189Y-72137302D01*
X132123120Y-72602849D01*
X132013887Y-73152000D01*
X132123120Y-73701151D01*
X132352963Y-74045135D01*
X131814299Y-74583799D01*
X131649552Y-74830361D01*
X131591700Y-75121200D01*
X131591700Y-76262800D01*
X131649552Y-76553639D01*
X131814299Y-76800201D01*
X132352963Y-77338865D01*
X132123120Y-77682849D01*
X132013887Y-78232000D01*
X132123120Y-78781151D01*
X132352963Y-79125135D01*
X131814299Y-79663799D01*
X131649552Y-79910361D01*
X131591700Y-80201200D01*
X131591700Y-81342700D01*
X131649552Y-81633539D01*
X131814299Y-81880101D01*
X132353003Y-82418805D01*
X132123120Y-82762849D01*
X132013887Y-83312000D01*
X132123120Y-83861151D01*
X132434189Y-84326698D01*
X132899736Y-84637767D01*
X133223000Y-84702068D01*
X133223000Y-87143025D01*
X132867100Y-86995243D01*
X132311339Y-86994758D01*
X132278945Y-87008143D01*
X130265400Y-84994598D01*
X130265400Y-77395400D01*
X130207548Y-77104561D01*
X130042801Y-76857999D01*
X129758020Y-76573218D01*
X129814724Y-76436659D01*
X129815275Y-75806107D01*
X129574481Y-75223343D01*
X129221529Y-74869774D01*
X129572914Y-74519003D01*
X129814724Y-73936659D01*
X129815275Y-73306107D01*
X129574481Y-72723343D01*
X129221529Y-72369774D01*
X129572914Y-72019003D01*
X129814724Y-71436659D01*
X129815275Y-70806107D01*
X129574481Y-70223343D01*
X129129003Y-69777086D01*
X128546659Y-69535276D01*
X127916107Y-69534725D01*
X127333343Y-69775519D01*
X127240428Y-69868272D01*
X127144090Y-69718559D01*
X126931890Y-69573569D01*
X126680000Y-69522560D01*
X124780000Y-69522560D01*
X124544683Y-69566838D01*
X124328559Y-69705910D01*
X124183569Y-69918110D01*
X124132560Y-70170000D01*
X124132560Y-71642638D01*
X122405699Y-73369499D01*
X122240952Y-73616061D01*
X122183100Y-73906900D01*
X122183100Y-87377800D01*
X122240952Y-87668639D01*
X122405699Y-87915201D01*
X124442858Y-89952360D01*
X124328559Y-90025910D01*
X124183569Y-90238110D01*
X124132560Y-90490000D01*
X124132560Y-91406000D01*
X123663057Y-91599995D01*
X123301265Y-91961155D01*
X123105223Y-92433276D01*
X123104777Y-92944481D01*
X123299995Y-93416943D01*
X123661155Y-93778735D01*
X124133276Y-93974777D01*
X124144969Y-93974787D01*
X124144725Y-94253893D01*
X124385519Y-94836657D01*
X124830997Y-95282914D01*
X124970000Y-95340633D01*
X124970000Y-116548000D01*
X125027852Y-116838839D01*
X125192599Y-117085401D01*
X133228282Y-125121084D01*
X133233006Y-125144410D01*
X133261447Y-125186035D01*
X133303841Y-125213315D01*
X133324377Y-125217179D01*
X133451399Y-125344201D01*
X133697961Y-125508948D01*
X133988800Y-125566800D01*
X201030100Y-125566800D01*
X201320939Y-125508948D01*
X201567501Y-125344201D01*
X202093401Y-124818301D01*
X202258148Y-124571739D01*
X202316000Y-124280900D01*
X202316000Y-114589020D01*
X205233648Y-114589020D01*
X205542046Y-115335400D01*
X206112596Y-115906947D01*
X206858437Y-116216647D01*
X207666020Y-116217352D01*
X208412400Y-115908954D01*
X208983947Y-115338404D01*
X209293647Y-114592563D01*
X209294352Y-113784980D01*
X208985954Y-113038600D01*
X208415404Y-112467053D01*
X207669563Y-112157353D01*
X206861980Y-112156648D01*
X206115600Y-112465046D01*
X205544053Y-113035596D01*
X205234353Y-113781437D01*
X205233648Y-114589020D01*
X202316000Y-114589020D01*
X202316000Y-108314802D01*
X202434105Y-108196697D01*
X204048619Y-108196697D01*
X204382084Y-109003743D01*
X204999009Y-109621746D01*
X205805472Y-109956619D01*
X206678697Y-109957381D01*
X207485743Y-109623916D01*
X207790880Y-109319311D01*
X211216294Y-109319311D01*
X211383399Y-109644314D01*
X212195881Y-109964309D01*
X213068974Y-109949022D01*
X213804601Y-109644314D01*
X213971706Y-109319311D01*
X212594000Y-107941605D01*
X211216294Y-109319311D01*
X207790880Y-109319311D01*
X208103746Y-109006991D01*
X208438619Y-108200528D01*
X208439349Y-107363881D01*
X210391691Y-107363881D01*
X210406978Y-108236974D01*
X210711686Y-108972601D01*
X211036689Y-109139706D01*
X212414395Y-107762000D01*
X212773605Y-107762000D01*
X214151311Y-109139706D01*
X214476314Y-108972601D01*
X214796309Y-108160119D01*
X214781022Y-107287026D01*
X214476314Y-106551399D01*
X214151311Y-106384294D01*
X212773605Y-107762000D01*
X212414395Y-107762000D01*
X211036689Y-106384294D01*
X210711686Y-106551399D01*
X210391691Y-107363881D01*
X208439349Y-107363881D01*
X208439381Y-107327303D01*
X208105916Y-106520257D01*
X207790899Y-106204689D01*
X211216294Y-106204689D01*
X212594000Y-107582395D01*
X213971706Y-106204689D01*
X213835109Y-105939020D01*
X216663648Y-105939020D01*
X216972046Y-106685400D01*
X217542596Y-107256947D01*
X218288437Y-107566647D01*
X219096020Y-107567352D01*
X219842400Y-107258954D01*
X220413947Y-106688404D01*
X220723647Y-105942563D01*
X220724352Y-105134980D01*
X220415954Y-104388600D01*
X219845404Y-103817053D01*
X219099563Y-103507353D01*
X218291980Y-103506648D01*
X217545600Y-103815046D01*
X216974053Y-104385596D01*
X216664353Y-105131437D01*
X216663648Y-105939020D01*
X213835109Y-105939020D01*
X213804601Y-105879686D01*
X212992119Y-105559691D01*
X212119026Y-105574978D01*
X211383399Y-105879686D01*
X211216294Y-106204689D01*
X207790899Y-106204689D01*
X207488991Y-105902254D01*
X206682528Y-105567381D01*
X205809303Y-105566619D01*
X205002257Y-105900084D01*
X204384254Y-106517009D01*
X204049381Y-107323472D01*
X204048619Y-108196697D01*
X202434105Y-108196697D01*
X205324076Y-105306726D01*
X205805472Y-105506619D01*
X206678697Y-105507381D01*
X207485743Y-105173916D01*
X208103746Y-104556991D01*
X208438619Y-103750528D01*
X208438622Y-103746697D01*
X210398619Y-103746697D01*
X210732084Y-104553743D01*
X211349009Y-105171746D01*
X212155472Y-105506619D01*
X213028697Y-105507381D01*
X213835743Y-105173916D01*
X214453746Y-104556991D01*
X214788619Y-103750528D01*
X214789381Y-102877303D01*
X214455916Y-102070257D01*
X213838991Y-101452254D01*
X213032528Y-101117381D01*
X212159303Y-101116619D01*
X211352257Y-101450084D01*
X210734254Y-102067009D01*
X210399381Y-102873472D01*
X210398619Y-103746697D01*
X208438622Y-103746697D01*
X208439381Y-102877303D01*
X208105916Y-102070257D01*
X207488991Y-101452254D01*
X206682528Y-101117381D01*
X205809303Y-101116619D01*
X205002257Y-101450084D01*
X204384254Y-102067009D01*
X204049381Y-102873472D01*
X204048619Y-103746697D01*
X204249159Y-104232039D01*
X201422000Y-107059198D01*
X201422000Y-97289020D01*
X205233648Y-97289020D01*
X205542046Y-98035400D01*
X206112596Y-98606947D01*
X206858437Y-98916647D01*
X207666020Y-98917352D01*
X208412400Y-98608954D01*
X208983947Y-98038404D01*
X209293647Y-97292563D01*
X209294352Y-96484980D01*
X208985954Y-95738600D01*
X208415404Y-95167053D01*
X207669563Y-94857353D01*
X206861980Y-94856648D01*
X206115600Y-95165046D01*
X205544053Y-95735596D01*
X205234353Y-96481437D01*
X205233648Y-97289020D01*
X201422000Y-97289020D01*
X201422000Y-85852000D01*
X226391000Y-85852000D01*
X226391000Y-126823000D01*
X121412000Y-126823000D01*
X121412000Y-122999344D01*
X122590501Y-122999344D01*
X123028790Y-124060086D01*
X123839645Y-124872357D01*
X124899620Y-125312498D01*
X126047344Y-125313499D01*
X127108086Y-124875210D01*
X127920357Y-124064355D01*
X128360498Y-123004380D01*
X128361499Y-121856656D01*
X127923210Y-120795914D01*
X127112355Y-119983643D01*
X126052380Y-119543502D01*
X124904656Y-119542501D01*
X123843914Y-119980790D01*
X123031643Y-120791645D01*
X122591502Y-121851620D01*
X122590501Y-122999344D01*
X121412000Y-122999344D01*
X121412000Y-63970000D01*
X124282560Y-63970000D01*
X124282560Y-65570000D01*
X124326838Y-65805317D01*
X124465910Y-66021441D01*
X124678110Y-66166431D01*
X124930000Y-66217440D01*
X126530000Y-66217440D01*
X126765317Y-66173162D01*
X126981441Y-66034090D01*
X127126431Y-65821890D01*
X127135370Y-65777745D01*
X127401861Y-65777745D01*
X127475995Y-66023864D01*
X128013223Y-66216965D01*
X128583454Y-66189778D01*
X128984005Y-66023864D01*
X129058139Y-65777745D01*
X128230000Y-64949605D01*
X127401861Y-65777745D01*
X127135370Y-65777745D01*
X127174646Y-65583799D01*
X127222255Y-65598139D01*
X128050395Y-64770000D01*
X128409605Y-64770000D01*
X129237745Y-65598139D01*
X129483864Y-65524005D01*
X129676965Y-64986777D01*
X129649778Y-64416546D01*
X129483864Y-64015995D01*
X129237745Y-63941861D01*
X128409605Y-64770000D01*
X128050395Y-64770000D01*
X127222255Y-63941861D01*
X127174833Y-63956145D01*
X127138351Y-63762255D01*
X127401861Y-63762255D01*
X128230000Y-64590395D01*
X129058139Y-63762255D01*
X128984005Y-63516136D01*
X128446777Y-63323035D01*
X127876546Y-63350222D01*
X127475995Y-63516136D01*
X127401861Y-63762255D01*
X127138351Y-63762255D01*
X127133162Y-63734683D01*
X126994090Y-63518559D01*
X126781890Y-63373569D01*
X126530000Y-63322560D01*
X124930000Y-63322560D01*
X124694683Y-63366838D01*
X124478559Y-63505910D01*
X124333569Y-63718110D01*
X124282560Y-63970000D01*
X121412000Y-63970000D01*
X121412000Y-56959344D01*
X122590501Y-56959344D01*
X123028790Y-58020086D01*
X123839645Y-58832357D01*
X124899620Y-59272498D01*
X126047344Y-59273499D01*
X127108086Y-58835210D01*
X127920357Y-58024355D01*
X128360498Y-56964380D01*
X128361499Y-55816656D01*
X127923210Y-54755914D01*
X127112355Y-53943643D01*
X126052380Y-53503502D01*
X124904656Y-53502501D01*
X123843914Y-53940790D01*
X123031643Y-54751645D01*
X122591502Y-55811620D01*
X122590501Y-56959344D01*
X121412000Y-56959344D01*
X121412000Y-52197000D01*
X133223000Y-52197000D01*
X133223000Y-64141932D01*
G36*
X127041589Y-83811091D02*
X127018559Y-83825910D01*
X126873569Y-84038110D01*
X126825354Y-84276201D01*
X126777745Y-84261861D01*
X125949605Y-85090000D01*
X126777745Y-85918139D01*
X126825167Y-85903855D01*
X126866838Y-86125317D01*
X127005910Y-86341441D01*
X127218110Y-86486431D01*
X127470000Y-86537440D01*
X129070000Y-86537440D01*
X129305317Y-86493162D01*
X129493359Y-86372161D01*
X131203817Y-88082619D01*
X131191243Y-88112900D01*
X131190758Y-88668661D01*
X131402990Y-89182303D01*
X131795630Y-89575629D01*
X132308900Y-89788757D01*
X132864661Y-89789242D01*
X133223000Y-89641180D01*
X133223000Y-97295303D01*
X132795698Y-97142856D01*
X132240632Y-97170638D01*
X131856857Y-97329603D01*
X131787392Y-97571787D01*
X132588000Y-98372395D01*
X132602143Y-98358253D01*
X132781748Y-98537858D01*
X132767605Y-98552000D01*
X132781748Y-98566143D01*
X132602143Y-98745748D01*
X132588000Y-98731605D01*
X131787392Y-99532213D01*
X131856857Y-99774397D01*
X132380302Y-99961144D01*
X132935368Y-99933362D01*
X133223000Y-99814221D01*
X133223000Y-103526025D01*
X132867100Y-103378243D01*
X132311339Y-103377758D01*
X131797697Y-103589990D01*
X131404371Y-103982630D01*
X131191243Y-104495900D01*
X131190758Y-105051661D01*
X131402990Y-105565303D01*
X131795630Y-105958629D01*
X132308900Y-106171757D01*
X132864661Y-106172242D01*
X133223000Y-106024180D01*
X133223000Y-113678303D01*
X132795698Y-113525856D01*
X132240632Y-113553638D01*
X131856857Y-113712603D01*
X131787392Y-113954787D01*
X132588000Y-114755395D01*
X132602143Y-114741253D01*
X132781748Y-114920858D01*
X132767605Y-114935000D01*
X132781748Y-114949143D01*
X132602143Y-115128748D01*
X132588000Y-115114605D01*
X131787392Y-115915213D01*
X131856857Y-116157397D01*
X132380302Y-116344144D01*
X132935368Y-116316362D01*
X133223000Y-116197221D01*
X133223000Y-122966198D01*
X126490000Y-116233198D01*
X126490000Y-114727302D01*
X131178856Y-114727302D01*
X131206638Y-115282368D01*
X131365603Y-115666143D01*
X131607787Y-115735608D01*
X132408395Y-114935000D01*
X131607787Y-114134392D01*
X131365603Y-114203857D01*
X131178856Y-114727302D01*
X126490000Y-114727302D01*
X126490000Y-98344302D01*
X131178856Y-98344302D01*
X131206638Y-98899368D01*
X131365603Y-99283143D01*
X131607787Y-99352608D01*
X132408395Y-98552000D01*
X131607787Y-97751392D01*
X131365603Y-97820857D01*
X131178856Y-98344302D01*
X126490000Y-98344302D01*
X126490000Y-95340947D01*
X126626657Y-95284481D01*
X126855186Y-95056350D01*
X127293255Y-95056350D01*
X127385792Y-95318019D01*
X127977398Y-95536188D01*
X128607461Y-95511352D01*
X129074208Y-95318019D01*
X129166745Y-95056350D01*
X128230000Y-94119605D01*
X127293255Y-95056350D01*
X126855186Y-95056350D01*
X127055652Y-94856235D01*
X127113650Y-94876745D01*
X128050395Y-93940000D01*
X128409605Y-93940000D01*
X129346350Y-94876745D01*
X129608019Y-94784208D01*
X129826188Y-94192602D01*
X129801352Y-93562539D01*
X129608019Y-93095792D01*
X129346350Y-93003255D01*
X128409605Y-93940000D01*
X128050395Y-93940000D01*
X128036253Y-93925858D01*
X128215858Y-93746253D01*
X128230000Y-93760395D01*
X129166745Y-92823650D01*
X129146048Y-92765124D01*
X129572914Y-92339003D01*
X129814724Y-91756659D01*
X129815275Y-91126107D01*
X129574481Y-90543343D01*
X129129003Y-90097086D01*
X128546659Y-89855276D01*
X127916107Y-89854725D01*
X127333343Y-90095519D01*
X127240428Y-90188272D01*
X127144090Y-90038559D01*
X126931890Y-89893569D01*
X126680000Y-89842560D01*
X126411233Y-89842560D01*
X126267401Y-89627299D01*
X123703100Y-87062998D01*
X123703100Y-86097745D01*
X124941861Y-86097745D01*
X125015995Y-86343864D01*
X125553223Y-86536965D01*
X126123454Y-86509778D01*
X126524005Y-86343864D01*
X126598139Y-86097745D01*
X125770000Y-85269605D01*
X124941861Y-86097745D01*
X123703100Y-86097745D01*
X123703100Y-84873223D01*
X124323035Y-84873223D01*
X124350222Y-85443454D01*
X124516136Y-85844005D01*
X124762255Y-85918139D01*
X125590395Y-85090000D01*
X124762255Y-84261861D01*
X124516136Y-84335995D01*
X124323035Y-84873223D01*
X123703100Y-84873223D01*
X123703100Y-84082255D01*
X124941861Y-84082255D01*
X125770000Y-84910395D01*
X126598139Y-84082255D01*
X126524005Y-83836136D01*
X125986777Y-83643035D01*
X125416546Y-83670222D01*
X125015995Y-83836136D01*
X124941861Y-84082255D01*
X123703100Y-84082255D01*
X123703100Y-80472602D01*
X127041589Y-83811091D01*
X127041589Y-83811091D01*
G37*
X127041589Y-83811091D02*
X127018559Y-83825910D01*
X126873569Y-84038110D01*
X126825354Y-84276201D01*
X126777745Y-84261861D01*
X125949605Y-85090000D01*
X126777745Y-85918139D01*
X126825167Y-85903855D01*
X126866838Y-86125317D01*
X127005910Y-86341441D01*
X127218110Y-86486431D01*
X127470000Y-86537440D01*
X129070000Y-86537440D01*
X129305317Y-86493162D01*
X129493359Y-86372161D01*
X131203817Y-88082619D01*
X131191243Y-88112900D01*
X131190758Y-88668661D01*
X131402990Y-89182303D01*
X131795630Y-89575629D01*
X132308900Y-89788757D01*
X132864661Y-89789242D01*
X133223000Y-89641180D01*
X133223000Y-97295303D01*
X132795698Y-97142856D01*
X132240632Y-97170638D01*
X131856857Y-97329603D01*
X131787392Y-97571787D01*
X132588000Y-98372395D01*
X132602143Y-98358253D01*
X132781748Y-98537858D01*
X132767605Y-98552000D01*
X132781748Y-98566143D01*
X132602143Y-98745748D01*
X132588000Y-98731605D01*
X131787392Y-99532213D01*
X131856857Y-99774397D01*
X132380302Y-99961144D01*
X132935368Y-99933362D01*
X133223000Y-99814221D01*
X133223000Y-103526025D01*
X132867100Y-103378243D01*
X132311339Y-103377758D01*
X131797697Y-103589990D01*
X131404371Y-103982630D01*
X131191243Y-104495900D01*
X131190758Y-105051661D01*
X131402990Y-105565303D01*
X131795630Y-105958629D01*
X132308900Y-106171757D01*
X132864661Y-106172242D01*
X133223000Y-106024180D01*
X133223000Y-113678303D01*
X132795698Y-113525856D01*
X132240632Y-113553638D01*
X131856857Y-113712603D01*
X131787392Y-113954787D01*
X132588000Y-114755395D01*
X132602143Y-114741253D01*
X132781748Y-114920858D01*
X132767605Y-114935000D01*
X132781748Y-114949143D01*
X132602143Y-115128748D01*
X132588000Y-115114605D01*
X131787392Y-115915213D01*
X131856857Y-116157397D01*
X132380302Y-116344144D01*
X132935368Y-116316362D01*
X133223000Y-116197221D01*
X133223000Y-122966198D01*
X126490000Y-116233198D01*
X126490000Y-114727302D01*
X131178856Y-114727302D01*
X131206638Y-115282368D01*
X131365603Y-115666143D01*
X131607787Y-115735608D01*
X132408395Y-114935000D01*
X131607787Y-114134392D01*
X131365603Y-114203857D01*
X131178856Y-114727302D01*
X126490000Y-114727302D01*
X126490000Y-98344302D01*
X131178856Y-98344302D01*
X131206638Y-98899368D01*
X131365603Y-99283143D01*
X131607787Y-99352608D01*
X132408395Y-98552000D01*
X131607787Y-97751392D01*
X131365603Y-97820857D01*
X131178856Y-98344302D01*
X126490000Y-98344302D01*
X126490000Y-95340947D01*
X126626657Y-95284481D01*
X126855186Y-95056350D01*
X127293255Y-95056350D01*
X127385792Y-95318019D01*
X127977398Y-95536188D01*
X128607461Y-95511352D01*
X129074208Y-95318019D01*
X129166745Y-95056350D01*
X128230000Y-94119605D01*
X127293255Y-95056350D01*
X126855186Y-95056350D01*
X127055652Y-94856235D01*
X127113650Y-94876745D01*
X128050395Y-93940000D01*
X128409605Y-93940000D01*
X129346350Y-94876745D01*
X129608019Y-94784208D01*
X129826188Y-94192602D01*
X129801352Y-93562539D01*
X129608019Y-93095792D01*
X129346350Y-93003255D01*
X128409605Y-93940000D01*
X128050395Y-93940000D01*
X128036253Y-93925858D01*
X128215858Y-93746253D01*
X128230000Y-93760395D01*
X129166745Y-92823650D01*
X129146048Y-92765124D01*
X129572914Y-92339003D01*
X129814724Y-91756659D01*
X129815275Y-91126107D01*
X129574481Y-90543343D01*
X129129003Y-90097086D01*
X128546659Y-89855276D01*
X127916107Y-89854725D01*
X127333343Y-90095519D01*
X127240428Y-90188272D01*
X127144090Y-90038559D01*
X126931890Y-89893569D01*
X126680000Y-89842560D01*
X126411233Y-89842560D01*
X126267401Y-89627299D01*
X123703100Y-87062998D01*
X123703100Y-86097745D01*
X124941861Y-86097745D01*
X125015995Y-86343864D01*
X125553223Y-86536965D01*
X126123454Y-86509778D01*
X126524005Y-86343864D01*
X126598139Y-86097745D01*
X125770000Y-85269605D01*
X124941861Y-86097745D01*
X123703100Y-86097745D01*
X123703100Y-84873223D01*
X124323035Y-84873223D01*
X124350222Y-85443454D01*
X124516136Y-85844005D01*
X124762255Y-85918139D01*
X125590395Y-85090000D01*
X124762255Y-84261861D01*
X124516136Y-84335995D01*
X124323035Y-84873223D01*
X123703100Y-84873223D01*
X123703100Y-84082255D01*
X124941861Y-84082255D01*
X125770000Y-84910395D01*
X126598139Y-84082255D01*
X126524005Y-83836136D01*
X125986777Y-83643035D01*
X125416546Y-83670222D01*
X125015995Y-83836136D01*
X124941861Y-84082255D01*
X123703100Y-84082255D01*
X123703100Y-80472602D01*
X127041589Y-83811091D01*
G36*
X127313765Y-77445652D02*
X127293255Y-77503650D01*
X128230000Y-78440395D01*
X128244143Y-78426253D01*
X128423748Y-78605858D01*
X128409605Y-78620000D01*
X128423748Y-78634143D01*
X128244143Y-78813748D01*
X128230000Y-78799605D01*
X127293255Y-79736350D01*
X127385792Y-79998019D01*
X127977398Y-80216188D01*
X128607461Y-80191352D01*
X128745400Y-80134216D01*
X128745400Y-83365298D01*
X125584976Y-80204874D01*
X126043893Y-80205275D01*
X126626657Y-79964481D01*
X127055652Y-79536235D01*
X127113650Y-79556745D01*
X128050395Y-78620000D01*
X127113650Y-77683255D01*
X127055124Y-77703952D01*
X126721529Y-77369774D01*
X126980226Y-77111529D01*
X127313765Y-77445652D01*
X127313765Y-77445652D01*
G37*
X127313765Y-77445652D02*
X127293255Y-77503650D01*
X128230000Y-78440395D01*
X128244143Y-78426253D01*
X128423748Y-78605858D01*
X128409605Y-78620000D01*
X128423748Y-78634143D01*
X128244143Y-78813748D01*
X128230000Y-78799605D01*
X127293255Y-79736350D01*
X127385792Y-79998019D01*
X127977398Y-80216188D01*
X128607461Y-80191352D01*
X128745400Y-80134216D01*
X128745400Y-83365298D01*
X125584976Y-80204874D01*
X126043893Y-80205275D01*
X126626657Y-79964481D01*
X127055652Y-79536235D01*
X127113650Y-79556745D01*
X128050395Y-78620000D01*
X127113650Y-77683255D01*
X127055124Y-77703952D01*
X126721529Y-77369774D01*
X126980226Y-77111529D01*
X127313765Y-77445652D01*
G36*
X226391000Y-77343000D02*
X193675000Y-77343000D01*
X193625590Y-77353006D01*
X193583965Y-77381447D01*
X193556685Y-77423841D01*
X193548000Y-77470000D01*
X193548000Y-86922712D01*
X193256777Y-86818035D01*
X192686546Y-86845222D01*
X192285995Y-87011136D01*
X192211861Y-87257255D01*
X193040000Y-88085395D01*
X193054142Y-88071252D01*
X193233748Y-88250858D01*
X193219605Y-88265000D01*
X193233748Y-88279143D01*
X193054142Y-88458748D01*
X193040000Y-88444605D01*
X192211861Y-89272745D01*
X192285995Y-89518864D01*
X192823223Y-89711965D01*
X193393454Y-89684778D01*
X193548000Y-89620763D01*
X193548000Y-117348000D01*
X141097000Y-117348000D01*
X141097000Y-115211661D01*
X141350758Y-115211661D01*
X141562990Y-115725303D01*
X141955630Y-116118629D01*
X142468900Y-116331757D01*
X143024661Y-116332242D01*
X143538303Y-116120010D01*
X143931629Y-115727370D01*
X144144757Y-115214100D01*
X144144759Y-115211661D01*
X148970758Y-115211661D01*
X149182990Y-115725303D01*
X149575630Y-116118629D01*
X150088900Y-116331757D01*
X150644661Y-116332242D01*
X151158303Y-116120010D01*
X151551629Y-115727370D01*
X151764757Y-115214100D01*
X151765242Y-114658339D01*
X151735249Y-114585750D01*
X154040000Y-114585750D01*
X154040000Y-115326309D01*
X154136673Y-115559698D01*
X154315301Y-115738327D01*
X154548690Y-115835000D01*
X155289250Y-115835000D01*
X155448000Y-115676250D01*
X155448000Y-114427000D01*
X155702000Y-114427000D01*
X155702000Y-115676250D01*
X155860750Y-115835000D01*
X156601310Y-115835000D01*
X156834699Y-115738327D01*
X157013327Y-115559698D01*
X157110000Y-115326309D01*
X157110000Y-114585750D01*
X156951250Y-114427000D01*
X155702000Y-114427000D01*
X155448000Y-114427000D01*
X154198750Y-114427000D01*
X154040000Y-114585750D01*
X151735249Y-114585750D01*
X151553010Y-114144697D01*
X151160370Y-113751371D01*
X150647100Y-113538243D01*
X150091339Y-113537758D01*
X149577697Y-113749990D01*
X149184371Y-114142630D01*
X148971243Y-114655900D01*
X148970758Y-115211661D01*
X144144759Y-115211661D01*
X144145242Y-114658339D01*
X143933010Y-114144697D01*
X143540370Y-113751371D01*
X143027100Y-113538243D01*
X142471339Y-113537758D01*
X141957697Y-113749990D01*
X141564371Y-114142630D01*
X141351243Y-114655900D01*
X141350758Y-115211661D01*
X141097000Y-115211661D01*
X141097000Y-113273691D01*
X154040000Y-113273691D01*
X154040000Y-114014250D01*
X154198750Y-114173000D01*
X155448000Y-114173000D01*
X155448000Y-112923750D01*
X155702000Y-112923750D01*
X155702000Y-114173000D01*
X156951250Y-114173000D01*
X157110000Y-114014250D01*
X157110000Y-113273691D01*
X157013327Y-113040302D01*
X156834699Y-112861673D01*
X156601310Y-112765000D01*
X155860750Y-112765000D01*
X155702000Y-112923750D01*
X155448000Y-112923750D01*
X155289250Y-112765000D01*
X154548690Y-112765000D01*
X154315301Y-112861673D01*
X154136673Y-113040302D01*
X154040000Y-113273691D01*
X141097000Y-113273691D01*
X141097000Y-110892020D01*
X164974648Y-110892020D01*
X165283046Y-111638400D01*
X165853596Y-112209947D01*
X166599437Y-112519647D01*
X167407020Y-112520352D01*
X168153400Y-112211954D01*
X168724947Y-111641404D01*
X169034647Y-110895563D01*
X169034650Y-110892020D01*
X183284648Y-110892020D01*
X183593046Y-111638400D01*
X184163596Y-112209947D01*
X184909437Y-112519647D01*
X185717020Y-112520352D01*
X186463400Y-112211954D01*
X187034947Y-111641404D01*
X187344647Y-110895563D01*
X187345352Y-110087980D01*
X187036954Y-109341600D01*
X186466404Y-108770053D01*
X185720563Y-108460353D01*
X184912980Y-108459648D01*
X184166600Y-108768046D01*
X183595053Y-109338596D01*
X183285353Y-110084437D01*
X183284648Y-110892020D01*
X169034650Y-110892020D01*
X169035352Y-110087980D01*
X168726954Y-109341600D01*
X168156404Y-108770053D01*
X167410563Y-108460353D01*
X166602980Y-108459648D01*
X165856600Y-108768046D01*
X165285053Y-109338596D01*
X164975353Y-110084437D01*
X164974648Y-110892020D01*
X141097000Y-110892020D01*
X141097000Y-109189928D01*
X154040000Y-109189928D01*
X154040000Y-109250072D01*
X154156845Y-109837491D01*
X154489591Y-110335481D01*
X154987581Y-110668227D01*
X155575000Y-110785072D01*
X156162419Y-110668227D01*
X156660409Y-110335481D01*
X156993155Y-109837491D01*
X157110000Y-109250072D01*
X157110000Y-109189928D01*
X156993155Y-108602509D01*
X156660409Y-108104519D01*
X156162419Y-107771773D01*
X155575000Y-107654928D01*
X154987581Y-107771773D01*
X154489591Y-108104519D01*
X154156845Y-108602509D01*
X154040000Y-109189928D01*
X141097000Y-109189928D01*
X141097000Y-105051661D01*
X141350758Y-105051661D01*
X141562990Y-105565303D01*
X141955630Y-105958629D01*
X142468900Y-106171757D01*
X143024661Y-106172242D01*
X143538303Y-105960010D01*
X143931629Y-105567370D01*
X144144757Y-105054100D01*
X144145242Y-104498339D01*
X143933010Y-103984697D01*
X143540370Y-103591371D01*
X143027100Y-103378243D01*
X142471339Y-103377758D01*
X141957697Y-103589990D01*
X141564371Y-103982630D01*
X141351243Y-104495900D01*
X141350758Y-105051661D01*
X141097000Y-105051661D01*
X141097000Y-98828661D01*
X141350758Y-98828661D01*
X141562990Y-99342303D01*
X141955630Y-99735629D01*
X142468900Y-99948757D01*
X143024661Y-99949242D01*
X143538303Y-99737010D01*
X143931629Y-99344370D01*
X144144757Y-98831100D01*
X144144759Y-98828661D01*
X148970758Y-98828661D01*
X149182990Y-99342303D01*
X149575630Y-99735629D01*
X150088900Y-99948757D01*
X150644661Y-99949242D01*
X151158303Y-99737010D01*
X151551629Y-99344370D01*
X151764757Y-98831100D01*
X151765242Y-98275339D01*
X151553010Y-97761697D01*
X151160370Y-97368371D01*
X150647100Y-97155243D01*
X150091339Y-97154758D01*
X149577697Y-97366990D01*
X149184371Y-97759630D01*
X148971243Y-98272900D01*
X148970758Y-98828661D01*
X144144759Y-98828661D01*
X144145242Y-98275339D01*
X143933010Y-97761697D01*
X143540370Y-97368371D01*
X143027100Y-97155243D01*
X142471339Y-97154758D01*
X141957697Y-97366990D01*
X141564371Y-97759630D01*
X141351243Y-98272900D01*
X141350758Y-98828661D01*
X141097000Y-98828661D01*
X141097000Y-88668661D01*
X141350758Y-88668661D01*
X141562990Y-89182303D01*
X141955630Y-89575629D01*
X142468900Y-89788757D01*
X143024661Y-89789242D01*
X143538303Y-89577010D01*
X143931629Y-89184370D01*
X144144757Y-88671100D01*
X144145242Y-88115339D01*
X143933010Y-87601697D01*
X143540370Y-87208371D01*
X143027100Y-86995243D01*
X142471339Y-86994758D01*
X141957697Y-87206990D01*
X141564371Y-87599630D01*
X141351243Y-88112900D01*
X141350758Y-88668661D01*
X141097000Y-88668661D01*
X141097000Y-84759440D01*
X141897000Y-84759440D01*
X142132317Y-84715162D01*
X142348441Y-84576090D01*
X142493431Y-84363890D01*
X142544440Y-84112000D01*
X142544440Y-82512000D01*
X142500162Y-82276683D01*
X142361090Y-82060559D01*
X142148890Y-81915569D01*
X141993911Y-81884185D01*
X142139811Y-81786698D01*
X142450880Y-81321151D01*
X142459065Y-81280000D01*
X145856887Y-81280000D01*
X145966120Y-81829151D01*
X146277189Y-82294698D01*
X146742736Y-82605767D01*
X147291887Y-82715000D01*
X147348113Y-82715000D01*
X147897264Y-82605767D01*
X148362811Y-82294698D01*
X148673880Y-81829151D01*
X148783113Y-81280000D01*
X148673880Y-80730849D01*
X148362811Y-80265302D01*
X147897264Y-79954233D01*
X147348113Y-79845000D01*
X147291887Y-79845000D01*
X146742736Y-79954233D01*
X146277189Y-80265302D01*
X145966120Y-80730849D01*
X145856887Y-81280000D01*
X142459065Y-81280000D01*
X142560113Y-80772000D01*
X142450880Y-80222849D01*
X142139811Y-79757302D01*
X141757725Y-79502000D01*
X142139811Y-79246698D01*
X142450880Y-78781151D01*
X142560113Y-78232000D01*
X142450880Y-77682849D01*
X142139811Y-77217302D01*
X141757725Y-76962000D01*
X142139811Y-76706698D01*
X142450880Y-76241151D01*
X142459065Y-76200000D01*
X145856887Y-76200000D01*
X145966120Y-76749151D01*
X146277189Y-77214698D01*
X146742736Y-77525767D01*
X147291887Y-77635000D01*
X147348113Y-77635000D01*
X147897264Y-77525767D01*
X148362811Y-77214698D01*
X148673880Y-76749151D01*
X148783113Y-76200000D01*
X148739994Y-75983223D01*
X156033035Y-75983223D01*
X156060222Y-76553454D01*
X156226136Y-76954005D01*
X156472255Y-77028139D01*
X157300395Y-76200000D01*
X156472255Y-75371861D01*
X156226136Y-75445995D01*
X156033035Y-75983223D01*
X148739994Y-75983223D01*
X148673880Y-75650849D01*
X148367457Y-75192255D01*
X156651861Y-75192255D01*
X157480000Y-76020395D01*
X158308139Y-75192255D01*
X158234005Y-74946136D01*
X157696777Y-74753035D01*
X157126546Y-74780222D01*
X156725995Y-74946136D01*
X156651861Y-75192255D01*
X148367457Y-75192255D01*
X148362811Y-75185302D01*
X147897264Y-74874233D01*
X147348113Y-74765000D01*
X147291887Y-74765000D01*
X146742736Y-74874233D01*
X146277189Y-75185302D01*
X145966120Y-75650849D01*
X145856887Y-76200000D01*
X142459065Y-76200000D01*
X142560113Y-75692000D01*
X142450880Y-75142849D01*
X142139811Y-74677302D01*
X141757725Y-74422000D01*
X142139811Y-74166698D01*
X142450880Y-73701151D01*
X142560113Y-73152000D01*
X142450880Y-72602849D01*
X142139811Y-72137302D01*
X141757725Y-71882000D01*
X142139811Y-71626698D01*
X142450880Y-71161151D01*
X142459065Y-71120000D01*
X145856887Y-71120000D01*
X145966120Y-71669151D01*
X146277189Y-72134698D01*
X146742736Y-72445767D01*
X147291887Y-72555000D01*
X147348113Y-72555000D01*
X147897264Y-72445767D01*
X148362811Y-72134698D01*
X148367456Y-72127745D01*
X156651861Y-72127745D01*
X156725995Y-72373864D01*
X157263223Y-72566965D01*
X157833454Y-72539778D01*
X158234005Y-72373864D01*
X158308139Y-72127745D01*
X157480000Y-71299605D01*
X156651861Y-72127745D01*
X148367456Y-72127745D01*
X148673880Y-71669151D01*
X148783113Y-71120000D01*
X148739994Y-70903223D01*
X156033035Y-70903223D01*
X156060222Y-71473454D01*
X156226136Y-71874005D01*
X156472255Y-71948139D01*
X157300395Y-71120000D01*
X157659605Y-71120000D01*
X158487745Y-71948139D01*
X158733864Y-71874005D01*
X158926965Y-71336777D01*
X158899778Y-70766546D01*
X158733864Y-70365995D01*
X158487745Y-70291861D01*
X157659605Y-71120000D01*
X157300395Y-71120000D01*
X156472255Y-70291861D01*
X156226136Y-70365995D01*
X156033035Y-70903223D01*
X148739994Y-70903223D01*
X148673880Y-70570849D01*
X148367457Y-70112255D01*
X156651861Y-70112255D01*
X157480000Y-70940395D01*
X158308139Y-70112255D01*
X158234005Y-69866136D01*
X157696777Y-69673035D01*
X157126546Y-69700222D01*
X156725995Y-69866136D01*
X156651861Y-70112255D01*
X148367457Y-70112255D01*
X148362811Y-70105302D01*
X147897264Y-69794233D01*
X147348113Y-69685000D01*
X147291887Y-69685000D01*
X146742736Y-69794233D01*
X146277189Y-70105302D01*
X145966120Y-70570849D01*
X145856887Y-71120000D01*
X142459065Y-71120000D01*
X142560113Y-70612000D01*
X142450880Y-70062849D01*
X142139811Y-69597302D01*
X141757725Y-69342000D01*
X142139811Y-69086698D01*
X142450880Y-68621151D01*
X142560113Y-68072000D01*
X142450880Y-67522849D01*
X142139811Y-67057302D01*
X141757725Y-66802000D01*
X142139811Y-66546698D01*
X142450880Y-66081151D01*
X142560113Y-65532000D01*
X142450880Y-64982849D01*
X142139811Y-64517302D01*
X141674264Y-64206233D01*
X141125113Y-64097000D01*
X141097000Y-64097000D01*
X141097000Y-59260745D01*
X150301861Y-59260745D01*
X150375995Y-59506864D01*
X150913223Y-59699965D01*
X151483454Y-59672778D01*
X151884005Y-59506864D01*
X151958139Y-59260745D01*
X151130000Y-58432605D01*
X150301861Y-59260745D01*
X141097000Y-59260745D01*
X141097000Y-54132187D01*
X143090752Y-54132187D01*
X143308757Y-54659800D01*
X143712077Y-55063824D01*
X144239309Y-55282750D01*
X144810187Y-55283248D01*
X144864149Y-55260951D01*
X147018999Y-57415801D01*
X147265561Y-57580548D01*
X147556400Y-57638400D01*
X149826028Y-57638400D01*
X149683035Y-58036223D01*
X149710222Y-58606454D01*
X149876136Y-59007005D01*
X150122255Y-59081139D01*
X150950395Y-58253000D01*
X150936252Y-58238858D01*
X151115858Y-58059252D01*
X151130000Y-58073395D01*
X151144142Y-58059252D01*
X151323748Y-58238858D01*
X151309605Y-58253000D01*
X152137745Y-59081139D01*
X152383864Y-59007005D01*
X152576965Y-58469777D01*
X152549778Y-57899546D01*
X152441608Y-57638400D01*
X156086830Y-57638400D01*
X156255519Y-58046657D01*
X156608471Y-58400226D01*
X156257086Y-58750997D01*
X156015276Y-59333341D01*
X156014725Y-59963893D01*
X156255519Y-60546657D01*
X156700997Y-60992914D01*
X157283341Y-61234724D01*
X157913893Y-61235275D01*
X158496657Y-60994481D01*
X158850226Y-60641529D01*
X159200997Y-60992914D01*
X159783341Y-61234724D01*
X160413893Y-61235275D01*
X160996657Y-60994481D01*
X161350226Y-60641529D01*
X161700997Y-60992914D01*
X162283341Y-61234724D01*
X162440337Y-61234861D01*
X160427198Y-63248000D01*
X145729667Y-63248000D01*
X145540698Y-62965189D01*
X145075151Y-62654120D01*
X144526000Y-62544887D01*
X143976849Y-62654120D01*
X143511302Y-62965189D01*
X143200233Y-63430736D01*
X143091000Y-63979887D01*
X143091000Y-64036113D01*
X143200233Y-64585264D01*
X143511302Y-65050811D01*
X143976849Y-65361880D01*
X144526000Y-65471113D01*
X145075151Y-65361880D01*
X145540698Y-65050811D01*
X145729667Y-64768000D01*
X160742000Y-64768000D01*
X161032839Y-64710148D01*
X161279401Y-64545401D01*
X164646782Y-61178020D01*
X164783341Y-61234724D01*
X165413893Y-61235275D01*
X165633900Y-61144370D01*
X165633900Y-68610798D01*
X163817737Y-70426961D01*
X163602811Y-70105302D01*
X163137264Y-69794233D01*
X162588113Y-69685000D01*
X162531887Y-69685000D01*
X161982736Y-69794233D01*
X161517189Y-70105302D01*
X161206120Y-70570849D01*
X161096887Y-71120000D01*
X161206120Y-71669151D01*
X161517189Y-72134698D01*
X161872553Y-72372145D01*
X158752855Y-75491843D01*
X158733864Y-75445995D01*
X158487745Y-75371861D01*
X157659605Y-76200000D01*
X157673748Y-76214142D01*
X157494142Y-76393748D01*
X157480000Y-76379605D01*
X156651861Y-77207745D01*
X156725995Y-77453864D01*
X156773690Y-77471008D01*
X149830599Y-84414099D01*
X149665852Y-84660661D01*
X149608000Y-84951500D01*
X149608000Y-87194469D01*
X149577697Y-87206990D01*
X149184371Y-87599630D01*
X148971243Y-88112900D01*
X148970758Y-88668661D01*
X149182990Y-89182303D01*
X149575630Y-89575629D01*
X150088900Y-89788757D01*
X150644661Y-89789242D01*
X151158303Y-89577010D01*
X151551629Y-89184370D01*
X151764757Y-88671100D01*
X151765242Y-88115339D01*
X151553010Y-87601697D01*
X151160370Y-87208371D01*
X151128000Y-87194930D01*
X151128000Y-85266302D01*
X152142500Y-84251802D01*
X152142500Y-101925698D01*
X150677381Y-103390817D01*
X150647100Y-103378243D01*
X150091339Y-103377758D01*
X149577697Y-103589990D01*
X149184371Y-103982630D01*
X148971243Y-104495900D01*
X148970758Y-105051661D01*
X149182990Y-105565303D01*
X149575630Y-105958629D01*
X150088900Y-106171757D01*
X150644661Y-106172242D01*
X151158303Y-105960010D01*
X151551629Y-105567370D01*
X151764757Y-105054100D01*
X151765242Y-104498339D01*
X151751857Y-104465945D01*
X153439901Y-102777901D01*
X153604648Y-102531340D01*
X153662500Y-102240500D01*
X153662500Y-98075750D01*
X154040000Y-98075750D01*
X154040000Y-98816309D01*
X154136673Y-99049698D01*
X154315301Y-99228327D01*
X154548690Y-99325000D01*
X155289250Y-99325000D01*
X155448000Y-99166250D01*
X155448000Y-97917000D01*
X155702000Y-97917000D01*
X155702000Y-99166250D01*
X155860750Y-99325000D01*
X156601310Y-99325000D01*
X156834699Y-99228327D01*
X157013327Y-99049698D01*
X157110000Y-98816309D01*
X157110000Y-98075750D01*
X156951250Y-97917000D01*
X155702000Y-97917000D01*
X155448000Y-97917000D01*
X154198750Y-97917000D01*
X154040000Y-98075750D01*
X153662500Y-98075750D01*
X153662500Y-96763691D01*
X154040000Y-96763691D01*
X154040000Y-97504250D01*
X154198750Y-97663000D01*
X155448000Y-97663000D01*
X155448000Y-96413750D01*
X155702000Y-96413750D01*
X155702000Y-97663000D01*
X156951250Y-97663000D01*
X157110000Y-97504250D01*
X157110000Y-96763691D01*
X157013327Y-96530302D01*
X156834699Y-96351673D01*
X156601310Y-96255000D01*
X155860750Y-96255000D01*
X155702000Y-96413750D01*
X155448000Y-96413750D01*
X155289250Y-96255000D01*
X154548690Y-96255000D01*
X154315301Y-96351673D01*
X154136673Y-96530302D01*
X154040000Y-96763691D01*
X153662500Y-96763691D01*
X153662500Y-92679928D01*
X154040000Y-92679928D01*
X154040000Y-92740072D01*
X154156845Y-93327491D01*
X154489591Y-93825481D01*
X154987581Y-94158227D01*
X155575000Y-94275072D01*
X156162419Y-94158227D01*
X156660409Y-93825481D01*
X156993155Y-93327491D01*
X157110000Y-92740072D01*
X157110000Y-92679928D01*
X156993155Y-92092509D01*
X156660409Y-91594519D01*
X156162419Y-91261773D01*
X155575000Y-91144928D01*
X154987581Y-91261773D01*
X154489591Y-91594519D01*
X154156845Y-92092509D01*
X154040000Y-92679928D01*
X153662500Y-92679928D01*
X153662500Y-84787745D01*
X165541861Y-84787745D01*
X165615995Y-85033864D01*
X166153223Y-85226965D01*
X166723454Y-85199778D01*
X167124005Y-85033864D01*
X167198139Y-84787745D01*
X166370000Y-83959605D01*
X165541861Y-84787745D01*
X153662500Y-84787745D01*
X153662500Y-83563223D01*
X164923035Y-83563223D01*
X164950222Y-84133454D01*
X165116136Y-84534005D01*
X165362255Y-84608139D01*
X166190395Y-83780000D01*
X166549605Y-83780000D01*
X167377745Y-84608139D01*
X167623864Y-84534005D01*
X167816965Y-83996777D01*
X167789778Y-83426546D01*
X167623864Y-83025995D01*
X167377745Y-82951861D01*
X166549605Y-83780000D01*
X166190395Y-83780000D01*
X165362255Y-82951861D01*
X165116136Y-83025995D01*
X164923035Y-83563223D01*
X153662500Y-83563223D01*
X153662500Y-83368802D01*
X154743557Y-82287745D01*
X156651861Y-82287745D01*
X156725995Y-82533864D01*
X157263223Y-82726965D01*
X157833454Y-82699778D01*
X158234005Y-82533864D01*
X158308139Y-82287745D01*
X157480000Y-81459605D01*
X156651861Y-82287745D01*
X154743557Y-82287745D01*
X156069484Y-80961818D01*
X156033035Y-81063223D01*
X156060222Y-81633454D01*
X156226136Y-82034005D01*
X156472255Y-82108139D01*
X157300395Y-81280000D01*
X157659605Y-81280000D01*
X158487745Y-82108139D01*
X158733864Y-82034005D01*
X158926965Y-81496777D01*
X158899778Y-80926546D01*
X158733864Y-80525995D01*
X158487745Y-80451861D01*
X157659605Y-81280000D01*
X157300395Y-81280000D01*
X157286252Y-81265858D01*
X157465858Y-81086252D01*
X157480000Y-81100395D01*
X158308139Y-80272255D01*
X158234005Y-80026136D01*
X157696777Y-79833035D01*
X157173310Y-79857992D01*
X161162833Y-75868469D01*
X161096887Y-76200000D01*
X161206120Y-76749151D01*
X161517189Y-77214698D01*
X161982736Y-77525767D01*
X162531887Y-77635000D01*
X162588113Y-77635000D01*
X163137264Y-77525767D01*
X163602811Y-77214698D01*
X163913880Y-76749151D01*
X164023113Y-76200000D01*
X163913880Y-75650849D01*
X163602811Y-75185302D01*
X163137264Y-74874233D01*
X162588113Y-74765000D01*
X162531887Y-74765000D01*
X162200356Y-74830946D01*
X168489400Y-68541902D01*
X168489400Y-76358900D01*
X168547252Y-76649739D01*
X168711999Y-76896301D01*
X169758098Y-77942400D01*
X167648909Y-80051589D01*
X167634090Y-80028559D01*
X167421890Y-79883569D01*
X167170000Y-79832560D01*
X165570000Y-79832560D01*
X165334683Y-79876838D01*
X165118559Y-80015910D01*
X164973569Y-80228110D01*
X164922560Y-80480000D01*
X164922560Y-82080000D01*
X164966838Y-82315317D01*
X165105910Y-82531441D01*
X165318110Y-82676431D01*
X165556201Y-82724646D01*
X165541861Y-82772255D01*
X166370000Y-83600395D01*
X167198139Y-82772255D01*
X167183855Y-82724833D01*
X167405317Y-82683162D01*
X167621441Y-82544090D01*
X167766431Y-82331890D01*
X167817440Y-82080000D01*
X167817440Y-81961233D01*
X168032701Y-81817401D01*
X171147702Y-78702400D01*
X172197898Y-78702400D01*
X172347763Y-78852265D01*
X172239519Y-78924591D01*
X171906773Y-79422581D01*
X171789928Y-80010000D01*
X171906773Y-80597419D01*
X172239519Y-81095409D01*
X172737509Y-81428155D01*
X173324928Y-81545000D01*
X173385072Y-81545000D01*
X173972491Y-81428155D01*
X174470481Y-81095409D01*
X174629501Y-80857418D01*
X174987424Y-81247966D01*
X175530258Y-81501046D01*
X175768000Y-81380997D01*
X175768000Y-80137000D01*
X175748000Y-80137000D01*
X175748000Y-79883000D01*
X175768000Y-79883000D01*
X175768000Y-78639003D01*
X175530258Y-78518954D01*
X174987424Y-78772034D01*
X174629501Y-79162582D01*
X174470481Y-78924591D01*
X174092602Y-78672101D01*
X174057148Y-78493861D01*
X173892401Y-78247299D01*
X173199605Y-77554503D01*
X173531800Y-77417243D01*
X173935824Y-77013923D01*
X174154750Y-76486691D01*
X174155248Y-75915813D01*
X173937243Y-75388200D01*
X173533923Y-74984176D01*
X173006691Y-74765250D01*
X172435813Y-74764752D01*
X171908200Y-74982757D01*
X171504176Y-75386077D01*
X171285250Y-75913309D01*
X171284752Y-76484187D01*
X171502757Y-77011800D01*
X171673060Y-77182400D01*
X171147702Y-77182400D01*
X170009400Y-76044098D01*
X170009400Y-71404187D01*
X171284752Y-71404187D01*
X171502757Y-71931800D01*
X171906077Y-72335824D01*
X172433309Y-72554750D01*
X173004187Y-72555248D01*
X173531800Y-72337243D01*
X173935824Y-71933923D01*
X174154750Y-71406691D01*
X174155248Y-70835813D01*
X173937243Y-70308200D01*
X173533923Y-69904176D01*
X173006691Y-69685250D01*
X172435813Y-69684752D01*
X171908200Y-69902757D01*
X171504176Y-70306077D01*
X171285250Y-70833309D01*
X171284752Y-71404187D01*
X170009400Y-71404187D01*
X170009400Y-63095390D01*
X170128923Y-63145020D01*
X170295864Y-63145166D01*
X177675000Y-70524302D01*
X177675000Y-78462560D01*
X177535000Y-78462560D01*
X177299683Y-78506838D01*
X177083559Y-78645910D01*
X176938569Y-78858110D01*
X176928234Y-78909146D01*
X176802576Y-78772034D01*
X176259742Y-78518954D01*
X176022000Y-78639003D01*
X176022000Y-79883000D01*
X176042000Y-79883000D01*
X176042000Y-80137000D01*
X176022000Y-80137000D01*
X176022000Y-81380997D01*
X176259742Y-81501046D01*
X176802576Y-81247966D01*
X176925844Y-81113462D01*
X176931838Y-81145317D01*
X177070910Y-81361441D01*
X177283110Y-81506431D01*
X177535000Y-81557440D01*
X178091558Y-81557440D01*
X173269298Y-86379700D01*
X161000600Y-86379700D01*
X160709761Y-86437552D01*
X160463199Y-86602299D01*
X159801777Y-87263721D01*
X159792811Y-87250302D01*
X159327264Y-86939233D01*
X158778113Y-86830000D01*
X158721887Y-86830000D01*
X158172736Y-86939233D01*
X157707189Y-87250302D01*
X157396120Y-87715849D01*
X157286887Y-88265000D01*
X157396120Y-88814151D01*
X157707189Y-89279698D01*
X158172736Y-89590767D01*
X158721887Y-89700000D01*
X158778113Y-89700000D01*
X159327264Y-89590767D01*
X159792811Y-89279698D01*
X159976437Y-89004882D01*
X160166139Y-88967148D01*
X160412701Y-88802401D01*
X161315402Y-87899700D01*
X167507891Y-87899700D01*
X167475250Y-87978309D01*
X167474752Y-88549187D01*
X167692757Y-89076800D01*
X168096077Y-89480824D01*
X168150000Y-89503215D01*
X168150000Y-95257394D01*
X167410563Y-94950353D01*
X166602980Y-94949648D01*
X165856600Y-95258046D01*
X165285053Y-95828596D01*
X164975353Y-96574437D01*
X164974648Y-97382020D01*
X165283046Y-98128400D01*
X165853596Y-98699947D01*
X166599437Y-99009647D01*
X167407020Y-99010352D01*
X168150000Y-98703359D01*
X168150000Y-98716100D01*
X168207852Y-99006939D01*
X168372599Y-99253501D01*
X171395941Y-102276843D01*
X171240381Y-102651472D01*
X171239619Y-103524697D01*
X171573084Y-104331743D01*
X172190009Y-104949746D01*
X172996472Y-105284619D01*
X173869697Y-105285381D01*
X174676743Y-104951916D01*
X175294746Y-104334991D01*
X175629619Y-103528528D01*
X175630381Y-102655303D01*
X175296916Y-101848257D01*
X174679991Y-101230254D01*
X173873528Y-100895381D01*
X173000303Y-100894619D01*
X172408040Y-101139338D01*
X172073702Y-100805000D01*
X175609250Y-100805000D01*
X175768000Y-100646250D01*
X175768000Y-96797000D01*
X176022000Y-96797000D01*
X176022000Y-100646250D01*
X176180750Y-100805000D01*
X180095198Y-100805000D01*
X179804924Y-101095274D01*
X179323528Y-100895381D01*
X178450303Y-100894619D01*
X177643257Y-101228084D01*
X177025254Y-101845009D01*
X176690381Y-102651472D01*
X176689619Y-103524697D01*
X177023084Y-104331743D01*
X177640009Y-104949746D01*
X178446472Y-105284619D01*
X179319697Y-105285381D01*
X180126743Y-104951916D01*
X180744746Y-104334991D01*
X181079619Y-103528528D01*
X181080381Y-102655303D01*
X180879841Y-102169961D01*
X183417401Y-99632401D01*
X183582148Y-99385840D01*
X183640000Y-99095000D01*
X183640000Y-98175436D01*
X184163596Y-98699947D01*
X184909437Y-99009647D01*
X185717020Y-99010352D01*
X186463400Y-98701954D01*
X187034947Y-98131404D01*
X187344647Y-97385563D01*
X187345352Y-96577980D01*
X187036954Y-95831600D01*
X186466404Y-95260053D01*
X185720563Y-94950353D01*
X184912980Y-94949648D01*
X184166600Y-95258046D01*
X183640000Y-95783727D01*
X183640000Y-89468667D01*
X183922811Y-89279698D01*
X184233880Y-88814151D01*
X184343113Y-88265000D01*
X184299994Y-88048223D01*
X191593035Y-88048223D01*
X191620222Y-88618454D01*
X191786136Y-89019005D01*
X192032255Y-89093139D01*
X192860395Y-88265000D01*
X192032255Y-87436861D01*
X191786136Y-87510995D01*
X191593035Y-88048223D01*
X184299994Y-88048223D01*
X184233880Y-87715849D01*
X183922811Y-87250302D01*
X183457264Y-86939233D01*
X182908113Y-86830000D01*
X182851887Y-86830000D01*
X182302736Y-86939233D01*
X181837189Y-87250302D01*
X181526120Y-87715849D01*
X181416887Y-88265000D01*
X181526120Y-88814151D01*
X181837189Y-89279698D01*
X182120000Y-89468667D01*
X182120000Y-98780198D01*
X181530000Y-99370198D01*
X181530000Y-96955750D01*
X181371250Y-96797000D01*
X176022000Y-96797000D01*
X175768000Y-96797000D01*
X170418750Y-96797000D01*
X170260000Y-96955750D01*
X170260000Y-98991298D01*
X169670000Y-98401298D01*
X169670000Y-93043690D01*
X170260000Y-93043690D01*
X170260000Y-96384250D01*
X170418750Y-96543000D01*
X175768000Y-96543000D01*
X175768000Y-92693750D01*
X176022000Y-92693750D01*
X176022000Y-96543000D01*
X181371250Y-96543000D01*
X181530000Y-96384250D01*
X181530000Y-93043690D01*
X181433327Y-92810301D01*
X181254698Y-92631673D01*
X181021309Y-92535000D01*
X176180750Y-92535000D01*
X176022000Y-92693750D01*
X175768000Y-92693750D01*
X175609250Y-92535000D01*
X170768691Y-92535000D01*
X170535302Y-92631673D01*
X170356673Y-92810301D01*
X170260000Y-93043690D01*
X169670000Y-93043690D01*
X169670000Y-89503646D01*
X169721800Y-89482243D01*
X170125824Y-89078923D01*
X170344750Y-88551691D01*
X170345248Y-87980813D01*
X170311733Y-87899700D01*
X173584100Y-87899700D01*
X173874939Y-87841848D01*
X174121501Y-87677101D01*
X177010857Y-84787745D01*
X184591861Y-84787745D01*
X184665995Y-85033864D01*
X185203223Y-85226965D01*
X185773454Y-85199778D01*
X186174005Y-85033864D01*
X186248139Y-84787745D01*
X185420000Y-83959605D01*
X184591861Y-84787745D01*
X177010857Y-84787745D01*
X178235379Y-83563223D01*
X183973035Y-83563223D01*
X184000222Y-84133454D01*
X184166136Y-84534005D01*
X184412255Y-84608139D01*
X185240395Y-83780000D01*
X185599605Y-83780000D01*
X186427745Y-84608139D01*
X186673864Y-84534005D01*
X186866965Y-83996777D01*
X186839778Y-83426546D01*
X186673864Y-83025995D01*
X186427745Y-82951861D01*
X185599605Y-83780000D01*
X185240395Y-83780000D01*
X184412255Y-82951861D01*
X184166136Y-83025995D01*
X183973035Y-83563223D01*
X178235379Y-83563223D01*
X181318602Y-80480000D01*
X183972560Y-80480000D01*
X183972560Y-82080000D01*
X184016838Y-82315317D01*
X184155910Y-82531441D01*
X184368110Y-82676431D01*
X184606201Y-82724646D01*
X184591861Y-82772255D01*
X185420000Y-83600395D01*
X186248139Y-82772255D01*
X186233855Y-82724833D01*
X186455317Y-82683162D01*
X186671441Y-82544090D01*
X186816431Y-82331890D01*
X186867440Y-82080000D01*
X186867440Y-80480000D01*
X186823162Y-80244683D01*
X186684090Y-80028559D01*
X186471890Y-79883569D01*
X186220000Y-79832560D01*
X184620000Y-79832560D01*
X184384683Y-79876838D01*
X184168559Y-80015910D01*
X184023569Y-80228110D01*
X183972560Y-80480000D01*
X181318602Y-80480000D01*
X185863602Y-75935000D01*
X188317560Y-75935000D01*
X188317560Y-77735000D01*
X188361838Y-77970317D01*
X188500910Y-78186441D01*
X188713110Y-78331431D01*
X188965000Y-78382440D01*
X190765000Y-78382440D01*
X191000317Y-78338162D01*
X191216441Y-78199090D01*
X191361431Y-77986890D01*
X191412440Y-77735000D01*
X191412440Y-75935000D01*
X191368162Y-75699683D01*
X191281496Y-75565000D01*
X192744928Y-75565000D01*
X192861773Y-76152419D01*
X193194519Y-76650409D01*
X193692509Y-76983155D01*
X194279928Y-77100000D01*
X194340072Y-77100000D01*
X194927491Y-76983155D01*
X195425481Y-76650409D01*
X195758227Y-76152419D01*
X195875072Y-75565000D01*
X195758227Y-74977581D01*
X195425481Y-74479591D01*
X194927491Y-74146845D01*
X194340072Y-74030000D01*
X194279928Y-74030000D01*
X193692509Y-74146845D01*
X193194519Y-74479591D01*
X192861773Y-74977581D01*
X192744928Y-75565000D01*
X191281496Y-75565000D01*
X191229090Y-75483559D01*
X191016890Y-75338569D01*
X190765000Y-75287560D01*
X188965000Y-75287560D01*
X188729683Y-75331838D01*
X188513559Y-75470910D01*
X188368569Y-75683110D01*
X188317560Y-75935000D01*
X185863602Y-75935000D01*
X188347814Y-73450788D01*
X188361838Y-73525317D01*
X188500910Y-73741441D01*
X188713110Y-73886431D01*
X188965000Y-73937440D01*
X190765000Y-73937440D01*
X191000317Y-73893162D01*
X191216441Y-73754090D01*
X191361431Y-73541890D01*
X191412440Y-73290000D01*
X191412440Y-71490000D01*
X191368162Y-71254683D01*
X191281496Y-71120000D01*
X192744928Y-71120000D01*
X192861773Y-71707419D01*
X193194519Y-72205409D01*
X193692509Y-72538155D01*
X194279928Y-72655000D01*
X194340072Y-72655000D01*
X194927491Y-72538155D01*
X195425481Y-72205409D01*
X195758227Y-71707419D01*
X195875072Y-71120000D01*
X195758227Y-70532581D01*
X195549368Y-70220000D01*
X202922560Y-70220000D01*
X202922560Y-72020000D01*
X202966838Y-72255317D01*
X203105910Y-72471441D01*
X203318110Y-72616431D01*
X203570000Y-72667440D01*
X205370000Y-72667440D01*
X205605317Y-72623162D01*
X205821441Y-72484090D01*
X205966431Y-72271890D01*
X206017440Y-72020000D01*
X206017440Y-70220000D01*
X205973162Y-69984683D01*
X205834090Y-69768559D01*
X205621890Y-69623569D01*
X205370000Y-69572560D01*
X203570000Y-69572560D01*
X203334683Y-69616838D01*
X203118559Y-69755910D01*
X202973569Y-69968110D01*
X202922560Y-70220000D01*
X195549368Y-70220000D01*
X195425481Y-70034591D01*
X194927491Y-69701845D01*
X194340072Y-69585000D01*
X194279928Y-69585000D01*
X193692509Y-69701845D01*
X193194519Y-70034591D01*
X192861773Y-70532581D01*
X192744928Y-71120000D01*
X191281496Y-71120000D01*
X191229090Y-71038559D01*
X191016890Y-70893569D01*
X190765000Y-70842560D01*
X190227142Y-70842560D01*
X190524121Y-70545581D01*
X190762501Y-70386301D01*
X192306001Y-68842801D01*
X192470748Y-68596239D01*
X192528600Y-68305400D01*
X192528600Y-67789202D01*
X192939322Y-67378480D01*
X193194519Y-67760409D01*
X193692509Y-68093155D01*
X194279928Y-68210000D01*
X194340072Y-68210000D01*
X194927491Y-68093155D01*
X195425481Y-67760409D01*
X195758227Y-67262419D01*
X195875072Y-66675000D01*
X195758227Y-66087581D01*
X195549368Y-65775000D01*
X202922560Y-65775000D01*
X202922560Y-67575000D01*
X202966838Y-67810317D01*
X203105910Y-68026441D01*
X203318110Y-68171431D01*
X203570000Y-68222440D01*
X205370000Y-68222440D01*
X205605317Y-68178162D01*
X205821441Y-68039090D01*
X205847074Y-68001576D01*
X207919313Y-70073815D01*
X207872189Y-70105302D01*
X207561120Y-70570849D01*
X207451887Y-71120000D01*
X207561120Y-71669151D01*
X207872189Y-72134698D01*
X208231449Y-72374749D01*
X206005366Y-74600832D01*
X205973162Y-74429683D01*
X205834090Y-74213559D01*
X205621890Y-74068569D01*
X205370000Y-74017560D01*
X203570000Y-74017560D01*
X203334683Y-74061838D01*
X203118559Y-74200910D01*
X202973569Y-74413110D01*
X202922560Y-74665000D01*
X202922560Y-76465000D01*
X202966838Y-76700317D01*
X203105910Y-76916441D01*
X203318110Y-77061431D01*
X203570000Y-77112440D01*
X205370000Y-77112440D01*
X205605317Y-77068162D01*
X205821441Y-76929090D01*
X205966431Y-76716890D01*
X206017440Y-76465000D01*
X206017440Y-76325000D01*
X206116000Y-76325000D01*
X206406839Y-76267148D01*
X206653401Y-76102401D01*
X207482208Y-75273594D01*
X207480250Y-75278309D01*
X207479752Y-75849187D01*
X207697757Y-76376800D01*
X208101077Y-76780824D01*
X208628309Y-76999750D01*
X209199187Y-77000248D01*
X209726800Y-76782243D01*
X210130824Y-76378923D01*
X210349750Y-75851691D01*
X210350000Y-75565000D01*
X217611887Y-75565000D01*
X217721120Y-76114151D01*
X218032189Y-76579698D01*
X218497736Y-76890767D01*
X219046887Y-77000000D01*
X219103113Y-77000000D01*
X219652264Y-76890767D01*
X220117811Y-76579698D01*
X220428880Y-76114151D01*
X220538113Y-75565000D01*
X220428880Y-75015849D01*
X220117811Y-74550302D01*
X219652264Y-74239233D01*
X219103113Y-74130000D01*
X219046887Y-74130000D01*
X218497736Y-74239233D01*
X218032189Y-74550302D01*
X217721120Y-75015849D01*
X217611887Y-75565000D01*
X210350000Y-75565000D01*
X210350248Y-75280813D01*
X210132243Y-74753200D01*
X209728923Y-74349176D01*
X209201691Y-74130250D01*
X208630813Y-74129752D01*
X208622696Y-74133106D01*
X211103401Y-71652401D01*
X211268148Y-71405840D01*
X211326000Y-71115000D01*
X211326000Y-67760995D01*
X211580698Y-67590811D01*
X211891767Y-67125264D01*
X212001000Y-66576113D01*
X212001000Y-66519887D01*
X211891767Y-65970736D01*
X211580698Y-65505189D01*
X211115151Y-65194120D01*
X210566000Y-65084887D01*
X210016849Y-65194120D01*
X209551302Y-65505189D01*
X209240233Y-65970736D01*
X209131000Y-66519887D01*
X209131000Y-66576113D01*
X209240233Y-67125264D01*
X209551302Y-67590811D01*
X209806000Y-67760995D01*
X209806000Y-70003865D01*
X209657022Y-69904321D01*
X209617148Y-69703861D01*
X209617148Y-69703860D01*
X209452401Y-69457299D01*
X206401963Y-66406861D01*
X206397448Y-66384161D01*
X206232701Y-66137599D01*
X206017440Y-65993767D01*
X206017440Y-65775000D01*
X205973162Y-65539683D01*
X205834090Y-65323559D01*
X205621890Y-65178569D01*
X205370000Y-65127560D01*
X203570000Y-65127560D01*
X203334683Y-65171838D01*
X203118559Y-65310910D01*
X202973569Y-65523110D01*
X202922560Y-65775000D01*
X195549368Y-65775000D01*
X195425481Y-65589591D01*
X195007498Y-65310304D01*
X202083168Y-58234635D01*
X202340997Y-58492914D01*
X202923341Y-58734724D01*
X203553893Y-58735275D01*
X204136657Y-58494481D01*
X204229572Y-58401728D01*
X204325910Y-58551441D01*
X204538110Y-58696431D01*
X204790000Y-58747440D01*
X206690000Y-58747440D01*
X206925317Y-58703162D01*
X207141441Y-58564090D01*
X207227961Y-58437463D01*
X213958442Y-65167944D01*
X213826849Y-65194120D01*
X213361302Y-65505189D01*
X213050233Y-65970736D01*
X212941000Y-66519887D01*
X212941000Y-66576113D01*
X213050233Y-67125264D01*
X213361302Y-67590811D01*
X213826849Y-67901880D01*
X214376000Y-68011113D01*
X214925151Y-67901880D01*
X215390698Y-67590811D01*
X215701767Y-67125264D01*
X215737271Y-66946773D01*
X218315000Y-69524502D01*
X218315000Y-69881354D01*
X218263200Y-69902757D01*
X217859176Y-70306077D01*
X217640250Y-70833309D01*
X217639752Y-71404187D01*
X217857757Y-71931800D01*
X218261077Y-72335824D01*
X218788309Y-72554750D01*
X219359187Y-72555248D01*
X219886800Y-72337243D01*
X220290824Y-71933923D01*
X220509750Y-71406691D01*
X220510248Y-70835813D01*
X220292243Y-70308200D01*
X219888923Y-69904176D01*
X219835000Y-69881785D01*
X219835000Y-69209700D01*
X219822479Y-69146752D01*
X219777148Y-68918860D01*
X219612401Y-68672299D01*
X207612289Y-56672187D01*
X209130752Y-56672187D01*
X209348757Y-57199800D01*
X209752077Y-57603824D01*
X210279309Y-57822750D01*
X210850187Y-57823248D01*
X211377800Y-57605243D01*
X211781824Y-57201923D01*
X212000750Y-56674691D01*
X212000752Y-56672187D01*
X212940752Y-56672187D01*
X213158757Y-57199800D01*
X213562077Y-57603824D01*
X214089309Y-57822750D01*
X214660187Y-57823248D01*
X215187800Y-57605243D01*
X215591824Y-57201923D01*
X215692551Y-56959344D01*
X219110501Y-56959344D01*
X219548790Y-58020086D01*
X220359645Y-58832357D01*
X221419620Y-59272498D01*
X222567344Y-59273499D01*
X223628086Y-58835210D01*
X224440357Y-58024355D01*
X224880498Y-56964380D01*
X224881499Y-55816656D01*
X224443210Y-54755914D01*
X223632355Y-53943643D01*
X222572380Y-53503502D01*
X221424656Y-53502501D01*
X220363914Y-53940790D01*
X219551643Y-54751645D01*
X219111502Y-55811620D01*
X219110501Y-56959344D01*
X215692551Y-56959344D01*
X215810750Y-56674691D01*
X215811248Y-56103813D01*
X215593243Y-55576200D01*
X215189923Y-55172176D01*
X214662691Y-54953250D01*
X214091813Y-54952752D01*
X213564200Y-55170757D01*
X213160176Y-55574077D01*
X212941250Y-56101309D01*
X212940752Y-56672187D01*
X212000752Y-56672187D01*
X212001248Y-56103813D01*
X211783243Y-55576200D01*
X211379923Y-55172176D01*
X210852691Y-54953250D01*
X210281813Y-54952752D01*
X209754200Y-55170757D01*
X209350176Y-55574077D01*
X209131250Y-56101309D01*
X209130752Y-56672187D01*
X207612289Y-56672187D01*
X207552701Y-56612599D01*
X207337440Y-56468767D01*
X207337440Y-56200000D01*
X207293162Y-55964683D01*
X207154090Y-55748559D01*
X206941890Y-55603569D01*
X206690000Y-55552560D01*
X205774000Y-55552560D01*
X205580005Y-55083057D01*
X205218845Y-54721265D01*
X204746724Y-54525223D01*
X204235519Y-54524777D01*
X203763057Y-54719995D01*
X203401265Y-55081155D01*
X203205223Y-55553276D01*
X203205213Y-55564969D01*
X202926107Y-55564725D01*
X202343343Y-55805519D01*
X201897086Y-56250997D01*
X201816532Y-56444993D01*
X201802161Y-56447852D01*
X201555599Y-56612598D01*
X191364385Y-66803813D01*
X191229090Y-66593559D01*
X191016890Y-66448569D01*
X190765000Y-66397560D01*
X188965000Y-66397560D01*
X188729683Y-66441838D01*
X188513559Y-66580910D01*
X188368569Y-66793110D01*
X188317560Y-67045000D01*
X188317560Y-68845000D01*
X188361838Y-69080317D01*
X188500910Y-69296441D01*
X188713110Y-69441431D01*
X188965000Y-69492440D01*
X189427658Y-69492440D01*
X188102299Y-70817799D01*
X187937552Y-71064361D01*
X187879700Y-71355200D01*
X187879700Y-71769298D01*
X179982440Y-79666558D01*
X179982440Y-79110000D01*
X179938162Y-78874683D01*
X179799090Y-78658559D01*
X179586890Y-78513569D01*
X179335000Y-78462560D01*
X179195000Y-78462560D01*
X179195000Y-78274536D01*
X179674928Y-78370000D01*
X179735072Y-78370000D01*
X180322491Y-78253155D01*
X180820481Y-77920409D01*
X181153227Y-77422419D01*
X181270072Y-76835000D01*
X181153227Y-76247581D01*
X180820481Y-75749591D01*
X180322491Y-75416845D01*
X179735072Y-75300000D01*
X179674928Y-75300000D01*
X179195000Y-75395464D01*
X179195000Y-73829536D01*
X179674928Y-73925000D01*
X179735072Y-73925000D01*
X180322491Y-73808155D01*
X180820481Y-73475409D01*
X181153227Y-72977419D01*
X181270072Y-72390000D01*
X181153227Y-71802581D01*
X180820481Y-71304591D01*
X180322491Y-70971845D01*
X179735072Y-70855000D01*
X179674928Y-70855000D01*
X179195000Y-70950464D01*
X179195000Y-70209500D01*
X179137148Y-69918661D01*
X178972401Y-69672099D01*
X177245302Y-67945000D01*
X178139928Y-67945000D01*
X178256773Y-68532419D01*
X178589519Y-69030409D01*
X179087509Y-69363155D01*
X179674928Y-69480000D01*
X179735072Y-69480000D01*
X180322491Y-69363155D01*
X180820481Y-69030409D01*
X181153227Y-68532419D01*
X181270072Y-67945000D01*
X181153227Y-67357581D01*
X180820481Y-66859591D01*
X180322491Y-66526845D01*
X179735072Y-66410000D01*
X179674928Y-66410000D01*
X179087509Y-66526845D01*
X178589519Y-66859591D01*
X178256773Y-67357581D01*
X178139928Y-67945000D01*
X177245302Y-67945000D01*
X171370735Y-62070433D01*
X171370879Y-61905229D01*
X171213642Y-61524685D01*
X170922746Y-61233281D01*
X170542477Y-61075380D01*
X170130729Y-61075021D01*
X170009400Y-61125153D01*
X170009400Y-60120418D01*
X170185519Y-60546657D01*
X170630997Y-60992914D01*
X171213341Y-61234724D01*
X171843893Y-61235275D01*
X172426657Y-60994481D01*
X172780226Y-60641529D01*
X173130997Y-60992914D01*
X173713341Y-61234724D01*
X174343893Y-61235275D01*
X174482996Y-61177798D01*
X174778199Y-61473001D01*
X175024761Y-61637748D01*
X175315600Y-61695600D01*
X184174400Y-61695600D01*
X184465239Y-61637748D01*
X184711801Y-61473001D01*
X187437362Y-58747440D01*
X188910000Y-58747440D01*
X189145317Y-58703162D01*
X189361441Y-58564090D01*
X189506431Y-58351890D01*
X189557440Y-58100000D01*
X189557440Y-56897398D01*
X192753812Y-56897398D01*
X192778648Y-57527461D01*
X192971981Y-57994208D01*
X193233650Y-58086745D01*
X194170395Y-57150000D01*
X193233650Y-56213255D01*
X192971981Y-56305792D01*
X192753812Y-56897398D01*
X189557440Y-56897398D01*
X189557440Y-56200000D01*
X189526140Y-56033650D01*
X193413255Y-56033650D01*
X194350000Y-56970395D01*
X194364143Y-56956253D01*
X194543748Y-57135858D01*
X194529605Y-57150000D01*
X194543748Y-57164143D01*
X194364143Y-57343748D01*
X194350000Y-57329605D01*
X193413255Y-58266350D01*
X193505792Y-58528019D01*
X194097398Y-58746188D01*
X194727461Y-58721352D01*
X195194208Y-58528019D01*
X195284863Y-58271673D01*
X195296838Y-58335317D01*
X195435910Y-58551441D01*
X195648110Y-58696431D01*
X195900000Y-58747440D01*
X197800000Y-58747440D01*
X198035317Y-58703162D01*
X198251441Y-58564090D01*
X198396431Y-58351890D01*
X198447440Y-58100000D01*
X198447440Y-56200000D01*
X198403162Y-55964683D01*
X198264090Y-55748559D01*
X198051890Y-55603569D01*
X197800000Y-55552560D01*
X196884000Y-55552560D01*
X196690005Y-55083057D01*
X196328845Y-54721265D01*
X195856724Y-54525223D01*
X195345519Y-54524777D01*
X194873057Y-54719995D01*
X194511265Y-55081155D01*
X194315223Y-55553276D01*
X194315213Y-55565140D01*
X193972539Y-55578648D01*
X193505792Y-55771981D01*
X193413255Y-56033650D01*
X189526140Y-56033650D01*
X189513162Y-55964683D01*
X189374090Y-55748559D01*
X189161890Y-55603569D01*
X188910000Y-55552560D01*
X187994000Y-55552560D01*
X187800005Y-55083057D01*
X187438845Y-54721265D01*
X186966724Y-54525223D01*
X186455519Y-54524777D01*
X185983057Y-54719995D01*
X185621265Y-55081155D01*
X185425223Y-55553276D01*
X185425213Y-55564969D01*
X185146107Y-55564725D01*
X185007004Y-55622202D01*
X183638701Y-54253899D01*
X183392139Y-54089152D01*
X183101300Y-54031300D01*
X172028900Y-54031300D01*
X171738061Y-54089152D01*
X171491499Y-54253899D01*
X169638999Y-56106399D01*
X169474252Y-56352961D01*
X169416400Y-56643800D01*
X169416400Y-57345998D01*
X166358801Y-54288399D01*
X166112239Y-54123652D01*
X165821400Y-54065800D01*
X153182500Y-54065800D01*
X152891661Y-54123652D01*
X152645099Y-54288399D01*
X152408909Y-54524589D01*
X152394090Y-54501559D01*
X152181890Y-54356569D01*
X151930000Y-54305560D01*
X150330000Y-54305560D01*
X150094683Y-54349838D01*
X149878559Y-54488910D01*
X149733569Y-54701110D01*
X149682560Y-54953000D01*
X149682560Y-56118400D01*
X147871202Y-56118400D01*
X145939256Y-54186454D01*
X145960750Y-54134691D01*
X145961248Y-53563813D01*
X145743243Y-53036200D01*
X145339923Y-52632176D01*
X144812691Y-52413250D01*
X144241813Y-52412752D01*
X143714200Y-52630757D01*
X143310176Y-53034077D01*
X143091250Y-53561309D01*
X143090752Y-54132187D01*
X141097000Y-54132187D01*
X141097000Y-52197000D01*
X226391000Y-52197000D01*
X226391000Y-77343000D01*
X226391000Y-77343000D01*
G37*
X226391000Y-77343000D02*
X193675000Y-77343000D01*
X193625590Y-77353006D01*
X193583965Y-77381447D01*
X193556685Y-77423841D01*
X193548000Y-77470000D01*
X193548000Y-86922712D01*
X193256777Y-86818035D01*
X192686546Y-86845222D01*
X192285995Y-87011136D01*
X192211861Y-87257255D01*
X193040000Y-88085395D01*
X193054142Y-88071252D01*
X193233748Y-88250858D01*
X193219605Y-88265000D01*
X193233748Y-88279143D01*
X193054142Y-88458748D01*
X193040000Y-88444605D01*
X192211861Y-89272745D01*
X192285995Y-89518864D01*
X192823223Y-89711965D01*
X193393454Y-89684778D01*
X193548000Y-89620763D01*
X193548000Y-117348000D01*
X141097000Y-117348000D01*
X141097000Y-115211661D01*
X141350758Y-115211661D01*
X141562990Y-115725303D01*
X141955630Y-116118629D01*
X142468900Y-116331757D01*
X143024661Y-116332242D01*
X143538303Y-116120010D01*
X143931629Y-115727370D01*
X144144757Y-115214100D01*
X144144759Y-115211661D01*
X148970758Y-115211661D01*
X149182990Y-115725303D01*
X149575630Y-116118629D01*
X150088900Y-116331757D01*
X150644661Y-116332242D01*
X151158303Y-116120010D01*
X151551629Y-115727370D01*
X151764757Y-115214100D01*
X151765242Y-114658339D01*
X151735249Y-114585750D01*
X154040000Y-114585750D01*
X154040000Y-115326309D01*
X154136673Y-115559698D01*
X154315301Y-115738327D01*
X154548690Y-115835000D01*
X155289250Y-115835000D01*
X155448000Y-115676250D01*
X155448000Y-114427000D01*
X155702000Y-114427000D01*
X155702000Y-115676250D01*
X155860750Y-115835000D01*
X156601310Y-115835000D01*
X156834699Y-115738327D01*
X157013327Y-115559698D01*
X157110000Y-115326309D01*
X157110000Y-114585750D01*
X156951250Y-114427000D01*
X155702000Y-114427000D01*
X155448000Y-114427000D01*
X154198750Y-114427000D01*
X154040000Y-114585750D01*
X151735249Y-114585750D01*
X151553010Y-114144697D01*
X151160370Y-113751371D01*
X150647100Y-113538243D01*
X150091339Y-113537758D01*
X149577697Y-113749990D01*
X149184371Y-114142630D01*
X148971243Y-114655900D01*
X148970758Y-115211661D01*
X144144759Y-115211661D01*
X144145242Y-114658339D01*
X143933010Y-114144697D01*
X143540370Y-113751371D01*
X143027100Y-113538243D01*
X142471339Y-113537758D01*
X141957697Y-113749990D01*
X141564371Y-114142630D01*
X141351243Y-114655900D01*
X141350758Y-115211661D01*
X141097000Y-115211661D01*
X141097000Y-113273691D01*
X154040000Y-113273691D01*
X154040000Y-114014250D01*
X154198750Y-114173000D01*
X155448000Y-114173000D01*
X155448000Y-112923750D01*
X155702000Y-112923750D01*
X155702000Y-114173000D01*
X156951250Y-114173000D01*
X157110000Y-114014250D01*
X157110000Y-113273691D01*
X157013327Y-113040302D01*
X156834699Y-112861673D01*
X156601310Y-112765000D01*
X155860750Y-112765000D01*
X155702000Y-112923750D01*
X155448000Y-112923750D01*
X155289250Y-112765000D01*
X154548690Y-112765000D01*
X154315301Y-112861673D01*
X154136673Y-113040302D01*
X154040000Y-113273691D01*
X141097000Y-113273691D01*
X141097000Y-110892020D01*
X164974648Y-110892020D01*
X165283046Y-111638400D01*
X165853596Y-112209947D01*
X166599437Y-112519647D01*
X167407020Y-112520352D01*
X168153400Y-112211954D01*
X168724947Y-111641404D01*
X169034647Y-110895563D01*
X169034650Y-110892020D01*
X183284648Y-110892020D01*
X183593046Y-111638400D01*
X184163596Y-112209947D01*
X184909437Y-112519647D01*
X185717020Y-112520352D01*
X186463400Y-112211954D01*
X187034947Y-111641404D01*
X187344647Y-110895563D01*
X187345352Y-110087980D01*
X187036954Y-109341600D01*
X186466404Y-108770053D01*
X185720563Y-108460353D01*
X184912980Y-108459648D01*
X184166600Y-108768046D01*
X183595053Y-109338596D01*
X183285353Y-110084437D01*
X183284648Y-110892020D01*
X169034650Y-110892020D01*
X169035352Y-110087980D01*
X168726954Y-109341600D01*
X168156404Y-108770053D01*
X167410563Y-108460353D01*
X166602980Y-108459648D01*
X165856600Y-108768046D01*
X165285053Y-109338596D01*
X164975353Y-110084437D01*
X164974648Y-110892020D01*
X141097000Y-110892020D01*
X141097000Y-109189928D01*
X154040000Y-109189928D01*
X154040000Y-109250072D01*
X154156845Y-109837491D01*
X154489591Y-110335481D01*
X154987581Y-110668227D01*
X155575000Y-110785072D01*
X156162419Y-110668227D01*
X156660409Y-110335481D01*
X156993155Y-109837491D01*
X157110000Y-109250072D01*
X157110000Y-109189928D01*
X156993155Y-108602509D01*
X156660409Y-108104519D01*
X156162419Y-107771773D01*
X155575000Y-107654928D01*
X154987581Y-107771773D01*
X154489591Y-108104519D01*
X154156845Y-108602509D01*
X154040000Y-109189928D01*
X141097000Y-109189928D01*
X141097000Y-105051661D01*
X141350758Y-105051661D01*
X141562990Y-105565303D01*
X141955630Y-105958629D01*
X142468900Y-106171757D01*
X143024661Y-106172242D01*
X143538303Y-105960010D01*
X143931629Y-105567370D01*
X144144757Y-105054100D01*
X144145242Y-104498339D01*
X143933010Y-103984697D01*
X143540370Y-103591371D01*
X143027100Y-103378243D01*
X142471339Y-103377758D01*
X141957697Y-103589990D01*
X141564371Y-103982630D01*
X141351243Y-104495900D01*
X141350758Y-105051661D01*
X141097000Y-105051661D01*
X141097000Y-98828661D01*
X141350758Y-98828661D01*
X141562990Y-99342303D01*
X141955630Y-99735629D01*
X142468900Y-99948757D01*
X143024661Y-99949242D01*
X143538303Y-99737010D01*
X143931629Y-99344370D01*
X144144757Y-98831100D01*
X144144759Y-98828661D01*
X148970758Y-98828661D01*
X149182990Y-99342303D01*
X149575630Y-99735629D01*
X150088900Y-99948757D01*
X150644661Y-99949242D01*
X151158303Y-99737010D01*
X151551629Y-99344370D01*
X151764757Y-98831100D01*
X151765242Y-98275339D01*
X151553010Y-97761697D01*
X151160370Y-97368371D01*
X150647100Y-97155243D01*
X150091339Y-97154758D01*
X149577697Y-97366990D01*
X149184371Y-97759630D01*
X148971243Y-98272900D01*
X148970758Y-98828661D01*
X144144759Y-98828661D01*
X144145242Y-98275339D01*
X143933010Y-97761697D01*
X143540370Y-97368371D01*
X143027100Y-97155243D01*
X142471339Y-97154758D01*
X141957697Y-97366990D01*
X141564371Y-97759630D01*
X141351243Y-98272900D01*
X141350758Y-98828661D01*
X141097000Y-98828661D01*
X141097000Y-88668661D01*
X141350758Y-88668661D01*
X141562990Y-89182303D01*
X141955630Y-89575629D01*
X142468900Y-89788757D01*
X143024661Y-89789242D01*
X143538303Y-89577010D01*
X143931629Y-89184370D01*
X144144757Y-88671100D01*
X144145242Y-88115339D01*
X143933010Y-87601697D01*
X143540370Y-87208371D01*
X143027100Y-86995243D01*
X142471339Y-86994758D01*
X141957697Y-87206990D01*
X141564371Y-87599630D01*
X141351243Y-88112900D01*
X141350758Y-88668661D01*
X141097000Y-88668661D01*
X141097000Y-84759440D01*
X141897000Y-84759440D01*
X142132317Y-84715162D01*
X142348441Y-84576090D01*
X142493431Y-84363890D01*
X142544440Y-84112000D01*
X142544440Y-82512000D01*
X142500162Y-82276683D01*
X142361090Y-82060559D01*
X142148890Y-81915569D01*
X141993911Y-81884185D01*
X142139811Y-81786698D01*
X142450880Y-81321151D01*
X142459065Y-81280000D01*
X145856887Y-81280000D01*
X145966120Y-81829151D01*
X146277189Y-82294698D01*
X146742736Y-82605767D01*
X147291887Y-82715000D01*
X147348113Y-82715000D01*
X147897264Y-82605767D01*
X148362811Y-82294698D01*
X148673880Y-81829151D01*
X148783113Y-81280000D01*
X148673880Y-80730849D01*
X148362811Y-80265302D01*
X147897264Y-79954233D01*
X147348113Y-79845000D01*
X147291887Y-79845000D01*
X146742736Y-79954233D01*
X146277189Y-80265302D01*
X145966120Y-80730849D01*
X145856887Y-81280000D01*
X142459065Y-81280000D01*
X142560113Y-80772000D01*
X142450880Y-80222849D01*
X142139811Y-79757302D01*
X141757725Y-79502000D01*
X142139811Y-79246698D01*
X142450880Y-78781151D01*
X142560113Y-78232000D01*
X142450880Y-77682849D01*
X142139811Y-77217302D01*
X141757725Y-76962000D01*
X142139811Y-76706698D01*
X142450880Y-76241151D01*
X142459065Y-76200000D01*
X145856887Y-76200000D01*
X145966120Y-76749151D01*
X146277189Y-77214698D01*
X146742736Y-77525767D01*
X147291887Y-77635000D01*
X147348113Y-77635000D01*
X147897264Y-77525767D01*
X148362811Y-77214698D01*
X148673880Y-76749151D01*
X148783113Y-76200000D01*
X148739994Y-75983223D01*
X156033035Y-75983223D01*
X156060222Y-76553454D01*
X156226136Y-76954005D01*
X156472255Y-77028139D01*
X157300395Y-76200000D01*
X156472255Y-75371861D01*
X156226136Y-75445995D01*
X156033035Y-75983223D01*
X148739994Y-75983223D01*
X148673880Y-75650849D01*
X148367457Y-75192255D01*
X156651861Y-75192255D01*
X157480000Y-76020395D01*
X158308139Y-75192255D01*
X158234005Y-74946136D01*
X157696777Y-74753035D01*
X157126546Y-74780222D01*
X156725995Y-74946136D01*
X156651861Y-75192255D01*
X148367457Y-75192255D01*
X148362811Y-75185302D01*
X147897264Y-74874233D01*
X147348113Y-74765000D01*
X147291887Y-74765000D01*
X146742736Y-74874233D01*
X146277189Y-75185302D01*
X145966120Y-75650849D01*
X145856887Y-76200000D01*
X142459065Y-76200000D01*
X142560113Y-75692000D01*
X142450880Y-75142849D01*
X142139811Y-74677302D01*
X141757725Y-74422000D01*
X142139811Y-74166698D01*
X142450880Y-73701151D01*
X142560113Y-73152000D01*
X142450880Y-72602849D01*
X142139811Y-72137302D01*
X141757725Y-71882000D01*
X142139811Y-71626698D01*
X142450880Y-71161151D01*
X142459065Y-71120000D01*
X145856887Y-71120000D01*
X145966120Y-71669151D01*
X146277189Y-72134698D01*
X146742736Y-72445767D01*
X147291887Y-72555000D01*
X147348113Y-72555000D01*
X147897264Y-72445767D01*
X148362811Y-72134698D01*
X148367456Y-72127745D01*
X156651861Y-72127745D01*
X156725995Y-72373864D01*
X157263223Y-72566965D01*
X157833454Y-72539778D01*
X158234005Y-72373864D01*
X158308139Y-72127745D01*
X157480000Y-71299605D01*
X156651861Y-72127745D01*
X148367456Y-72127745D01*
X148673880Y-71669151D01*
X148783113Y-71120000D01*
X148739994Y-70903223D01*
X156033035Y-70903223D01*
X156060222Y-71473454D01*
X156226136Y-71874005D01*
X156472255Y-71948139D01*
X157300395Y-71120000D01*
X157659605Y-71120000D01*
X158487745Y-71948139D01*
X158733864Y-71874005D01*
X158926965Y-71336777D01*
X158899778Y-70766546D01*
X158733864Y-70365995D01*
X158487745Y-70291861D01*
X157659605Y-71120000D01*
X157300395Y-71120000D01*
X156472255Y-70291861D01*
X156226136Y-70365995D01*
X156033035Y-70903223D01*
X148739994Y-70903223D01*
X148673880Y-70570849D01*
X148367457Y-70112255D01*
X156651861Y-70112255D01*
X157480000Y-70940395D01*
X158308139Y-70112255D01*
X158234005Y-69866136D01*
X157696777Y-69673035D01*
X157126546Y-69700222D01*
X156725995Y-69866136D01*
X156651861Y-70112255D01*
X148367457Y-70112255D01*
X148362811Y-70105302D01*
X147897264Y-69794233D01*
X147348113Y-69685000D01*
X147291887Y-69685000D01*
X146742736Y-69794233D01*
X146277189Y-70105302D01*
X145966120Y-70570849D01*
X145856887Y-71120000D01*
X142459065Y-71120000D01*
X142560113Y-70612000D01*
X142450880Y-70062849D01*
X142139811Y-69597302D01*
X141757725Y-69342000D01*
X142139811Y-69086698D01*
X142450880Y-68621151D01*
X142560113Y-68072000D01*
X142450880Y-67522849D01*
X142139811Y-67057302D01*
X141757725Y-66802000D01*
X142139811Y-66546698D01*
X142450880Y-66081151D01*
X142560113Y-65532000D01*
X142450880Y-64982849D01*
X142139811Y-64517302D01*
X141674264Y-64206233D01*
X141125113Y-64097000D01*
X141097000Y-64097000D01*
X141097000Y-59260745D01*
X150301861Y-59260745D01*
X150375995Y-59506864D01*
X150913223Y-59699965D01*
X151483454Y-59672778D01*
X151884005Y-59506864D01*
X151958139Y-59260745D01*
X151130000Y-58432605D01*
X150301861Y-59260745D01*
X141097000Y-59260745D01*
X141097000Y-54132187D01*
X143090752Y-54132187D01*
X143308757Y-54659800D01*
X143712077Y-55063824D01*
X144239309Y-55282750D01*
X144810187Y-55283248D01*
X144864149Y-55260951D01*
X147018999Y-57415801D01*
X147265561Y-57580548D01*
X147556400Y-57638400D01*
X149826028Y-57638400D01*
X149683035Y-58036223D01*
X149710222Y-58606454D01*
X149876136Y-59007005D01*
X150122255Y-59081139D01*
X150950395Y-58253000D01*
X150936252Y-58238858D01*
X151115858Y-58059252D01*
X151130000Y-58073395D01*
X151144142Y-58059252D01*
X151323748Y-58238858D01*
X151309605Y-58253000D01*
X152137745Y-59081139D01*
X152383864Y-59007005D01*
X152576965Y-58469777D01*
X152549778Y-57899546D01*
X152441608Y-57638400D01*
X156086830Y-57638400D01*
X156255519Y-58046657D01*
X156608471Y-58400226D01*
X156257086Y-58750997D01*
X156015276Y-59333341D01*
X156014725Y-59963893D01*
X156255519Y-60546657D01*
X156700997Y-60992914D01*
X157283341Y-61234724D01*
X157913893Y-61235275D01*
X158496657Y-60994481D01*
X158850226Y-60641529D01*
X159200997Y-60992914D01*
X159783341Y-61234724D01*
X160413893Y-61235275D01*
X160996657Y-60994481D01*
X161350226Y-60641529D01*
X161700997Y-60992914D01*
X162283341Y-61234724D01*
X162440337Y-61234861D01*
X160427198Y-63248000D01*
X145729667Y-63248000D01*
X145540698Y-62965189D01*
X145075151Y-62654120D01*
X144526000Y-62544887D01*
X143976849Y-62654120D01*
X143511302Y-62965189D01*
X143200233Y-63430736D01*
X143091000Y-63979887D01*
X143091000Y-64036113D01*
X143200233Y-64585264D01*
X143511302Y-65050811D01*
X143976849Y-65361880D01*
X144526000Y-65471113D01*
X145075151Y-65361880D01*
X145540698Y-65050811D01*
X145729667Y-64768000D01*
X160742000Y-64768000D01*
X161032839Y-64710148D01*
X161279401Y-64545401D01*
X164646782Y-61178020D01*
X164783341Y-61234724D01*
X165413893Y-61235275D01*
X165633900Y-61144370D01*
X165633900Y-68610798D01*
X163817737Y-70426961D01*
X163602811Y-70105302D01*
X163137264Y-69794233D01*
X162588113Y-69685000D01*
X162531887Y-69685000D01*
X161982736Y-69794233D01*
X161517189Y-70105302D01*
X161206120Y-70570849D01*
X161096887Y-71120000D01*
X161206120Y-71669151D01*
X161517189Y-72134698D01*
X161872553Y-72372145D01*
X158752855Y-75491843D01*
X158733864Y-75445995D01*
X158487745Y-75371861D01*
X157659605Y-76200000D01*
X157673748Y-76214142D01*
X157494142Y-76393748D01*
X157480000Y-76379605D01*
X156651861Y-77207745D01*
X156725995Y-77453864D01*
X156773690Y-77471008D01*
X149830599Y-84414099D01*
X149665852Y-84660661D01*
X149608000Y-84951500D01*
X149608000Y-87194469D01*
X149577697Y-87206990D01*
X149184371Y-87599630D01*
X148971243Y-88112900D01*
X148970758Y-88668661D01*
X149182990Y-89182303D01*
X149575630Y-89575629D01*
X150088900Y-89788757D01*
X150644661Y-89789242D01*
X151158303Y-89577010D01*
X151551629Y-89184370D01*
X151764757Y-88671100D01*
X151765242Y-88115339D01*
X151553010Y-87601697D01*
X151160370Y-87208371D01*
X151128000Y-87194930D01*
X151128000Y-85266302D01*
X152142500Y-84251802D01*
X152142500Y-101925698D01*
X150677381Y-103390817D01*
X150647100Y-103378243D01*
X150091339Y-103377758D01*
X149577697Y-103589990D01*
X149184371Y-103982630D01*
X148971243Y-104495900D01*
X148970758Y-105051661D01*
X149182990Y-105565303D01*
X149575630Y-105958629D01*
X150088900Y-106171757D01*
X150644661Y-106172242D01*
X151158303Y-105960010D01*
X151551629Y-105567370D01*
X151764757Y-105054100D01*
X151765242Y-104498339D01*
X151751857Y-104465945D01*
X153439901Y-102777901D01*
X153604648Y-102531340D01*
X153662500Y-102240500D01*
X153662500Y-98075750D01*
X154040000Y-98075750D01*
X154040000Y-98816309D01*
X154136673Y-99049698D01*
X154315301Y-99228327D01*
X154548690Y-99325000D01*
X155289250Y-99325000D01*
X155448000Y-99166250D01*
X155448000Y-97917000D01*
X155702000Y-97917000D01*
X155702000Y-99166250D01*
X155860750Y-99325000D01*
X156601310Y-99325000D01*
X156834699Y-99228327D01*
X157013327Y-99049698D01*
X157110000Y-98816309D01*
X157110000Y-98075750D01*
X156951250Y-97917000D01*
X155702000Y-97917000D01*
X155448000Y-97917000D01*
X154198750Y-97917000D01*
X154040000Y-98075750D01*
X153662500Y-98075750D01*
X153662500Y-96763691D01*
X154040000Y-96763691D01*
X154040000Y-97504250D01*
X154198750Y-97663000D01*
X155448000Y-97663000D01*
X155448000Y-96413750D01*
X155702000Y-96413750D01*
X155702000Y-97663000D01*
X156951250Y-97663000D01*
X157110000Y-97504250D01*
X157110000Y-96763691D01*
X157013327Y-96530302D01*
X156834699Y-96351673D01*
X156601310Y-96255000D01*
X155860750Y-96255000D01*
X155702000Y-96413750D01*
X155448000Y-96413750D01*
X155289250Y-96255000D01*
X154548690Y-96255000D01*
X154315301Y-96351673D01*
X154136673Y-96530302D01*
X154040000Y-96763691D01*
X153662500Y-96763691D01*
X153662500Y-92679928D01*
X154040000Y-92679928D01*
X154040000Y-92740072D01*
X154156845Y-93327491D01*
X154489591Y-93825481D01*
X154987581Y-94158227D01*
X155575000Y-94275072D01*
X156162419Y-94158227D01*
X156660409Y-93825481D01*
X156993155Y-93327491D01*
X157110000Y-92740072D01*
X157110000Y-92679928D01*
X156993155Y-92092509D01*
X156660409Y-91594519D01*
X156162419Y-91261773D01*
X155575000Y-91144928D01*
X154987581Y-91261773D01*
X154489591Y-91594519D01*
X154156845Y-92092509D01*
X154040000Y-92679928D01*
X153662500Y-92679928D01*
X153662500Y-84787745D01*
X165541861Y-84787745D01*
X165615995Y-85033864D01*
X166153223Y-85226965D01*
X166723454Y-85199778D01*
X167124005Y-85033864D01*
X167198139Y-84787745D01*
X166370000Y-83959605D01*
X165541861Y-84787745D01*
X153662500Y-84787745D01*
X153662500Y-83563223D01*
X164923035Y-83563223D01*
X164950222Y-84133454D01*
X165116136Y-84534005D01*
X165362255Y-84608139D01*
X166190395Y-83780000D01*
X166549605Y-83780000D01*
X167377745Y-84608139D01*
X167623864Y-84534005D01*
X167816965Y-83996777D01*
X167789778Y-83426546D01*
X167623864Y-83025995D01*
X167377745Y-82951861D01*
X166549605Y-83780000D01*
X166190395Y-83780000D01*
X165362255Y-82951861D01*
X165116136Y-83025995D01*
X164923035Y-83563223D01*
X153662500Y-83563223D01*
X153662500Y-83368802D01*
X154743557Y-82287745D01*
X156651861Y-82287745D01*
X156725995Y-82533864D01*
X157263223Y-82726965D01*
X157833454Y-82699778D01*
X158234005Y-82533864D01*
X158308139Y-82287745D01*
X157480000Y-81459605D01*
X156651861Y-82287745D01*
X154743557Y-82287745D01*
X156069484Y-80961818D01*
X156033035Y-81063223D01*
X156060222Y-81633454D01*
X156226136Y-82034005D01*
X156472255Y-82108139D01*
X157300395Y-81280000D01*
X157659605Y-81280000D01*
X158487745Y-82108139D01*
X158733864Y-82034005D01*
X158926965Y-81496777D01*
X158899778Y-80926546D01*
X158733864Y-80525995D01*
X158487745Y-80451861D01*
X157659605Y-81280000D01*
X157300395Y-81280000D01*
X157286252Y-81265858D01*
X157465858Y-81086252D01*
X157480000Y-81100395D01*
X158308139Y-80272255D01*
X158234005Y-80026136D01*
X157696777Y-79833035D01*
X157173310Y-79857992D01*
X161162833Y-75868469D01*
X161096887Y-76200000D01*
X161206120Y-76749151D01*
X161517189Y-77214698D01*
X161982736Y-77525767D01*
X162531887Y-77635000D01*
X162588113Y-77635000D01*
X163137264Y-77525767D01*
X163602811Y-77214698D01*
X163913880Y-76749151D01*
X164023113Y-76200000D01*
X163913880Y-75650849D01*
X163602811Y-75185302D01*
X163137264Y-74874233D01*
X162588113Y-74765000D01*
X162531887Y-74765000D01*
X162200356Y-74830946D01*
X168489400Y-68541902D01*
X168489400Y-76358900D01*
X168547252Y-76649739D01*
X168711999Y-76896301D01*
X169758098Y-77942400D01*
X167648909Y-80051589D01*
X167634090Y-80028559D01*
X167421890Y-79883569D01*
X167170000Y-79832560D01*
X165570000Y-79832560D01*
X165334683Y-79876838D01*
X165118559Y-80015910D01*
X164973569Y-80228110D01*
X164922560Y-80480000D01*
X164922560Y-82080000D01*
X164966838Y-82315317D01*
X165105910Y-82531441D01*
X165318110Y-82676431D01*
X165556201Y-82724646D01*
X165541861Y-82772255D01*
X166370000Y-83600395D01*
X167198139Y-82772255D01*
X167183855Y-82724833D01*
X167405317Y-82683162D01*
X167621441Y-82544090D01*
X167766431Y-82331890D01*
X167817440Y-82080000D01*
X167817440Y-81961233D01*
X168032701Y-81817401D01*
X171147702Y-78702400D01*
X172197898Y-78702400D01*
X172347763Y-78852265D01*
X172239519Y-78924591D01*
X171906773Y-79422581D01*
X171789928Y-80010000D01*
X171906773Y-80597419D01*
X172239519Y-81095409D01*
X172737509Y-81428155D01*
X173324928Y-81545000D01*
X173385072Y-81545000D01*
X173972491Y-81428155D01*
X174470481Y-81095409D01*
X174629501Y-80857418D01*
X174987424Y-81247966D01*
X175530258Y-81501046D01*
X175768000Y-81380997D01*
X175768000Y-80137000D01*
X175748000Y-80137000D01*
X175748000Y-79883000D01*
X175768000Y-79883000D01*
X175768000Y-78639003D01*
X175530258Y-78518954D01*
X174987424Y-78772034D01*
X174629501Y-79162582D01*
X174470481Y-78924591D01*
X174092602Y-78672101D01*
X174057148Y-78493861D01*
X173892401Y-78247299D01*
X173199605Y-77554503D01*
X173531800Y-77417243D01*
X173935824Y-77013923D01*
X174154750Y-76486691D01*
X174155248Y-75915813D01*
X173937243Y-75388200D01*
X173533923Y-74984176D01*
X173006691Y-74765250D01*
X172435813Y-74764752D01*
X171908200Y-74982757D01*
X171504176Y-75386077D01*
X171285250Y-75913309D01*
X171284752Y-76484187D01*
X171502757Y-77011800D01*
X171673060Y-77182400D01*
X171147702Y-77182400D01*
X170009400Y-76044098D01*
X170009400Y-71404187D01*
X171284752Y-71404187D01*
X171502757Y-71931800D01*
X171906077Y-72335824D01*
X172433309Y-72554750D01*
X173004187Y-72555248D01*
X173531800Y-72337243D01*
X173935824Y-71933923D01*
X174154750Y-71406691D01*
X174155248Y-70835813D01*
X173937243Y-70308200D01*
X173533923Y-69904176D01*
X173006691Y-69685250D01*
X172435813Y-69684752D01*
X171908200Y-69902757D01*
X171504176Y-70306077D01*
X171285250Y-70833309D01*
X171284752Y-71404187D01*
X170009400Y-71404187D01*
X170009400Y-63095390D01*
X170128923Y-63145020D01*
X170295864Y-63145166D01*
X177675000Y-70524302D01*
X177675000Y-78462560D01*
X177535000Y-78462560D01*
X177299683Y-78506838D01*
X177083559Y-78645910D01*
X176938569Y-78858110D01*
X176928234Y-78909146D01*
X176802576Y-78772034D01*
X176259742Y-78518954D01*
X176022000Y-78639003D01*
X176022000Y-79883000D01*
X176042000Y-79883000D01*
X176042000Y-80137000D01*
X176022000Y-80137000D01*
X176022000Y-81380997D01*
X176259742Y-81501046D01*
X176802576Y-81247966D01*
X176925844Y-81113462D01*
X176931838Y-81145317D01*
X177070910Y-81361441D01*
X177283110Y-81506431D01*
X177535000Y-81557440D01*
X178091558Y-81557440D01*
X173269298Y-86379700D01*
X161000600Y-86379700D01*
X160709761Y-86437552D01*
X160463199Y-86602299D01*
X159801777Y-87263721D01*
X159792811Y-87250302D01*
X159327264Y-86939233D01*
X158778113Y-86830000D01*
X158721887Y-86830000D01*
X158172736Y-86939233D01*
X157707189Y-87250302D01*
X157396120Y-87715849D01*
X157286887Y-88265000D01*
X157396120Y-88814151D01*
X157707189Y-89279698D01*
X158172736Y-89590767D01*
X158721887Y-89700000D01*
X158778113Y-89700000D01*
X159327264Y-89590767D01*
X159792811Y-89279698D01*
X159976437Y-89004882D01*
X160166139Y-88967148D01*
X160412701Y-88802401D01*
X161315402Y-87899700D01*
X167507891Y-87899700D01*
X167475250Y-87978309D01*
X167474752Y-88549187D01*
X167692757Y-89076800D01*
X168096077Y-89480824D01*
X168150000Y-89503215D01*
X168150000Y-95257394D01*
X167410563Y-94950353D01*
X166602980Y-94949648D01*
X165856600Y-95258046D01*
X165285053Y-95828596D01*
X164975353Y-96574437D01*
X164974648Y-97382020D01*
X165283046Y-98128400D01*
X165853596Y-98699947D01*
X166599437Y-99009647D01*
X167407020Y-99010352D01*
X168150000Y-98703359D01*
X168150000Y-98716100D01*
X168207852Y-99006939D01*
X168372599Y-99253501D01*
X171395941Y-102276843D01*
X171240381Y-102651472D01*
X171239619Y-103524697D01*
X171573084Y-104331743D01*
X172190009Y-104949746D01*
X172996472Y-105284619D01*
X173869697Y-105285381D01*
X174676743Y-104951916D01*
X175294746Y-104334991D01*
X175629619Y-103528528D01*
X175630381Y-102655303D01*
X175296916Y-101848257D01*
X174679991Y-101230254D01*
X173873528Y-100895381D01*
X173000303Y-100894619D01*
X172408040Y-101139338D01*
X172073702Y-100805000D01*
X175609250Y-100805000D01*
X175768000Y-100646250D01*
X175768000Y-96797000D01*
X176022000Y-96797000D01*
X176022000Y-100646250D01*
X176180750Y-100805000D01*
X180095198Y-100805000D01*
X179804924Y-101095274D01*
X179323528Y-100895381D01*
X178450303Y-100894619D01*
X177643257Y-101228084D01*
X177025254Y-101845009D01*
X176690381Y-102651472D01*
X176689619Y-103524697D01*
X177023084Y-104331743D01*
X177640009Y-104949746D01*
X178446472Y-105284619D01*
X179319697Y-105285381D01*
X180126743Y-104951916D01*
X180744746Y-104334991D01*
X181079619Y-103528528D01*
X181080381Y-102655303D01*
X180879841Y-102169961D01*
X183417401Y-99632401D01*
X183582148Y-99385840D01*
X183640000Y-99095000D01*
X183640000Y-98175436D01*
X184163596Y-98699947D01*
X184909437Y-99009647D01*
X185717020Y-99010352D01*
X186463400Y-98701954D01*
X187034947Y-98131404D01*
X187344647Y-97385563D01*
X187345352Y-96577980D01*
X187036954Y-95831600D01*
X186466404Y-95260053D01*
X185720563Y-94950353D01*
X184912980Y-94949648D01*
X184166600Y-95258046D01*
X183640000Y-95783727D01*
X183640000Y-89468667D01*
X183922811Y-89279698D01*
X184233880Y-88814151D01*
X184343113Y-88265000D01*
X184299994Y-88048223D01*
X191593035Y-88048223D01*
X191620222Y-88618454D01*
X191786136Y-89019005D01*
X192032255Y-89093139D01*
X192860395Y-88265000D01*
X192032255Y-87436861D01*
X191786136Y-87510995D01*
X191593035Y-88048223D01*
X184299994Y-88048223D01*
X184233880Y-87715849D01*
X183922811Y-87250302D01*
X183457264Y-86939233D01*
X182908113Y-86830000D01*
X182851887Y-86830000D01*
X182302736Y-86939233D01*
X181837189Y-87250302D01*
X181526120Y-87715849D01*
X181416887Y-88265000D01*
X181526120Y-88814151D01*
X181837189Y-89279698D01*
X182120000Y-89468667D01*
X182120000Y-98780198D01*
X181530000Y-99370198D01*
X181530000Y-96955750D01*
X181371250Y-96797000D01*
X176022000Y-96797000D01*
X175768000Y-96797000D01*
X170418750Y-96797000D01*
X170260000Y-96955750D01*
X170260000Y-98991298D01*
X169670000Y-98401298D01*
X169670000Y-93043690D01*
X170260000Y-93043690D01*
X170260000Y-96384250D01*
X170418750Y-96543000D01*
X175768000Y-96543000D01*
X175768000Y-92693750D01*
X176022000Y-92693750D01*
X176022000Y-96543000D01*
X181371250Y-96543000D01*
X181530000Y-96384250D01*
X181530000Y-93043690D01*
X181433327Y-92810301D01*
X181254698Y-92631673D01*
X181021309Y-92535000D01*
X176180750Y-92535000D01*
X176022000Y-92693750D01*
X175768000Y-92693750D01*
X175609250Y-92535000D01*
X170768691Y-92535000D01*
X170535302Y-92631673D01*
X170356673Y-92810301D01*
X170260000Y-93043690D01*
X169670000Y-93043690D01*
X169670000Y-89503646D01*
X169721800Y-89482243D01*
X170125824Y-89078923D01*
X170344750Y-88551691D01*
X170345248Y-87980813D01*
X170311733Y-87899700D01*
X173584100Y-87899700D01*
X173874939Y-87841848D01*
X174121501Y-87677101D01*
X177010857Y-84787745D01*
X184591861Y-84787745D01*
X184665995Y-85033864D01*
X185203223Y-85226965D01*
X185773454Y-85199778D01*
X186174005Y-85033864D01*
X186248139Y-84787745D01*
X185420000Y-83959605D01*
X184591861Y-84787745D01*
X177010857Y-84787745D01*
X178235379Y-83563223D01*
X183973035Y-83563223D01*
X184000222Y-84133454D01*
X184166136Y-84534005D01*
X184412255Y-84608139D01*
X185240395Y-83780000D01*
X185599605Y-83780000D01*
X186427745Y-84608139D01*
X186673864Y-84534005D01*
X186866965Y-83996777D01*
X186839778Y-83426546D01*
X186673864Y-83025995D01*
X186427745Y-82951861D01*
X185599605Y-83780000D01*
X185240395Y-83780000D01*
X184412255Y-82951861D01*
X184166136Y-83025995D01*
X183973035Y-83563223D01*
X178235379Y-83563223D01*
X181318602Y-80480000D01*
X183972560Y-80480000D01*
X183972560Y-82080000D01*
X184016838Y-82315317D01*
X184155910Y-82531441D01*
X184368110Y-82676431D01*
X184606201Y-82724646D01*
X184591861Y-82772255D01*
X185420000Y-83600395D01*
X186248139Y-82772255D01*
X186233855Y-82724833D01*
X186455317Y-82683162D01*
X186671441Y-82544090D01*
X186816431Y-82331890D01*
X186867440Y-82080000D01*
X186867440Y-80480000D01*
X186823162Y-80244683D01*
X186684090Y-80028559D01*
X186471890Y-79883569D01*
X186220000Y-79832560D01*
X184620000Y-79832560D01*
X184384683Y-79876838D01*
X184168559Y-80015910D01*
X184023569Y-80228110D01*
X183972560Y-80480000D01*
X181318602Y-80480000D01*
X185863602Y-75935000D01*
X188317560Y-75935000D01*
X188317560Y-77735000D01*
X188361838Y-77970317D01*
X188500910Y-78186441D01*
X188713110Y-78331431D01*
X188965000Y-78382440D01*
X190765000Y-78382440D01*
X191000317Y-78338162D01*
X191216441Y-78199090D01*
X191361431Y-77986890D01*
X191412440Y-77735000D01*
X191412440Y-75935000D01*
X191368162Y-75699683D01*
X191281496Y-75565000D01*
X192744928Y-75565000D01*
X192861773Y-76152419D01*
X193194519Y-76650409D01*
X193692509Y-76983155D01*
X194279928Y-77100000D01*
X194340072Y-77100000D01*
X194927491Y-76983155D01*
X195425481Y-76650409D01*
X195758227Y-76152419D01*
X195875072Y-75565000D01*
X195758227Y-74977581D01*
X195425481Y-74479591D01*
X194927491Y-74146845D01*
X194340072Y-74030000D01*
X194279928Y-74030000D01*
X193692509Y-74146845D01*
X193194519Y-74479591D01*
X192861773Y-74977581D01*
X192744928Y-75565000D01*
X191281496Y-75565000D01*
X191229090Y-75483559D01*
X191016890Y-75338569D01*
X190765000Y-75287560D01*
X188965000Y-75287560D01*
X188729683Y-75331838D01*
X188513559Y-75470910D01*
X188368569Y-75683110D01*
X188317560Y-75935000D01*
X185863602Y-75935000D01*
X188347814Y-73450788D01*
X188361838Y-73525317D01*
X188500910Y-73741441D01*
X188713110Y-73886431D01*
X188965000Y-73937440D01*
X190765000Y-73937440D01*
X191000317Y-73893162D01*
X191216441Y-73754090D01*
X191361431Y-73541890D01*
X191412440Y-73290000D01*
X191412440Y-71490000D01*
X191368162Y-71254683D01*
X191281496Y-71120000D01*
X192744928Y-71120000D01*
X192861773Y-71707419D01*
X193194519Y-72205409D01*
X193692509Y-72538155D01*
X194279928Y-72655000D01*
X194340072Y-72655000D01*
X194927491Y-72538155D01*
X195425481Y-72205409D01*
X195758227Y-71707419D01*
X195875072Y-71120000D01*
X195758227Y-70532581D01*
X195549368Y-70220000D01*
X202922560Y-70220000D01*
X202922560Y-72020000D01*
X202966838Y-72255317D01*
X203105910Y-72471441D01*
X203318110Y-72616431D01*
X203570000Y-72667440D01*
X205370000Y-72667440D01*
X205605317Y-72623162D01*
X205821441Y-72484090D01*
X205966431Y-72271890D01*
X206017440Y-72020000D01*
X206017440Y-70220000D01*
X205973162Y-69984683D01*
X205834090Y-69768559D01*
X205621890Y-69623569D01*
X205370000Y-69572560D01*
X203570000Y-69572560D01*
X203334683Y-69616838D01*
X203118559Y-69755910D01*
X202973569Y-69968110D01*
X202922560Y-70220000D01*
X195549368Y-70220000D01*
X195425481Y-70034591D01*
X194927491Y-69701845D01*
X194340072Y-69585000D01*
X194279928Y-69585000D01*
X193692509Y-69701845D01*
X193194519Y-70034591D01*
X192861773Y-70532581D01*
X192744928Y-71120000D01*
X191281496Y-71120000D01*
X191229090Y-71038559D01*
X191016890Y-70893569D01*
X190765000Y-70842560D01*
X190227142Y-70842560D01*
X190524121Y-70545581D01*
X190762501Y-70386301D01*
X192306001Y-68842801D01*
X192470748Y-68596239D01*
X192528600Y-68305400D01*
X192528600Y-67789202D01*
X192939322Y-67378480D01*
X193194519Y-67760409D01*
X193692509Y-68093155D01*
X194279928Y-68210000D01*
X194340072Y-68210000D01*
X194927491Y-68093155D01*
X195425481Y-67760409D01*
X195758227Y-67262419D01*
X195875072Y-66675000D01*
X195758227Y-66087581D01*
X195549368Y-65775000D01*
X202922560Y-65775000D01*
X202922560Y-67575000D01*
X202966838Y-67810317D01*
X203105910Y-68026441D01*
X203318110Y-68171431D01*
X203570000Y-68222440D01*
X205370000Y-68222440D01*
X205605317Y-68178162D01*
X205821441Y-68039090D01*
X205847074Y-68001576D01*
X207919313Y-70073815D01*
X207872189Y-70105302D01*
X207561120Y-70570849D01*
X207451887Y-71120000D01*
X207561120Y-71669151D01*
X207872189Y-72134698D01*
X208231449Y-72374749D01*
X206005366Y-74600832D01*
X205973162Y-74429683D01*
X205834090Y-74213559D01*
X205621890Y-74068569D01*
X205370000Y-74017560D01*
X203570000Y-74017560D01*
X203334683Y-74061838D01*
X203118559Y-74200910D01*
X202973569Y-74413110D01*
X202922560Y-74665000D01*
X202922560Y-76465000D01*
X202966838Y-76700317D01*
X203105910Y-76916441D01*
X203318110Y-77061431D01*
X203570000Y-77112440D01*
X205370000Y-77112440D01*
X205605317Y-77068162D01*
X205821441Y-76929090D01*
X205966431Y-76716890D01*
X206017440Y-76465000D01*
X206017440Y-76325000D01*
X206116000Y-76325000D01*
X206406839Y-76267148D01*
X206653401Y-76102401D01*
X207482208Y-75273594D01*
X207480250Y-75278309D01*
X207479752Y-75849187D01*
X207697757Y-76376800D01*
X208101077Y-76780824D01*
X208628309Y-76999750D01*
X209199187Y-77000248D01*
X209726800Y-76782243D01*
X210130824Y-76378923D01*
X210349750Y-75851691D01*
X210350000Y-75565000D01*
X217611887Y-75565000D01*
X217721120Y-76114151D01*
X218032189Y-76579698D01*
X218497736Y-76890767D01*
X219046887Y-77000000D01*
X219103113Y-77000000D01*
X219652264Y-76890767D01*
X220117811Y-76579698D01*
X220428880Y-76114151D01*
X220538113Y-75565000D01*
X220428880Y-75015849D01*
X220117811Y-74550302D01*
X219652264Y-74239233D01*
X219103113Y-74130000D01*
X219046887Y-74130000D01*
X218497736Y-74239233D01*
X218032189Y-74550302D01*
X217721120Y-75015849D01*
X217611887Y-75565000D01*
X210350000Y-75565000D01*
X210350248Y-75280813D01*
X210132243Y-74753200D01*
X209728923Y-74349176D01*
X209201691Y-74130250D01*
X208630813Y-74129752D01*
X208622696Y-74133106D01*
X211103401Y-71652401D01*
X211268148Y-71405840D01*
X211326000Y-71115000D01*
X211326000Y-67760995D01*
X211580698Y-67590811D01*
X211891767Y-67125264D01*
X212001000Y-66576113D01*
X212001000Y-66519887D01*
X211891767Y-65970736D01*
X211580698Y-65505189D01*
X211115151Y-65194120D01*
X210566000Y-65084887D01*
X210016849Y-65194120D01*
X209551302Y-65505189D01*
X209240233Y-65970736D01*
X209131000Y-66519887D01*
X209131000Y-66576113D01*
X209240233Y-67125264D01*
X209551302Y-67590811D01*
X209806000Y-67760995D01*
X209806000Y-70003865D01*
X209657022Y-69904321D01*
X209617148Y-69703861D01*
X209617148Y-69703860D01*
X209452401Y-69457299D01*
X206401963Y-66406861D01*
X206397448Y-66384161D01*
X206232701Y-66137599D01*
X206017440Y-65993767D01*
X206017440Y-65775000D01*
X205973162Y-65539683D01*
X205834090Y-65323559D01*
X205621890Y-65178569D01*
X205370000Y-65127560D01*
X203570000Y-65127560D01*
X203334683Y-65171838D01*
X203118559Y-65310910D01*
X202973569Y-65523110D01*
X202922560Y-65775000D01*
X195549368Y-65775000D01*
X195425481Y-65589591D01*
X195007498Y-65310304D01*
X202083168Y-58234635D01*
X202340997Y-58492914D01*
X202923341Y-58734724D01*
X203553893Y-58735275D01*
X204136657Y-58494481D01*
X204229572Y-58401728D01*
X204325910Y-58551441D01*
X204538110Y-58696431D01*
X204790000Y-58747440D01*
X206690000Y-58747440D01*
X206925317Y-58703162D01*
X207141441Y-58564090D01*
X207227961Y-58437463D01*
X213958442Y-65167944D01*
X213826849Y-65194120D01*
X213361302Y-65505189D01*
X213050233Y-65970736D01*
X212941000Y-66519887D01*
X212941000Y-66576113D01*
X213050233Y-67125264D01*
X213361302Y-67590811D01*
X213826849Y-67901880D01*
X214376000Y-68011113D01*
X214925151Y-67901880D01*
X215390698Y-67590811D01*
X215701767Y-67125264D01*
X215737271Y-66946773D01*
X218315000Y-69524502D01*
X218315000Y-69881354D01*
X218263200Y-69902757D01*
X217859176Y-70306077D01*
X217640250Y-70833309D01*
X217639752Y-71404187D01*
X217857757Y-71931800D01*
X218261077Y-72335824D01*
X218788309Y-72554750D01*
X219359187Y-72555248D01*
X219886800Y-72337243D01*
X220290824Y-71933923D01*
X220509750Y-71406691D01*
X220510248Y-70835813D01*
X220292243Y-70308200D01*
X219888923Y-69904176D01*
X219835000Y-69881785D01*
X219835000Y-69209700D01*
X219822479Y-69146752D01*
X219777148Y-68918860D01*
X219612401Y-68672299D01*
X207612289Y-56672187D01*
X209130752Y-56672187D01*
X209348757Y-57199800D01*
X209752077Y-57603824D01*
X210279309Y-57822750D01*
X210850187Y-57823248D01*
X211377800Y-57605243D01*
X211781824Y-57201923D01*
X212000750Y-56674691D01*
X212000752Y-56672187D01*
X212940752Y-56672187D01*
X213158757Y-57199800D01*
X213562077Y-57603824D01*
X214089309Y-57822750D01*
X214660187Y-57823248D01*
X215187800Y-57605243D01*
X215591824Y-57201923D01*
X215692551Y-56959344D01*
X219110501Y-56959344D01*
X219548790Y-58020086D01*
X220359645Y-58832357D01*
X221419620Y-59272498D01*
X222567344Y-59273499D01*
X223628086Y-58835210D01*
X224440357Y-58024355D01*
X224880498Y-56964380D01*
X224881499Y-55816656D01*
X224443210Y-54755914D01*
X223632355Y-53943643D01*
X222572380Y-53503502D01*
X221424656Y-53502501D01*
X220363914Y-53940790D01*
X219551643Y-54751645D01*
X219111502Y-55811620D01*
X219110501Y-56959344D01*
X215692551Y-56959344D01*
X215810750Y-56674691D01*
X215811248Y-56103813D01*
X215593243Y-55576200D01*
X215189923Y-55172176D01*
X214662691Y-54953250D01*
X214091813Y-54952752D01*
X213564200Y-55170757D01*
X213160176Y-55574077D01*
X212941250Y-56101309D01*
X212940752Y-56672187D01*
X212000752Y-56672187D01*
X212001248Y-56103813D01*
X211783243Y-55576200D01*
X211379923Y-55172176D01*
X210852691Y-54953250D01*
X210281813Y-54952752D01*
X209754200Y-55170757D01*
X209350176Y-55574077D01*
X209131250Y-56101309D01*
X209130752Y-56672187D01*
X207612289Y-56672187D01*
X207552701Y-56612599D01*
X207337440Y-56468767D01*
X207337440Y-56200000D01*
X207293162Y-55964683D01*
X207154090Y-55748559D01*
X206941890Y-55603569D01*
X206690000Y-55552560D01*
X205774000Y-55552560D01*
X205580005Y-55083057D01*
X205218845Y-54721265D01*
X204746724Y-54525223D01*
X204235519Y-54524777D01*
X203763057Y-54719995D01*
X203401265Y-55081155D01*
X203205223Y-55553276D01*
X203205213Y-55564969D01*
X202926107Y-55564725D01*
X202343343Y-55805519D01*
X201897086Y-56250997D01*
X201816532Y-56444993D01*
X201802161Y-56447852D01*
X201555599Y-56612598D01*
X191364385Y-66803813D01*
X191229090Y-66593559D01*
X191016890Y-66448569D01*
X190765000Y-66397560D01*
X188965000Y-66397560D01*
X188729683Y-66441838D01*
X188513559Y-66580910D01*
X188368569Y-66793110D01*
X188317560Y-67045000D01*
X188317560Y-68845000D01*
X188361838Y-69080317D01*
X188500910Y-69296441D01*
X188713110Y-69441431D01*
X188965000Y-69492440D01*
X189427658Y-69492440D01*
X188102299Y-70817799D01*
X187937552Y-71064361D01*
X187879700Y-71355200D01*
X187879700Y-71769298D01*
X179982440Y-79666558D01*
X179982440Y-79110000D01*
X179938162Y-78874683D01*
X179799090Y-78658559D01*
X179586890Y-78513569D01*
X179335000Y-78462560D01*
X179195000Y-78462560D01*
X179195000Y-78274536D01*
X179674928Y-78370000D01*
X179735072Y-78370000D01*
X180322491Y-78253155D01*
X180820481Y-77920409D01*
X181153227Y-77422419D01*
X181270072Y-76835000D01*
X181153227Y-76247581D01*
X180820481Y-75749591D01*
X180322491Y-75416845D01*
X179735072Y-75300000D01*
X179674928Y-75300000D01*
X179195000Y-75395464D01*
X179195000Y-73829536D01*
X179674928Y-73925000D01*
X179735072Y-73925000D01*
X180322491Y-73808155D01*
X180820481Y-73475409D01*
X181153227Y-72977419D01*
X181270072Y-72390000D01*
X181153227Y-71802581D01*
X180820481Y-71304591D01*
X180322491Y-70971845D01*
X179735072Y-70855000D01*
X179674928Y-70855000D01*
X179195000Y-70950464D01*
X179195000Y-70209500D01*
X179137148Y-69918661D01*
X178972401Y-69672099D01*
X177245302Y-67945000D01*
X178139928Y-67945000D01*
X178256773Y-68532419D01*
X178589519Y-69030409D01*
X179087509Y-69363155D01*
X179674928Y-69480000D01*
X179735072Y-69480000D01*
X180322491Y-69363155D01*
X180820481Y-69030409D01*
X181153227Y-68532419D01*
X181270072Y-67945000D01*
X181153227Y-67357581D01*
X180820481Y-66859591D01*
X180322491Y-66526845D01*
X179735072Y-66410000D01*
X179674928Y-66410000D01*
X179087509Y-66526845D01*
X178589519Y-66859591D01*
X178256773Y-67357581D01*
X178139928Y-67945000D01*
X177245302Y-67945000D01*
X171370735Y-62070433D01*
X171370879Y-61905229D01*
X171213642Y-61524685D01*
X170922746Y-61233281D01*
X170542477Y-61075380D01*
X170130729Y-61075021D01*
X170009400Y-61125153D01*
X170009400Y-60120418D01*
X170185519Y-60546657D01*
X170630997Y-60992914D01*
X171213341Y-61234724D01*
X171843893Y-61235275D01*
X172426657Y-60994481D01*
X172780226Y-60641529D01*
X173130997Y-60992914D01*
X173713341Y-61234724D01*
X174343893Y-61235275D01*
X174482996Y-61177798D01*
X174778199Y-61473001D01*
X175024761Y-61637748D01*
X175315600Y-61695600D01*
X184174400Y-61695600D01*
X184465239Y-61637748D01*
X184711801Y-61473001D01*
X187437362Y-58747440D01*
X188910000Y-58747440D01*
X189145317Y-58703162D01*
X189361441Y-58564090D01*
X189506431Y-58351890D01*
X189557440Y-58100000D01*
X189557440Y-56897398D01*
X192753812Y-56897398D01*
X192778648Y-57527461D01*
X192971981Y-57994208D01*
X193233650Y-58086745D01*
X194170395Y-57150000D01*
X193233650Y-56213255D01*
X192971981Y-56305792D01*
X192753812Y-56897398D01*
X189557440Y-56897398D01*
X189557440Y-56200000D01*
X189526140Y-56033650D01*
X193413255Y-56033650D01*
X194350000Y-56970395D01*
X194364143Y-56956253D01*
X194543748Y-57135858D01*
X194529605Y-57150000D01*
X194543748Y-57164143D01*
X194364143Y-57343748D01*
X194350000Y-57329605D01*
X193413255Y-58266350D01*
X193505792Y-58528019D01*
X194097398Y-58746188D01*
X194727461Y-58721352D01*
X195194208Y-58528019D01*
X195284863Y-58271673D01*
X195296838Y-58335317D01*
X195435910Y-58551441D01*
X195648110Y-58696431D01*
X195900000Y-58747440D01*
X197800000Y-58747440D01*
X198035317Y-58703162D01*
X198251441Y-58564090D01*
X198396431Y-58351890D01*
X198447440Y-58100000D01*
X198447440Y-56200000D01*
X198403162Y-55964683D01*
X198264090Y-55748559D01*
X198051890Y-55603569D01*
X197800000Y-55552560D01*
X196884000Y-55552560D01*
X196690005Y-55083057D01*
X196328845Y-54721265D01*
X195856724Y-54525223D01*
X195345519Y-54524777D01*
X194873057Y-54719995D01*
X194511265Y-55081155D01*
X194315223Y-55553276D01*
X194315213Y-55565140D01*
X193972539Y-55578648D01*
X193505792Y-55771981D01*
X193413255Y-56033650D01*
X189526140Y-56033650D01*
X189513162Y-55964683D01*
X189374090Y-55748559D01*
X189161890Y-55603569D01*
X188910000Y-55552560D01*
X187994000Y-55552560D01*
X187800005Y-55083057D01*
X187438845Y-54721265D01*
X186966724Y-54525223D01*
X186455519Y-54524777D01*
X185983057Y-54719995D01*
X185621265Y-55081155D01*
X185425223Y-55553276D01*
X185425213Y-55564969D01*
X185146107Y-55564725D01*
X185007004Y-55622202D01*
X183638701Y-54253899D01*
X183392139Y-54089152D01*
X183101300Y-54031300D01*
X172028900Y-54031300D01*
X171738061Y-54089152D01*
X171491499Y-54253899D01*
X169638999Y-56106399D01*
X169474252Y-56352961D01*
X169416400Y-56643800D01*
X169416400Y-57345998D01*
X166358801Y-54288399D01*
X166112239Y-54123652D01*
X165821400Y-54065800D01*
X153182500Y-54065800D01*
X152891661Y-54123652D01*
X152645099Y-54288399D01*
X152408909Y-54524589D01*
X152394090Y-54501559D01*
X152181890Y-54356569D01*
X151930000Y-54305560D01*
X150330000Y-54305560D01*
X150094683Y-54349838D01*
X149878559Y-54488910D01*
X149733569Y-54701110D01*
X149682560Y-54953000D01*
X149682560Y-56118400D01*
X147871202Y-56118400D01*
X145939256Y-54186454D01*
X145960750Y-54134691D01*
X145961248Y-53563813D01*
X145743243Y-53036200D01*
X145339923Y-52632176D01*
X144812691Y-52413250D01*
X144241813Y-52412752D01*
X143714200Y-52630757D01*
X143310176Y-53034077D01*
X143091250Y-53561309D01*
X143090752Y-54132187D01*
X141097000Y-54132187D01*
X141097000Y-52197000D01*
X226391000Y-52197000D01*
X226391000Y-77343000D01*
G36*
X182805074Y-55569876D02*
X182582539Y-55578648D01*
X182115792Y-55771981D01*
X182023255Y-56033650D01*
X182960000Y-56970395D01*
X182974143Y-56956253D01*
X183153748Y-57135858D01*
X183139605Y-57150000D01*
X184076350Y-58086745D01*
X184134876Y-58066048D01*
X184560997Y-58492914D01*
X185143341Y-58734724D01*
X185300337Y-58734861D01*
X183859598Y-60175600D01*
X178027964Y-60175600D01*
X178114724Y-59966659D01*
X178115275Y-59336107D01*
X177874481Y-58753343D01*
X177781728Y-58660428D01*
X177931441Y-58564090D01*
X178076431Y-58351890D01*
X178093753Y-58266350D01*
X182023255Y-58266350D01*
X182115792Y-58528019D01*
X182707398Y-58746188D01*
X183337461Y-58721352D01*
X183804208Y-58528019D01*
X183896745Y-58266350D01*
X182960000Y-57329605D01*
X182023255Y-58266350D01*
X178093753Y-58266350D01*
X178127440Y-58100000D01*
X178127440Y-56897398D01*
X181363812Y-56897398D01*
X181388648Y-57527461D01*
X181581981Y-57994208D01*
X181843650Y-58086745D01*
X182780395Y-57150000D01*
X181843650Y-56213255D01*
X181581981Y-56305792D01*
X181363812Y-56897398D01*
X178127440Y-56897398D01*
X178127440Y-56200000D01*
X178083162Y-55964683D01*
X177944090Y-55748559D01*
X177731890Y-55603569D01*
X177480000Y-55552560D01*
X176564000Y-55552560D01*
X176563480Y-55551300D01*
X182786498Y-55551300D01*
X182805074Y-55569876D01*
X182805074Y-55569876D01*
G37*
X182805074Y-55569876D02*
X182582539Y-55578648D01*
X182115792Y-55771981D01*
X182023255Y-56033650D01*
X182960000Y-56970395D01*
X182974143Y-56956253D01*
X183153748Y-57135858D01*
X183139605Y-57150000D01*
X184076350Y-58086745D01*
X184134876Y-58066048D01*
X184560997Y-58492914D01*
X185143341Y-58734724D01*
X185300337Y-58734861D01*
X183859598Y-60175600D01*
X178027964Y-60175600D01*
X178114724Y-59966659D01*
X178115275Y-59336107D01*
X177874481Y-58753343D01*
X177781728Y-58660428D01*
X177931441Y-58564090D01*
X178076431Y-58351890D01*
X178093753Y-58266350D01*
X182023255Y-58266350D01*
X182115792Y-58528019D01*
X182707398Y-58746188D01*
X183337461Y-58721352D01*
X183804208Y-58528019D01*
X183896745Y-58266350D01*
X182960000Y-57329605D01*
X182023255Y-58266350D01*
X178093753Y-58266350D01*
X178127440Y-58100000D01*
X178127440Y-56897398D01*
X181363812Y-56897398D01*
X181388648Y-57527461D01*
X181581981Y-57994208D01*
X181843650Y-58086745D01*
X182780395Y-57150000D01*
X181843650Y-56213255D01*
X181581981Y-56305792D01*
X181363812Y-56897398D01*
X178127440Y-56897398D01*
X178127440Y-56200000D01*
X178083162Y-55964683D01*
X177944090Y-55748559D01*
X177731890Y-55603569D01*
X177480000Y-55552560D01*
X176564000Y-55552560D01*
X176563480Y-55551300D01*
X182786498Y-55551300D01*
X182805074Y-55569876D01*
M02*
