M48
INCH,TZ
T1C0.016
T2C0.039
T3C0.041
T4C0.047
T5C0.169
T6C0.354
%
G90
G05
T1
X2.8051Y-1.437
X4.4783Y-1.437
X5.3642Y-1.7028
X5.4626Y-1.437
X8.1201Y-1.6831
X8.2185Y-1.437
X10.876Y-1.6634
X10.9744Y-1.437
X13.6319Y-1.6437
X13.7303Y-1.437
X16.3878Y-1.624
X16.4862Y-1.437
X17.5689Y-1.7224
X17.6673Y-1.7028
X17.7657Y-1.6831
X17.8642Y-1.6634
X17.9626Y-1.6437
X18.061Y-1.624
X18.1594Y-1.6043
X18.2579Y-1.437
T2
X3.6909Y-1.5354
X3.7894Y-1.5354
X3.8878Y-1.5354
X3.9862Y-1.5354
X4.0846Y-1.5354
X4.1831Y-1.5354
X4.2815Y-1.5354
X4.3799Y-1.5354
X4.4783Y-1.5354
X17.4705Y-1.5354
X17.5689Y-1.5354
X17.6673Y-1.5354
X17.7657Y-1.5354
X17.8642Y-1.5354
X17.9626Y-1.5354
X18.061Y-1.5354
X18.1594Y-1.5354
X18.2579Y-1.5354
T3
X2.6083Y-1.5354
X2.7067Y-1.5354
X5.3642Y-1.5354
X5.4626Y-1.5354
X8.1201Y-1.5354
X8.2185Y-1.5354
X10.876Y-1.5354
X10.9744Y-1.5354
X13.6319Y-1.5354
X13.7303Y-1.5354
X16.3878Y-1.5354
X16.4862Y-1.5354
X19.1437Y-1.5354
X19.2421Y-1.5354
T4
X2.62Y-1.7983
X2.62Y-1.9233
X2.62Y-2.3483
X2.62Y-2.4733
X2.94Y-1.7983
X2.94Y-1.9233
X2.94Y-2.3483
X2.94Y-2.4733
X5.3759Y-1.7983
X5.3759Y-1.9233
X5.3759Y-2.3483
X5.3759Y-2.4733
X8.1318Y-1.7983
X8.1318Y-1.9233
X8.1318Y-2.3483
X8.1318Y-2.4733
X10.8877Y-1.7983
X10.8877Y-1.9233
X10.8877Y-2.3483
X10.8877Y-2.4733
X13.6436Y-1.7983
X13.6436Y-1.9233
X13.6436Y-2.3483
X13.6436Y-2.4733
X16.3995Y-1.7983
X16.3995Y-1.9233
X16.3995Y-2.3483
X16.3995Y-2.4733
X19.1554Y-1.7983
X19.1554Y-1.9233
X19.1554Y-2.3483
X19.1554Y-2.4733
T5
X2.4213Y-2.1358
X19.4291Y-2.1358
T6
X1.9882Y-2.1358
X3.3268Y-2.1358
X4.7441Y-2.1358
X6.0827Y-2.1358
X7.5Y-2.1358
X8.8386Y-2.1358
X10.2559Y-2.1358
X11.5945Y-2.1358
X13.0118Y-2.1358
X14.3504Y-2.1358
X15.7677Y-2.1358
X17.1063Y-2.1358
X18.5236Y-2.1358
X19.8622Y-2.1358
T0
M30
